%TF.GenerationSoftware,KiCad,Pcbnew,10.0.1*%
%TF.CreationDate,2026-06-13T07:31:56-07:00*%
%TF.ProjectId,Jeep_Embedded_KeyFob,4a656570-5f45-46d6-9265-646465645f4b,rev?*%
%TF.SameCoordinates,Original*%
%TF.FileFunction,Copper,L2,Bot*%
%TF.FilePolarity,Positive*%
%FSLAX46Y46*%
G04 Gerber Fmt 4.6, Leading zero omitted, Abs format (unit mm)*
G04 Created by KiCad (PCBNEW 10.0.1) date 2026-06-13 07:31:56*
%MOMM*%
%LPD*%
G01*
G04 APERTURE LIST*
G04 Aperture macros list*
%AMRoundRect*
0 Rectangle with rounded corners*
0 $1 Rounding radius*
0 $2 $3 $4 $5 $6 $7 $8 $9 X,Y pos of 4 corners*
0 Add a 4 corners polygon primitive as box body*
4,1,4,$2,$3,$4,$5,$6,$7,$8,$9,$2,$3,0*
0 Add four circle primitives for the rounded corners*
1,1,$1+$1,$2,$3*
1,1,$1+$1,$4,$5*
1,1,$1+$1,$6,$7*
1,1,$1+$1,$8,$9*
0 Add four rect primitives between the rounded corners*
20,1,$1+$1,$2,$3,$4,$5,0*
20,1,$1+$1,$4,$5,$6,$7,0*
20,1,$1+$1,$6,$7,$8,$9,0*
20,1,$1+$1,$8,$9,$2,$3,0*%
G04 Aperture macros list end*
%TA.AperFunction,ComponentPad*%
%ADD10RoundRect,0.250000X0.625000X-0.350000X0.625000X0.350000X-0.625000X0.350000X-0.625000X-0.350000X0*%
%TD*%
%TA.AperFunction,ComponentPad*%
%ADD11O,1.750000X1.200000*%
%TD*%
%TA.AperFunction,ComponentPad*%
%ADD12O,1.000000X2.100000*%
%TD*%
%TA.AperFunction,ComponentPad*%
%ADD13O,1.000000X1.600000*%
%TD*%
%TA.AperFunction,ViaPad*%
%ADD14C,0.600000*%
%TD*%
G04 APERTURE END LIST*
D10*
%TO.P,J2,1,Pin_1_1*%
%TO.N,Net-(J2-Pin_1)*%
X91450000Y-108500000D03*
D11*
%TO.P,J2,2,Pin_2_2*%
%TO.N,GND*%
X91450000Y-106500000D03*
%TD*%
D12*
%TO.P,J1,SH,SHIELD_SH*%
%TO.N,GND*%
X76930000Y-123415000D03*
D13*
X76930000Y-127595000D03*
D12*
X85570000Y-123415000D03*
D13*
X85570000Y-127595000D03*
%TD*%
D14*
%TO.N,GND*%
X88000000Y-115637500D03*
X74650000Y-87600000D03*
X84500000Y-122500000D03*
X88432500Y-120500000D03*
X78000000Y-122500000D03*
X68750000Y-97520000D03*
X68750000Y-117980000D03*
X68750000Y-105480000D03*
X87635000Y-93550000D03*
X88500000Y-119067500D03*
X86000000Y-110432500D03*
X68350000Y-87600000D03*
X79000000Y-91932500D03*
X75932500Y-95000000D03*
X87500000Y-110500000D03*
X81250000Y-97050000D03*
X68750000Y-110020000D03*
X86637500Y-119000000D03*
X81402500Y-118000000D03*
X88932500Y-100550000D03*
X79000000Y-115402500D03*
X82932500Y-113350000D03*
X72427500Y-93500000D03*
X75932500Y-96000000D03*
X77500000Y-107400000D03*
X81402500Y-119500000D03*
X76932500Y-102000000D03*
X89300000Y-95600000D03*
X83800000Y-107400000D03*
X77432500Y-120500000D03*
X87000000Y-98500000D03*
X82932500Y-112000000D03*
X82932500Y-115000000D03*
X82922500Y-110500000D03*
X84500000Y-88432500D03*
%TD*%
%TA.AperFunction,Conductor*%
%TO.N,GND*%
G36*
X77847285Y-81320185D02*
G01*
X77893040Y-81372989D01*
X77904246Y-81424500D01*
X77904246Y-87500000D01*
X90904246Y-87500000D01*
X90904246Y-83893713D01*
X92149500Y-83893713D01*
X92149500Y-84106286D01*
X92182753Y-84316239D01*
X92248444Y-84518414D01*
X92344951Y-84707820D01*
X92469890Y-84879786D01*
X92620213Y-85030109D01*
X92792179Y-85155048D01*
X92792181Y-85155049D01*
X92792184Y-85155051D01*
X92981588Y-85251557D01*
X93183757Y-85317246D01*
X93393713Y-85350500D01*
X93393714Y-85350500D01*
X93606286Y-85350500D01*
X93606287Y-85350500D01*
X93816243Y-85317246D01*
X94018412Y-85251557D01*
X94207816Y-85155051D01*
X94229789Y-85139086D01*
X94379786Y-85030109D01*
X94379788Y-85030106D01*
X94379792Y-85030104D01*
X94530104Y-84879792D01*
X94530106Y-84879788D01*
X94530109Y-84879786D01*
X94655048Y-84707820D01*
X94655047Y-84707820D01*
X94655051Y-84707816D01*
X94751557Y-84518412D01*
X94817246Y-84316243D01*
X94850500Y-84106287D01*
X94850500Y-83893713D01*
X94817246Y-83683757D01*
X94751557Y-83481588D01*
X94655051Y-83292184D01*
X94655049Y-83292181D01*
X94655048Y-83292179D01*
X94530109Y-83120213D01*
X94379786Y-82969890D01*
X94207820Y-82844951D01*
X94018414Y-82748444D01*
X94018413Y-82748443D01*
X94018412Y-82748443D01*
X93816243Y-82682754D01*
X93816241Y-82682753D01*
X93816240Y-82682753D01*
X93654957Y-82657208D01*
X93606287Y-82649500D01*
X93393713Y-82649500D01*
X93345042Y-82657208D01*
X93183760Y-82682753D01*
X92981585Y-82748444D01*
X92792179Y-82844951D01*
X92620213Y-82969890D01*
X92469890Y-83120213D01*
X92344951Y-83292179D01*
X92248444Y-83481585D01*
X92182753Y-83683760D01*
X92149500Y-83893713D01*
X90904246Y-83893713D01*
X90904246Y-81424500D01*
X90923931Y-81357461D01*
X90976735Y-81311706D01*
X91028246Y-81300500D01*
X93952405Y-81300500D01*
X93996249Y-81300500D01*
X94003736Y-81300726D01*
X94257638Y-81316084D01*
X94272495Y-81317888D01*
X94519000Y-81363061D01*
X94533536Y-81366644D01*
X94772791Y-81441200D01*
X94786788Y-81446508D01*
X95015319Y-81549361D01*
X95028578Y-81556320D01*
X95135808Y-81621143D01*
X95243045Y-81685970D01*
X95255356Y-81694468D01*
X95452636Y-81849027D01*
X95463844Y-81858957D01*
X95641042Y-82036155D01*
X95650972Y-82047363D01*
X95805527Y-82244637D01*
X95814033Y-82256960D01*
X95943679Y-82471421D01*
X95950638Y-82484680D01*
X96053491Y-82713211D01*
X96058800Y-82727211D01*
X96133354Y-82966461D01*
X96136938Y-82981001D01*
X96182110Y-83227500D01*
X96183915Y-83242364D01*
X96199274Y-83496263D01*
X96199500Y-83503750D01*
X96199500Y-128496249D01*
X96199274Y-128503736D01*
X96183915Y-128757635D01*
X96182110Y-128772499D01*
X96136938Y-129018998D01*
X96133354Y-129033538D01*
X96058800Y-129272788D01*
X96053491Y-129286788D01*
X95950638Y-129515319D01*
X95943679Y-129528578D01*
X95814033Y-129743039D01*
X95805527Y-129755362D01*
X95650972Y-129952636D01*
X95641042Y-129963844D01*
X95463844Y-130141042D01*
X95452636Y-130150972D01*
X95255362Y-130305527D01*
X95243039Y-130314033D01*
X95028578Y-130443679D01*
X95015319Y-130450638D01*
X94786788Y-130553491D01*
X94772788Y-130558800D01*
X94533538Y-130633354D01*
X94518998Y-130636938D01*
X94272499Y-130682110D01*
X94257635Y-130683915D01*
X94003736Y-130699274D01*
X93996249Y-130699500D01*
X69003751Y-130699500D01*
X68996264Y-130699274D01*
X68742364Y-130683915D01*
X68727500Y-130682110D01*
X68481001Y-130636938D01*
X68466461Y-130633354D01*
X68227211Y-130558800D01*
X68213211Y-130553491D01*
X67984680Y-130450638D01*
X67971421Y-130443679D01*
X67756960Y-130314033D01*
X67744637Y-130305527D01*
X67547363Y-130150972D01*
X67536155Y-130141042D01*
X67358957Y-129963844D01*
X67349027Y-129952636D01*
X67194468Y-129755356D01*
X67185970Y-129743045D01*
X67083412Y-129573394D01*
X67056320Y-129528578D01*
X67049361Y-129515319D01*
X66946508Y-129286788D01*
X66941199Y-129272788D01*
X66934582Y-129251555D01*
X66866644Y-129033536D01*
X66863061Y-129018998D01*
X66817889Y-128772499D01*
X66816084Y-128757635D01*
X66800726Y-128503736D01*
X66800500Y-128496249D01*
X66800500Y-127893713D01*
X68149500Y-127893713D01*
X68149500Y-128106287D01*
X68182754Y-128316243D01*
X68243674Y-128503736D01*
X68248444Y-128518414D01*
X68344951Y-128707820D01*
X68469890Y-128879786D01*
X68620213Y-129030109D01*
X68792179Y-129155048D01*
X68792181Y-129155049D01*
X68792184Y-129155051D01*
X68981588Y-129251557D01*
X69183757Y-129317246D01*
X69393713Y-129350500D01*
X69393714Y-129350500D01*
X69606286Y-129350500D01*
X69606287Y-129350500D01*
X69816243Y-129317246D01*
X70018412Y-129251557D01*
X70207816Y-129155051D01*
X70229789Y-129139086D01*
X70379786Y-129030109D01*
X70379788Y-129030106D01*
X70379792Y-129030104D01*
X70530104Y-128879792D01*
X70530106Y-128879788D01*
X70530109Y-128879786D01*
X70655048Y-128707820D01*
X70655047Y-128707820D01*
X70655051Y-128707816D01*
X70751557Y-128518412D01*
X70817246Y-128316243D01*
X70850500Y-128106287D01*
X70850500Y-127893713D01*
X70817246Y-127683757D01*
X70751557Y-127481588D01*
X70655051Y-127292184D01*
X70634066Y-127263301D01*
X70634066Y-127263299D01*
X70585537Y-127196504D01*
X75930000Y-127196504D01*
X75930000Y-127345000D01*
X76630000Y-127345000D01*
X76630000Y-127845000D01*
X75930000Y-127845000D01*
X75930000Y-127993495D01*
X75968427Y-128186681D01*
X75968430Y-128186693D01*
X76043807Y-128368671D01*
X76043814Y-128368684D01*
X76153248Y-128532462D01*
X76153251Y-128532466D01*
X76292533Y-128671748D01*
X76292537Y-128671751D01*
X76456315Y-128781185D01*
X76456328Y-128781192D01*
X76638308Y-128856569D01*
X76680000Y-128864862D01*
X76680000Y-128061988D01*
X76689940Y-128079205D01*
X76745795Y-128135060D01*
X76814204Y-128174556D01*
X76890504Y-128195000D01*
X76969496Y-128195000D01*
X77045796Y-128174556D01*
X77114205Y-128135060D01*
X77170060Y-128079205D01*
X77180000Y-128061988D01*
X77180000Y-128864862D01*
X77221690Y-128856569D01*
X77221692Y-128856569D01*
X77403671Y-128781192D01*
X77403684Y-128781185D01*
X77567462Y-128671751D01*
X77567466Y-128671748D01*
X77706748Y-128532466D01*
X77706751Y-128532462D01*
X77816185Y-128368684D01*
X77816192Y-128368671D01*
X77891569Y-128186693D01*
X77891572Y-128186681D01*
X77929999Y-127993495D01*
X77930000Y-127993492D01*
X77930000Y-127845000D01*
X77230000Y-127845000D01*
X77230000Y-127345000D01*
X77930000Y-127345000D01*
X77930000Y-127196508D01*
X77929999Y-127196504D01*
X84570000Y-127196504D01*
X84570000Y-127345000D01*
X85270000Y-127345000D01*
X85270000Y-127845000D01*
X84570000Y-127845000D01*
X84570000Y-127993495D01*
X84608427Y-128186681D01*
X84608430Y-128186693D01*
X84683807Y-128368671D01*
X84683814Y-128368684D01*
X84793248Y-128532462D01*
X84793251Y-128532466D01*
X84932533Y-128671748D01*
X84932537Y-128671751D01*
X85096315Y-128781185D01*
X85096328Y-128781192D01*
X85278308Y-128856569D01*
X85320000Y-128864862D01*
X85320000Y-128061988D01*
X85329940Y-128079205D01*
X85385795Y-128135060D01*
X85454204Y-128174556D01*
X85530504Y-128195000D01*
X85609496Y-128195000D01*
X85685796Y-128174556D01*
X85754205Y-128135060D01*
X85810060Y-128079205D01*
X85820000Y-128061988D01*
X85820000Y-128864862D01*
X85861690Y-128856569D01*
X85861692Y-128856569D01*
X86043671Y-128781192D01*
X86043684Y-128781185D01*
X86207462Y-128671751D01*
X86207466Y-128671748D01*
X86346748Y-128532466D01*
X86346751Y-128532462D01*
X86456185Y-128368684D01*
X86456192Y-128368671D01*
X86531569Y-128186693D01*
X86531572Y-128186681D01*
X86569999Y-127993495D01*
X86570000Y-127993492D01*
X86570000Y-127893713D01*
X92149500Y-127893713D01*
X92149500Y-128106287D01*
X92182754Y-128316243D01*
X92243674Y-128503736D01*
X92248444Y-128518414D01*
X92344951Y-128707820D01*
X92469890Y-128879786D01*
X92620213Y-129030109D01*
X92792179Y-129155048D01*
X92792181Y-129155049D01*
X92792184Y-129155051D01*
X92981588Y-129251557D01*
X93183757Y-129317246D01*
X93393713Y-129350500D01*
X93393714Y-129350500D01*
X93606286Y-129350500D01*
X93606287Y-129350500D01*
X93816243Y-129317246D01*
X94018412Y-129251557D01*
X94207816Y-129155051D01*
X94229789Y-129139086D01*
X94379786Y-129030109D01*
X94379788Y-129030106D01*
X94379792Y-129030104D01*
X94530104Y-128879792D01*
X94530106Y-128879788D01*
X94530109Y-128879786D01*
X94655048Y-128707820D01*
X94655047Y-128707820D01*
X94655051Y-128707816D01*
X94751557Y-128518412D01*
X94817246Y-128316243D01*
X94850500Y-128106287D01*
X94850500Y-127893713D01*
X94817246Y-127683757D01*
X94751557Y-127481588D01*
X94655051Y-127292184D01*
X94655049Y-127292181D01*
X94655048Y-127292179D01*
X94530109Y-127120213D01*
X94379786Y-126969890D01*
X94207820Y-126844951D01*
X94018414Y-126748444D01*
X94018413Y-126748443D01*
X94018412Y-126748443D01*
X93816243Y-126682754D01*
X93816241Y-126682753D01*
X93816240Y-126682753D01*
X93654957Y-126657208D01*
X93606287Y-126649500D01*
X93393713Y-126649500D01*
X93345042Y-126657208D01*
X93183760Y-126682753D01*
X92981585Y-126748444D01*
X92792179Y-126844951D01*
X92620213Y-126969890D01*
X92469890Y-127120213D01*
X92344951Y-127292179D01*
X92248444Y-127481585D01*
X92182753Y-127683760D01*
X92162278Y-127813036D01*
X92149500Y-127893713D01*
X86570000Y-127893713D01*
X86570000Y-127845000D01*
X85870000Y-127845000D01*
X85870000Y-127345000D01*
X86570000Y-127345000D01*
X86570000Y-127196508D01*
X86569999Y-127196504D01*
X86531572Y-127003318D01*
X86531569Y-127003306D01*
X86456192Y-126821328D01*
X86456185Y-126821315D01*
X86346751Y-126657537D01*
X86346748Y-126657533D01*
X86207466Y-126518251D01*
X86207462Y-126518248D01*
X86043684Y-126408814D01*
X86043671Y-126408807D01*
X85861691Y-126333429D01*
X85861683Y-126333427D01*
X85820000Y-126325135D01*
X85820000Y-127128011D01*
X85810060Y-127110795D01*
X85754205Y-127054940D01*
X85685796Y-127015444D01*
X85609496Y-126995000D01*
X85530504Y-126995000D01*
X85454204Y-127015444D01*
X85385795Y-127054940D01*
X85329940Y-127110795D01*
X85320000Y-127128011D01*
X85320000Y-126325136D01*
X85319999Y-126325135D01*
X85278316Y-126333427D01*
X85278308Y-126333429D01*
X85096328Y-126408807D01*
X85096315Y-126408814D01*
X84932537Y-126518248D01*
X84932533Y-126518251D01*
X84793251Y-126657533D01*
X84793248Y-126657537D01*
X84683814Y-126821315D01*
X84683807Y-126821328D01*
X84608430Y-127003306D01*
X84608427Y-127003318D01*
X84570000Y-127196504D01*
X77929999Y-127196504D01*
X77891572Y-127003318D01*
X77891569Y-127003306D01*
X77816192Y-126821328D01*
X77816185Y-126821315D01*
X77706751Y-126657537D01*
X77706748Y-126657533D01*
X77567466Y-126518251D01*
X77567462Y-126518248D01*
X77403684Y-126408814D01*
X77403671Y-126408807D01*
X77221691Y-126333429D01*
X77221683Y-126333427D01*
X77180000Y-126325135D01*
X77180000Y-127128011D01*
X77170060Y-127110795D01*
X77114205Y-127054940D01*
X77045796Y-127015444D01*
X76969496Y-126995000D01*
X76890504Y-126995000D01*
X76814204Y-127015444D01*
X76745795Y-127054940D01*
X76689940Y-127110795D01*
X76680000Y-127128011D01*
X76680000Y-126325136D01*
X76679999Y-126325135D01*
X76638316Y-126333427D01*
X76638308Y-126333429D01*
X76456328Y-126408807D01*
X76456315Y-126408814D01*
X76292537Y-126518248D01*
X76292533Y-126518251D01*
X76153251Y-126657533D01*
X76153248Y-126657537D01*
X76043814Y-126821315D01*
X76043807Y-126821328D01*
X75968430Y-127003306D01*
X75968427Y-127003318D01*
X75930000Y-127196504D01*
X70585537Y-127196504D01*
X70530109Y-127120214D01*
X70530105Y-127120209D01*
X70379786Y-126969890D01*
X70207820Y-126844951D01*
X70018414Y-126748444D01*
X70018413Y-126748443D01*
X70018412Y-126748443D01*
X69816243Y-126682754D01*
X69816241Y-126682753D01*
X69816240Y-126682753D01*
X69654957Y-126657208D01*
X69606287Y-126649500D01*
X69393713Y-126649500D01*
X69345042Y-126657208D01*
X69183760Y-126682753D01*
X68981585Y-126748444D01*
X68792179Y-126844951D01*
X68620213Y-126969890D01*
X68469890Y-127120213D01*
X68344951Y-127292179D01*
X68248444Y-127481585D01*
X68182753Y-127683760D01*
X68162278Y-127813036D01*
X68149500Y-127893713D01*
X66800500Y-127893713D01*
X66800500Y-122766504D01*
X75930000Y-122766504D01*
X75930000Y-123165000D01*
X76630000Y-123165000D01*
X76630000Y-123665000D01*
X75930000Y-123665000D01*
X75930000Y-124063495D01*
X75968427Y-124256681D01*
X75968430Y-124256693D01*
X76043807Y-124438671D01*
X76043814Y-124438684D01*
X76153248Y-124602462D01*
X76153251Y-124602466D01*
X76292533Y-124741748D01*
X76292537Y-124741751D01*
X76456315Y-124851185D01*
X76456328Y-124851192D01*
X76638308Y-124926569D01*
X76680000Y-124934862D01*
X76680000Y-124131988D01*
X76689940Y-124149205D01*
X76745795Y-124205060D01*
X76814204Y-124244556D01*
X76890504Y-124265000D01*
X76969496Y-124265000D01*
X77045796Y-124244556D01*
X77114205Y-124205060D01*
X77170060Y-124149205D01*
X77180000Y-124131988D01*
X77180000Y-124934862D01*
X77221690Y-124926569D01*
X77221692Y-124926569D01*
X77403671Y-124851192D01*
X77403684Y-124851185D01*
X77567462Y-124741751D01*
X77567466Y-124741748D01*
X77706748Y-124602466D01*
X77706751Y-124602462D01*
X77819574Y-124433613D01*
X77821007Y-124434570D01*
X77864198Y-124390580D01*
X77932332Y-124375103D01*
X77998018Y-124398919D01*
X78000089Y-124400697D01*
X78000189Y-124400568D01*
X78006630Y-124405510D01*
X78006635Y-124405515D01*
X78137865Y-124481281D01*
X78284234Y-124520500D01*
X78284236Y-124520500D01*
X78435764Y-124520500D01*
X78435766Y-124520500D01*
X78582135Y-124481281D01*
X78713365Y-124405515D01*
X78820515Y-124298365D01*
X78896281Y-124167135D01*
X78935500Y-124020766D01*
X78935500Y-123869234D01*
X83564500Y-123869234D01*
X83564500Y-124020765D01*
X83603719Y-124167136D01*
X83625615Y-124205060D01*
X83679485Y-124298365D01*
X83786635Y-124405515D01*
X83917865Y-124481281D01*
X84064234Y-124520500D01*
X84064236Y-124520500D01*
X84215764Y-124520500D01*
X84215766Y-124520500D01*
X84362135Y-124481281D01*
X84493365Y-124405515D01*
X84493372Y-124405507D01*
X84499811Y-124400568D01*
X84502044Y-124403478D01*
X84548258Y-124377865D01*
X84617980Y-124382411D01*
X84674176Y-124423930D01*
X84680394Y-124433634D01*
X84680426Y-124433613D01*
X84793248Y-124602462D01*
X84793251Y-124602466D01*
X84932533Y-124741748D01*
X84932537Y-124741751D01*
X85096315Y-124851185D01*
X85096328Y-124851192D01*
X85278308Y-124926569D01*
X85320000Y-124934862D01*
X85320000Y-124131988D01*
X85329940Y-124149205D01*
X85385795Y-124205060D01*
X85454204Y-124244556D01*
X85530504Y-124265000D01*
X85609496Y-124265000D01*
X85685796Y-124244556D01*
X85754205Y-124205060D01*
X85810060Y-124149205D01*
X85820000Y-124131988D01*
X85820000Y-124934862D01*
X85861690Y-124926569D01*
X85861692Y-124926569D01*
X86043671Y-124851192D01*
X86043684Y-124851185D01*
X86207462Y-124741751D01*
X86207466Y-124741748D01*
X86346748Y-124602466D01*
X86346751Y-124602462D01*
X86456185Y-124438684D01*
X86456192Y-124438671D01*
X86531569Y-124256693D01*
X86531572Y-124256681D01*
X86569999Y-124063495D01*
X86570000Y-124063492D01*
X86570000Y-123665000D01*
X85870000Y-123665000D01*
X85870000Y-123165000D01*
X86570000Y-123165000D01*
X86570000Y-122766508D01*
X86569999Y-122766504D01*
X86531572Y-122573318D01*
X86531569Y-122573306D01*
X86456192Y-122391328D01*
X86456185Y-122391315D01*
X86346751Y-122227537D01*
X86346748Y-122227533D01*
X86207466Y-122088251D01*
X86207462Y-122088248D01*
X86043684Y-121978814D01*
X86043671Y-121978807D01*
X85861691Y-121903429D01*
X85861683Y-121903427D01*
X85820000Y-121895135D01*
X85820000Y-122698011D01*
X85810060Y-122680795D01*
X85754205Y-122624940D01*
X85685796Y-122585444D01*
X85609496Y-122565000D01*
X85530504Y-122565000D01*
X85454204Y-122585444D01*
X85385795Y-122624940D01*
X85329940Y-122680795D01*
X85320000Y-122698011D01*
X85320000Y-121895136D01*
X85319999Y-121895135D01*
X85278316Y-121903427D01*
X85278308Y-121903429D01*
X85096328Y-121978807D01*
X85096315Y-121978814D01*
X84932537Y-122088248D01*
X84932533Y-122088251D01*
X84793251Y-122227533D01*
X84793248Y-122227537D01*
X84683814Y-122391315D01*
X84683807Y-122391328D01*
X84608430Y-122573306D01*
X84608427Y-122573318D01*
X84570000Y-122766504D01*
X84570000Y-123165000D01*
X85270000Y-123165000D01*
X85270000Y-123665000D01*
X84714464Y-123665000D01*
X84647425Y-123645315D01*
X84607077Y-123603000D01*
X84600517Y-123591638D01*
X84600513Y-123591633D01*
X84493367Y-123484487D01*
X84493365Y-123484485D01*
X84427750Y-123446602D01*
X84362136Y-123408719D01*
X84288950Y-123389109D01*
X84215766Y-123369500D01*
X84064234Y-123369500D01*
X83917863Y-123408719D01*
X83786635Y-123484485D01*
X83786632Y-123484487D01*
X83679487Y-123591632D01*
X83679485Y-123591635D01*
X83603719Y-123722863D01*
X83564500Y-123869234D01*
X78935500Y-123869234D01*
X78896281Y-123722865D01*
X78820515Y-123591635D01*
X78713365Y-123484485D01*
X78647750Y-123446602D01*
X78582136Y-123408719D01*
X78508950Y-123389109D01*
X78435766Y-123369500D01*
X78284234Y-123369500D01*
X78137863Y-123408719D01*
X78006635Y-123484485D01*
X78006632Y-123484487D01*
X77899486Y-123591633D01*
X77899482Y-123591638D01*
X77892923Y-123603000D01*
X77842356Y-123651216D01*
X77785536Y-123665000D01*
X77230000Y-123665000D01*
X77230000Y-123165000D01*
X77930000Y-123165000D01*
X77930000Y-122766508D01*
X77929999Y-122766504D01*
X77891572Y-122573318D01*
X77891569Y-122573306D01*
X77816192Y-122391328D01*
X77816185Y-122391315D01*
X77706751Y-122227537D01*
X77706748Y-122227533D01*
X77567466Y-122088251D01*
X77567462Y-122088248D01*
X77403684Y-121978814D01*
X77403671Y-121978807D01*
X77221691Y-121903429D01*
X77221683Y-121903427D01*
X77180000Y-121895135D01*
X77180000Y-122698011D01*
X77170060Y-122680795D01*
X77114205Y-122624940D01*
X77045796Y-122585444D01*
X76969496Y-122565000D01*
X76890504Y-122565000D01*
X76814204Y-122585444D01*
X76745795Y-122624940D01*
X76689940Y-122680795D01*
X76680000Y-122698011D01*
X76680000Y-121895136D01*
X76679999Y-121895135D01*
X76638316Y-121903427D01*
X76638308Y-121903429D01*
X76456328Y-121978807D01*
X76456315Y-121978814D01*
X76292537Y-122088248D01*
X76292533Y-122088251D01*
X76153251Y-122227533D01*
X76153248Y-122227537D01*
X76043814Y-122391315D01*
X76043807Y-122391328D01*
X75968430Y-122573306D01*
X75968427Y-122573318D01*
X75930000Y-122766504D01*
X66800500Y-122766504D01*
X66800500Y-119568995D01*
X92299499Y-119568995D01*
X92326418Y-119704322D01*
X92326421Y-119704332D01*
X92379221Y-119831804D01*
X92379228Y-119831817D01*
X92455885Y-119946541D01*
X92455888Y-119946545D01*
X92553454Y-120044111D01*
X92553458Y-120044114D01*
X92668182Y-120120771D01*
X92668195Y-120120778D01*
X92795667Y-120173578D01*
X92795672Y-120173580D01*
X92795676Y-120173580D01*
X92795677Y-120173581D01*
X92931004Y-120200500D01*
X92931007Y-120200500D01*
X93068995Y-120200500D01*
X93160041Y-120182389D01*
X93204328Y-120173580D01*
X93331811Y-120120775D01*
X93446542Y-120044114D01*
X93544114Y-119946542D01*
X93620775Y-119831811D01*
X93673580Y-119704328D01*
X93700500Y-119568993D01*
X93700500Y-119431007D01*
X93700500Y-119431004D01*
X93673581Y-119295677D01*
X93673580Y-119295676D01*
X93673580Y-119295672D01*
X93673578Y-119295667D01*
X93620778Y-119168195D01*
X93620771Y-119168182D01*
X93544114Y-119053458D01*
X93544111Y-119053454D01*
X93446545Y-118955888D01*
X93446541Y-118955885D01*
X93331817Y-118879228D01*
X93331804Y-118879221D01*
X93204332Y-118826421D01*
X93204322Y-118826418D01*
X93068995Y-118799500D01*
X93068993Y-118799500D01*
X92931007Y-118799500D01*
X92931005Y-118799500D01*
X92795677Y-118826418D01*
X92795667Y-118826421D01*
X92668195Y-118879221D01*
X92668182Y-118879228D01*
X92553458Y-118955885D01*
X92553454Y-118955888D01*
X92455888Y-119053454D01*
X92455885Y-119053458D01*
X92379228Y-119168182D01*
X92379221Y-119168195D01*
X92326421Y-119295667D01*
X92326418Y-119295677D01*
X92299500Y-119431004D01*
X92299500Y-119431007D01*
X92299500Y-119568993D01*
X92299500Y-119568995D01*
X92299499Y-119568995D01*
X66800500Y-119568995D01*
X66800500Y-116568995D01*
X92299499Y-116568995D01*
X92326418Y-116704322D01*
X92326421Y-116704332D01*
X92379221Y-116831804D01*
X92379228Y-116831817D01*
X92455885Y-116946541D01*
X92455888Y-116946545D01*
X92553454Y-117044111D01*
X92553458Y-117044114D01*
X92668182Y-117120771D01*
X92668195Y-117120778D01*
X92795667Y-117173578D01*
X92795672Y-117173580D01*
X92795676Y-117173580D01*
X92795677Y-117173581D01*
X92931004Y-117200500D01*
X92931007Y-117200500D01*
X93068995Y-117200500D01*
X93160041Y-117182389D01*
X93204328Y-117173580D01*
X93331811Y-117120775D01*
X93446542Y-117044114D01*
X93544114Y-116946542D01*
X93620775Y-116831811D01*
X93673580Y-116704328D01*
X93700500Y-116568993D01*
X93700500Y-116431007D01*
X93700500Y-116431004D01*
X93673581Y-116295677D01*
X93673580Y-116295676D01*
X93673580Y-116295672D01*
X93673578Y-116295667D01*
X93620778Y-116168195D01*
X93620771Y-116168182D01*
X93544114Y-116053458D01*
X93544111Y-116053454D01*
X93446545Y-115955888D01*
X93446541Y-115955885D01*
X93331817Y-115879228D01*
X93331804Y-115879221D01*
X93204332Y-115826421D01*
X93204322Y-115826418D01*
X93068995Y-115799500D01*
X93068993Y-115799500D01*
X92931007Y-115799500D01*
X92931005Y-115799500D01*
X92795677Y-115826418D01*
X92795667Y-115826421D01*
X92668195Y-115879221D01*
X92668182Y-115879228D01*
X92553458Y-115955885D01*
X92553454Y-115955888D01*
X92455888Y-116053454D01*
X92455885Y-116053458D01*
X92379228Y-116168182D01*
X92379221Y-116168195D01*
X92326421Y-116295667D01*
X92326418Y-116295677D01*
X92299500Y-116431004D01*
X92299500Y-116431007D01*
X92299500Y-116568993D01*
X92299500Y-116568995D01*
X92299499Y-116568995D01*
X66800500Y-116568995D01*
X66800500Y-106249999D01*
X90100884Y-106249999D01*
X90100885Y-106250000D01*
X91169670Y-106250000D01*
X91149925Y-106269745D01*
X91100556Y-106355255D01*
X91075000Y-106450630D01*
X91075000Y-106549370D01*
X91100556Y-106644745D01*
X91149925Y-106730255D01*
X91169670Y-106750000D01*
X90100885Y-106750000D01*
X90102085Y-106757584D01*
X90155591Y-106922255D01*
X90234195Y-107076524D01*
X90335967Y-107216602D01*
X90458397Y-107339032D01*
X90598475Y-107440804D01*
X90702051Y-107493579D01*
X90752847Y-107541554D01*
X90769642Y-107609375D01*
X90747104Y-107675510D01*
X90692389Y-107718961D01*
X90686712Y-107721105D01*
X90612117Y-107747207D01*
X90502850Y-107827850D01*
X90422207Y-107937117D01*
X90422206Y-107937119D01*
X90377353Y-108065298D01*
X90377353Y-108065300D01*
X90374500Y-108095730D01*
X90374500Y-108904269D01*
X90377353Y-108934699D01*
X90377353Y-108934701D01*
X90422206Y-109062880D01*
X90422207Y-109062882D01*
X90502850Y-109172150D01*
X90612118Y-109252793D01*
X90654845Y-109267744D01*
X90740299Y-109297646D01*
X90770730Y-109300500D01*
X90770734Y-109300500D01*
X92129270Y-109300500D01*
X92159699Y-109297646D01*
X92159701Y-109297646D01*
X92223790Y-109275219D01*
X92287882Y-109252793D01*
X92397150Y-109172150D01*
X92477793Y-109062882D01*
X92500219Y-108998790D01*
X92522646Y-108934701D01*
X92522646Y-108934699D01*
X92525500Y-108904269D01*
X92525500Y-108095730D01*
X92522646Y-108065300D01*
X92522646Y-108065298D01*
X92477793Y-107937119D01*
X92477792Y-107937117D01*
X92397150Y-107827850D01*
X92287882Y-107747207D01*
X92287880Y-107747206D01*
X92213288Y-107721105D01*
X92156512Y-107680383D01*
X92130765Y-107615430D01*
X92144222Y-107546869D01*
X92192609Y-107496466D01*
X92197948Y-107493579D01*
X92301524Y-107440804D01*
X92441602Y-107339032D01*
X92564032Y-107216602D01*
X92665804Y-107076524D01*
X92744408Y-106922255D01*
X92797914Y-106757584D01*
X92799115Y-106750000D01*
X91730330Y-106750000D01*
X91750075Y-106730255D01*
X91799444Y-106644745D01*
X91825000Y-106549370D01*
X91825000Y-106450630D01*
X91799444Y-106355255D01*
X91750075Y-106269745D01*
X91730330Y-106250000D01*
X92799115Y-106250000D01*
X92799115Y-106249999D01*
X92797914Y-106242415D01*
X92744408Y-106077744D01*
X92665804Y-105923475D01*
X92564032Y-105783397D01*
X92441602Y-105660967D01*
X92301524Y-105559195D01*
X92147257Y-105480591D01*
X91982584Y-105427085D01*
X91811571Y-105400000D01*
X91700000Y-105400000D01*
X91700000Y-106219670D01*
X91680255Y-106199925D01*
X91594745Y-106150556D01*
X91499370Y-106125000D01*
X91400630Y-106125000D01*
X91305255Y-106150556D01*
X91219745Y-106199925D01*
X91200000Y-106219670D01*
X91200000Y-105400000D01*
X91088429Y-105400000D01*
X90917415Y-105427085D01*
X90752742Y-105480591D01*
X90598475Y-105559195D01*
X90458397Y-105660967D01*
X90335967Y-105783397D01*
X90234195Y-105923475D01*
X90155591Y-106077744D01*
X90102085Y-106242415D01*
X90100884Y-106249999D01*
X66800500Y-106249999D01*
X66800500Y-83893713D01*
X68149500Y-83893713D01*
X68149500Y-84106286D01*
X68182753Y-84316239D01*
X68248444Y-84518414D01*
X68344951Y-84707820D01*
X68469890Y-84879786D01*
X68620213Y-85030109D01*
X68792179Y-85155048D01*
X68792181Y-85155049D01*
X68792184Y-85155051D01*
X68981588Y-85251557D01*
X69183757Y-85317246D01*
X69393713Y-85350500D01*
X69393714Y-85350500D01*
X69606286Y-85350500D01*
X69606287Y-85350500D01*
X69816243Y-85317246D01*
X70018412Y-85251557D01*
X70207816Y-85155051D01*
X70229789Y-85139086D01*
X70379786Y-85030109D01*
X70379788Y-85030106D01*
X70379792Y-85030104D01*
X70530104Y-84879792D01*
X70530106Y-84879788D01*
X70530109Y-84879786D01*
X70655048Y-84707820D01*
X70655047Y-84707820D01*
X70655051Y-84707816D01*
X70751557Y-84518412D01*
X70817246Y-84316243D01*
X70850500Y-84106287D01*
X70850500Y-83893713D01*
X70817246Y-83683757D01*
X70751557Y-83481588D01*
X70655051Y-83292184D01*
X70655049Y-83292181D01*
X70655048Y-83292179D01*
X70530109Y-83120213D01*
X70379786Y-82969890D01*
X70207820Y-82844951D01*
X70018414Y-82748444D01*
X70018413Y-82748443D01*
X70018412Y-82748443D01*
X69816243Y-82682754D01*
X69816241Y-82682753D01*
X69816240Y-82682753D01*
X69654957Y-82657208D01*
X69606287Y-82649500D01*
X69393713Y-82649500D01*
X69345042Y-82657208D01*
X69183760Y-82682753D01*
X68981585Y-82748444D01*
X68792179Y-82844951D01*
X68620213Y-82969890D01*
X68469890Y-83120213D01*
X68344951Y-83292179D01*
X68248444Y-83481585D01*
X68182753Y-83683760D01*
X68149500Y-83893713D01*
X66800500Y-83893713D01*
X66800500Y-83503750D01*
X66800726Y-83496263D01*
X66810013Y-83342727D01*
X66816084Y-83242359D01*
X66817889Y-83227500D01*
X66854053Y-83030160D01*
X66863062Y-82980995D01*
X66866645Y-82966461D01*
X66941202Y-82727202D01*
X66946504Y-82713219D01*
X67049361Y-82484679D01*
X67056320Y-82471421D01*
X67083412Y-82426606D01*
X67185975Y-82256946D01*
X67194462Y-82244650D01*
X67349034Y-82047354D01*
X67358949Y-82036163D01*
X67536163Y-81858949D01*
X67547354Y-81849034D01*
X67744650Y-81694462D01*
X67756946Y-81685975D01*
X67971421Y-81556319D01*
X67984680Y-81549361D01*
X68213219Y-81446504D01*
X68227202Y-81441202D01*
X68466467Y-81366643D01*
X68480995Y-81363062D01*
X68727506Y-81317888D01*
X68742359Y-81316084D01*
X68996264Y-81300726D01*
X69003751Y-81300500D01*
X69047595Y-81300500D01*
X77780246Y-81300500D01*
X77847285Y-81320185D01*
G37*
%TD.AperFunction*%
%TD*%
M02*
