%TF.GenerationSoftware,KiCad,Pcbnew,10.0.1*%
%TF.CreationDate,2026-06-13T07:31:56-07:00*%
%TF.ProjectId,Jeep_Embedded_KeyFob,4a656570-5f45-46d6-9265-646465645f4b,rev?*%
%TF.SameCoordinates,Original*%
%TF.FileFunction,Soldermask,Top*%
%TF.FilePolarity,Negative*%
%FSLAX46Y46*%
G04 Gerber Fmt 4.6, Leading zero omitted, Abs format (unit mm)*
G04 Created by KiCad (PCBNEW 10.0.1) date 2026-06-13 07:31:56*
%MOMM*%
%LPD*%
G01*
G04 APERTURE LIST*
G04 Aperture macros list*
%AMRoundRect*
0 Rectangle with rounded corners*
0 $1 Rounding radius*
0 $2 $3 $4 $5 $6 $7 $8 $9 X,Y pos of 4 corners*
0 Add a 4 corners polygon primitive as box body*
4,1,4,$2,$3,$4,$5,$6,$7,$8,$9,$2,$3,0*
0 Add four circle primitives for the rounded corners*
1,1,$1+$1,$2,$3*
1,1,$1+$1,$4,$5*
1,1,$1+$1,$6,$7*
1,1,$1+$1,$8,$9*
0 Add four rect primitives between the rounded corners*
20,1,$1+$1,$2,$3,$4,$5,0*
20,1,$1+$1,$4,$5,$6,$7,0*
20,1,$1+$1,$6,$7,$8,$9,0*
20,1,$1+$1,$8,$9,$2,$3,0*%
G04 Aperture macros list end*
%ADD10RoundRect,0.160000X0.160000X-0.222500X0.160000X0.222500X-0.160000X0.222500X-0.160000X-0.222500X0*%
%ADD11RoundRect,0.155000X0.212500X0.155000X-0.212500X0.155000X-0.212500X-0.155000X0.212500X-0.155000X0*%
%ADD12RoundRect,0.160000X0.160000X-0.197500X0.160000X0.197500X-0.160000X0.197500X-0.160000X-0.197500X0*%
%ADD13RoundRect,0.160000X-0.197500X-0.160000X0.197500X-0.160000X0.197500X0.160000X-0.197500X0.160000X0*%
%ADD14RoundRect,0.160000X-0.222500X-0.160000X0.222500X-0.160000X0.222500X0.160000X-0.222500X0.160000X0*%
%ADD15RoundRect,0.250000X-0.400000X0.525000X-0.400000X-0.525000X0.400000X-0.525000X0.400000X0.525000X0*%
%ADD16RoundRect,0.160000X-0.160000X0.197500X-0.160000X-0.197500X0.160000X-0.197500X0.160000X0.197500X0*%
%ADD17RoundRect,0.155000X-0.212500X-0.155000X0.212500X-0.155000X0.212500X0.155000X-0.212500X0.155000X0*%
%ADD18RoundRect,0.250000X0.625000X-0.350000X0.625000X0.350000X-0.625000X0.350000X-0.625000X-0.350000X0*%
%ADD19O,1.750000X1.200000*%
%ADD20RoundRect,0.250000X0.650000X-0.350000X0.650000X0.350000X-0.650000X0.350000X-0.650000X-0.350000X0*%
%ADD21RoundRect,0.160000X0.197500X0.160000X-0.197500X0.160000X-0.197500X-0.160000X0.197500X-0.160000X0*%
%ADD22RoundRect,0.150000X-0.150000X-0.575000X0.150000X-0.575000X0.150000X0.575000X-0.150000X0.575000X0*%
%ADD23RoundRect,0.075000X-0.075000X-0.650000X0.075000X-0.650000X0.075000X0.650000X-0.075000X0.650000X0*%
%ADD24O,1.000000X2.100000*%
%ADD25O,1.000000X1.600000*%
%ADD26RoundRect,0.062500X-0.062500X0.337500X-0.062500X-0.337500X0.062500X-0.337500X0.062500X0.337500X0*%
%ADD27RoundRect,0.062500X-0.337500X0.062500X-0.337500X-0.062500X0.337500X-0.062500X0.337500X0.062500X0*%
%ADD28R,3.700000X3.700000*%
%ADD29RoundRect,0.155000X0.155000X-0.212500X0.155000X0.212500X-0.155000X0.212500X-0.155000X-0.212500X0*%
%ADD30R,1.700000X1.000000*%
%ADD31RoundRect,0.150000X0.512500X0.150000X-0.512500X0.150000X-0.512500X-0.150000X0.512500X-0.150000X0*%
%ADD32RoundRect,0.150000X0.150000X-0.512500X0.150000X0.512500X-0.150000X0.512500X-0.150000X-0.512500X0*%
%ADD33RoundRect,0.250000X-0.650000X0.800000X-0.650000X-0.800000X0.650000X-0.800000X0.650000X0.800000X0*%
%ADD34RoundRect,0.102000X-0.550000X0.350000X-0.550000X-0.350000X0.550000X-0.350000X0.550000X0.350000X0*%
%ADD35RoundRect,0.102000X-0.400000X0.500000X-0.400000X-0.500000X0.400000X-0.500000X0.400000X0.500000X0*%
G04 APERTURE END LIST*
D10*
%TO.C,L2*%
X82500000Y-89572500D03*
X82500000Y-88427500D03*
%TD*%
D11*
%TO.C,C16*%
X77067500Y-95000000D03*
X75932500Y-95000000D03*
%TD*%
D12*
%TO.C,R4*%
X77000000Y-92097500D03*
X77000000Y-90902500D03*
%TD*%
D13*
%TO.C,R9*%
X76402500Y-93500000D03*
X77597500Y-93500000D03*
%TD*%
D11*
%TO.C,C4*%
X89567500Y-120500000D03*
X88432500Y-120500000D03*
%TD*%
%TO.C,C8*%
X84067500Y-112000000D03*
X82932500Y-112000000D03*
%TD*%
%TO.C,C5*%
X84067500Y-115000000D03*
X82932500Y-115000000D03*
%TD*%
D14*
%TO.C,D1*%
X77427500Y-119500000D03*
X78572500Y-119500000D03*
%TD*%
D15*
%TO.C,SW4*%
X73250000Y-97520000D03*
X73250000Y-105480000D03*
X68750000Y-97520000D03*
X68750000Y-105480000D03*
%TD*%
D16*
%TO.C,R5*%
X81000000Y-91902500D03*
X81000000Y-93097500D03*
%TD*%
D17*
%TO.C,C17*%
X75932500Y-96000000D03*
X77067500Y-96000000D03*
%TD*%
D18*
%TO.C,J2*%
X91450000Y-108500000D03*
D19*
X91450000Y-106500000D03*
%TD*%
D20*
%TO.C,ANT1*%
X82500000Y-85950000D03*
X82500000Y-83050000D03*
%TD*%
D12*
%TO.C,R1*%
X79000000Y-116597500D03*
X79000000Y-115402500D03*
%TD*%
D21*
%TO.C,R3*%
X82597500Y-118000000D03*
X81402500Y-118000000D03*
%TD*%
D11*
%TO.C,C3*%
X84057500Y-110500000D03*
X82922500Y-110500000D03*
%TD*%
D13*
%TO.C,R6*%
X75902500Y-99000000D03*
X77097500Y-99000000D03*
%TD*%
D22*
%TO.C,J1*%
X78000000Y-122500000D03*
X78800000Y-122500000D03*
D23*
X80000000Y-122500000D03*
X81000000Y-122500000D03*
X81500000Y-122500000D03*
X82500000Y-122500000D03*
D22*
X83700000Y-122500000D03*
X84500000Y-122500000D03*
X84500000Y-122500000D03*
X83700000Y-122500000D03*
D23*
X83000000Y-122500000D03*
X82000000Y-122500000D03*
X80500000Y-122500000D03*
X79500000Y-122500000D03*
D22*
X78800000Y-122500000D03*
X78000000Y-122500000D03*
D24*
X76930000Y-123415000D03*
D25*
X76930000Y-127595000D03*
D24*
X85570000Y-123415000D03*
D25*
X85570000Y-127595000D03*
%TD*%
D17*
%TO.C,C13*%
X76932500Y-102000000D03*
X78067500Y-102000000D03*
%TD*%
D26*
%TO.C,U3*%
X83000000Y-94600000D03*
X82500000Y-94600000D03*
X82000000Y-94600000D03*
X81500000Y-94600000D03*
X81000000Y-94600000D03*
X80500000Y-94600000D03*
X80000000Y-94600000D03*
X79500000Y-94600000D03*
D27*
X78800000Y-95300000D03*
X78800000Y-95800000D03*
X78800000Y-96300000D03*
X78800000Y-96800000D03*
X78800000Y-97300000D03*
X78800000Y-97800000D03*
X78800000Y-98300000D03*
X78800000Y-98800000D03*
D26*
X79500000Y-99500000D03*
X80000000Y-99500000D03*
X80500000Y-99500000D03*
X81000000Y-99500000D03*
X81500000Y-99500000D03*
X82000000Y-99500000D03*
X82500000Y-99500000D03*
X83000000Y-99500000D03*
D27*
X83700000Y-98800000D03*
X83700000Y-98300000D03*
X83700000Y-97800000D03*
X83700000Y-97300000D03*
X83700000Y-96800000D03*
X83700000Y-96300000D03*
X83700000Y-95800000D03*
X83700000Y-95300000D03*
D28*
X81250000Y-97050000D03*
%TD*%
D21*
%TO.C,R2*%
X82597500Y-119500000D03*
X81402500Y-119500000D03*
%TD*%
D29*
%TO.C,C1*%
X88500000Y-119067500D03*
X88500000Y-117932500D03*
%TD*%
%TO.C,C10*%
X79000000Y-93067500D03*
X79000000Y-91932500D03*
%TD*%
D30*
%TO.C,SW3*%
X74650000Y-91400000D03*
X68350000Y-91400000D03*
X74650000Y-87600000D03*
X68350000Y-87600000D03*
%TD*%
D17*
%TO.C,C9*%
X82932500Y-113350000D03*
X84067500Y-113350000D03*
%TD*%
D15*
%TO.C,SW5*%
X73250000Y-110020000D03*
X73250000Y-117980000D03*
X68750000Y-110020000D03*
X68750000Y-117980000D03*
%TD*%
D17*
%TO.C,C11*%
X86500000Y-93550000D03*
X87635000Y-93550000D03*
%TD*%
D31*
%TO.C,U1*%
X86637500Y-119950000D03*
X86637500Y-119000000D03*
X86637500Y-118050000D03*
X84362500Y-118050000D03*
X84362500Y-119950000D03*
%TD*%
D30*
%TO.C,SW2*%
X83800000Y-107400000D03*
X77500000Y-107400000D03*
X83800000Y-103600000D03*
X77500000Y-103600000D03*
%TD*%
D17*
%TO.C,C12*%
X88932500Y-100550000D03*
X90067500Y-100550000D03*
%TD*%
D29*
%TO.C,C14*%
X84500000Y-89567500D03*
X84500000Y-88432500D03*
%TD*%
D32*
%TO.C,U2*%
X87050000Y-115637500D03*
X88000000Y-115637500D03*
X88950000Y-115637500D03*
X88950000Y-113362500D03*
X87050000Y-113362500D03*
%TD*%
D29*
%TO.C,C7*%
X86000000Y-111567500D03*
X86000000Y-110432500D03*
%TD*%
D33*
%TO.C,Y1*%
X87000000Y-95600000D03*
X87000000Y-98500000D03*
X89300000Y-98500000D03*
X89300000Y-95600000D03*
%TD*%
D29*
%TO.C,C6*%
X87500000Y-111635000D03*
X87500000Y-110500000D03*
%TD*%
D21*
%TO.C,R8*%
X78597500Y-118000000D03*
X77402500Y-118000000D03*
%TD*%
%TO.C,R7*%
X81097500Y-101000000D03*
X79902500Y-101000000D03*
%TD*%
D34*
%TO.C,SW1*%
X90950000Y-120250000D03*
X90950000Y-117250000D03*
X90950000Y-115750000D03*
D35*
X94150000Y-114250000D03*
X94150000Y-121750000D03*
X91850000Y-121750000D03*
X91850000Y-114250000D03*
%TD*%
D14*
%TO.C,D2*%
X72427500Y-93500000D03*
X73572500Y-93500000D03*
%TD*%
D17*
%TO.C,C2*%
X77432500Y-120500000D03*
X78567500Y-120500000D03*
%TD*%
D10*
%TO.C,L1*%
X83500000Y-89572500D03*
X83500000Y-88427500D03*
%TD*%
M02*
