M48
; DRILL file KiCad 10.0.1 date 2026-06-13T07:31:56
; FORMAT={-:-/ absolute / inch / decimal}
; #@! TF.CreationDate,2026-06-13T07:31:56-07:00
; #@! TF.GenerationSoftware,Kicad,Pcbnew,10.0.1
; #@! TF.FileFunction,Plated,1,2,PTH
FMAT,2
INCH
; #@! TA.AperFunction,Plated,PTH,ViaDrill
T1C0.0118
; #@! TA.AperFunction,Plated,PTH,ComponentDrill
T2C0.0236
; #@! TA.AperFunction,Plated,PTH,ComponentDrill
T3C0.0295
%
G90
G05
T1
X2.6909Y-3.4488
X2.7067Y-3.8394
X2.7067Y-4.1528
X2.7067Y-4.3315
X2.7067Y-4.6449
X2.8515Y-3.6811
X2.939Y-3.4488
X2.9895Y-3.7402
X2.9895Y-3.7795
X3.0288Y-4.0157
X3.0485Y-4.7441
X3.0512Y-4.2283
X3.0709Y-4.8228
X3.1102Y-3.6194
X3.1102Y-4.5434
X3.1988Y-3.8209
X3.2048Y-4.6457
X3.2048Y-4.7047
X3.2647Y-4.3504
X3.2651Y-4.4094
X3.2651Y-4.4626
X3.2651Y-4.5276
X3.2992Y-4.2283
X3.3268Y-3.4816
X3.3268Y-4.8228
X3.3858Y-4.3477
X3.4109Y-4.685
X3.4252Y-3.878
X3.4449Y-4.3504
X3.4502Y-3.6831
X3.4646Y-4.5527
X3.4816Y-4.7441
X3.4843Y-4.6877
X3.5013Y-3.9587
X3.5157Y-3.7638
T3
X3.6004Y-4.1929
X3.6004Y-4.2717
T2
G00X3.0287Y-4.8372
M15
G01X3.0287Y-4.8805
M16
G05
G00X3.0287Y-5.0116
M15
G01X3.0287Y-5.0352
M16
G05
G00X3.3689Y-4.8372
M15
G01X3.3689Y-4.8805
M16
G05
G00X3.3689Y-5.0116
M15
G01X3.3689Y-5.0352
M16
G05
M30
