%TF.GenerationSoftware,KiCad,Pcbnew,10.0.1*%
%TF.CreationDate,2026-06-13T07:31:55-07:00*%
%TF.ProjectId,Jeep_Embedded_KeyFob,4a656570-5f45-46d6-9265-646465645f4b,rev?*%
%TF.SameCoordinates,Original*%
%TF.FileFunction,Legend,Top*%
%TF.FilePolarity,Positive*%
%FSLAX46Y46*%
G04 Gerber Fmt 4.6, Leading zero omitted, Abs format (unit mm)*
G04 Created by KiCad (PCBNEW 10.0.1) date 2026-06-13 07:31:55*
%MOMM*%
%LPD*%
G01*
G04 APERTURE LIST*
G04 Aperture macros list*
%AMRoundRect*
0 Rectangle with rounded corners*
0 $1 Rounding radius*
0 $2 $3 $4 $5 $6 $7 $8 $9 X,Y pos of 4 corners*
0 Add a 4 corners polygon primitive as box body*
4,1,4,$2,$3,$4,$5,$6,$7,$8,$9,$2,$3,0*
0 Add four circle primitives for the rounded corners*
1,1,$1+$1,$2,$3*
1,1,$1+$1,$4,$5*
1,1,$1+$1,$6,$7*
1,1,$1+$1,$8,$9*
0 Add four rect primitives between the rounded corners*
20,1,$1+$1,$2,$3,$4,$5,0*
20,1,$1+$1,$4,$5,$6,$7,0*
20,1,$1+$1,$6,$7,$8,$9,0*
20,1,$1+$1,$8,$9,$2,$3,0*%
G04 Aperture macros list end*
%ADD10C,0.150000*%
%ADD11C,0.120000*%
%ADD12C,0.100000*%
%ADD13C,0.200000*%
%ADD14C,2.200000*%
%ADD15RoundRect,0.160000X0.160000X-0.222500X0.160000X0.222500X-0.160000X0.222500X-0.160000X-0.222500X0*%
%ADD16RoundRect,0.155000X0.212500X0.155000X-0.212500X0.155000X-0.212500X-0.155000X0.212500X-0.155000X0*%
%ADD17RoundRect,0.160000X0.160000X-0.197500X0.160000X0.197500X-0.160000X0.197500X-0.160000X-0.197500X0*%
%ADD18RoundRect,0.160000X-0.197500X-0.160000X0.197500X-0.160000X0.197500X0.160000X-0.197500X0.160000X0*%
%ADD19RoundRect,0.160000X-0.222500X-0.160000X0.222500X-0.160000X0.222500X0.160000X-0.222500X0.160000X0*%
%ADD20RoundRect,0.250000X-0.400000X0.525000X-0.400000X-0.525000X0.400000X-0.525000X0.400000X0.525000X0*%
%ADD21RoundRect,0.160000X-0.160000X0.197500X-0.160000X-0.197500X0.160000X-0.197500X0.160000X0.197500X0*%
%ADD22RoundRect,0.155000X-0.212500X-0.155000X0.212500X-0.155000X0.212500X0.155000X-0.212500X0.155000X0*%
%ADD23RoundRect,0.250000X0.625000X-0.350000X0.625000X0.350000X-0.625000X0.350000X-0.625000X-0.350000X0*%
%ADD24O,1.750000X1.200000*%
%ADD25RoundRect,0.250000X0.650000X-0.350000X0.650000X0.350000X-0.650000X0.350000X-0.650000X-0.350000X0*%
%ADD26RoundRect,0.160000X0.197500X0.160000X-0.197500X0.160000X-0.197500X-0.160000X0.197500X-0.160000X0*%
%ADD27C,0.650000*%
%ADD28RoundRect,0.150000X-0.150000X-0.575000X0.150000X-0.575000X0.150000X0.575000X-0.150000X0.575000X0*%
%ADD29RoundRect,0.075000X-0.075000X-0.650000X0.075000X-0.650000X0.075000X0.650000X-0.075000X0.650000X0*%
%ADD30O,1.000000X2.100000*%
%ADD31O,1.000000X1.600000*%
%ADD32RoundRect,0.062500X-0.062500X0.337500X-0.062500X-0.337500X0.062500X-0.337500X0.062500X0.337500X0*%
%ADD33RoundRect,0.062500X-0.337500X0.062500X-0.337500X-0.062500X0.337500X-0.062500X0.337500X0.062500X0*%
%ADD34R,3.700000X3.700000*%
%ADD35RoundRect,0.155000X0.155000X-0.212500X0.155000X0.212500X-0.155000X0.212500X-0.155000X-0.212500X0*%
%ADD36R,1.700000X1.000000*%
%ADD37RoundRect,0.150000X0.512500X0.150000X-0.512500X0.150000X-0.512500X-0.150000X0.512500X-0.150000X0*%
%ADD38RoundRect,0.150000X0.150000X-0.512500X0.150000X0.512500X-0.150000X0.512500X-0.150000X-0.512500X0*%
%ADD39RoundRect,0.250000X-0.650000X0.800000X-0.650000X-0.800000X0.650000X-0.800000X0.650000X0.800000X0*%
%ADD40C,0.900000*%
%ADD41RoundRect,0.102000X-0.550000X0.350000X-0.550000X-0.350000X0.550000X-0.350000X0.550000X0.350000X0*%
%ADD42RoundRect,0.102000X-0.400000X0.500000X-0.400000X-0.500000X0.400000X-0.500000X0.400000X0.500000X0*%
G04 APERTURE END LIST*
D10*
X81454819Y-89166666D02*
X81454819Y-89642856D01*
X81454819Y-89642856D02*
X80454819Y-89642856D01*
X80550057Y-88880951D02*
X80502438Y-88833332D01*
X80502438Y-88833332D02*
X80454819Y-88738094D01*
X80454819Y-88738094D02*
X80454819Y-88499999D01*
X80454819Y-88499999D02*
X80502438Y-88404761D01*
X80502438Y-88404761D02*
X80550057Y-88357142D01*
X80550057Y-88357142D02*
X80645295Y-88309523D01*
X80645295Y-88309523D02*
X80740533Y-88309523D01*
X80740533Y-88309523D02*
X80883390Y-88357142D01*
X80883390Y-88357142D02*
X81454819Y-88928570D01*
X81454819Y-88928570D02*
X81454819Y-88309523D01*
X73357142Y-95359580D02*
X73309523Y-95407200D01*
X73309523Y-95407200D02*
X73166666Y-95454819D01*
X73166666Y-95454819D02*
X73071428Y-95454819D01*
X73071428Y-95454819D02*
X72928571Y-95407200D01*
X72928571Y-95407200D02*
X72833333Y-95311961D01*
X72833333Y-95311961D02*
X72785714Y-95216723D01*
X72785714Y-95216723D02*
X72738095Y-95026247D01*
X72738095Y-95026247D02*
X72738095Y-94883390D01*
X72738095Y-94883390D02*
X72785714Y-94692914D01*
X72785714Y-94692914D02*
X72833333Y-94597676D01*
X72833333Y-94597676D02*
X72928571Y-94502438D01*
X72928571Y-94502438D02*
X73071428Y-94454819D01*
X73071428Y-94454819D02*
X73166666Y-94454819D01*
X73166666Y-94454819D02*
X73309523Y-94502438D01*
X73309523Y-94502438D02*
X73357142Y-94550057D01*
X74309523Y-95454819D02*
X73738095Y-95454819D01*
X74023809Y-95454819D02*
X74023809Y-94454819D01*
X74023809Y-94454819D02*
X73928571Y-94597676D01*
X73928571Y-94597676D02*
X73833333Y-94692914D01*
X73833333Y-94692914D02*
X73738095Y-94740533D01*
X75166666Y-94454819D02*
X74976190Y-94454819D01*
X74976190Y-94454819D02*
X74880952Y-94502438D01*
X74880952Y-94502438D02*
X74833333Y-94550057D01*
X74833333Y-94550057D02*
X74738095Y-94692914D01*
X74738095Y-94692914D02*
X74690476Y-94883390D01*
X74690476Y-94883390D02*
X74690476Y-95264342D01*
X74690476Y-95264342D02*
X74738095Y-95359580D01*
X74738095Y-95359580D02*
X74785714Y-95407200D01*
X74785714Y-95407200D02*
X74880952Y-95454819D01*
X74880952Y-95454819D02*
X75071428Y-95454819D01*
X75071428Y-95454819D02*
X75166666Y-95407200D01*
X75166666Y-95407200D02*
X75214285Y-95359580D01*
X75214285Y-95359580D02*
X75261904Y-95264342D01*
X75261904Y-95264342D02*
X75261904Y-95026247D01*
X75261904Y-95026247D02*
X75214285Y-94931009D01*
X75214285Y-94931009D02*
X75166666Y-94883390D01*
X75166666Y-94883390D02*
X75071428Y-94835771D01*
X75071428Y-94835771D02*
X74880952Y-94835771D01*
X74880952Y-94835771D02*
X74785714Y-94883390D01*
X74785714Y-94883390D02*
X74738095Y-94931009D01*
X74738095Y-94931009D02*
X74690476Y-95026247D01*
X77454819Y-89666666D02*
X76978628Y-89999999D01*
X77454819Y-90238094D02*
X76454819Y-90238094D01*
X76454819Y-90238094D02*
X76454819Y-89857142D01*
X76454819Y-89857142D02*
X76502438Y-89761904D01*
X76502438Y-89761904D02*
X76550057Y-89714285D01*
X76550057Y-89714285D02*
X76645295Y-89666666D01*
X76645295Y-89666666D02*
X76788152Y-89666666D01*
X76788152Y-89666666D02*
X76883390Y-89714285D01*
X76883390Y-89714285D02*
X76931009Y-89761904D01*
X76931009Y-89761904D02*
X76978628Y-89857142D01*
X76978628Y-89857142D02*
X76978628Y-90238094D01*
X76788152Y-88809523D02*
X77454819Y-88809523D01*
X76407200Y-89047618D02*
X77121485Y-89285713D01*
X77121485Y-89285713D02*
X77121485Y-88666666D01*
X74833333Y-93954819D02*
X74500000Y-93478628D01*
X74261905Y-93954819D02*
X74261905Y-92954819D01*
X74261905Y-92954819D02*
X74642857Y-92954819D01*
X74642857Y-92954819D02*
X74738095Y-93002438D01*
X74738095Y-93002438D02*
X74785714Y-93050057D01*
X74785714Y-93050057D02*
X74833333Y-93145295D01*
X74833333Y-93145295D02*
X74833333Y-93288152D01*
X74833333Y-93288152D02*
X74785714Y-93383390D01*
X74785714Y-93383390D02*
X74738095Y-93431009D01*
X74738095Y-93431009D02*
X74642857Y-93478628D01*
X74642857Y-93478628D02*
X74261905Y-93478628D01*
X75309524Y-93954819D02*
X75500000Y-93954819D01*
X75500000Y-93954819D02*
X75595238Y-93907200D01*
X75595238Y-93907200D02*
X75642857Y-93859580D01*
X75642857Y-93859580D02*
X75738095Y-93716723D01*
X75738095Y-93716723D02*
X75785714Y-93526247D01*
X75785714Y-93526247D02*
X75785714Y-93145295D01*
X75785714Y-93145295D02*
X75738095Y-93050057D01*
X75738095Y-93050057D02*
X75690476Y-93002438D01*
X75690476Y-93002438D02*
X75595238Y-92954819D01*
X75595238Y-92954819D02*
X75404762Y-92954819D01*
X75404762Y-92954819D02*
X75309524Y-93002438D01*
X75309524Y-93002438D02*
X75261905Y-93050057D01*
X75261905Y-93050057D02*
X75214286Y-93145295D01*
X75214286Y-93145295D02*
X75214286Y-93383390D01*
X75214286Y-93383390D02*
X75261905Y-93478628D01*
X75261905Y-93478628D02*
X75309524Y-93526247D01*
X75309524Y-93526247D02*
X75404762Y-93573866D01*
X75404762Y-93573866D02*
X75595238Y-93573866D01*
X75595238Y-93573866D02*
X75690476Y-93526247D01*
X75690476Y-93526247D02*
X75738095Y-93478628D01*
X75738095Y-93478628D02*
X75785714Y-93383390D01*
X88833333Y-122019580D02*
X88785714Y-122067200D01*
X88785714Y-122067200D02*
X88642857Y-122114819D01*
X88642857Y-122114819D02*
X88547619Y-122114819D01*
X88547619Y-122114819D02*
X88404762Y-122067200D01*
X88404762Y-122067200D02*
X88309524Y-121971961D01*
X88309524Y-121971961D02*
X88261905Y-121876723D01*
X88261905Y-121876723D02*
X88214286Y-121686247D01*
X88214286Y-121686247D02*
X88214286Y-121543390D01*
X88214286Y-121543390D02*
X88261905Y-121352914D01*
X88261905Y-121352914D02*
X88309524Y-121257676D01*
X88309524Y-121257676D02*
X88404762Y-121162438D01*
X88404762Y-121162438D02*
X88547619Y-121114819D01*
X88547619Y-121114819D02*
X88642857Y-121114819D01*
X88642857Y-121114819D02*
X88785714Y-121162438D01*
X88785714Y-121162438D02*
X88833333Y-121210057D01*
X89690476Y-121448152D02*
X89690476Y-122114819D01*
X89452381Y-121067200D02*
X89214286Y-121781485D01*
X89214286Y-121781485D02*
X89833333Y-121781485D01*
X81333333Y-112359580D02*
X81285714Y-112407200D01*
X81285714Y-112407200D02*
X81142857Y-112454819D01*
X81142857Y-112454819D02*
X81047619Y-112454819D01*
X81047619Y-112454819D02*
X80904762Y-112407200D01*
X80904762Y-112407200D02*
X80809524Y-112311961D01*
X80809524Y-112311961D02*
X80761905Y-112216723D01*
X80761905Y-112216723D02*
X80714286Y-112026247D01*
X80714286Y-112026247D02*
X80714286Y-111883390D01*
X80714286Y-111883390D02*
X80761905Y-111692914D01*
X80761905Y-111692914D02*
X80809524Y-111597676D01*
X80809524Y-111597676D02*
X80904762Y-111502438D01*
X80904762Y-111502438D02*
X81047619Y-111454819D01*
X81047619Y-111454819D02*
X81142857Y-111454819D01*
X81142857Y-111454819D02*
X81285714Y-111502438D01*
X81285714Y-111502438D02*
X81333333Y-111550057D01*
X81904762Y-111883390D02*
X81809524Y-111835771D01*
X81809524Y-111835771D02*
X81761905Y-111788152D01*
X81761905Y-111788152D02*
X81714286Y-111692914D01*
X81714286Y-111692914D02*
X81714286Y-111645295D01*
X81714286Y-111645295D02*
X81761905Y-111550057D01*
X81761905Y-111550057D02*
X81809524Y-111502438D01*
X81809524Y-111502438D02*
X81904762Y-111454819D01*
X81904762Y-111454819D02*
X82095238Y-111454819D01*
X82095238Y-111454819D02*
X82190476Y-111502438D01*
X82190476Y-111502438D02*
X82238095Y-111550057D01*
X82238095Y-111550057D02*
X82285714Y-111645295D01*
X82285714Y-111645295D02*
X82285714Y-111692914D01*
X82285714Y-111692914D02*
X82238095Y-111788152D01*
X82238095Y-111788152D02*
X82190476Y-111835771D01*
X82190476Y-111835771D02*
X82095238Y-111883390D01*
X82095238Y-111883390D02*
X81904762Y-111883390D01*
X81904762Y-111883390D02*
X81809524Y-111931009D01*
X81809524Y-111931009D02*
X81761905Y-111978628D01*
X81761905Y-111978628D02*
X81714286Y-112073866D01*
X81714286Y-112073866D02*
X81714286Y-112264342D01*
X81714286Y-112264342D02*
X81761905Y-112359580D01*
X81761905Y-112359580D02*
X81809524Y-112407200D01*
X81809524Y-112407200D02*
X81904762Y-112454819D01*
X81904762Y-112454819D02*
X82095238Y-112454819D01*
X82095238Y-112454819D02*
X82190476Y-112407200D01*
X82190476Y-112407200D02*
X82238095Y-112359580D01*
X82238095Y-112359580D02*
X82285714Y-112264342D01*
X82285714Y-112264342D02*
X82285714Y-112073866D01*
X82285714Y-112073866D02*
X82238095Y-111978628D01*
X82238095Y-111978628D02*
X82190476Y-111931009D01*
X82190476Y-111931009D02*
X82095238Y-111883390D01*
X81333333Y-115359580D02*
X81285714Y-115407200D01*
X81285714Y-115407200D02*
X81142857Y-115454819D01*
X81142857Y-115454819D02*
X81047619Y-115454819D01*
X81047619Y-115454819D02*
X80904762Y-115407200D01*
X80904762Y-115407200D02*
X80809524Y-115311961D01*
X80809524Y-115311961D02*
X80761905Y-115216723D01*
X80761905Y-115216723D02*
X80714286Y-115026247D01*
X80714286Y-115026247D02*
X80714286Y-114883390D01*
X80714286Y-114883390D02*
X80761905Y-114692914D01*
X80761905Y-114692914D02*
X80809524Y-114597676D01*
X80809524Y-114597676D02*
X80904762Y-114502438D01*
X80904762Y-114502438D02*
X81047619Y-114454819D01*
X81047619Y-114454819D02*
X81142857Y-114454819D01*
X81142857Y-114454819D02*
X81285714Y-114502438D01*
X81285714Y-114502438D02*
X81333333Y-114550057D01*
X82238095Y-114454819D02*
X81761905Y-114454819D01*
X81761905Y-114454819D02*
X81714286Y-114931009D01*
X81714286Y-114931009D02*
X81761905Y-114883390D01*
X81761905Y-114883390D02*
X81857143Y-114835771D01*
X81857143Y-114835771D02*
X82095238Y-114835771D01*
X82095238Y-114835771D02*
X82190476Y-114883390D01*
X82190476Y-114883390D02*
X82238095Y-114931009D01*
X82238095Y-114931009D02*
X82285714Y-115026247D01*
X82285714Y-115026247D02*
X82285714Y-115264342D01*
X82285714Y-115264342D02*
X82238095Y-115359580D01*
X82238095Y-115359580D02*
X82190476Y-115407200D01*
X82190476Y-115407200D02*
X82095238Y-115454819D01*
X82095238Y-115454819D02*
X81857143Y-115454819D01*
X81857143Y-115454819D02*
X81761905Y-115407200D01*
X81761905Y-115407200D02*
X81714286Y-115359580D01*
X74761905Y-119454819D02*
X74761905Y-118454819D01*
X74761905Y-118454819D02*
X75000000Y-118454819D01*
X75000000Y-118454819D02*
X75142857Y-118502438D01*
X75142857Y-118502438D02*
X75238095Y-118597676D01*
X75238095Y-118597676D02*
X75285714Y-118692914D01*
X75285714Y-118692914D02*
X75333333Y-118883390D01*
X75333333Y-118883390D02*
X75333333Y-119026247D01*
X75333333Y-119026247D02*
X75285714Y-119216723D01*
X75285714Y-119216723D02*
X75238095Y-119311961D01*
X75238095Y-119311961D02*
X75142857Y-119407200D01*
X75142857Y-119407200D02*
X75000000Y-119454819D01*
X75000000Y-119454819D02*
X74761905Y-119454819D01*
X76285714Y-119454819D02*
X75714286Y-119454819D01*
X76000000Y-119454819D02*
X76000000Y-118454819D01*
X76000000Y-118454819D02*
X75904762Y-118597676D01*
X75904762Y-118597676D02*
X75809524Y-118692914D01*
X75809524Y-118692914D02*
X75714286Y-118740533D01*
X69666667Y-107407200D02*
X69809524Y-107454819D01*
X69809524Y-107454819D02*
X70047619Y-107454819D01*
X70047619Y-107454819D02*
X70142857Y-107407200D01*
X70142857Y-107407200D02*
X70190476Y-107359580D01*
X70190476Y-107359580D02*
X70238095Y-107264342D01*
X70238095Y-107264342D02*
X70238095Y-107169104D01*
X70238095Y-107169104D02*
X70190476Y-107073866D01*
X70190476Y-107073866D02*
X70142857Y-107026247D01*
X70142857Y-107026247D02*
X70047619Y-106978628D01*
X70047619Y-106978628D02*
X69857143Y-106931009D01*
X69857143Y-106931009D02*
X69761905Y-106883390D01*
X69761905Y-106883390D02*
X69714286Y-106835771D01*
X69714286Y-106835771D02*
X69666667Y-106740533D01*
X69666667Y-106740533D02*
X69666667Y-106645295D01*
X69666667Y-106645295D02*
X69714286Y-106550057D01*
X69714286Y-106550057D02*
X69761905Y-106502438D01*
X69761905Y-106502438D02*
X69857143Y-106454819D01*
X69857143Y-106454819D02*
X70095238Y-106454819D01*
X70095238Y-106454819D02*
X70238095Y-106502438D01*
X70571429Y-106454819D02*
X70809524Y-107454819D01*
X70809524Y-107454819D02*
X71000000Y-106740533D01*
X71000000Y-106740533D02*
X71190476Y-107454819D01*
X71190476Y-107454819D02*
X71428572Y-106454819D01*
X72238095Y-106788152D02*
X72238095Y-107454819D01*
X72000000Y-106407200D02*
X71761905Y-107121485D01*
X71761905Y-107121485D02*
X72380952Y-107121485D01*
X78833333Y-90954819D02*
X78500000Y-90478628D01*
X78261905Y-90954819D02*
X78261905Y-89954819D01*
X78261905Y-89954819D02*
X78642857Y-89954819D01*
X78642857Y-89954819D02*
X78738095Y-90002438D01*
X78738095Y-90002438D02*
X78785714Y-90050057D01*
X78785714Y-90050057D02*
X78833333Y-90145295D01*
X78833333Y-90145295D02*
X78833333Y-90288152D01*
X78833333Y-90288152D02*
X78785714Y-90383390D01*
X78785714Y-90383390D02*
X78738095Y-90431009D01*
X78738095Y-90431009D02*
X78642857Y-90478628D01*
X78642857Y-90478628D02*
X78261905Y-90478628D01*
X79738095Y-89954819D02*
X79261905Y-89954819D01*
X79261905Y-89954819D02*
X79214286Y-90431009D01*
X79214286Y-90431009D02*
X79261905Y-90383390D01*
X79261905Y-90383390D02*
X79357143Y-90335771D01*
X79357143Y-90335771D02*
X79595238Y-90335771D01*
X79595238Y-90335771D02*
X79690476Y-90383390D01*
X79690476Y-90383390D02*
X79738095Y-90431009D01*
X79738095Y-90431009D02*
X79785714Y-90526247D01*
X79785714Y-90526247D02*
X79785714Y-90764342D01*
X79785714Y-90764342D02*
X79738095Y-90859580D01*
X79738095Y-90859580D02*
X79690476Y-90907200D01*
X79690476Y-90907200D02*
X79595238Y-90954819D01*
X79595238Y-90954819D02*
X79357143Y-90954819D01*
X79357143Y-90954819D02*
X79261905Y-90907200D01*
X79261905Y-90907200D02*
X79214286Y-90859580D01*
X75857142Y-97859580D02*
X75809523Y-97907200D01*
X75809523Y-97907200D02*
X75666666Y-97954819D01*
X75666666Y-97954819D02*
X75571428Y-97954819D01*
X75571428Y-97954819D02*
X75428571Y-97907200D01*
X75428571Y-97907200D02*
X75333333Y-97811961D01*
X75333333Y-97811961D02*
X75285714Y-97716723D01*
X75285714Y-97716723D02*
X75238095Y-97526247D01*
X75238095Y-97526247D02*
X75238095Y-97383390D01*
X75238095Y-97383390D02*
X75285714Y-97192914D01*
X75285714Y-97192914D02*
X75333333Y-97097676D01*
X75333333Y-97097676D02*
X75428571Y-97002438D01*
X75428571Y-97002438D02*
X75571428Y-96954819D01*
X75571428Y-96954819D02*
X75666666Y-96954819D01*
X75666666Y-96954819D02*
X75809523Y-97002438D01*
X75809523Y-97002438D02*
X75857142Y-97050057D01*
X76809523Y-97954819D02*
X76238095Y-97954819D01*
X76523809Y-97954819D02*
X76523809Y-96954819D01*
X76523809Y-96954819D02*
X76428571Y-97097676D01*
X76428571Y-97097676D02*
X76333333Y-97192914D01*
X76333333Y-97192914D02*
X76238095Y-97240533D01*
X77142857Y-96954819D02*
X77809523Y-96954819D01*
X77809523Y-96954819D02*
X77380952Y-97954819D01*
X88004819Y-107833333D02*
X88719104Y-107833333D01*
X88719104Y-107833333D02*
X88861961Y-107880952D01*
X88861961Y-107880952D02*
X88957200Y-107976190D01*
X88957200Y-107976190D02*
X89004819Y-108119047D01*
X89004819Y-108119047D02*
X89004819Y-108214285D01*
X88100057Y-107404761D02*
X88052438Y-107357142D01*
X88052438Y-107357142D02*
X88004819Y-107261904D01*
X88004819Y-107261904D02*
X88004819Y-107023809D01*
X88004819Y-107023809D02*
X88052438Y-106928571D01*
X88052438Y-106928571D02*
X88100057Y-106880952D01*
X88100057Y-106880952D02*
X88195295Y-106833333D01*
X88195295Y-106833333D02*
X88290533Y-106833333D01*
X88290533Y-106833333D02*
X88433390Y-106880952D01*
X88433390Y-106880952D02*
X89004819Y-107452380D01*
X89004819Y-107452380D02*
X89004819Y-106833333D01*
X84669104Y-86119047D02*
X84669104Y-85642857D01*
X84954819Y-86214285D02*
X83954819Y-85880952D01*
X83954819Y-85880952D02*
X84954819Y-85547619D01*
X84954819Y-85214285D02*
X83954819Y-85214285D01*
X83954819Y-85214285D02*
X84954819Y-84642857D01*
X84954819Y-84642857D02*
X83954819Y-84642857D01*
X83954819Y-84309523D02*
X83954819Y-83738095D01*
X84954819Y-84023809D02*
X83954819Y-84023809D01*
X84954819Y-82880952D02*
X84954819Y-83452380D01*
X84954819Y-83166666D02*
X83954819Y-83166666D01*
X83954819Y-83166666D02*
X84097676Y-83261904D01*
X84097676Y-83261904D02*
X84192914Y-83357142D01*
X84192914Y-83357142D02*
X84240533Y-83452380D01*
X78833333Y-113954819D02*
X78500000Y-113478628D01*
X78261905Y-113954819D02*
X78261905Y-112954819D01*
X78261905Y-112954819D02*
X78642857Y-112954819D01*
X78642857Y-112954819D02*
X78738095Y-113002438D01*
X78738095Y-113002438D02*
X78785714Y-113050057D01*
X78785714Y-113050057D02*
X78833333Y-113145295D01*
X78833333Y-113145295D02*
X78833333Y-113288152D01*
X78833333Y-113288152D02*
X78785714Y-113383390D01*
X78785714Y-113383390D02*
X78738095Y-113431009D01*
X78738095Y-113431009D02*
X78642857Y-113478628D01*
X78642857Y-113478628D02*
X78261905Y-113478628D01*
X79785714Y-113954819D02*
X79214286Y-113954819D01*
X79500000Y-113954819D02*
X79500000Y-112954819D01*
X79500000Y-112954819D02*
X79404762Y-113097676D01*
X79404762Y-113097676D02*
X79309524Y-113192914D01*
X79309524Y-113192914D02*
X79214286Y-113240533D01*
X81833333Y-117454819D02*
X81500000Y-116978628D01*
X81261905Y-117454819D02*
X81261905Y-116454819D01*
X81261905Y-116454819D02*
X81642857Y-116454819D01*
X81642857Y-116454819D02*
X81738095Y-116502438D01*
X81738095Y-116502438D02*
X81785714Y-116550057D01*
X81785714Y-116550057D02*
X81833333Y-116645295D01*
X81833333Y-116645295D02*
X81833333Y-116788152D01*
X81833333Y-116788152D02*
X81785714Y-116883390D01*
X81785714Y-116883390D02*
X81738095Y-116931009D01*
X81738095Y-116931009D02*
X81642857Y-116978628D01*
X81642857Y-116978628D02*
X81261905Y-116978628D01*
X82166667Y-116454819D02*
X82785714Y-116454819D01*
X82785714Y-116454819D02*
X82452381Y-116835771D01*
X82452381Y-116835771D02*
X82595238Y-116835771D01*
X82595238Y-116835771D02*
X82690476Y-116883390D01*
X82690476Y-116883390D02*
X82738095Y-116931009D01*
X82738095Y-116931009D02*
X82785714Y-117026247D01*
X82785714Y-117026247D02*
X82785714Y-117264342D01*
X82785714Y-117264342D02*
X82738095Y-117359580D01*
X82738095Y-117359580D02*
X82690476Y-117407200D01*
X82690476Y-117407200D02*
X82595238Y-117454819D01*
X82595238Y-117454819D02*
X82309524Y-117454819D01*
X82309524Y-117454819D02*
X82214286Y-117407200D01*
X82214286Y-117407200D02*
X82166667Y-117359580D01*
X81333333Y-110859580D02*
X81285714Y-110907200D01*
X81285714Y-110907200D02*
X81142857Y-110954819D01*
X81142857Y-110954819D02*
X81047619Y-110954819D01*
X81047619Y-110954819D02*
X80904762Y-110907200D01*
X80904762Y-110907200D02*
X80809524Y-110811961D01*
X80809524Y-110811961D02*
X80761905Y-110716723D01*
X80761905Y-110716723D02*
X80714286Y-110526247D01*
X80714286Y-110526247D02*
X80714286Y-110383390D01*
X80714286Y-110383390D02*
X80761905Y-110192914D01*
X80761905Y-110192914D02*
X80809524Y-110097676D01*
X80809524Y-110097676D02*
X80904762Y-110002438D01*
X80904762Y-110002438D02*
X81047619Y-109954819D01*
X81047619Y-109954819D02*
X81142857Y-109954819D01*
X81142857Y-109954819D02*
X81285714Y-110002438D01*
X81285714Y-110002438D02*
X81333333Y-110050057D01*
X81666667Y-109954819D02*
X82285714Y-109954819D01*
X82285714Y-109954819D02*
X81952381Y-110335771D01*
X81952381Y-110335771D02*
X82095238Y-110335771D01*
X82095238Y-110335771D02*
X82190476Y-110383390D01*
X82190476Y-110383390D02*
X82238095Y-110431009D01*
X82238095Y-110431009D02*
X82285714Y-110526247D01*
X82285714Y-110526247D02*
X82285714Y-110764342D01*
X82285714Y-110764342D02*
X82238095Y-110859580D01*
X82238095Y-110859580D02*
X82190476Y-110907200D01*
X82190476Y-110907200D02*
X82095238Y-110954819D01*
X82095238Y-110954819D02*
X81809524Y-110954819D01*
X81809524Y-110954819D02*
X81714286Y-110907200D01*
X81714286Y-110907200D02*
X81666667Y-110859580D01*
X75333333Y-100954819D02*
X75000000Y-100478628D01*
X74761905Y-100954819D02*
X74761905Y-99954819D01*
X74761905Y-99954819D02*
X75142857Y-99954819D01*
X75142857Y-99954819D02*
X75238095Y-100002438D01*
X75238095Y-100002438D02*
X75285714Y-100050057D01*
X75285714Y-100050057D02*
X75333333Y-100145295D01*
X75333333Y-100145295D02*
X75333333Y-100288152D01*
X75333333Y-100288152D02*
X75285714Y-100383390D01*
X75285714Y-100383390D02*
X75238095Y-100431009D01*
X75238095Y-100431009D02*
X75142857Y-100478628D01*
X75142857Y-100478628D02*
X74761905Y-100478628D01*
X76190476Y-99954819D02*
X76000000Y-99954819D01*
X76000000Y-99954819D02*
X75904762Y-100002438D01*
X75904762Y-100002438D02*
X75857143Y-100050057D01*
X75857143Y-100050057D02*
X75761905Y-100192914D01*
X75761905Y-100192914D02*
X75714286Y-100383390D01*
X75714286Y-100383390D02*
X75714286Y-100764342D01*
X75714286Y-100764342D02*
X75761905Y-100859580D01*
X75761905Y-100859580D02*
X75809524Y-100907200D01*
X75809524Y-100907200D02*
X75904762Y-100954819D01*
X75904762Y-100954819D02*
X76095238Y-100954819D01*
X76095238Y-100954819D02*
X76190476Y-100907200D01*
X76190476Y-100907200D02*
X76238095Y-100859580D01*
X76238095Y-100859580D02*
X76285714Y-100764342D01*
X76285714Y-100764342D02*
X76285714Y-100526247D01*
X76285714Y-100526247D02*
X76238095Y-100431009D01*
X76238095Y-100431009D02*
X76190476Y-100383390D01*
X76190476Y-100383390D02*
X76095238Y-100335771D01*
X76095238Y-100335771D02*
X75904762Y-100335771D01*
X75904762Y-100335771D02*
X75809524Y-100383390D01*
X75809524Y-100383390D02*
X75761905Y-100431009D01*
X75761905Y-100431009D02*
X75714286Y-100526247D01*
X74666666Y-125954819D02*
X74666666Y-126669104D01*
X74666666Y-126669104D02*
X74619047Y-126811961D01*
X74619047Y-126811961D02*
X74523809Y-126907200D01*
X74523809Y-126907200D02*
X74380952Y-126954819D01*
X74380952Y-126954819D02*
X74285714Y-126954819D01*
X75666666Y-126954819D02*
X75095238Y-126954819D01*
X75380952Y-126954819D02*
X75380952Y-125954819D01*
X75380952Y-125954819D02*
X75285714Y-126097676D01*
X75285714Y-126097676D02*
X75190476Y-126192914D01*
X75190476Y-126192914D02*
X75095238Y-126240533D01*
X77357142Y-101359580D02*
X77309523Y-101407200D01*
X77309523Y-101407200D02*
X77166666Y-101454819D01*
X77166666Y-101454819D02*
X77071428Y-101454819D01*
X77071428Y-101454819D02*
X76928571Y-101407200D01*
X76928571Y-101407200D02*
X76833333Y-101311961D01*
X76833333Y-101311961D02*
X76785714Y-101216723D01*
X76785714Y-101216723D02*
X76738095Y-101026247D01*
X76738095Y-101026247D02*
X76738095Y-100883390D01*
X76738095Y-100883390D02*
X76785714Y-100692914D01*
X76785714Y-100692914D02*
X76833333Y-100597676D01*
X76833333Y-100597676D02*
X76928571Y-100502438D01*
X76928571Y-100502438D02*
X77071428Y-100454819D01*
X77071428Y-100454819D02*
X77166666Y-100454819D01*
X77166666Y-100454819D02*
X77309523Y-100502438D01*
X77309523Y-100502438D02*
X77357142Y-100550057D01*
X78309523Y-101454819D02*
X77738095Y-101454819D01*
X78023809Y-101454819D02*
X78023809Y-100454819D01*
X78023809Y-100454819D02*
X77928571Y-100597676D01*
X77928571Y-100597676D02*
X77833333Y-100692914D01*
X77833333Y-100692914D02*
X77738095Y-100740533D01*
X78642857Y-100454819D02*
X79261904Y-100454819D01*
X79261904Y-100454819D02*
X78928571Y-100835771D01*
X78928571Y-100835771D02*
X79071428Y-100835771D01*
X79071428Y-100835771D02*
X79166666Y-100883390D01*
X79166666Y-100883390D02*
X79214285Y-100931009D01*
X79214285Y-100931009D02*
X79261904Y-101026247D01*
X79261904Y-101026247D02*
X79261904Y-101264342D01*
X79261904Y-101264342D02*
X79214285Y-101359580D01*
X79214285Y-101359580D02*
X79166666Y-101407200D01*
X79166666Y-101407200D02*
X79071428Y-101454819D01*
X79071428Y-101454819D02*
X78785714Y-101454819D01*
X78785714Y-101454819D02*
X78690476Y-101407200D01*
X78690476Y-101407200D02*
X78642857Y-101359580D01*
X81738095Y-92454819D02*
X81738095Y-93264342D01*
X81738095Y-93264342D02*
X81785714Y-93359580D01*
X81785714Y-93359580D02*
X81833333Y-93407200D01*
X81833333Y-93407200D02*
X81928571Y-93454819D01*
X81928571Y-93454819D02*
X82119047Y-93454819D01*
X82119047Y-93454819D02*
X82214285Y-93407200D01*
X82214285Y-93407200D02*
X82261904Y-93359580D01*
X82261904Y-93359580D02*
X82309523Y-93264342D01*
X82309523Y-93264342D02*
X82309523Y-92454819D01*
X82690476Y-92454819D02*
X83309523Y-92454819D01*
X83309523Y-92454819D02*
X82976190Y-92835771D01*
X82976190Y-92835771D02*
X83119047Y-92835771D01*
X83119047Y-92835771D02*
X83214285Y-92883390D01*
X83214285Y-92883390D02*
X83261904Y-92931009D01*
X83261904Y-92931009D02*
X83309523Y-93026247D01*
X83309523Y-93026247D02*
X83309523Y-93264342D01*
X83309523Y-93264342D02*
X83261904Y-93359580D01*
X83261904Y-93359580D02*
X83214285Y-93407200D01*
X83214285Y-93407200D02*
X83119047Y-93454819D01*
X83119047Y-93454819D02*
X82833333Y-93454819D01*
X82833333Y-93454819D02*
X82738095Y-93407200D01*
X82738095Y-93407200D02*
X82690476Y-93359580D01*
X81833333Y-121124819D02*
X81500000Y-120648628D01*
X81261905Y-121124819D02*
X81261905Y-120124819D01*
X81261905Y-120124819D02*
X81642857Y-120124819D01*
X81642857Y-120124819D02*
X81738095Y-120172438D01*
X81738095Y-120172438D02*
X81785714Y-120220057D01*
X81785714Y-120220057D02*
X81833333Y-120315295D01*
X81833333Y-120315295D02*
X81833333Y-120458152D01*
X81833333Y-120458152D02*
X81785714Y-120553390D01*
X81785714Y-120553390D02*
X81738095Y-120601009D01*
X81738095Y-120601009D02*
X81642857Y-120648628D01*
X81642857Y-120648628D02*
X81261905Y-120648628D01*
X82214286Y-120220057D02*
X82261905Y-120172438D01*
X82261905Y-120172438D02*
X82357143Y-120124819D01*
X82357143Y-120124819D02*
X82595238Y-120124819D01*
X82595238Y-120124819D02*
X82690476Y-120172438D01*
X82690476Y-120172438D02*
X82738095Y-120220057D01*
X82738095Y-120220057D02*
X82785714Y-120315295D01*
X82785714Y-120315295D02*
X82785714Y-120410533D01*
X82785714Y-120410533D02*
X82738095Y-120553390D01*
X82738095Y-120553390D02*
X82166667Y-121124819D01*
X82166667Y-121124819D02*
X82785714Y-121124819D01*
X89859580Y-118666666D02*
X89907200Y-118714285D01*
X89907200Y-118714285D02*
X89954819Y-118857142D01*
X89954819Y-118857142D02*
X89954819Y-118952380D01*
X89954819Y-118952380D02*
X89907200Y-119095237D01*
X89907200Y-119095237D02*
X89811961Y-119190475D01*
X89811961Y-119190475D02*
X89716723Y-119238094D01*
X89716723Y-119238094D02*
X89526247Y-119285713D01*
X89526247Y-119285713D02*
X89383390Y-119285713D01*
X89383390Y-119285713D02*
X89192914Y-119238094D01*
X89192914Y-119238094D02*
X89097676Y-119190475D01*
X89097676Y-119190475D02*
X89002438Y-119095237D01*
X89002438Y-119095237D02*
X88954819Y-118952380D01*
X88954819Y-118952380D02*
X88954819Y-118857142D01*
X88954819Y-118857142D02*
X89002438Y-118714285D01*
X89002438Y-118714285D02*
X89050057Y-118666666D01*
X89954819Y-117714285D02*
X89954819Y-118285713D01*
X89954819Y-117999999D02*
X88954819Y-117999999D01*
X88954819Y-117999999D02*
X89097676Y-118095237D01*
X89097676Y-118095237D02*
X89192914Y-118190475D01*
X89192914Y-118190475D02*
X89240533Y-118285713D01*
X78357142Y-89359580D02*
X78309523Y-89407200D01*
X78309523Y-89407200D02*
X78166666Y-89454819D01*
X78166666Y-89454819D02*
X78071428Y-89454819D01*
X78071428Y-89454819D02*
X77928571Y-89407200D01*
X77928571Y-89407200D02*
X77833333Y-89311961D01*
X77833333Y-89311961D02*
X77785714Y-89216723D01*
X77785714Y-89216723D02*
X77738095Y-89026247D01*
X77738095Y-89026247D02*
X77738095Y-88883390D01*
X77738095Y-88883390D02*
X77785714Y-88692914D01*
X77785714Y-88692914D02*
X77833333Y-88597676D01*
X77833333Y-88597676D02*
X77928571Y-88502438D01*
X77928571Y-88502438D02*
X78071428Y-88454819D01*
X78071428Y-88454819D02*
X78166666Y-88454819D01*
X78166666Y-88454819D02*
X78309523Y-88502438D01*
X78309523Y-88502438D02*
X78357142Y-88550057D01*
X79309523Y-89454819D02*
X78738095Y-89454819D01*
X79023809Y-89454819D02*
X79023809Y-88454819D01*
X79023809Y-88454819D02*
X78928571Y-88597676D01*
X78928571Y-88597676D02*
X78833333Y-88692914D01*
X78833333Y-88692914D02*
X78738095Y-88740533D01*
X79928571Y-88454819D02*
X80023809Y-88454819D01*
X80023809Y-88454819D02*
X80119047Y-88502438D01*
X80119047Y-88502438D02*
X80166666Y-88550057D01*
X80166666Y-88550057D02*
X80214285Y-88645295D01*
X80214285Y-88645295D02*
X80261904Y-88835771D01*
X80261904Y-88835771D02*
X80261904Y-89073866D01*
X80261904Y-89073866D02*
X80214285Y-89264342D01*
X80214285Y-89264342D02*
X80166666Y-89359580D01*
X80166666Y-89359580D02*
X80119047Y-89407200D01*
X80119047Y-89407200D02*
X80023809Y-89454819D01*
X80023809Y-89454819D02*
X79928571Y-89454819D01*
X79928571Y-89454819D02*
X79833333Y-89407200D01*
X79833333Y-89407200D02*
X79785714Y-89359580D01*
X79785714Y-89359580D02*
X79738095Y-89264342D01*
X79738095Y-89264342D02*
X79690476Y-89073866D01*
X79690476Y-89073866D02*
X79690476Y-88835771D01*
X79690476Y-88835771D02*
X79738095Y-88645295D01*
X79738095Y-88645295D02*
X79785714Y-88550057D01*
X79785714Y-88550057D02*
X79833333Y-88502438D01*
X79833333Y-88502438D02*
X79928571Y-88454819D01*
X72166667Y-86407200D02*
X72309524Y-86454819D01*
X72309524Y-86454819D02*
X72547619Y-86454819D01*
X72547619Y-86454819D02*
X72642857Y-86407200D01*
X72642857Y-86407200D02*
X72690476Y-86359580D01*
X72690476Y-86359580D02*
X72738095Y-86264342D01*
X72738095Y-86264342D02*
X72738095Y-86169104D01*
X72738095Y-86169104D02*
X72690476Y-86073866D01*
X72690476Y-86073866D02*
X72642857Y-86026247D01*
X72642857Y-86026247D02*
X72547619Y-85978628D01*
X72547619Y-85978628D02*
X72357143Y-85931009D01*
X72357143Y-85931009D02*
X72261905Y-85883390D01*
X72261905Y-85883390D02*
X72214286Y-85835771D01*
X72214286Y-85835771D02*
X72166667Y-85740533D01*
X72166667Y-85740533D02*
X72166667Y-85645295D01*
X72166667Y-85645295D02*
X72214286Y-85550057D01*
X72214286Y-85550057D02*
X72261905Y-85502438D01*
X72261905Y-85502438D02*
X72357143Y-85454819D01*
X72357143Y-85454819D02*
X72595238Y-85454819D01*
X72595238Y-85454819D02*
X72738095Y-85502438D01*
X73071429Y-85454819D02*
X73309524Y-86454819D01*
X73309524Y-86454819D02*
X73500000Y-85740533D01*
X73500000Y-85740533D02*
X73690476Y-86454819D01*
X73690476Y-86454819D02*
X73928572Y-85454819D01*
X74214286Y-85454819D02*
X74833333Y-85454819D01*
X74833333Y-85454819D02*
X74500000Y-85835771D01*
X74500000Y-85835771D02*
X74642857Y-85835771D01*
X74642857Y-85835771D02*
X74738095Y-85883390D01*
X74738095Y-85883390D02*
X74785714Y-85931009D01*
X74785714Y-85931009D02*
X74833333Y-86026247D01*
X74833333Y-86026247D02*
X74833333Y-86264342D01*
X74833333Y-86264342D02*
X74785714Y-86359580D01*
X74785714Y-86359580D02*
X74738095Y-86407200D01*
X74738095Y-86407200D02*
X74642857Y-86454819D01*
X74642857Y-86454819D02*
X74357143Y-86454819D01*
X74357143Y-86454819D02*
X74261905Y-86407200D01*
X74261905Y-86407200D02*
X74214286Y-86359580D01*
X81333333Y-113859580D02*
X81285714Y-113907200D01*
X81285714Y-113907200D02*
X81142857Y-113954819D01*
X81142857Y-113954819D02*
X81047619Y-113954819D01*
X81047619Y-113954819D02*
X80904762Y-113907200D01*
X80904762Y-113907200D02*
X80809524Y-113811961D01*
X80809524Y-113811961D02*
X80761905Y-113716723D01*
X80761905Y-113716723D02*
X80714286Y-113526247D01*
X80714286Y-113526247D02*
X80714286Y-113383390D01*
X80714286Y-113383390D02*
X80761905Y-113192914D01*
X80761905Y-113192914D02*
X80809524Y-113097676D01*
X80809524Y-113097676D02*
X80904762Y-113002438D01*
X80904762Y-113002438D02*
X81047619Y-112954819D01*
X81047619Y-112954819D02*
X81142857Y-112954819D01*
X81142857Y-112954819D02*
X81285714Y-113002438D01*
X81285714Y-113002438D02*
X81333333Y-113050057D01*
X81809524Y-113954819D02*
X82000000Y-113954819D01*
X82000000Y-113954819D02*
X82095238Y-113907200D01*
X82095238Y-113907200D02*
X82142857Y-113859580D01*
X82142857Y-113859580D02*
X82238095Y-113716723D01*
X82238095Y-113716723D02*
X82285714Y-113526247D01*
X82285714Y-113526247D02*
X82285714Y-113145295D01*
X82285714Y-113145295D02*
X82238095Y-113050057D01*
X82238095Y-113050057D02*
X82190476Y-113002438D01*
X82190476Y-113002438D02*
X82095238Y-112954819D01*
X82095238Y-112954819D02*
X81904762Y-112954819D01*
X81904762Y-112954819D02*
X81809524Y-113002438D01*
X81809524Y-113002438D02*
X81761905Y-113050057D01*
X81761905Y-113050057D02*
X81714286Y-113145295D01*
X81714286Y-113145295D02*
X81714286Y-113383390D01*
X81714286Y-113383390D02*
X81761905Y-113478628D01*
X81761905Y-113478628D02*
X81809524Y-113526247D01*
X81809524Y-113526247D02*
X81904762Y-113573866D01*
X81904762Y-113573866D02*
X82095238Y-113573866D01*
X82095238Y-113573866D02*
X82190476Y-113526247D01*
X82190476Y-113526247D02*
X82238095Y-113478628D01*
X82238095Y-113478628D02*
X82285714Y-113383390D01*
X75457200Y-115333332D02*
X75504819Y-115190475D01*
X75504819Y-115190475D02*
X75504819Y-114952380D01*
X75504819Y-114952380D02*
X75457200Y-114857142D01*
X75457200Y-114857142D02*
X75409580Y-114809523D01*
X75409580Y-114809523D02*
X75314342Y-114761904D01*
X75314342Y-114761904D02*
X75219104Y-114761904D01*
X75219104Y-114761904D02*
X75123866Y-114809523D01*
X75123866Y-114809523D02*
X75076247Y-114857142D01*
X75076247Y-114857142D02*
X75028628Y-114952380D01*
X75028628Y-114952380D02*
X74981009Y-115142856D01*
X74981009Y-115142856D02*
X74933390Y-115238094D01*
X74933390Y-115238094D02*
X74885771Y-115285713D01*
X74885771Y-115285713D02*
X74790533Y-115333332D01*
X74790533Y-115333332D02*
X74695295Y-115333332D01*
X74695295Y-115333332D02*
X74600057Y-115285713D01*
X74600057Y-115285713D02*
X74552438Y-115238094D01*
X74552438Y-115238094D02*
X74504819Y-115142856D01*
X74504819Y-115142856D02*
X74504819Y-114904761D01*
X74504819Y-114904761D02*
X74552438Y-114761904D01*
X74504819Y-114428570D02*
X75504819Y-114190475D01*
X75504819Y-114190475D02*
X74790533Y-113999999D01*
X74790533Y-113999999D02*
X75504819Y-113809523D01*
X75504819Y-113809523D02*
X74504819Y-113571428D01*
X74504819Y-112714285D02*
X74504819Y-113190475D01*
X74504819Y-113190475D02*
X74981009Y-113238094D01*
X74981009Y-113238094D02*
X74933390Y-113190475D01*
X74933390Y-113190475D02*
X74885771Y-113095237D01*
X74885771Y-113095237D02*
X74885771Y-112857142D01*
X74885771Y-112857142D02*
X74933390Y-112761904D01*
X74933390Y-112761904D02*
X74981009Y-112714285D01*
X74981009Y-112714285D02*
X75076247Y-112666666D01*
X75076247Y-112666666D02*
X75314342Y-112666666D01*
X75314342Y-112666666D02*
X75409580Y-112714285D01*
X75409580Y-112714285D02*
X75457200Y-112761904D01*
X75457200Y-112761904D02*
X75504819Y-112857142D01*
X75504819Y-112857142D02*
X75504819Y-113095237D01*
X75504819Y-113095237D02*
X75457200Y-113190475D01*
X75457200Y-113190475D02*
X75409580Y-113238094D01*
X88857142Y-93909580D02*
X88809523Y-93957200D01*
X88809523Y-93957200D02*
X88666666Y-94004819D01*
X88666666Y-94004819D02*
X88571428Y-94004819D01*
X88571428Y-94004819D02*
X88428571Y-93957200D01*
X88428571Y-93957200D02*
X88333333Y-93861961D01*
X88333333Y-93861961D02*
X88285714Y-93766723D01*
X88285714Y-93766723D02*
X88238095Y-93576247D01*
X88238095Y-93576247D02*
X88238095Y-93433390D01*
X88238095Y-93433390D02*
X88285714Y-93242914D01*
X88285714Y-93242914D02*
X88333333Y-93147676D01*
X88333333Y-93147676D02*
X88428571Y-93052438D01*
X88428571Y-93052438D02*
X88571428Y-93004819D01*
X88571428Y-93004819D02*
X88666666Y-93004819D01*
X88666666Y-93004819D02*
X88809523Y-93052438D01*
X88809523Y-93052438D02*
X88857142Y-93100057D01*
X89809523Y-94004819D02*
X89238095Y-94004819D01*
X89523809Y-94004819D02*
X89523809Y-93004819D01*
X89523809Y-93004819D02*
X89428571Y-93147676D01*
X89428571Y-93147676D02*
X89333333Y-93242914D01*
X89333333Y-93242914D02*
X89238095Y-93290533D01*
X90761904Y-94004819D02*
X90190476Y-94004819D01*
X90476190Y-94004819D02*
X90476190Y-93004819D01*
X90476190Y-93004819D02*
X90380952Y-93147676D01*
X90380952Y-93147676D02*
X90285714Y-93242914D01*
X90285714Y-93242914D02*
X90190476Y-93290533D01*
X84238095Y-115954819D02*
X84238095Y-116764342D01*
X84238095Y-116764342D02*
X84285714Y-116859580D01*
X84285714Y-116859580D02*
X84333333Y-116907200D01*
X84333333Y-116907200D02*
X84428571Y-116954819D01*
X84428571Y-116954819D02*
X84619047Y-116954819D01*
X84619047Y-116954819D02*
X84714285Y-116907200D01*
X84714285Y-116907200D02*
X84761904Y-116859580D01*
X84761904Y-116859580D02*
X84809523Y-116764342D01*
X84809523Y-116764342D02*
X84809523Y-115954819D01*
X85809523Y-116954819D02*
X85238095Y-116954819D01*
X85523809Y-116954819D02*
X85523809Y-115954819D01*
X85523809Y-115954819D02*
X85428571Y-116097676D01*
X85428571Y-116097676D02*
X85333333Y-116192914D01*
X85333333Y-116192914D02*
X85238095Y-116240533D01*
X79316667Y-109657200D02*
X79459524Y-109704819D01*
X79459524Y-109704819D02*
X79697619Y-109704819D01*
X79697619Y-109704819D02*
X79792857Y-109657200D01*
X79792857Y-109657200D02*
X79840476Y-109609580D01*
X79840476Y-109609580D02*
X79888095Y-109514342D01*
X79888095Y-109514342D02*
X79888095Y-109419104D01*
X79888095Y-109419104D02*
X79840476Y-109323866D01*
X79840476Y-109323866D02*
X79792857Y-109276247D01*
X79792857Y-109276247D02*
X79697619Y-109228628D01*
X79697619Y-109228628D02*
X79507143Y-109181009D01*
X79507143Y-109181009D02*
X79411905Y-109133390D01*
X79411905Y-109133390D02*
X79364286Y-109085771D01*
X79364286Y-109085771D02*
X79316667Y-108990533D01*
X79316667Y-108990533D02*
X79316667Y-108895295D01*
X79316667Y-108895295D02*
X79364286Y-108800057D01*
X79364286Y-108800057D02*
X79411905Y-108752438D01*
X79411905Y-108752438D02*
X79507143Y-108704819D01*
X79507143Y-108704819D02*
X79745238Y-108704819D01*
X79745238Y-108704819D02*
X79888095Y-108752438D01*
X80221429Y-108704819D02*
X80459524Y-109704819D01*
X80459524Y-109704819D02*
X80650000Y-108990533D01*
X80650000Y-108990533D02*
X80840476Y-109704819D01*
X80840476Y-109704819D02*
X81078572Y-108704819D01*
X81411905Y-108800057D02*
X81459524Y-108752438D01*
X81459524Y-108752438D02*
X81554762Y-108704819D01*
X81554762Y-108704819D02*
X81792857Y-108704819D01*
X81792857Y-108704819D02*
X81888095Y-108752438D01*
X81888095Y-108752438D02*
X81935714Y-108800057D01*
X81935714Y-108800057D02*
X81983333Y-108895295D01*
X81983333Y-108895295D02*
X81983333Y-108990533D01*
X81983333Y-108990533D02*
X81935714Y-109133390D01*
X81935714Y-109133390D02*
X81364286Y-109704819D01*
X81364286Y-109704819D02*
X81983333Y-109704819D01*
X86357142Y-100909580D02*
X86309523Y-100957200D01*
X86309523Y-100957200D02*
X86166666Y-101004819D01*
X86166666Y-101004819D02*
X86071428Y-101004819D01*
X86071428Y-101004819D02*
X85928571Y-100957200D01*
X85928571Y-100957200D02*
X85833333Y-100861961D01*
X85833333Y-100861961D02*
X85785714Y-100766723D01*
X85785714Y-100766723D02*
X85738095Y-100576247D01*
X85738095Y-100576247D02*
X85738095Y-100433390D01*
X85738095Y-100433390D02*
X85785714Y-100242914D01*
X85785714Y-100242914D02*
X85833333Y-100147676D01*
X85833333Y-100147676D02*
X85928571Y-100052438D01*
X85928571Y-100052438D02*
X86071428Y-100004819D01*
X86071428Y-100004819D02*
X86166666Y-100004819D01*
X86166666Y-100004819D02*
X86309523Y-100052438D01*
X86309523Y-100052438D02*
X86357142Y-100100057D01*
X87309523Y-101004819D02*
X86738095Y-101004819D01*
X87023809Y-101004819D02*
X87023809Y-100004819D01*
X87023809Y-100004819D02*
X86928571Y-100147676D01*
X86928571Y-100147676D02*
X86833333Y-100242914D01*
X86833333Y-100242914D02*
X86738095Y-100290533D01*
X87690476Y-100100057D02*
X87738095Y-100052438D01*
X87738095Y-100052438D02*
X87833333Y-100004819D01*
X87833333Y-100004819D02*
X88071428Y-100004819D01*
X88071428Y-100004819D02*
X88166666Y-100052438D01*
X88166666Y-100052438D02*
X88214285Y-100100057D01*
X88214285Y-100100057D02*
X88261904Y-100195295D01*
X88261904Y-100195295D02*
X88261904Y-100290533D01*
X88261904Y-100290533D02*
X88214285Y-100433390D01*
X88214285Y-100433390D02*
X87642857Y-101004819D01*
X87642857Y-101004819D02*
X88261904Y-101004819D01*
X85359580Y-92142857D02*
X85407200Y-92190476D01*
X85407200Y-92190476D02*
X85454819Y-92333333D01*
X85454819Y-92333333D02*
X85454819Y-92428571D01*
X85454819Y-92428571D02*
X85407200Y-92571428D01*
X85407200Y-92571428D02*
X85311961Y-92666666D01*
X85311961Y-92666666D02*
X85216723Y-92714285D01*
X85216723Y-92714285D02*
X85026247Y-92761904D01*
X85026247Y-92761904D02*
X84883390Y-92761904D01*
X84883390Y-92761904D02*
X84692914Y-92714285D01*
X84692914Y-92714285D02*
X84597676Y-92666666D01*
X84597676Y-92666666D02*
X84502438Y-92571428D01*
X84502438Y-92571428D02*
X84454819Y-92428571D01*
X84454819Y-92428571D02*
X84454819Y-92333333D01*
X84454819Y-92333333D02*
X84502438Y-92190476D01*
X84502438Y-92190476D02*
X84550057Y-92142857D01*
X85454819Y-91190476D02*
X85454819Y-91761904D01*
X85454819Y-91476190D02*
X84454819Y-91476190D01*
X84454819Y-91476190D02*
X84597676Y-91571428D01*
X84597676Y-91571428D02*
X84692914Y-91666666D01*
X84692914Y-91666666D02*
X84740533Y-91761904D01*
X84788152Y-90333333D02*
X85454819Y-90333333D01*
X84407200Y-90571428D02*
X85121485Y-90809523D01*
X85121485Y-90809523D02*
X85121485Y-90190476D01*
X84904819Y-115124404D02*
X85714342Y-115124404D01*
X85714342Y-115124404D02*
X85809580Y-115076785D01*
X85809580Y-115076785D02*
X85857200Y-115029166D01*
X85857200Y-115029166D02*
X85904819Y-114933928D01*
X85904819Y-114933928D02*
X85904819Y-114743452D01*
X85904819Y-114743452D02*
X85857200Y-114648214D01*
X85857200Y-114648214D02*
X85809580Y-114600595D01*
X85809580Y-114600595D02*
X85714342Y-114552976D01*
X85714342Y-114552976D02*
X84904819Y-114552976D01*
X85000057Y-114124404D02*
X84952438Y-114076785D01*
X84952438Y-114076785D02*
X84904819Y-113981547D01*
X84904819Y-113981547D02*
X84904819Y-113743452D01*
X84904819Y-113743452D02*
X84952438Y-113648214D01*
X84952438Y-113648214D02*
X85000057Y-113600595D01*
X85000057Y-113600595D02*
X85095295Y-113552976D01*
X85095295Y-113552976D02*
X85190533Y-113552976D01*
X85190533Y-113552976D02*
X85333390Y-113600595D01*
X85333390Y-113600595D02*
X85904819Y-114172023D01*
X85904819Y-114172023D02*
X85904819Y-113552976D01*
X86359580Y-109166666D02*
X86407200Y-109214285D01*
X86407200Y-109214285D02*
X86454819Y-109357142D01*
X86454819Y-109357142D02*
X86454819Y-109452380D01*
X86454819Y-109452380D02*
X86407200Y-109595237D01*
X86407200Y-109595237D02*
X86311961Y-109690475D01*
X86311961Y-109690475D02*
X86216723Y-109738094D01*
X86216723Y-109738094D02*
X86026247Y-109785713D01*
X86026247Y-109785713D02*
X85883390Y-109785713D01*
X85883390Y-109785713D02*
X85692914Y-109738094D01*
X85692914Y-109738094D02*
X85597676Y-109690475D01*
X85597676Y-109690475D02*
X85502438Y-109595237D01*
X85502438Y-109595237D02*
X85454819Y-109452380D01*
X85454819Y-109452380D02*
X85454819Y-109357142D01*
X85454819Y-109357142D02*
X85502438Y-109214285D01*
X85502438Y-109214285D02*
X85550057Y-109166666D01*
X85454819Y-108833332D02*
X85454819Y-108166666D01*
X85454819Y-108166666D02*
X86454819Y-108595237D01*
X91023809Y-97028628D02*
X91023809Y-97504819D01*
X90690476Y-96504819D02*
X91023809Y-97028628D01*
X91023809Y-97028628D02*
X91357142Y-96504819D01*
X92214285Y-97504819D02*
X91642857Y-97504819D01*
X91928571Y-97504819D02*
X91928571Y-96504819D01*
X91928571Y-96504819D02*
X91833333Y-96647676D01*
X91833333Y-96647676D02*
X91738095Y-96742914D01*
X91738095Y-96742914D02*
X91642857Y-96790533D01*
X87859580Y-109166666D02*
X87907200Y-109214285D01*
X87907200Y-109214285D02*
X87954819Y-109357142D01*
X87954819Y-109357142D02*
X87954819Y-109452380D01*
X87954819Y-109452380D02*
X87907200Y-109595237D01*
X87907200Y-109595237D02*
X87811961Y-109690475D01*
X87811961Y-109690475D02*
X87716723Y-109738094D01*
X87716723Y-109738094D02*
X87526247Y-109785713D01*
X87526247Y-109785713D02*
X87383390Y-109785713D01*
X87383390Y-109785713D02*
X87192914Y-109738094D01*
X87192914Y-109738094D02*
X87097676Y-109690475D01*
X87097676Y-109690475D02*
X87002438Y-109595237D01*
X87002438Y-109595237D02*
X86954819Y-109452380D01*
X86954819Y-109452380D02*
X86954819Y-109357142D01*
X86954819Y-109357142D02*
X87002438Y-109214285D01*
X87002438Y-109214285D02*
X87050057Y-109166666D01*
X86954819Y-108309523D02*
X86954819Y-108499999D01*
X86954819Y-108499999D02*
X87002438Y-108595237D01*
X87002438Y-108595237D02*
X87050057Y-108642856D01*
X87050057Y-108642856D02*
X87192914Y-108738094D01*
X87192914Y-108738094D02*
X87383390Y-108785713D01*
X87383390Y-108785713D02*
X87764342Y-108785713D01*
X87764342Y-108785713D02*
X87859580Y-108738094D01*
X87859580Y-108738094D02*
X87907200Y-108690475D01*
X87907200Y-108690475D02*
X87954819Y-108595237D01*
X87954819Y-108595237D02*
X87954819Y-108404761D01*
X87954819Y-108404761D02*
X87907200Y-108309523D01*
X87907200Y-108309523D02*
X87859580Y-108261904D01*
X87859580Y-108261904D02*
X87764342Y-108214285D01*
X87764342Y-108214285D02*
X87526247Y-108214285D01*
X87526247Y-108214285D02*
X87431009Y-108261904D01*
X87431009Y-108261904D02*
X87383390Y-108309523D01*
X87383390Y-108309523D02*
X87335771Y-108404761D01*
X87335771Y-108404761D02*
X87335771Y-108595237D01*
X87335771Y-108595237D02*
X87383390Y-108690475D01*
X87383390Y-108690475D02*
X87431009Y-108738094D01*
X87431009Y-108738094D02*
X87526247Y-108785713D01*
X75833333Y-117954819D02*
X75500000Y-117478628D01*
X75261905Y-117954819D02*
X75261905Y-116954819D01*
X75261905Y-116954819D02*
X75642857Y-116954819D01*
X75642857Y-116954819D02*
X75738095Y-117002438D01*
X75738095Y-117002438D02*
X75785714Y-117050057D01*
X75785714Y-117050057D02*
X75833333Y-117145295D01*
X75833333Y-117145295D02*
X75833333Y-117288152D01*
X75833333Y-117288152D02*
X75785714Y-117383390D01*
X75785714Y-117383390D02*
X75738095Y-117431009D01*
X75738095Y-117431009D02*
X75642857Y-117478628D01*
X75642857Y-117478628D02*
X75261905Y-117478628D01*
X76404762Y-117383390D02*
X76309524Y-117335771D01*
X76309524Y-117335771D02*
X76261905Y-117288152D01*
X76261905Y-117288152D02*
X76214286Y-117192914D01*
X76214286Y-117192914D02*
X76214286Y-117145295D01*
X76214286Y-117145295D02*
X76261905Y-117050057D01*
X76261905Y-117050057D02*
X76309524Y-117002438D01*
X76309524Y-117002438D02*
X76404762Y-116954819D01*
X76404762Y-116954819D02*
X76595238Y-116954819D01*
X76595238Y-116954819D02*
X76690476Y-117002438D01*
X76690476Y-117002438D02*
X76738095Y-117050057D01*
X76738095Y-117050057D02*
X76785714Y-117145295D01*
X76785714Y-117145295D02*
X76785714Y-117192914D01*
X76785714Y-117192914D02*
X76738095Y-117288152D01*
X76738095Y-117288152D02*
X76690476Y-117335771D01*
X76690476Y-117335771D02*
X76595238Y-117383390D01*
X76595238Y-117383390D02*
X76404762Y-117383390D01*
X76404762Y-117383390D02*
X76309524Y-117431009D01*
X76309524Y-117431009D02*
X76261905Y-117478628D01*
X76261905Y-117478628D02*
X76214286Y-117573866D01*
X76214286Y-117573866D02*
X76214286Y-117764342D01*
X76214286Y-117764342D02*
X76261905Y-117859580D01*
X76261905Y-117859580D02*
X76309524Y-117907200D01*
X76309524Y-117907200D02*
X76404762Y-117954819D01*
X76404762Y-117954819D02*
X76595238Y-117954819D01*
X76595238Y-117954819D02*
X76690476Y-117907200D01*
X76690476Y-117907200D02*
X76738095Y-117859580D01*
X76738095Y-117859580D02*
X76785714Y-117764342D01*
X76785714Y-117764342D02*
X76785714Y-117573866D01*
X76785714Y-117573866D02*
X76738095Y-117478628D01*
X76738095Y-117478628D02*
X76690476Y-117431009D01*
X76690476Y-117431009D02*
X76595238Y-117383390D01*
X82333333Y-101454819D02*
X82000000Y-100978628D01*
X81761905Y-101454819D02*
X81761905Y-100454819D01*
X81761905Y-100454819D02*
X82142857Y-100454819D01*
X82142857Y-100454819D02*
X82238095Y-100502438D01*
X82238095Y-100502438D02*
X82285714Y-100550057D01*
X82285714Y-100550057D02*
X82333333Y-100645295D01*
X82333333Y-100645295D02*
X82333333Y-100788152D01*
X82333333Y-100788152D02*
X82285714Y-100883390D01*
X82285714Y-100883390D02*
X82238095Y-100931009D01*
X82238095Y-100931009D02*
X82142857Y-100978628D01*
X82142857Y-100978628D02*
X81761905Y-100978628D01*
X82666667Y-100454819D02*
X83333333Y-100454819D01*
X83333333Y-100454819D02*
X82904762Y-101454819D01*
X91933332Y-113324200D02*
X92047618Y-113362295D01*
X92047618Y-113362295D02*
X92238094Y-113362295D01*
X92238094Y-113362295D02*
X92314285Y-113324200D01*
X92314285Y-113324200D02*
X92352380Y-113286104D01*
X92352380Y-113286104D02*
X92390475Y-113209914D01*
X92390475Y-113209914D02*
X92390475Y-113133723D01*
X92390475Y-113133723D02*
X92352380Y-113057533D01*
X92352380Y-113057533D02*
X92314285Y-113019438D01*
X92314285Y-113019438D02*
X92238094Y-112981342D01*
X92238094Y-112981342D02*
X92085713Y-112943247D01*
X92085713Y-112943247D02*
X92009523Y-112905152D01*
X92009523Y-112905152D02*
X91971428Y-112867057D01*
X91971428Y-112867057D02*
X91933332Y-112790866D01*
X91933332Y-112790866D02*
X91933332Y-112714676D01*
X91933332Y-112714676D02*
X91971428Y-112638485D01*
X91971428Y-112638485D02*
X92009523Y-112600390D01*
X92009523Y-112600390D02*
X92085713Y-112562295D01*
X92085713Y-112562295D02*
X92276190Y-112562295D01*
X92276190Y-112562295D02*
X92390475Y-112600390D01*
X92657142Y-112562295D02*
X92847618Y-113362295D01*
X92847618Y-113362295D02*
X92999999Y-112790866D01*
X92999999Y-112790866D02*
X93152380Y-113362295D01*
X93152380Y-113362295D02*
X93342857Y-112562295D01*
X94066666Y-113362295D02*
X93609523Y-113362295D01*
X93838095Y-113362295D02*
X93838095Y-112562295D01*
X93838095Y-112562295D02*
X93761904Y-112676580D01*
X93761904Y-112676580D02*
X93685714Y-112752771D01*
X93685714Y-112752771D02*
X93609523Y-112790866D01*
X69761905Y-93954819D02*
X69761905Y-92954819D01*
X69761905Y-92954819D02*
X70000000Y-92954819D01*
X70000000Y-92954819D02*
X70142857Y-93002438D01*
X70142857Y-93002438D02*
X70238095Y-93097676D01*
X70238095Y-93097676D02*
X70285714Y-93192914D01*
X70285714Y-93192914D02*
X70333333Y-93383390D01*
X70333333Y-93383390D02*
X70333333Y-93526247D01*
X70333333Y-93526247D02*
X70285714Y-93716723D01*
X70285714Y-93716723D02*
X70238095Y-93811961D01*
X70238095Y-93811961D02*
X70142857Y-93907200D01*
X70142857Y-93907200D02*
X70000000Y-93954819D01*
X70000000Y-93954819D02*
X69761905Y-93954819D01*
X70714286Y-93050057D02*
X70761905Y-93002438D01*
X70761905Y-93002438D02*
X70857143Y-92954819D01*
X70857143Y-92954819D02*
X71095238Y-92954819D01*
X71095238Y-92954819D02*
X71190476Y-93002438D01*
X71190476Y-93002438D02*
X71238095Y-93050057D01*
X71238095Y-93050057D02*
X71285714Y-93145295D01*
X71285714Y-93145295D02*
X71285714Y-93240533D01*
X71285714Y-93240533D02*
X71238095Y-93383390D01*
X71238095Y-93383390D02*
X70666667Y-93954819D01*
X70666667Y-93954819D02*
X71285714Y-93954819D01*
X75833333Y-120859580D02*
X75785714Y-120907200D01*
X75785714Y-120907200D02*
X75642857Y-120954819D01*
X75642857Y-120954819D02*
X75547619Y-120954819D01*
X75547619Y-120954819D02*
X75404762Y-120907200D01*
X75404762Y-120907200D02*
X75309524Y-120811961D01*
X75309524Y-120811961D02*
X75261905Y-120716723D01*
X75261905Y-120716723D02*
X75214286Y-120526247D01*
X75214286Y-120526247D02*
X75214286Y-120383390D01*
X75214286Y-120383390D02*
X75261905Y-120192914D01*
X75261905Y-120192914D02*
X75309524Y-120097676D01*
X75309524Y-120097676D02*
X75404762Y-120002438D01*
X75404762Y-120002438D02*
X75547619Y-119954819D01*
X75547619Y-119954819D02*
X75642857Y-119954819D01*
X75642857Y-119954819D02*
X75785714Y-120002438D01*
X75785714Y-120002438D02*
X75833333Y-120050057D01*
X76214286Y-120050057D02*
X76261905Y-120002438D01*
X76261905Y-120002438D02*
X76357143Y-119954819D01*
X76357143Y-119954819D02*
X76595238Y-119954819D01*
X76595238Y-119954819D02*
X76690476Y-120002438D01*
X76690476Y-120002438D02*
X76738095Y-120050057D01*
X76738095Y-120050057D02*
X76785714Y-120145295D01*
X76785714Y-120145295D02*
X76785714Y-120240533D01*
X76785714Y-120240533D02*
X76738095Y-120383390D01*
X76738095Y-120383390D02*
X76166667Y-120954819D01*
X76166667Y-120954819D02*
X76785714Y-120954819D01*
X83954819Y-91166666D02*
X83954819Y-91642856D01*
X83954819Y-91642856D02*
X82954819Y-91642856D01*
X83954819Y-90309523D02*
X83954819Y-90880951D01*
X83954819Y-90595237D02*
X82954819Y-90595237D01*
X82954819Y-90595237D02*
X83097676Y-90690475D01*
X83097676Y-90690475D02*
X83192914Y-90785713D01*
X83192914Y-90785713D02*
X83240533Y-90880951D01*
%TO.C,L2*%
D11*
X82140000Y-89100200D02*
X82140000Y-88899800D01*
X82860000Y-89100200D02*
X82860000Y-88899800D01*
%TO.C,C16*%
X76615835Y-94640000D02*
X76384165Y-94640000D01*
X76615835Y-95360000D02*
X76384165Y-95360000D01*
%TO.C,R4*%
X76620000Y-91667621D02*
X76620000Y-91332379D01*
X77380000Y-91667621D02*
X77380000Y-91332379D01*
%TO.C,R9*%
X76832379Y-93120000D02*
X77167621Y-93120000D01*
X76832379Y-93880000D02*
X77167621Y-93880000D01*
%TO.C,C4*%
X89115835Y-120140000D02*
X88884165Y-120140000D01*
X89115835Y-120860000D02*
X88884165Y-120860000D01*
%TO.C,C8*%
X83615835Y-111640000D02*
X83384165Y-111640000D01*
X83615835Y-112360000D02*
X83384165Y-112360000D01*
%TO.C,C5*%
X83615835Y-114640000D02*
X83384165Y-114640000D01*
X83615835Y-115360000D02*
X83384165Y-115360000D01*
%TO.C,D1*%
D12*
X76785000Y-119500000D02*
G75*
G02*
X76685000Y-119500000I-50000J0D01*
G01*
X76685000Y-119500000D02*
G75*
G02*
X76785000Y-119500000I50000J0D01*
G01*
%TO.C,SW4*%
D11*
X67770000Y-98270000D02*
X67770000Y-104730000D01*
X67770000Y-98270000D02*
X67800000Y-98270000D01*
X67770000Y-104730000D02*
X67800000Y-104730000D01*
X72300000Y-98270000D02*
X69700000Y-98270000D01*
X72300000Y-104730000D02*
X69700000Y-104730000D01*
X74200000Y-98270000D02*
X74230000Y-98270000D01*
X74230000Y-98270000D02*
X74230000Y-104730000D01*
X74230000Y-104730000D02*
X74200000Y-104730000D01*
%TO.C,R5*%
X80620000Y-92332379D02*
X80620000Y-92667621D01*
X81380000Y-92332379D02*
X81380000Y-92667621D01*
%TO.C,C17*%
X76384165Y-95640000D02*
X76615835Y-95640000D01*
X76384165Y-96360000D02*
X76615835Y-96360000D01*
%TO.C,J2*%
X89340000Y-109610000D02*
X89340000Y-110860000D01*
X89340000Y-110860000D02*
X90590000Y-110860000D01*
X89440000Y-108800000D02*
X89440000Y-109100000D01*
X89440000Y-109100000D02*
X89640000Y-109100000D01*
X89540000Y-108800000D02*
X89540000Y-109100000D01*
X89640000Y-108000000D02*
X90250000Y-108000000D01*
X89640000Y-108800000D02*
X89440000Y-108800000D01*
X90250000Y-105050000D02*
X90250000Y-107000000D01*
X90250000Y-107000000D02*
X89640000Y-107000000D01*
X90250000Y-108000000D02*
X90250000Y-109950000D01*
X90250000Y-109950000D02*
X93750000Y-109950000D01*
X90950000Y-104440000D02*
X90950000Y-105050000D01*
X90950000Y-110560000D02*
X90950000Y-109950000D01*
X92250000Y-104440000D02*
X92250000Y-105050000D01*
X92250000Y-110560000D02*
X92250000Y-109950000D01*
X93250000Y-107400000D02*
X93750000Y-107400000D01*
X93250000Y-107600000D02*
X93250000Y-107400000D01*
X93750000Y-105050000D02*
X90250000Y-105050000D01*
X93750000Y-107500000D02*
X93250000Y-107500000D01*
X93750000Y-107600000D02*
X93250000Y-107600000D01*
X93750000Y-109950000D02*
X93750000Y-105050000D01*
X89640000Y-104440000D02*
X94360000Y-104440000D01*
X94360000Y-110560000D01*
X89640000Y-110560000D01*
X89640000Y-104440000D01*
%TO.C,ANT1*%
X81340000Y-82900000D02*
X81340000Y-86810000D01*
X81340000Y-86810000D02*
X83660000Y-86810000D01*
X83660000Y-86810000D02*
X83660000Y-82900000D01*
%TO.C,R1*%
X78620000Y-116167621D02*
X78620000Y-115832379D01*
X79380000Y-116167621D02*
X79380000Y-115832379D01*
%TO.C,R3*%
X82167621Y-117620000D02*
X81832379Y-117620000D01*
X82167621Y-118380000D02*
X81832379Y-118380000D01*
%TO.C,C3*%
X83605835Y-110140000D02*
X83374165Y-110140000D01*
X83605835Y-110860000D02*
X83374165Y-110860000D01*
%TO.C,R6*%
X76332379Y-98620000D02*
X76667621Y-98620000D01*
X76332379Y-99380000D02*
X76667621Y-99380000D01*
%TO.C,J1*%
X76550000Y-124645000D02*
X76550000Y-126645000D01*
X76550000Y-128545000D02*
X76550000Y-130445000D01*
X76550000Y-130445000D02*
X85950000Y-130445000D01*
X85950000Y-124645000D02*
X85950000Y-126645000D01*
X85950000Y-128545000D02*
X85950000Y-130445000D01*
%TO.C,C13*%
X77384165Y-101640000D02*
X77615835Y-101640000D01*
X77384165Y-102360000D02*
X77615835Y-102360000D01*
%TO.C,U3*%
X78640000Y-94440000D02*
X79115000Y-94440000D01*
X78640000Y-94915000D02*
X78640000Y-94440000D01*
X78640000Y-99660000D02*
X78640000Y-99185000D01*
X79115000Y-99660000D02*
X78640000Y-99660000D01*
X83385000Y-94440000D02*
X83860000Y-94440000D01*
X83860000Y-94440000D02*
X83860000Y-94915000D01*
X83860000Y-99185000D02*
X83860000Y-99660000D01*
X83860000Y-99660000D02*
X83385000Y-99660000D01*
X83000000Y-93940000D02*
X82760000Y-93610000D01*
X83240000Y-93610000D01*
X83000000Y-93940000D01*
G36*
X83000000Y-93940000D02*
G01*
X82760000Y-93610000D01*
X83240000Y-93610000D01*
X83000000Y-93940000D01*
G37*
%TO.C,R2*%
X82167621Y-119120000D02*
X81832379Y-119120000D01*
X82167621Y-119880000D02*
X81832379Y-119880000D01*
%TO.C,C1*%
X88140000Y-118615835D02*
X88140000Y-118384165D01*
X88860000Y-118615835D02*
X88860000Y-118384165D01*
%TO.C,C10*%
X78640000Y-92615835D02*
X78640000Y-92384165D01*
X79360000Y-92615835D02*
X79360000Y-92384165D01*
%TO.C,SW3*%
X68750000Y-90500000D02*
X68750000Y-88500000D01*
X69800000Y-87200000D02*
X70250000Y-86750000D01*
X69800000Y-91800000D02*
X70250000Y-92250000D01*
X72750000Y-86750000D02*
X70250000Y-86750000D01*
X72750000Y-92250000D02*
X70250000Y-92250000D01*
X73200000Y-87200000D02*
X72750000Y-86750000D01*
X73200000Y-91800000D02*
X72750000Y-92250000D01*
X74250000Y-90500000D02*
X74250000Y-88500000D01*
%TO.C,C9*%
X83384165Y-112990000D02*
X83615835Y-112990000D01*
X83384165Y-113710000D02*
X83615835Y-113710000D01*
%TO.C,SW5*%
X67770000Y-110770000D02*
X67770000Y-117230000D01*
X67770000Y-110770000D02*
X67800000Y-110770000D01*
X67770000Y-117230000D02*
X67800000Y-117230000D01*
X72300000Y-110770000D02*
X69700000Y-110770000D01*
X72300000Y-117230000D02*
X69700000Y-117230000D01*
X74200000Y-110770000D02*
X74230000Y-110770000D01*
X74230000Y-110770000D02*
X74230000Y-117230000D01*
X74230000Y-117230000D02*
X74200000Y-117230000D01*
%TO.C,C11*%
X86951665Y-93190000D02*
X87183335Y-93190000D01*
X86951665Y-93910000D02*
X87183335Y-93910000D01*
%TO.C,U1*%
X84590000Y-117440000D02*
X86410000Y-117440000D01*
X84590000Y-117490000D02*
X84590000Y-117440000D01*
X84590000Y-119390000D02*
X84590000Y-118610000D01*
X84590000Y-120560000D02*
X84590000Y-120510000D01*
X86410000Y-117440000D02*
X86410000Y-117490000D01*
X86410000Y-120510000D02*
X86410000Y-120560000D01*
X86410000Y-120560000D02*
X84590000Y-120560000D01*
X87190000Y-120840000D02*
X86710000Y-120840000D01*
X86950000Y-120510000D01*
X87190000Y-120840000D01*
G36*
X87190000Y-120840000D02*
G01*
X86710000Y-120840000D01*
X86950000Y-120510000D01*
X87190000Y-120840000D01*
G37*
%TO.C,SW2*%
X77900000Y-106500000D02*
X77900000Y-104500000D01*
X78950000Y-103200000D02*
X79400000Y-102750000D01*
X78950000Y-107800000D02*
X79400000Y-108250000D01*
X81900000Y-102750000D02*
X79400000Y-102750000D01*
X81900000Y-108250000D02*
X79400000Y-108250000D01*
X82350000Y-103200000D02*
X81900000Y-102750000D01*
X82350000Y-107800000D02*
X81900000Y-108250000D01*
X83400000Y-106500000D02*
X83400000Y-104500000D01*
%TO.C,C12*%
X89384165Y-100190000D02*
X89615835Y-100190000D01*
X89384165Y-100910000D02*
X89615835Y-100910000D01*
%TO.C,C14*%
X84140000Y-89115835D02*
X84140000Y-88884165D01*
X84860000Y-89115835D02*
X84860000Y-88884165D01*
%TO.C,U2*%
X86440000Y-113590000D02*
X86490000Y-113590000D01*
X86440000Y-115410000D02*
X86440000Y-113590000D01*
X86490000Y-115410000D02*
X86440000Y-115410000D01*
X87610000Y-113590000D02*
X88390000Y-113590000D01*
X89510000Y-113590000D02*
X89560000Y-113590000D01*
X89560000Y-113590000D02*
X89560000Y-115410000D01*
X89560000Y-115410000D02*
X89510000Y-115410000D01*
X86490000Y-115950000D02*
X86160000Y-116190000D01*
X86160000Y-115710000D01*
X86490000Y-115950000D01*
G36*
X86490000Y-115950000D02*
G01*
X86160000Y-116190000D01*
X86160000Y-115710000D01*
X86490000Y-115950000D01*
G37*
%TO.C,C7*%
X85640000Y-111115835D02*
X85640000Y-110884165D01*
X86360000Y-111115835D02*
X86360000Y-110884165D01*
%TO.C,Y1*%
X85840000Y-94290000D02*
X85840000Y-99810000D01*
X90460000Y-94290000D02*
X85840000Y-94290000D01*
%TO.C,C6*%
X87140000Y-111183335D02*
X87140000Y-110951665D01*
X87860000Y-111183335D02*
X87860000Y-110951665D01*
%TO.C,R8*%
X78167621Y-117620000D02*
X77832379Y-117620000D01*
X78167621Y-118380000D02*
X77832379Y-118380000D01*
%TO.C,R7*%
X80667621Y-100620000D02*
X80332379Y-100620000D01*
X80667621Y-101380000D02*
X80332379Y-101380000D01*
%TO.C,SW1*%
D13*
X91550000Y-117900000D02*
X91550000Y-119600000D01*
X92600000Y-121450000D02*
X93400000Y-121450000D01*
X93400000Y-114550000D02*
X92600000Y-114550000D01*
X94450000Y-115100000D02*
X94450000Y-117990000D01*
X94450000Y-117990000D02*
X95950000Y-117990000D01*
X94450000Y-119490000D02*
X94450000Y-120900000D01*
X95950000Y-117990000D02*
X95950000Y-119490000D01*
X95950000Y-119490000D02*
X94450000Y-119490000D01*
X92200000Y-119700000D02*
G75*
G02*
X92000000Y-119700000I-100000J0D01*
G01*
X92000000Y-119700000D02*
G75*
G02*
X92200000Y-119700000I100000J0D01*
G01*
%TO.C,D2*%
D12*
X71785000Y-93500000D02*
G75*
G02*
X71685000Y-93500000I-50000J0D01*
G01*
X71685000Y-93500000D02*
G75*
G02*
X71785000Y-93500000I50000J0D01*
G01*
%TO.C,C2*%
D11*
X77884165Y-120140000D02*
X78115835Y-120140000D01*
X77884165Y-120860000D02*
X78115835Y-120860000D01*
%TO.C,L1*%
X83140000Y-89100200D02*
X83140000Y-88899800D01*
X83860000Y-89100200D02*
X83860000Y-88899800D01*
%TD*%
%LPC*%
D14*
%TO.C,REF\u002A\u002A*%
X93500000Y-84000000D03*
%TD*%
D15*
%TO.C,L2*%
X82500000Y-89572500D03*
X82500000Y-88427500D03*
%TD*%
D16*
%TO.C,C16*%
X77067500Y-95000000D03*
X75932500Y-95000000D03*
%TD*%
D17*
%TO.C,R4*%
X77000000Y-92097500D03*
X77000000Y-90902500D03*
%TD*%
D18*
%TO.C,R9*%
X76402500Y-93500000D03*
X77597500Y-93500000D03*
%TD*%
D16*
%TO.C,C4*%
X89567500Y-120500000D03*
X88432500Y-120500000D03*
%TD*%
%TO.C,C8*%
X84067500Y-112000000D03*
X82932500Y-112000000D03*
%TD*%
%TO.C,C5*%
X84067500Y-115000000D03*
X82932500Y-115000000D03*
%TD*%
D19*
%TO.C,D1*%
X77427500Y-119500000D03*
X78572500Y-119500000D03*
%TD*%
D20*
%TO.C,SW4*%
X73250000Y-97520000D03*
X73250000Y-105480000D03*
X68750000Y-97520000D03*
X68750000Y-105480000D03*
%TD*%
D21*
%TO.C,R5*%
X81000000Y-91902500D03*
X81000000Y-93097500D03*
%TD*%
D14*
%TO.C,REF\u002A\u002A*%
X93500000Y-128000000D03*
%TD*%
D22*
%TO.C,C17*%
X75932500Y-96000000D03*
X77067500Y-96000000D03*
%TD*%
D23*
%TO.C,J2*%
X91450000Y-108500000D03*
D24*
X91450000Y-106500000D03*
%TD*%
D25*
%TO.C,ANT1*%
X82500000Y-85950000D03*
X82500000Y-83050000D03*
%TD*%
D17*
%TO.C,R1*%
X79000000Y-116597500D03*
X79000000Y-115402500D03*
%TD*%
D26*
%TO.C,R3*%
X82597500Y-118000000D03*
X81402500Y-118000000D03*
%TD*%
D16*
%TO.C,C3*%
X84057500Y-110500000D03*
X82922500Y-110500000D03*
%TD*%
D18*
%TO.C,R6*%
X75902500Y-99000000D03*
X77097500Y-99000000D03*
%TD*%
D27*
%TO.C,J1*%
X78360000Y-123945000D03*
X84140000Y-123945000D03*
D28*
X78000000Y-122500000D03*
X78800000Y-122500000D03*
D29*
X80000000Y-122500000D03*
X81000000Y-122500000D03*
X81500000Y-122500000D03*
X82500000Y-122500000D03*
D28*
X83700000Y-122500000D03*
X84500000Y-122500000D03*
X84500000Y-122500000D03*
X83700000Y-122500000D03*
D29*
X83000000Y-122500000D03*
X82000000Y-122500000D03*
X80500000Y-122500000D03*
X79500000Y-122500000D03*
D28*
X78800000Y-122500000D03*
X78000000Y-122500000D03*
D30*
X76930000Y-123415000D03*
D31*
X76930000Y-127595000D03*
D30*
X85570000Y-123415000D03*
D31*
X85570000Y-127595000D03*
%TD*%
D22*
%TO.C,C13*%
X76932500Y-102000000D03*
X78067500Y-102000000D03*
%TD*%
D32*
%TO.C,U3*%
X83000000Y-94600000D03*
X82500000Y-94600000D03*
X82000000Y-94600000D03*
X81500000Y-94600000D03*
X81000000Y-94600000D03*
X80500000Y-94600000D03*
X80000000Y-94600000D03*
X79500000Y-94600000D03*
D33*
X78800000Y-95300000D03*
X78800000Y-95800000D03*
X78800000Y-96300000D03*
X78800000Y-96800000D03*
X78800000Y-97300000D03*
X78800000Y-97800000D03*
X78800000Y-98300000D03*
X78800000Y-98800000D03*
D32*
X79500000Y-99500000D03*
X80000000Y-99500000D03*
X80500000Y-99500000D03*
X81000000Y-99500000D03*
X81500000Y-99500000D03*
X82000000Y-99500000D03*
X82500000Y-99500000D03*
X83000000Y-99500000D03*
D33*
X83700000Y-98800000D03*
X83700000Y-98300000D03*
X83700000Y-97800000D03*
X83700000Y-97300000D03*
X83700000Y-96800000D03*
X83700000Y-96300000D03*
X83700000Y-95800000D03*
X83700000Y-95300000D03*
D34*
X81250000Y-97050000D03*
%TD*%
D26*
%TO.C,R2*%
X82597500Y-119500000D03*
X81402500Y-119500000D03*
%TD*%
D35*
%TO.C,C1*%
X88500000Y-119067500D03*
X88500000Y-117932500D03*
%TD*%
D14*
%TO.C,REF\u002A\u002A*%
X69500000Y-84000000D03*
%TD*%
D35*
%TO.C,C10*%
X79000000Y-93067500D03*
X79000000Y-91932500D03*
%TD*%
D36*
%TO.C,SW3*%
X74650000Y-91400000D03*
X68350000Y-91400000D03*
X74650000Y-87600000D03*
X68350000Y-87600000D03*
%TD*%
D22*
%TO.C,C9*%
X82932500Y-113350000D03*
X84067500Y-113350000D03*
%TD*%
D20*
%TO.C,SW5*%
X73250000Y-110020000D03*
X73250000Y-117980000D03*
X68750000Y-110020000D03*
X68750000Y-117980000D03*
%TD*%
D22*
%TO.C,C11*%
X86500000Y-93550000D03*
X87635000Y-93550000D03*
%TD*%
D37*
%TO.C,U1*%
X86637500Y-119950000D03*
X86637500Y-119000000D03*
X86637500Y-118050000D03*
X84362500Y-118050000D03*
X84362500Y-119950000D03*
%TD*%
D36*
%TO.C,SW2*%
X83800000Y-107400000D03*
X77500000Y-107400000D03*
X83800000Y-103600000D03*
X77500000Y-103600000D03*
%TD*%
D22*
%TO.C,C12*%
X88932500Y-100550000D03*
X90067500Y-100550000D03*
%TD*%
D35*
%TO.C,C14*%
X84500000Y-89567500D03*
X84500000Y-88432500D03*
%TD*%
D38*
%TO.C,U2*%
X87050000Y-115637500D03*
X88000000Y-115637500D03*
X88950000Y-115637500D03*
X88950000Y-113362500D03*
X87050000Y-113362500D03*
%TD*%
D35*
%TO.C,C7*%
X86000000Y-111567500D03*
X86000000Y-110432500D03*
%TD*%
D39*
%TO.C,Y1*%
X87000000Y-95600000D03*
X87000000Y-98500000D03*
X89300000Y-98500000D03*
X89300000Y-95600000D03*
%TD*%
D35*
%TO.C,C6*%
X87500000Y-111635000D03*
X87500000Y-110500000D03*
%TD*%
D14*
%TO.C,REF\u002A\u002A*%
X69500000Y-128000000D03*
%TD*%
D26*
%TO.C,R8*%
X78597500Y-118000000D03*
X77402500Y-118000000D03*
%TD*%
%TO.C,R7*%
X81097500Y-101000000D03*
X79902500Y-101000000D03*
%TD*%
D40*
%TO.C,SW1*%
X93000000Y-116500000D03*
X93000000Y-119500000D03*
D41*
X90950000Y-120250000D03*
X90950000Y-117250000D03*
X90950000Y-115750000D03*
D42*
X94150000Y-114250000D03*
X94150000Y-121750000D03*
X91850000Y-121750000D03*
X91850000Y-114250000D03*
%TD*%
D19*
%TO.C,D2*%
X72427500Y-93500000D03*
X73572500Y-93500000D03*
%TD*%
D22*
%TO.C,C2*%
X77432500Y-120500000D03*
X78567500Y-120500000D03*
%TD*%
D15*
%TO.C,L1*%
X83500000Y-89572500D03*
X83500000Y-88427500D03*
%TD*%
%LPD*%
M02*
