%TF.GenerationSoftware,KiCad,Pcbnew,10.0.1*%
%TF.CreationDate,2026-05-24T14:41:19-07:00*%
%TF.ProjectId,Jeep_Embedded_KeyFob,4a656570-5f45-46d6-9265-646465645f4b,rev?*%
%TF.SameCoordinates,Original*%
%TF.FileFunction,Paste,Top*%
%TF.FilePolarity,Positive*%
%FSLAX46Y46*%
G04 Gerber Fmt 4.6, Leading zero omitted, Abs format (unit mm)*
G04 Created by KiCad (PCBNEW 10.0.1) date 2026-05-24 14:41:19*
%MOMM*%
%LPD*%
G01*
G04 APERTURE LIST*
G04 Aperture macros list*
%AMRoundRect*
0 Rectangle with rounded corners*
0 $1 Rounding radius*
0 $2 $3 $4 $5 $6 $7 $8 $9 X,Y pos of 4 corners*
0 Add a 4 corners polygon primitive as box body*
4,1,4,$2,$3,$4,$5,$6,$7,$8,$9,$2,$3,0*
0 Add four circle primitives for the rounded corners*
1,1,$1+$1,$2,$3*
1,1,$1+$1,$4,$5*
1,1,$1+$1,$6,$7*
1,1,$1+$1,$8,$9*
0 Add four rect primitives between the rounded corners*
20,1,$1+$1,$2,$3,$4,$5,0*
20,1,$1+$1,$4,$5,$6,$7,0*
20,1,$1+$1,$6,$7,$8,$9,0*
20,1,$1+$1,$8,$9,$2,$3,0*%
G04 Aperture macros list end*
%ADD10RoundRect,0.150000X-0.150000X-0.425000X0.150000X-0.425000X0.150000X0.425000X-0.150000X0.425000X0*%
%ADD11RoundRect,0.075000X-0.075000X-0.500000X0.075000X-0.500000X0.075000X0.500000X-0.075000X0.500000X0*%
%ADD12O,1.000000X2.100000*%
%ADD13O,1.000000X1.800000*%
%ADD14RoundRect,0.243750X0.243750X0.456250X-0.243750X0.456250X-0.243750X-0.456250X0.243750X-0.456250X0*%
%ADD15RoundRect,0.150000X-0.150000X0.512500X-0.150000X-0.512500X0.150000X-0.512500X0.150000X0.512500X0*%
%ADD16RoundRect,0.250000X0.475000X-0.250000X0.475000X0.250000X-0.475000X0.250000X-0.475000X-0.250000X0*%
%ADD17RoundRect,0.250000X-0.450000X0.262500X-0.450000X-0.262500X0.450000X-0.262500X0.450000X0.262500X0*%
%ADD18RoundRect,0.250000X-0.262500X-0.450000X0.262500X-0.450000X0.262500X0.450000X-0.262500X0.450000X0*%
%ADD19RoundRect,0.243750X-0.456250X0.243750X-0.456250X-0.243750X0.456250X-0.243750X0.456250X0.243750X0*%
%ADD20RoundRect,0.250000X0.450000X-0.262500X0.450000X0.262500X-0.450000X0.262500X-0.450000X-0.262500X0*%
%ADD21RoundRect,0.250000X-0.475000X0.250000X-0.475000X-0.250000X0.475000X-0.250000X0.475000X0.250000X0*%
%ADD22RoundRect,0.250000X0.250000X0.475000X-0.250000X0.475000X-0.250000X-0.475000X0.250000X-0.475000X0*%
%ADD23RoundRect,0.250000X0.262500X0.450000X-0.262500X0.450000X-0.262500X-0.450000X0.262500X-0.450000X0*%
%ADD24RoundRect,0.243750X-0.243750X-0.456250X0.243750X-0.456250X0.243750X0.456250X-0.243750X0.456250X0*%
%ADD25RoundRect,0.250000X-0.400000X0.525000X-0.400000X-0.525000X0.400000X-0.525000X0.400000X0.525000X0*%
G04 APERTURE END LIST*
D10*
%TO.C,J1*%
X107800000Y-103500000D03*
X108600000Y-103500000D03*
D11*
X109750000Y-103500000D03*
X110750000Y-103500000D03*
X111250000Y-103500000D03*
X112250000Y-103500000D03*
D10*
X113400000Y-103500000D03*
X114200000Y-103500000D03*
X114200000Y-103500000D03*
X113400000Y-103500000D03*
D11*
X112750000Y-103500000D03*
X111750000Y-103500000D03*
X110250000Y-103500000D03*
X109250000Y-103500000D03*
D10*
X108600000Y-103500000D03*
X107800000Y-103500000D03*
D12*
X106680000Y-104075000D03*
D13*
X106680000Y-108255000D03*
D12*
X115320000Y-104075000D03*
D13*
X115320000Y-108255000D03*
%TD*%
D14*
%TO.C,D4*%
X112437500Y-88500000D03*
X110562500Y-88500000D03*
%TD*%
D15*
%TO.C,U1*%
X117450000Y-96137500D03*
X115550000Y-96137500D03*
X115550000Y-93862500D03*
X116500000Y-93862500D03*
X117450000Y-93862500D03*
%TD*%
D16*
%TO.C,C2*%
X115500000Y-90050000D03*
X115500000Y-91950000D03*
%TD*%
D17*
%TO.C,R2*%
X117500000Y-91912500D03*
X117500000Y-90087500D03*
%TD*%
D18*
%TO.C,R9*%
X106525000Y-88500000D03*
X108350000Y-88500000D03*
%TD*%
D19*
%TO.C,D1*%
X117500000Y-88437500D03*
X117500000Y-86562500D03*
%TD*%
D18*
%TO.C,R10*%
X109237500Y-99000000D03*
X107412500Y-99000000D03*
%TD*%
%TO.C,R11*%
X112825000Y-99000000D03*
X111000000Y-99000000D03*
%TD*%
D20*
%TO.C,R1*%
X117500000Y-98500000D03*
X117500000Y-100325000D03*
%TD*%
D21*
%TO.C,C1*%
X115500000Y-100362500D03*
X115500000Y-98462500D03*
%TD*%
D22*
%TO.C,C4*%
X83550000Y-87500000D03*
X85450000Y-87500000D03*
%TD*%
D23*
%TO.C,R7*%
X83587500Y-97500000D03*
X85412500Y-97500000D03*
%TD*%
D24*
%TO.C,D3*%
X80437500Y-95000000D03*
X78562500Y-95000000D03*
%TD*%
%TO.C,D2*%
X80437500Y-97500000D03*
X78562500Y-97500000D03*
%TD*%
D23*
%TO.C,R8*%
X83587500Y-95000000D03*
X85412500Y-95000000D03*
%TD*%
D22*
%TO.C,C3*%
X83550000Y-92500000D03*
X85450000Y-92500000D03*
%TD*%
D25*
%TO.C,SW4*%
X114750000Y-73020000D03*
X114750000Y-80980000D03*
X110250000Y-73020000D03*
X110250000Y-80980000D03*
%TD*%
%TO.C,SW3*%
X100250000Y-73020000D03*
X100250000Y-80980000D03*
X95750000Y-73020000D03*
X95750000Y-80980000D03*
%TD*%
%TO.C,SW2*%
X85750000Y-73020000D03*
X85750000Y-80980000D03*
X81250000Y-73020000D03*
X81250000Y-80980000D03*
%TD*%
D21*
%TO.C,C6*%
X97000000Y-83050000D03*
X97000000Y-84950000D03*
%TD*%
D20*
%TO.C,R4*%
X85000000Y-84912500D03*
X85000000Y-83087500D03*
%TD*%
D17*
%TO.C,R6*%
X113500000Y-83087500D03*
X113500000Y-84912500D03*
%TD*%
%TO.C,R5*%
X99500000Y-83087500D03*
X99500000Y-84912500D03*
%TD*%
D21*
%TO.C,C7*%
X111500000Y-83050000D03*
X111500000Y-84950000D03*
%TD*%
%TO.C,C5*%
X82500000Y-83050000D03*
X82500000Y-84950000D03*
%TD*%
M02*
