M48
; DRILL file KiCad 10.0.1 date 2026-05-24T14:42:03
; FORMAT={-:-/ absolute / metric / decimal}
; #@! TF.CreationDate,2026-05-24T14:42:03-07:00
; #@! TF.GenerationSoftware,Kicad,Pcbnew,10.0.1
; #@! TF.FileFunction,Plated,1,2,PTH
FMAT,2
METRIC
; #@! TA.AperFunction,Plated,PTH,ViaDrill
T1C0.300
; #@! TA.AperFunction,Plated,PTH,ComponentDrill
T2C0.600
; #@! TA.AperFunction,Plated,PTH,ComponentDrill
T3C0.800
; #@! TA.AperFunction,Plated,PTH,ComponentDrill
T4C1.000
; #@! TA.AperFunction,Plated,PTH,ComponentDrill
T5C1.150
%
G90
G05
T1
X78.562Y-95.0
X78.562Y-97.5
X81.25Y-73.02
X81.25Y-80.98
X82.5Y-84.95
X83.55Y-87.5
X83.55Y-92.5
X95.75Y-73.02
X95.75Y-80.98
X97.0Y-84.95
X107.412Y-99.0
X107.8Y-103.5
X110.25Y-73.02
X110.25Y-80.98
X111.5Y-84.95
X112.438Y-88.5
X112.825Y-99.0
X114.2Y-103.5
X115.5Y-90.05
X115.5Y-100.362
X116.5Y-93.862
X117.5Y-86.562
X117.5Y-100.325
T3
X92.96Y-108.0
X95.5Y-108.0
X98.04Y-108.0
T4
X88.26Y-87.5
X88.26Y-90.04
X88.26Y-92.58
X88.26Y-95.12
X88.26Y-97.66
X88.26Y-100.2
X88.26Y-102.74
X88.26Y-105.28
X103.5Y-87.5
X103.5Y-90.04
X103.5Y-92.58
X103.5Y-95.12
X103.5Y-97.66
X103.5Y-100.2
X103.5Y-102.74
X103.5Y-105.28
T5
X107.2Y-94.0
X112.0Y-94.0
T2
G00X106.68Y-103.525
M15
G01X106.68Y-104.625
M16
G05
G00X106.68Y-107.855
M15
G01X106.68Y-108.655
M16
G05
G00X115.32Y-103.525
M15
G01X115.32Y-104.625
M16
G05
G00X115.32Y-107.855
M15
G01X115.32Y-108.655
M16
G05
M30
