%TF.GenerationSoftware,KiCad,Pcbnew,10.0.1*%
%TF.CreationDate,2026-05-24T14:41:19-07:00*%
%TF.ProjectId,Jeep_Embedded_KeyFob,4a656570-5f45-46d6-9265-646465645f4b,rev?*%
%TF.SameCoordinates,Original*%
%TF.FileFunction,Legend,Top*%
%TF.FilePolarity,Positive*%
%FSLAX46Y46*%
G04 Gerber Fmt 4.6, Leading zero omitted, Abs format (unit mm)*
G04 Created by KiCad (PCBNEW 10.0.1) date 2026-05-24 14:41:19*
%MOMM*%
%LPD*%
G01*
G04 APERTURE LIST*
%ADD10C,0.150000*%
%ADD11C,0.120000*%
G04 APERTURE END LIST*
D10*
X76336779Y-100040043D02*
X76336779Y-99040043D01*
X76336779Y-99040043D02*
X76670112Y-99754328D01*
X76670112Y-99754328D02*
X77003445Y-99040043D01*
X77003445Y-99040043D02*
X77003445Y-100040043D01*
X77479636Y-99944804D02*
X77527255Y-99992424D01*
X77527255Y-99992424D02*
X77479636Y-100040043D01*
X77479636Y-100040043D02*
X77432017Y-99992424D01*
X77432017Y-99992424D02*
X77479636Y-99944804D01*
X77479636Y-99944804D02*
X77479636Y-100040043D01*
X78717731Y-100040043D02*
X78717731Y-99040043D01*
X78717731Y-99040043D02*
X79051064Y-99754328D01*
X79051064Y-99754328D02*
X79384397Y-99040043D01*
X79384397Y-99040043D02*
X79384397Y-100040043D01*
X79860588Y-99516233D02*
X80193921Y-99516233D01*
X80336778Y-100040043D02*
X79860588Y-100040043D01*
X79860588Y-100040043D02*
X79860588Y-99040043D01*
X79860588Y-99040043D02*
X80336778Y-99040043D01*
X80765350Y-100040043D02*
X80765350Y-99040043D01*
X80765350Y-99040043D02*
X81003445Y-99040043D01*
X81003445Y-99040043D02*
X81146302Y-99087662D01*
X81146302Y-99087662D02*
X81241540Y-99182900D01*
X81241540Y-99182900D02*
X81289159Y-99278138D01*
X81289159Y-99278138D02*
X81336778Y-99468614D01*
X81336778Y-99468614D02*
X81336778Y-99611471D01*
X81336778Y-99611471D02*
X81289159Y-99801947D01*
X81289159Y-99801947D02*
X81241540Y-99897185D01*
X81241540Y-99897185D02*
X81146302Y-99992424D01*
X81146302Y-99992424D02*
X81003445Y-100040043D01*
X81003445Y-100040043D02*
X80765350Y-100040043D01*
X81765350Y-100040043D02*
X81765350Y-99040043D01*
X82241540Y-100040043D02*
X82241540Y-99040043D01*
X82241540Y-99040043D02*
X82812968Y-100040043D01*
X82812968Y-100040043D02*
X82812968Y-99040043D01*
X83241540Y-99754328D02*
X83717730Y-99754328D01*
X83146302Y-100040043D02*
X83479635Y-99040043D01*
X83479635Y-99040043D02*
X83812968Y-100040043D01*
X76622493Y-100649987D02*
X76622493Y-101364272D01*
X76622493Y-101364272D02*
X76574874Y-101507129D01*
X76574874Y-101507129D02*
X76479636Y-101602368D01*
X76479636Y-101602368D02*
X76336779Y-101649987D01*
X76336779Y-101649987D02*
X76241541Y-101649987D01*
X77479636Y-101602368D02*
X77384398Y-101649987D01*
X77384398Y-101649987D02*
X77193922Y-101649987D01*
X77193922Y-101649987D02*
X77098684Y-101602368D01*
X77098684Y-101602368D02*
X77051065Y-101507129D01*
X77051065Y-101507129D02*
X77051065Y-101126177D01*
X77051065Y-101126177D02*
X77098684Y-101030939D01*
X77098684Y-101030939D02*
X77193922Y-100983320D01*
X77193922Y-100983320D02*
X77384398Y-100983320D01*
X77384398Y-100983320D02*
X77479636Y-101030939D01*
X77479636Y-101030939D02*
X77527255Y-101126177D01*
X77527255Y-101126177D02*
X77527255Y-101221415D01*
X77527255Y-101221415D02*
X77051065Y-101316653D01*
X78336779Y-101602368D02*
X78241541Y-101649987D01*
X78241541Y-101649987D02*
X78051065Y-101649987D01*
X78051065Y-101649987D02*
X77955827Y-101602368D01*
X77955827Y-101602368D02*
X77908208Y-101507129D01*
X77908208Y-101507129D02*
X77908208Y-101126177D01*
X77908208Y-101126177D02*
X77955827Y-101030939D01*
X77955827Y-101030939D02*
X78051065Y-100983320D01*
X78051065Y-100983320D02*
X78241541Y-100983320D01*
X78241541Y-100983320D02*
X78336779Y-101030939D01*
X78336779Y-101030939D02*
X78384398Y-101126177D01*
X78384398Y-101126177D02*
X78384398Y-101221415D01*
X78384398Y-101221415D02*
X77908208Y-101316653D01*
X78812970Y-100983320D02*
X78812970Y-101983320D01*
X78812970Y-101030939D02*
X78908208Y-100983320D01*
X78908208Y-100983320D02*
X79098684Y-100983320D01*
X79098684Y-100983320D02*
X79193922Y-101030939D01*
X79193922Y-101030939D02*
X79241541Y-101078558D01*
X79241541Y-101078558D02*
X79289160Y-101173796D01*
X79289160Y-101173796D02*
X79289160Y-101459510D01*
X79289160Y-101459510D02*
X79241541Y-101554748D01*
X79241541Y-101554748D02*
X79193922Y-101602368D01*
X79193922Y-101602368D02*
X79098684Y-101649987D01*
X79098684Y-101649987D02*
X78908208Y-101649987D01*
X78908208Y-101649987D02*
X78812970Y-101602368D01*
X80479637Y-101649987D02*
X80479637Y-100649987D01*
X81051065Y-101649987D02*
X80622494Y-101078558D01*
X81051065Y-100649987D02*
X80479637Y-101221415D01*
X81479637Y-101126177D02*
X81812970Y-101126177D01*
X81955827Y-101649987D02*
X81479637Y-101649987D01*
X81479637Y-101649987D02*
X81479637Y-100649987D01*
X81479637Y-100649987D02*
X81955827Y-100649987D01*
X82574875Y-101173796D02*
X82574875Y-101649987D01*
X82241542Y-100649987D02*
X82574875Y-101173796D01*
X82574875Y-101173796D02*
X82908208Y-100649987D01*
X83574875Y-101126177D02*
X83241542Y-101126177D01*
X83241542Y-101649987D02*
X83241542Y-100649987D01*
X83241542Y-100649987D02*
X83717732Y-100649987D01*
X84289161Y-100649987D02*
X84479637Y-100649987D01*
X84479637Y-100649987D02*
X84574875Y-100697606D01*
X84574875Y-100697606D02*
X84670113Y-100792844D01*
X84670113Y-100792844D02*
X84717732Y-100983320D01*
X84717732Y-100983320D02*
X84717732Y-101316653D01*
X84717732Y-101316653D02*
X84670113Y-101507129D01*
X84670113Y-101507129D02*
X84574875Y-101602368D01*
X84574875Y-101602368D02*
X84479637Y-101649987D01*
X84479637Y-101649987D02*
X84289161Y-101649987D01*
X84289161Y-101649987D02*
X84193923Y-101602368D01*
X84193923Y-101602368D02*
X84098685Y-101507129D01*
X84098685Y-101507129D02*
X84051066Y-101316653D01*
X84051066Y-101316653D02*
X84051066Y-100983320D01*
X84051066Y-100983320D02*
X84098685Y-100792844D01*
X84098685Y-100792844D02*
X84193923Y-100697606D01*
X84193923Y-100697606D02*
X84289161Y-100649987D01*
X85479637Y-101126177D02*
X85622494Y-101173796D01*
X85622494Y-101173796D02*
X85670113Y-101221415D01*
X85670113Y-101221415D02*
X85717732Y-101316653D01*
X85717732Y-101316653D02*
X85717732Y-101459510D01*
X85717732Y-101459510D02*
X85670113Y-101554748D01*
X85670113Y-101554748D02*
X85622494Y-101602368D01*
X85622494Y-101602368D02*
X85527256Y-101649987D01*
X85527256Y-101649987D02*
X85146304Y-101649987D01*
X85146304Y-101649987D02*
X85146304Y-100649987D01*
X85146304Y-100649987D02*
X85479637Y-100649987D01*
X85479637Y-100649987D02*
X85574875Y-100697606D01*
X85574875Y-100697606D02*
X85622494Y-100745225D01*
X85622494Y-100745225D02*
X85670113Y-100840463D01*
X85670113Y-100840463D02*
X85670113Y-100935701D01*
X85670113Y-100935701D02*
X85622494Y-101030939D01*
X85622494Y-101030939D02*
X85574875Y-101078558D01*
X85574875Y-101078558D02*
X85479637Y-101126177D01*
X85479637Y-101126177D02*
X85146304Y-101126177D01*
X76908207Y-103164692D02*
X76860588Y-103212312D01*
X76860588Y-103212312D02*
X76717731Y-103259931D01*
X76717731Y-103259931D02*
X76622493Y-103259931D01*
X76622493Y-103259931D02*
X76479636Y-103212312D01*
X76479636Y-103212312D02*
X76384398Y-103117073D01*
X76384398Y-103117073D02*
X76336779Y-103021835D01*
X76336779Y-103021835D02*
X76289160Y-102831359D01*
X76289160Y-102831359D02*
X76289160Y-102688502D01*
X76289160Y-102688502D02*
X76336779Y-102498026D01*
X76336779Y-102498026D02*
X76384398Y-102402788D01*
X76384398Y-102402788D02*
X76479636Y-102307550D01*
X76479636Y-102307550D02*
X76622493Y-102259931D01*
X76622493Y-102259931D02*
X76717731Y-102259931D01*
X76717731Y-102259931D02*
X76860588Y-102307550D01*
X76860588Y-102307550D02*
X76908207Y-102355169D01*
X77289160Y-103212312D02*
X77432017Y-103259931D01*
X77432017Y-103259931D02*
X77670112Y-103259931D01*
X77670112Y-103259931D02*
X77765350Y-103212312D01*
X77765350Y-103212312D02*
X77812969Y-103164692D01*
X77812969Y-103164692D02*
X77860588Y-103069454D01*
X77860588Y-103069454D02*
X77860588Y-102974216D01*
X77860588Y-102974216D02*
X77812969Y-102878978D01*
X77812969Y-102878978D02*
X77765350Y-102831359D01*
X77765350Y-102831359D02*
X77670112Y-102783740D01*
X77670112Y-102783740D02*
X77479636Y-102736121D01*
X77479636Y-102736121D02*
X77384398Y-102688502D01*
X77384398Y-102688502D02*
X77336779Y-102640883D01*
X77336779Y-102640883D02*
X77289160Y-102545645D01*
X77289160Y-102545645D02*
X77289160Y-102450407D01*
X77289160Y-102450407D02*
X77336779Y-102355169D01*
X77336779Y-102355169D02*
X77384398Y-102307550D01*
X77384398Y-102307550D02*
X77479636Y-102259931D01*
X77479636Y-102259931D02*
X77717731Y-102259931D01*
X77717731Y-102259931D02*
X77860588Y-102307550D01*
X78289160Y-102259931D02*
X78289160Y-103069454D01*
X78289160Y-103069454D02*
X78336779Y-103164692D01*
X78336779Y-103164692D02*
X78384398Y-103212312D01*
X78384398Y-103212312D02*
X78479636Y-103259931D01*
X78479636Y-103259931D02*
X78670112Y-103259931D01*
X78670112Y-103259931D02*
X78765350Y-103212312D01*
X78765350Y-103212312D02*
X78812969Y-103164692D01*
X78812969Y-103164692D02*
X78860588Y-103069454D01*
X78860588Y-103069454D02*
X78860588Y-102259931D01*
X79670112Y-102736121D02*
X79336779Y-102736121D01*
X79336779Y-103259931D02*
X79336779Y-102259931D01*
X79336779Y-102259931D02*
X79812969Y-102259931D01*
X80955827Y-102736121D02*
X81289160Y-102736121D01*
X81432017Y-103259931D02*
X80955827Y-103259931D01*
X80955827Y-103259931D02*
X80955827Y-102259931D01*
X80955827Y-102259931D02*
X81432017Y-102259931D01*
X82432017Y-103164692D02*
X82384398Y-103212312D01*
X82384398Y-103212312D02*
X82241541Y-103259931D01*
X82241541Y-103259931D02*
X82146303Y-103259931D01*
X82146303Y-103259931D02*
X82003446Y-103212312D01*
X82003446Y-103212312D02*
X81908208Y-103117073D01*
X81908208Y-103117073D02*
X81860589Y-103021835D01*
X81860589Y-103021835D02*
X81812970Y-102831359D01*
X81812970Y-102831359D02*
X81812970Y-102688502D01*
X81812970Y-102688502D02*
X81860589Y-102498026D01*
X81860589Y-102498026D02*
X81908208Y-102402788D01*
X81908208Y-102402788D02*
X82003446Y-102307550D01*
X82003446Y-102307550D02*
X82146303Y-102259931D01*
X82146303Y-102259931D02*
X82241541Y-102259931D01*
X82241541Y-102259931D02*
X82384398Y-102307550D01*
X82384398Y-102307550D02*
X82432017Y-102355169D01*
X82860589Y-102736121D02*
X83193922Y-102736121D01*
X83336779Y-103259931D02*
X82860589Y-103259931D01*
X82860589Y-103259931D02*
X82860589Y-102259931D01*
X82860589Y-102259931D02*
X83336779Y-102259931D01*
X76908207Y-104869875D02*
X76574874Y-104393684D01*
X76336779Y-104869875D02*
X76336779Y-103869875D01*
X76336779Y-103869875D02*
X76717731Y-103869875D01*
X76717731Y-103869875D02*
X76812969Y-103917494D01*
X76812969Y-103917494D02*
X76860588Y-103965113D01*
X76860588Y-103965113D02*
X76908207Y-104060351D01*
X76908207Y-104060351D02*
X76908207Y-104203208D01*
X76908207Y-104203208D02*
X76860588Y-104298446D01*
X76860588Y-104298446D02*
X76812969Y-104346065D01*
X76812969Y-104346065D02*
X76717731Y-104393684D01*
X76717731Y-104393684D02*
X76336779Y-104393684D01*
X77336779Y-104346065D02*
X77670112Y-104346065D01*
X77812969Y-104869875D02*
X77336779Y-104869875D01*
X77336779Y-104869875D02*
X77336779Y-103869875D01*
X77336779Y-103869875D02*
X77812969Y-103869875D01*
X78098684Y-103869875D02*
X78432017Y-104869875D01*
X78432017Y-104869875D02*
X78765350Y-103869875D01*
X80384398Y-104869875D02*
X79812970Y-104869875D01*
X80098684Y-104869875D02*
X80098684Y-103869875D01*
X80098684Y-103869875D02*
X80003446Y-104012732D01*
X80003446Y-104012732D02*
X79908208Y-104107970D01*
X79908208Y-104107970D02*
X79812970Y-104155589D01*
X80812970Y-104774636D02*
X80860589Y-104822256D01*
X80860589Y-104822256D02*
X80812970Y-104869875D01*
X80812970Y-104869875D02*
X80765351Y-104822256D01*
X80765351Y-104822256D02*
X80812970Y-104774636D01*
X80812970Y-104774636D02*
X80812970Y-104869875D01*
X81479636Y-103869875D02*
X81574874Y-103869875D01*
X81574874Y-103869875D02*
X81670112Y-103917494D01*
X81670112Y-103917494D02*
X81717731Y-103965113D01*
X81717731Y-103965113D02*
X81765350Y-104060351D01*
X81765350Y-104060351D02*
X81812969Y-104250827D01*
X81812969Y-104250827D02*
X81812969Y-104488922D01*
X81812969Y-104488922D02*
X81765350Y-104679398D01*
X81765350Y-104679398D02*
X81717731Y-104774636D01*
X81717731Y-104774636D02*
X81670112Y-104822256D01*
X81670112Y-104822256D02*
X81574874Y-104869875D01*
X81574874Y-104869875D02*
X81479636Y-104869875D01*
X81479636Y-104869875D02*
X81384398Y-104822256D01*
X81384398Y-104822256D02*
X81336779Y-104774636D01*
X81336779Y-104774636D02*
X81289160Y-104679398D01*
X81289160Y-104679398D02*
X81241541Y-104488922D01*
X81241541Y-104488922D02*
X81241541Y-104250827D01*
X81241541Y-104250827D02*
X81289160Y-104060351D01*
X81289160Y-104060351D02*
X81336779Y-103965113D01*
X81336779Y-103965113D02*
X81384398Y-103917494D01*
X81384398Y-103917494D02*
X81479636Y-103869875D01*
X80051064Y-105575057D02*
X80098683Y-105527438D01*
X80098683Y-105527438D02*
X80193921Y-105479819D01*
X80193921Y-105479819D02*
X80432016Y-105479819D01*
X80432016Y-105479819D02*
X80527254Y-105527438D01*
X80527254Y-105527438D02*
X80574873Y-105575057D01*
X80574873Y-105575057D02*
X80622492Y-105670295D01*
X80622492Y-105670295D02*
X80622492Y-105765533D01*
X80622492Y-105765533D02*
X80574873Y-105908390D01*
X80574873Y-105908390D02*
X80003445Y-106479819D01*
X80003445Y-106479819D02*
X80622492Y-106479819D01*
X81241540Y-105479819D02*
X81336778Y-105479819D01*
X81336778Y-105479819D02*
X81432016Y-105527438D01*
X81432016Y-105527438D02*
X81479635Y-105575057D01*
X81479635Y-105575057D02*
X81527254Y-105670295D01*
X81527254Y-105670295D02*
X81574873Y-105860771D01*
X81574873Y-105860771D02*
X81574873Y-106098866D01*
X81574873Y-106098866D02*
X81527254Y-106289342D01*
X81527254Y-106289342D02*
X81479635Y-106384580D01*
X81479635Y-106384580D02*
X81432016Y-106432200D01*
X81432016Y-106432200D02*
X81336778Y-106479819D01*
X81336778Y-106479819D02*
X81241540Y-106479819D01*
X81241540Y-106479819D02*
X81146302Y-106432200D01*
X81146302Y-106432200D02*
X81098683Y-106384580D01*
X81098683Y-106384580D02*
X81051064Y-106289342D01*
X81051064Y-106289342D02*
X81003445Y-106098866D01*
X81003445Y-106098866D02*
X81003445Y-105860771D01*
X81003445Y-105860771D02*
X81051064Y-105670295D01*
X81051064Y-105670295D02*
X81098683Y-105575057D01*
X81098683Y-105575057D02*
X81146302Y-105527438D01*
X81146302Y-105527438D02*
X81241540Y-105479819D01*
X81955826Y-105575057D02*
X82003445Y-105527438D01*
X82003445Y-105527438D02*
X82098683Y-105479819D01*
X82098683Y-105479819D02*
X82336778Y-105479819D01*
X82336778Y-105479819D02*
X82432016Y-105527438D01*
X82432016Y-105527438D02*
X82479635Y-105575057D01*
X82479635Y-105575057D02*
X82527254Y-105670295D01*
X82527254Y-105670295D02*
X82527254Y-105765533D01*
X82527254Y-105765533D02*
X82479635Y-105908390D01*
X82479635Y-105908390D02*
X81908207Y-106479819D01*
X81908207Y-106479819D02*
X82527254Y-106479819D01*
X83384397Y-105479819D02*
X83193921Y-105479819D01*
X83193921Y-105479819D02*
X83098683Y-105527438D01*
X83098683Y-105527438D02*
X83051064Y-105575057D01*
X83051064Y-105575057D02*
X82955826Y-105717914D01*
X82955826Y-105717914D02*
X82908207Y-105908390D01*
X82908207Y-105908390D02*
X82908207Y-106289342D01*
X82908207Y-106289342D02*
X82955826Y-106384580D01*
X82955826Y-106384580D02*
X83003445Y-106432200D01*
X83003445Y-106432200D02*
X83098683Y-106479819D01*
X83098683Y-106479819D02*
X83289159Y-106479819D01*
X83289159Y-106479819D02*
X83384397Y-106432200D01*
X83384397Y-106432200D02*
X83432016Y-106384580D01*
X83432016Y-106384580D02*
X83479635Y-106289342D01*
X83479635Y-106289342D02*
X83479635Y-106051247D01*
X83479635Y-106051247D02*
X83432016Y-105956009D01*
X83432016Y-105956009D02*
X83384397Y-105908390D01*
X83384397Y-105908390D02*
X83289159Y-105860771D01*
X83289159Y-105860771D02*
X83098683Y-105860771D01*
X83098683Y-105860771D02*
X83003445Y-105908390D01*
X83003445Y-105908390D02*
X82955826Y-105956009D01*
X82955826Y-105956009D02*
X82908207Y-106051247D01*
X87498095Y-85184819D02*
X87498095Y-84184819D01*
X87498095Y-84661009D02*
X88069523Y-84661009D01*
X88069523Y-85184819D02*
X88069523Y-84184819D01*
X89069523Y-85184819D02*
X88498095Y-85184819D01*
X88783809Y-85184819D02*
X88783809Y-84184819D01*
X88783809Y-84184819D02*
X88688571Y-84327676D01*
X88688571Y-84327676D02*
X88593333Y-84422914D01*
X88593333Y-84422914D02*
X88498095Y-84470533D01*
X102738095Y-108504819D02*
X102738095Y-107504819D01*
X102738095Y-107981009D02*
X103309523Y-107981009D01*
X103309523Y-108504819D02*
X103309523Y-107504819D01*
X103738095Y-107600057D02*
X103785714Y-107552438D01*
X103785714Y-107552438D02*
X103880952Y-107504819D01*
X103880952Y-107504819D02*
X104119047Y-107504819D01*
X104119047Y-107504819D02*
X104214285Y-107552438D01*
X104214285Y-107552438D02*
X104261904Y-107600057D01*
X104261904Y-107600057D02*
X104309523Y-107695295D01*
X104309523Y-107695295D02*
X104309523Y-107790533D01*
X104309523Y-107790533D02*
X104261904Y-107933390D01*
X104261904Y-107933390D02*
X103690476Y-108504819D01*
X103690476Y-108504819D02*
X104309523Y-108504819D01*
X110666666Y-106634819D02*
X110666666Y-107349104D01*
X110666666Y-107349104D02*
X110619047Y-107491961D01*
X110619047Y-107491961D02*
X110523809Y-107587200D01*
X110523809Y-107587200D02*
X110380952Y-107634819D01*
X110380952Y-107634819D02*
X110285714Y-107634819D01*
X111666666Y-107634819D02*
X111095238Y-107634819D01*
X111380952Y-107634819D02*
X111380952Y-106634819D01*
X111380952Y-106634819D02*
X111285714Y-106777676D01*
X111285714Y-106777676D02*
X111190476Y-106872914D01*
X111190476Y-106872914D02*
X111095238Y-106920533D01*
X110761905Y-86874819D02*
X110761905Y-85874819D01*
X110761905Y-85874819D02*
X111000000Y-85874819D01*
X111000000Y-85874819D02*
X111142857Y-85922438D01*
X111142857Y-85922438D02*
X111238095Y-86017676D01*
X111238095Y-86017676D02*
X111285714Y-86112914D01*
X111285714Y-86112914D02*
X111333333Y-86303390D01*
X111333333Y-86303390D02*
X111333333Y-86446247D01*
X111333333Y-86446247D02*
X111285714Y-86636723D01*
X111285714Y-86636723D02*
X111238095Y-86731961D01*
X111238095Y-86731961D02*
X111142857Y-86827200D01*
X111142857Y-86827200D02*
X111000000Y-86874819D01*
X111000000Y-86874819D02*
X110761905Y-86874819D01*
X112190476Y-86208152D02*
X112190476Y-86874819D01*
X111952381Y-85827200D02*
X111714286Y-86541485D01*
X111714286Y-86541485D02*
X112333333Y-86541485D01*
X118354819Y-95761904D02*
X119164342Y-95761904D01*
X119164342Y-95761904D02*
X119259580Y-95714285D01*
X119259580Y-95714285D02*
X119307200Y-95666666D01*
X119307200Y-95666666D02*
X119354819Y-95571428D01*
X119354819Y-95571428D02*
X119354819Y-95380952D01*
X119354819Y-95380952D02*
X119307200Y-95285714D01*
X119307200Y-95285714D02*
X119259580Y-95238095D01*
X119259580Y-95238095D02*
X119164342Y-95190476D01*
X119164342Y-95190476D02*
X118354819Y-95190476D01*
X119354819Y-94190476D02*
X119354819Y-94761904D01*
X119354819Y-94476190D02*
X118354819Y-94476190D01*
X118354819Y-94476190D02*
X118497676Y-94571428D01*
X118497676Y-94571428D02*
X118592914Y-94666666D01*
X118592914Y-94666666D02*
X118640533Y-94761904D01*
X114179580Y-91166666D02*
X114227200Y-91214285D01*
X114227200Y-91214285D02*
X114274819Y-91357142D01*
X114274819Y-91357142D02*
X114274819Y-91452380D01*
X114274819Y-91452380D02*
X114227200Y-91595237D01*
X114227200Y-91595237D02*
X114131961Y-91690475D01*
X114131961Y-91690475D02*
X114036723Y-91738094D01*
X114036723Y-91738094D02*
X113846247Y-91785713D01*
X113846247Y-91785713D02*
X113703390Y-91785713D01*
X113703390Y-91785713D02*
X113512914Y-91738094D01*
X113512914Y-91738094D02*
X113417676Y-91690475D01*
X113417676Y-91690475D02*
X113322438Y-91595237D01*
X113322438Y-91595237D02*
X113274819Y-91452380D01*
X113274819Y-91452380D02*
X113274819Y-91357142D01*
X113274819Y-91357142D02*
X113322438Y-91214285D01*
X113322438Y-91214285D02*
X113370057Y-91166666D01*
X113370057Y-90785713D02*
X113322438Y-90738094D01*
X113322438Y-90738094D02*
X113274819Y-90642856D01*
X113274819Y-90642856D02*
X113274819Y-90404761D01*
X113274819Y-90404761D02*
X113322438Y-90309523D01*
X113322438Y-90309523D02*
X113370057Y-90261904D01*
X113370057Y-90261904D02*
X113465295Y-90214285D01*
X113465295Y-90214285D02*
X113560533Y-90214285D01*
X113560533Y-90214285D02*
X113703390Y-90261904D01*
X113703390Y-90261904D02*
X114274819Y-90833332D01*
X114274819Y-90833332D02*
X114274819Y-90214285D01*
X119604819Y-91166666D02*
X119128628Y-91499999D01*
X119604819Y-91738094D02*
X118604819Y-91738094D01*
X118604819Y-91738094D02*
X118604819Y-91357142D01*
X118604819Y-91357142D02*
X118652438Y-91261904D01*
X118652438Y-91261904D02*
X118700057Y-91214285D01*
X118700057Y-91214285D02*
X118795295Y-91166666D01*
X118795295Y-91166666D02*
X118938152Y-91166666D01*
X118938152Y-91166666D02*
X119033390Y-91214285D01*
X119033390Y-91214285D02*
X119081009Y-91261904D01*
X119081009Y-91261904D02*
X119128628Y-91357142D01*
X119128628Y-91357142D02*
X119128628Y-91738094D01*
X118700057Y-90785713D02*
X118652438Y-90738094D01*
X118652438Y-90738094D02*
X118604819Y-90642856D01*
X118604819Y-90642856D02*
X118604819Y-90404761D01*
X118604819Y-90404761D02*
X118652438Y-90309523D01*
X118652438Y-90309523D02*
X118700057Y-90261904D01*
X118700057Y-90261904D02*
X118795295Y-90214285D01*
X118795295Y-90214285D02*
X118890533Y-90214285D01*
X118890533Y-90214285D02*
X119033390Y-90261904D01*
X119033390Y-90261904D02*
X119604819Y-90833332D01*
X119604819Y-90833332D02*
X119604819Y-90214285D01*
X109266666Y-93454819D02*
X109266666Y-94169104D01*
X109266666Y-94169104D02*
X109219047Y-94311961D01*
X109219047Y-94311961D02*
X109123809Y-94407200D01*
X109123809Y-94407200D02*
X108980952Y-94454819D01*
X108980952Y-94454819D02*
X108885714Y-94454819D01*
X109695238Y-93550057D02*
X109742857Y-93502438D01*
X109742857Y-93502438D02*
X109838095Y-93454819D01*
X109838095Y-93454819D02*
X110076190Y-93454819D01*
X110076190Y-93454819D02*
X110171428Y-93502438D01*
X110171428Y-93502438D02*
X110219047Y-93550057D01*
X110219047Y-93550057D02*
X110266666Y-93645295D01*
X110266666Y-93645295D02*
X110266666Y-93740533D01*
X110266666Y-93740533D02*
X110219047Y-93883390D01*
X110219047Y-93883390D02*
X109647619Y-94454819D01*
X109647619Y-94454819D02*
X110266666Y-94454819D01*
X107270833Y-87304819D02*
X106937500Y-86828628D01*
X106699405Y-87304819D02*
X106699405Y-86304819D01*
X106699405Y-86304819D02*
X107080357Y-86304819D01*
X107080357Y-86304819D02*
X107175595Y-86352438D01*
X107175595Y-86352438D02*
X107223214Y-86400057D01*
X107223214Y-86400057D02*
X107270833Y-86495295D01*
X107270833Y-86495295D02*
X107270833Y-86638152D01*
X107270833Y-86638152D02*
X107223214Y-86733390D01*
X107223214Y-86733390D02*
X107175595Y-86781009D01*
X107175595Y-86781009D02*
X107080357Y-86828628D01*
X107080357Y-86828628D02*
X106699405Y-86828628D01*
X107747024Y-87304819D02*
X107937500Y-87304819D01*
X107937500Y-87304819D02*
X108032738Y-87257200D01*
X108032738Y-87257200D02*
X108080357Y-87209580D01*
X108080357Y-87209580D02*
X108175595Y-87066723D01*
X108175595Y-87066723D02*
X108223214Y-86876247D01*
X108223214Y-86876247D02*
X108223214Y-86495295D01*
X108223214Y-86495295D02*
X108175595Y-86400057D01*
X108175595Y-86400057D02*
X108127976Y-86352438D01*
X108127976Y-86352438D02*
X108032738Y-86304819D01*
X108032738Y-86304819D02*
X107842262Y-86304819D01*
X107842262Y-86304819D02*
X107747024Y-86352438D01*
X107747024Y-86352438D02*
X107699405Y-86400057D01*
X107699405Y-86400057D02*
X107651786Y-86495295D01*
X107651786Y-86495295D02*
X107651786Y-86733390D01*
X107651786Y-86733390D02*
X107699405Y-86828628D01*
X107699405Y-86828628D02*
X107747024Y-86876247D01*
X107747024Y-86876247D02*
X107842262Y-86923866D01*
X107842262Y-86923866D02*
X108032738Y-86923866D01*
X108032738Y-86923866D02*
X108127976Y-86876247D01*
X108127976Y-86876247D02*
X108175595Y-86828628D01*
X108175595Y-86828628D02*
X108223214Y-86733390D01*
X119604819Y-88238094D02*
X118604819Y-88238094D01*
X118604819Y-88238094D02*
X118604819Y-87999999D01*
X118604819Y-87999999D02*
X118652438Y-87857142D01*
X118652438Y-87857142D02*
X118747676Y-87761904D01*
X118747676Y-87761904D02*
X118842914Y-87714285D01*
X118842914Y-87714285D02*
X119033390Y-87666666D01*
X119033390Y-87666666D02*
X119176247Y-87666666D01*
X119176247Y-87666666D02*
X119366723Y-87714285D01*
X119366723Y-87714285D02*
X119461961Y-87761904D01*
X119461961Y-87761904D02*
X119557200Y-87857142D01*
X119557200Y-87857142D02*
X119604819Y-87999999D01*
X119604819Y-87999999D02*
X119604819Y-88238094D01*
X119604819Y-86714285D02*
X119604819Y-87285713D01*
X119604819Y-86999999D02*
X118604819Y-86999999D01*
X118604819Y-86999999D02*
X118747676Y-87095237D01*
X118747676Y-87095237D02*
X118842914Y-87190475D01*
X118842914Y-87190475D02*
X118890533Y-87285713D01*
X107682142Y-97804819D02*
X107348809Y-97328628D01*
X107110714Y-97804819D02*
X107110714Y-96804819D01*
X107110714Y-96804819D02*
X107491666Y-96804819D01*
X107491666Y-96804819D02*
X107586904Y-96852438D01*
X107586904Y-96852438D02*
X107634523Y-96900057D01*
X107634523Y-96900057D02*
X107682142Y-96995295D01*
X107682142Y-96995295D02*
X107682142Y-97138152D01*
X107682142Y-97138152D02*
X107634523Y-97233390D01*
X107634523Y-97233390D02*
X107586904Y-97281009D01*
X107586904Y-97281009D02*
X107491666Y-97328628D01*
X107491666Y-97328628D02*
X107110714Y-97328628D01*
X108634523Y-97804819D02*
X108063095Y-97804819D01*
X108348809Y-97804819D02*
X108348809Y-96804819D01*
X108348809Y-96804819D02*
X108253571Y-96947676D01*
X108253571Y-96947676D02*
X108158333Y-97042914D01*
X108158333Y-97042914D02*
X108063095Y-97090533D01*
X109253571Y-96804819D02*
X109348809Y-96804819D01*
X109348809Y-96804819D02*
X109444047Y-96852438D01*
X109444047Y-96852438D02*
X109491666Y-96900057D01*
X109491666Y-96900057D02*
X109539285Y-96995295D01*
X109539285Y-96995295D02*
X109586904Y-97185771D01*
X109586904Y-97185771D02*
X109586904Y-97423866D01*
X109586904Y-97423866D02*
X109539285Y-97614342D01*
X109539285Y-97614342D02*
X109491666Y-97709580D01*
X109491666Y-97709580D02*
X109444047Y-97757200D01*
X109444047Y-97757200D02*
X109348809Y-97804819D01*
X109348809Y-97804819D02*
X109253571Y-97804819D01*
X109253571Y-97804819D02*
X109158333Y-97757200D01*
X109158333Y-97757200D02*
X109110714Y-97709580D01*
X109110714Y-97709580D02*
X109063095Y-97614342D01*
X109063095Y-97614342D02*
X109015476Y-97423866D01*
X109015476Y-97423866D02*
X109015476Y-97185771D01*
X109015476Y-97185771D02*
X109063095Y-96995295D01*
X109063095Y-96995295D02*
X109110714Y-96900057D01*
X109110714Y-96900057D02*
X109158333Y-96852438D01*
X109158333Y-96852438D02*
X109253571Y-96804819D01*
X111269642Y-97454819D02*
X110936309Y-96978628D01*
X110698214Y-97454819D02*
X110698214Y-96454819D01*
X110698214Y-96454819D02*
X111079166Y-96454819D01*
X111079166Y-96454819D02*
X111174404Y-96502438D01*
X111174404Y-96502438D02*
X111222023Y-96550057D01*
X111222023Y-96550057D02*
X111269642Y-96645295D01*
X111269642Y-96645295D02*
X111269642Y-96788152D01*
X111269642Y-96788152D02*
X111222023Y-96883390D01*
X111222023Y-96883390D02*
X111174404Y-96931009D01*
X111174404Y-96931009D02*
X111079166Y-96978628D01*
X111079166Y-96978628D02*
X110698214Y-96978628D01*
X112222023Y-97454819D02*
X111650595Y-97454819D01*
X111936309Y-97454819D02*
X111936309Y-96454819D01*
X111936309Y-96454819D02*
X111841071Y-96597676D01*
X111841071Y-96597676D02*
X111745833Y-96692914D01*
X111745833Y-96692914D02*
X111650595Y-96740533D01*
X113174404Y-97454819D02*
X112602976Y-97454819D01*
X112888690Y-97454819D02*
X112888690Y-96454819D01*
X112888690Y-96454819D02*
X112793452Y-96597676D01*
X112793452Y-96597676D02*
X112698214Y-96692914D01*
X112698214Y-96692914D02*
X112602976Y-96740533D01*
X119454819Y-98079166D02*
X118978628Y-98412499D01*
X119454819Y-98650594D02*
X118454819Y-98650594D01*
X118454819Y-98650594D02*
X118454819Y-98269642D01*
X118454819Y-98269642D02*
X118502438Y-98174404D01*
X118502438Y-98174404D02*
X118550057Y-98126785D01*
X118550057Y-98126785D02*
X118645295Y-98079166D01*
X118645295Y-98079166D02*
X118788152Y-98079166D01*
X118788152Y-98079166D02*
X118883390Y-98126785D01*
X118883390Y-98126785D02*
X118931009Y-98174404D01*
X118931009Y-98174404D02*
X118978628Y-98269642D01*
X118978628Y-98269642D02*
X118978628Y-98650594D01*
X119454819Y-97126785D02*
X119454819Y-97698213D01*
X119454819Y-97412499D02*
X118454819Y-97412499D01*
X118454819Y-97412499D02*
X118597676Y-97507737D01*
X118597676Y-97507737D02*
X118692914Y-97602975D01*
X118692914Y-97602975D02*
X118740533Y-97698213D01*
X114359580Y-96666666D02*
X114407200Y-96714285D01*
X114407200Y-96714285D02*
X114454819Y-96857142D01*
X114454819Y-96857142D02*
X114454819Y-96952380D01*
X114454819Y-96952380D02*
X114407200Y-97095237D01*
X114407200Y-97095237D02*
X114311961Y-97190475D01*
X114311961Y-97190475D02*
X114216723Y-97238094D01*
X114216723Y-97238094D02*
X114026247Y-97285713D01*
X114026247Y-97285713D02*
X113883390Y-97285713D01*
X113883390Y-97285713D02*
X113692914Y-97238094D01*
X113692914Y-97238094D02*
X113597676Y-97190475D01*
X113597676Y-97190475D02*
X113502438Y-97095237D01*
X113502438Y-97095237D02*
X113454819Y-96952380D01*
X113454819Y-96952380D02*
X113454819Y-96857142D01*
X113454819Y-96857142D02*
X113502438Y-96714285D01*
X113502438Y-96714285D02*
X113550057Y-96666666D01*
X114454819Y-95714285D02*
X114454819Y-96285713D01*
X114454819Y-95999999D02*
X113454819Y-95999999D01*
X113454819Y-95999999D02*
X113597676Y-96095237D01*
X113597676Y-96095237D02*
X113692914Y-96190475D01*
X113692914Y-96190475D02*
X113740533Y-96285713D01*
X81833333Y-87859580D02*
X81785714Y-87907200D01*
X81785714Y-87907200D02*
X81642857Y-87954819D01*
X81642857Y-87954819D02*
X81547619Y-87954819D01*
X81547619Y-87954819D02*
X81404762Y-87907200D01*
X81404762Y-87907200D02*
X81309524Y-87811961D01*
X81309524Y-87811961D02*
X81261905Y-87716723D01*
X81261905Y-87716723D02*
X81214286Y-87526247D01*
X81214286Y-87526247D02*
X81214286Y-87383390D01*
X81214286Y-87383390D02*
X81261905Y-87192914D01*
X81261905Y-87192914D02*
X81309524Y-87097676D01*
X81309524Y-87097676D02*
X81404762Y-87002438D01*
X81404762Y-87002438D02*
X81547619Y-86954819D01*
X81547619Y-86954819D02*
X81642857Y-86954819D01*
X81642857Y-86954819D02*
X81785714Y-87002438D01*
X81785714Y-87002438D02*
X81833333Y-87050057D01*
X82690476Y-87288152D02*
X82690476Y-87954819D01*
X82452381Y-86907200D02*
X82214286Y-87621485D01*
X82214286Y-87621485D02*
X82833333Y-87621485D01*
X81833333Y-97954819D02*
X81500000Y-97478628D01*
X81261905Y-97954819D02*
X81261905Y-96954819D01*
X81261905Y-96954819D02*
X81642857Y-96954819D01*
X81642857Y-96954819D02*
X81738095Y-97002438D01*
X81738095Y-97002438D02*
X81785714Y-97050057D01*
X81785714Y-97050057D02*
X81833333Y-97145295D01*
X81833333Y-97145295D02*
X81833333Y-97288152D01*
X81833333Y-97288152D02*
X81785714Y-97383390D01*
X81785714Y-97383390D02*
X81738095Y-97431009D01*
X81738095Y-97431009D02*
X81642857Y-97478628D01*
X81642857Y-97478628D02*
X81261905Y-97478628D01*
X82166667Y-96954819D02*
X82833333Y-96954819D01*
X82833333Y-96954819D02*
X82404762Y-97954819D01*
X75761905Y-95454819D02*
X75761905Y-94454819D01*
X75761905Y-94454819D02*
X76000000Y-94454819D01*
X76000000Y-94454819D02*
X76142857Y-94502438D01*
X76142857Y-94502438D02*
X76238095Y-94597676D01*
X76238095Y-94597676D02*
X76285714Y-94692914D01*
X76285714Y-94692914D02*
X76333333Y-94883390D01*
X76333333Y-94883390D02*
X76333333Y-95026247D01*
X76333333Y-95026247D02*
X76285714Y-95216723D01*
X76285714Y-95216723D02*
X76238095Y-95311961D01*
X76238095Y-95311961D02*
X76142857Y-95407200D01*
X76142857Y-95407200D02*
X76000000Y-95454819D01*
X76000000Y-95454819D02*
X75761905Y-95454819D01*
X76666667Y-94454819D02*
X77285714Y-94454819D01*
X77285714Y-94454819D02*
X76952381Y-94835771D01*
X76952381Y-94835771D02*
X77095238Y-94835771D01*
X77095238Y-94835771D02*
X77190476Y-94883390D01*
X77190476Y-94883390D02*
X77238095Y-94931009D01*
X77238095Y-94931009D02*
X77285714Y-95026247D01*
X77285714Y-95026247D02*
X77285714Y-95264342D01*
X77285714Y-95264342D02*
X77238095Y-95359580D01*
X77238095Y-95359580D02*
X77190476Y-95407200D01*
X77190476Y-95407200D02*
X77095238Y-95454819D01*
X77095238Y-95454819D02*
X76809524Y-95454819D01*
X76809524Y-95454819D02*
X76714286Y-95407200D01*
X76714286Y-95407200D02*
X76666667Y-95359580D01*
X75761905Y-97954819D02*
X75761905Y-96954819D01*
X75761905Y-96954819D02*
X76000000Y-96954819D01*
X76000000Y-96954819D02*
X76142857Y-97002438D01*
X76142857Y-97002438D02*
X76238095Y-97097676D01*
X76238095Y-97097676D02*
X76285714Y-97192914D01*
X76285714Y-97192914D02*
X76333333Y-97383390D01*
X76333333Y-97383390D02*
X76333333Y-97526247D01*
X76333333Y-97526247D02*
X76285714Y-97716723D01*
X76285714Y-97716723D02*
X76238095Y-97811961D01*
X76238095Y-97811961D02*
X76142857Y-97907200D01*
X76142857Y-97907200D02*
X76000000Y-97954819D01*
X76000000Y-97954819D02*
X75761905Y-97954819D01*
X76714286Y-97050057D02*
X76761905Y-97002438D01*
X76761905Y-97002438D02*
X76857143Y-96954819D01*
X76857143Y-96954819D02*
X77095238Y-96954819D01*
X77095238Y-96954819D02*
X77190476Y-97002438D01*
X77190476Y-97002438D02*
X77238095Y-97050057D01*
X77238095Y-97050057D02*
X77285714Y-97145295D01*
X77285714Y-97145295D02*
X77285714Y-97240533D01*
X77285714Y-97240533D02*
X77238095Y-97383390D01*
X77238095Y-97383390D02*
X76666667Y-97954819D01*
X76666667Y-97954819D02*
X77285714Y-97954819D01*
X81833333Y-95454819D02*
X81500000Y-94978628D01*
X81261905Y-95454819D02*
X81261905Y-94454819D01*
X81261905Y-94454819D02*
X81642857Y-94454819D01*
X81642857Y-94454819D02*
X81738095Y-94502438D01*
X81738095Y-94502438D02*
X81785714Y-94550057D01*
X81785714Y-94550057D02*
X81833333Y-94645295D01*
X81833333Y-94645295D02*
X81833333Y-94788152D01*
X81833333Y-94788152D02*
X81785714Y-94883390D01*
X81785714Y-94883390D02*
X81738095Y-94931009D01*
X81738095Y-94931009D02*
X81642857Y-94978628D01*
X81642857Y-94978628D02*
X81261905Y-94978628D01*
X82404762Y-94883390D02*
X82309524Y-94835771D01*
X82309524Y-94835771D02*
X82261905Y-94788152D01*
X82261905Y-94788152D02*
X82214286Y-94692914D01*
X82214286Y-94692914D02*
X82214286Y-94645295D01*
X82214286Y-94645295D02*
X82261905Y-94550057D01*
X82261905Y-94550057D02*
X82309524Y-94502438D01*
X82309524Y-94502438D02*
X82404762Y-94454819D01*
X82404762Y-94454819D02*
X82595238Y-94454819D01*
X82595238Y-94454819D02*
X82690476Y-94502438D01*
X82690476Y-94502438D02*
X82738095Y-94550057D01*
X82738095Y-94550057D02*
X82785714Y-94645295D01*
X82785714Y-94645295D02*
X82785714Y-94692914D01*
X82785714Y-94692914D02*
X82738095Y-94788152D01*
X82738095Y-94788152D02*
X82690476Y-94835771D01*
X82690476Y-94835771D02*
X82595238Y-94883390D01*
X82595238Y-94883390D02*
X82404762Y-94883390D01*
X82404762Y-94883390D02*
X82309524Y-94931009D01*
X82309524Y-94931009D02*
X82261905Y-94978628D01*
X82261905Y-94978628D02*
X82214286Y-95073866D01*
X82214286Y-95073866D02*
X82214286Y-95264342D01*
X82214286Y-95264342D02*
X82261905Y-95359580D01*
X82261905Y-95359580D02*
X82309524Y-95407200D01*
X82309524Y-95407200D02*
X82404762Y-95454819D01*
X82404762Y-95454819D02*
X82595238Y-95454819D01*
X82595238Y-95454819D02*
X82690476Y-95407200D01*
X82690476Y-95407200D02*
X82738095Y-95359580D01*
X82738095Y-95359580D02*
X82785714Y-95264342D01*
X82785714Y-95264342D02*
X82785714Y-95073866D01*
X82785714Y-95073866D02*
X82738095Y-94978628D01*
X82738095Y-94978628D02*
X82690476Y-94931009D01*
X82690476Y-94931009D02*
X82595238Y-94883390D01*
X81833333Y-92859580D02*
X81785714Y-92907200D01*
X81785714Y-92907200D02*
X81642857Y-92954819D01*
X81642857Y-92954819D02*
X81547619Y-92954819D01*
X81547619Y-92954819D02*
X81404762Y-92907200D01*
X81404762Y-92907200D02*
X81309524Y-92811961D01*
X81309524Y-92811961D02*
X81261905Y-92716723D01*
X81261905Y-92716723D02*
X81214286Y-92526247D01*
X81214286Y-92526247D02*
X81214286Y-92383390D01*
X81214286Y-92383390D02*
X81261905Y-92192914D01*
X81261905Y-92192914D02*
X81309524Y-92097676D01*
X81309524Y-92097676D02*
X81404762Y-92002438D01*
X81404762Y-92002438D02*
X81547619Y-91954819D01*
X81547619Y-91954819D02*
X81642857Y-91954819D01*
X81642857Y-91954819D02*
X81785714Y-92002438D01*
X81785714Y-92002438D02*
X81833333Y-92050057D01*
X82166667Y-91954819D02*
X82785714Y-91954819D01*
X82785714Y-91954819D02*
X82452381Y-92335771D01*
X82452381Y-92335771D02*
X82595238Y-92335771D01*
X82595238Y-92335771D02*
X82690476Y-92383390D01*
X82690476Y-92383390D02*
X82738095Y-92431009D01*
X82738095Y-92431009D02*
X82785714Y-92526247D01*
X82785714Y-92526247D02*
X82785714Y-92764342D01*
X82785714Y-92764342D02*
X82738095Y-92859580D01*
X82738095Y-92859580D02*
X82690476Y-92907200D01*
X82690476Y-92907200D02*
X82595238Y-92954819D01*
X82595238Y-92954819D02*
X82309524Y-92954819D01*
X82309524Y-92954819D02*
X82214286Y-92907200D01*
X82214286Y-92907200D02*
X82166667Y-92859580D01*
X116957200Y-78333332D02*
X117004819Y-78190475D01*
X117004819Y-78190475D02*
X117004819Y-77952380D01*
X117004819Y-77952380D02*
X116957200Y-77857142D01*
X116957200Y-77857142D02*
X116909580Y-77809523D01*
X116909580Y-77809523D02*
X116814342Y-77761904D01*
X116814342Y-77761904D02*
X116719104Y-77761904D01*
X116719104Y-77761904D02*
X116623866Y-77809523D01*
X116623866Y-77809523D02*
X116576247Y-77857142D01*
X116576247Y-77857142D02*
X116528628Y-77952380D01*
X116528628Y-77952380D02*
X116481009Y-78142856D01*
X116481009Y-78142856D02*
X116433390Y-78238094D01*
X116433390Y-78238094D02*
X116385771Y-78285713D01*
X116385771Y-78285713D02*
X116290533Y-78333332D01*
X116290533Y-78333332D02*
X116195295Y-78333332D01*
X116195295Y-78333332D02*
X116100057Y-78285713D01*
X116100057Y-78285713D02*
X116052438Y-78238094D01*
X116052438Y-78238094D02*
X116004819Y-78142856D01*
X116004819Y-78142856D02*
X116004819Y-77904761D01*
X116004819Y-77904761D02*
X116052438Y-77761904D01*
X116004819Y-77428570D02*
X117004819Y-77190475D01*
X117004819Y-77190475D02*
X116290533Y-76999999D01*
X116290533Y-76999999D02*
X117004819Y-76809523D01*
X117004819Y-76809523D02*
X116004819Y-76571428D01*
X116338152Y-75761904D02*
X117004819Y-75761904D01*
X115957200Y-75999999D02*
X116671485Y-76238094D01*
X116671485Y-76238094D02*
X116671485Y-75619047D01*
X102457200Y-78333332D02*
X102504819Y-78190475D01*
X102504819Y-78190475D02*
X102504819Y-77952380D01*
X102504819Y-77952380D02*
X102457200Y-77857142D01*
X102457200Y-77857142D02*
X102409580Y-77809523D01*
X102409580Y-77809523D02*
X102314342Y-77761904D01*
X102314342Y-77761904D02*
X102219104Y-77761904D01*
X102219104Y-77761904D02*
X102123866Y-77809523D01*
X102123866Y-77809523D02*
X102076247Y-77857142D01*
X102076247Y-77857142D02*
X102028628Y-77952380D01*
X102028628Y-77952380D02*
X101981009Y-78142856D01*
X101981009Y-78142856D02*
X101933390Y-78238094D01*
X101933390Y-78238094D02*
X101885771Y-78285713D01*
X101885771Y-78285713D02*
X101790533Y-78333332D01*
X101790533Y-78333332D02*
X101695295Y-78333332D01*
X101695295Y-78333332D02*
X101600057Y-78285713D01*
X101600057Y-78285713D02*
X101552438Y-78238094D01*
X101552438Y-78238094D02*
X101504819Y-78142856D01*
X101504819Y-78142856D02*
X101504819Y-77904761D01*
X101504819Y-77904761D02*
X101552438Y-77761904D01*
X101504819Y-77428570D02*
X102504819Y-77190475D01*
X102504819Y-77190475D02*
X101790533Y-76999999D01*
X101790533Y-76999999D02*
X102504819Y-76809523D01*
X102504819Y-76809523D02*
X101504819Y-76571428D01*
X101504819Y-76285713D02*
X101504819Y-75666666D01*
X101504819Y-75666666D02*
X101885771Y-75999999D01*
X101885771Y-75999999D02*
X101885771Y-75857142D01*
X101885771Y-75857142D02*
X101933390Y-75761904D01*
X101933390Y-75761904D02*
X101981009Y-75714285D01*
X101981009Y-75714285D02*
X102076247Y-75666666D01*
X102076247Y-75666666D02*
X102314342Y-75666666D01*
X102314342Y-75666666D02*
X102409580Y-75714285D01*
X102409580Y-75714285D02*
X102457200Y-75761904D01*
X102457200Y-75761904D02*
X102504819Y-75857142D01*
X102504819Y-75857142D02*
X102504819Y-76142856D01*
X102504819Y-76142856D02*
X102457200Y-76238094D01*
X102457200Y-76238094D02*
X102409580Y-76285713D01*
X87957200Y-78333332D02*
X88004819Y-78190475D01*
X88004819Y-78190475D02*
X88004819Y-77952380D01*
X88004819Y-77952380D02*
X87957200Y-77857142D01*
X87957200Y-77857142D02*
X87909580Y-77809523D01*
X87909580Y-77809523D02*
X87814342Y-77761904D01*
X87814342Y-77761904D02*
X87719104Y-77761904D01*
X87719104Y-77761904D02*
X87623866Y-77809523D01*
X87623866Y-77809523D02*
X87576247Y-77857142D01*
X87576247Y-77857142D02*
X87528628Y-77952380D01*
X87528628Y-77952380D02*
X87481009Y-78142856D01*
X87481009Y-78142856D02*
X87433390Y-78238094D01*
X87433390Y-78238094D02*
X87385771Y-78285713D01*
X87385771Y-78285713D02*
X87290533Y-78333332D01*
X87290533Y-78333332D02*
X87195295Y-78333332D01*
X87195295Y-78333332D02*
X87100057Y-78285713D01*
X87100057Y-78285713D02*
X87052438Y-78238094D01*
X87052438Y-78238094D02*
X87004819Y-78142856D01*
X87004819Y-78142856D02*
X87004819Y-77904761D01*
X87004819Y-77904761D02*
X87052438Y-77761904D01*
X87004819Y-77428570D02*
X88004819Y-77190475D01*
X88004819Y-77190475D02*
X87290533Y-76999999D01*
X87290533Y-76999999D02*
X88004819Y-76809523D01*
X88004819Y-76809523D02*
X87004819Y-76571428D01*
X87100057Y-76238094D02*
X87052438Y-76190475D01*
X87052438Y-76190475D02*
X87004819Y-76095237D01*
X87004819Y-76095237D02*
X87004819Y-75857142D01*
X87004819Y-75857142D02*
X87052438Y-75761904D01*
X87052438Y-75761904D02*
X87100057Y-75714285D01*
X87100057Y-75714285D02*
X87195295Y-75666666D01*
X87195295Y-75666666D02*
X87290533Y-75666666D01*
X87290533Y-75666666D02*
X87433390Y-75714285D01*
X87433390Y-75714285D02*
X88004819Y-76285713D01*
X88004819Y-76285713D02*
X88004819Y-75666666D01*
X95809580Y-84166666D02*
X95857200Y-84214285D01*
X95857200Y-84214285D02*
X95904819Y-84357142D01*
X95904819Y-84357142D02*
X95904819Y-84452380D01*
X95904819Y-84452380D02*
X95857200Y-84595237D01*
X95857200Y-84595237D02*
X95761961Y-84690475D01*
X95761961Y-84690475D02*
X95666723Y-84738094D01*
X95666723Y-84738094D02*
X95476247Y-84785713D01*
X95476247Y-84785713D02*
X95333390Y-84785713D01*
X95333390Y-84785713D02*
X95142914Y-84738094D01*
X95142914Y-84738094D02*
X95047676Y-84690475D01*
X95047676Y-84690475D02*
X94952438Y-84595237D01*
X94952438Y-84595237D02*
X94904819Y-84452380D01*
X94904819Y-84452380D02*
X94904819Y-84357142D01*
X94904819Y-84357142D02*
X94952438Y-84214285D01*
X94952438Y-84214285D02*
X95000057Y-84166666D01*
X94904819Y-83309523D02*
X94904819Y-83499999D01*
X94904819Y-83499999D02*
X94952438Y-83595237D01*
X94952438Y-83595237D02*
X95000057Y-83642856D01*
X95000057Y-83642856D02*
X95142914Y-83738094D01*
X95142914Y-83738094D02*
X95333390Y-83785713D01*
X95333390Y-83785713D02*
X95714342Y-83785713D01*
X95714342Y-83785713D02*
X95809580Y-83738094D01*
X95809580Y-83738094D02*
X95857200Y-83690475D01*
X95857200Y-83690475D02*
X95904819Y-83595237D01*
X95904819Y-83595237D02*
X95904819Y-83404761D01*
X95904819Y-83404761D02*
X95857200Y-83309523D01*
X95857200Y-83309523D02*
X95809580Y-83261904D01*
X95809580Y-83261904D02*
X95714342Y-83214285D01*
X95714342Y-83214285D02*
X95476247Y-83214285D01*
X95476247Y-83214285D02*
X95381009Y-83261904D01*
X95381009Y-83261904D02*
X95333390Y-83309523D01*
X95333390Y-83309523D02*
X95285771Y-83404761D01*
X95285771Y-83404761D02*
X95285771Y-83595237D01*
X95285771Y-83595237D02*
X95333390Y-83690475D01*
X95333390Y-83690475D02*
X95381009Y-83738094D01*
X95381009Y-83738094D02*
X95476247Y-83785713D01*
X86954819Y-84166666D02*
X86478628Y-84499999D01*
X86954819Y-84738094D02*
X85954819Y-84738094D01*
X85954819Y-84738094D02*
X85954819Y-84357142D01*
X85954819Y-84357142D02*
X86002438Y-84261904D01*
X86002438Y-84261904D02*
X86050057Y-84214285D01*
X86050057Y-84214285D02*
X86145295Y-84166666D01*
X86145295Y-84166666D02*
X86288152Y-84166666D01*
X86288152Y-84166666D02*
X86383390Y-84214285D01*
X86383390Y-84214285D02*
X86431009Y-84261904D01*
X86431009Y-84261904D02*
X86478628Y-84357142D01*
X86478628Y-84357142D02*
X86478628Y-84738094D01*
X86288152Y-83309523D02*
X86954819Y-83309523D01*
X85907200Y-83547618D02*
X86621485Y-83785713D01*
X86621485Y-83785713D02*
X86621485Y-83166666D01*
X115604819Y-84166666D02*
X115128628Y-84499999D01*
X115604819Y-84738094D02*
X114604819Y-84738094D01*
X114604819Y-84738094D02*
X114604819Y-84357142D01*
X114604819Y-84357142D02*
X114652438Y-84261904D01*
X114652438Y-84261904D02*
X114700057Y-84214285D01*
X114700057Y-84214285D02*
X114795295Y-84166666D01*
X114795295Y-84166666D02*
X114938152Y-84166666D01*
X114938152Y-84166666D02*
X115033390Y-84214285D01*
X115033390Y-84214285D02*
X115081009Y-84261904D01*
X115081009Y-84261904D02*
X115128628Y-84357142D01*
X115128628Y-84357142D02*
X115128628Y-84738094D01*
X114604819Y-83309523D02*
X114604819Y-83499999D01*
X114604819Y-83499999D02*
X114652438Y-83595237D01*
X114652438Y-83595237D02*
X114700057Y-83642856D01*
X114700057Y-83642856D02*
X114842914Y-83738094D01*
X114842914Y-83738094D02*
X115033390Y-83785713D01*
X115033390Y-83785713D02*
X115414342Y-83785713D01*
X115414342Y-83785713D02*
X115509580Y-83738094D01*
X115509580Y-83738094D02*
X115557200Y-83690475D01*
X115557200Y-83690475D02*
X115604819Y-83595237D01*
X115604819Y-83595237D02*
X115604819Y-83404761D01*
X115604819Y-83404761D02*
X115557200Y-83309523D01*
X115557200Y-83309523D02*
X115509580Y-83261904D01*
X115509580Y-83261904D02*
X115414342Y-83214285D01*
X115414342Y-83214285D02*
X115176247Y-83214285D01*
X115176247Y-83214285D02*
X115081009Y-83261904D01*
X115081009Y-83261904D02*
X115033390Y-83309523D01*
X115033390Y-83309523D02*
X114985771Y-83404761D01*
X114985771Y-83404761D02*
X114985771Y-83595237D01*
X114985771Y-83595237D02*
X115033390Y-83690475D01*
X115033390Y-83690475D02*
X115081009Y-83738094D01*
X115081009Y-83738094D02*
X115176247Y-83785713D01*
X101604819Y-84166666D02*
X101128628Y-84499999D01*
X101604819Y-84738094D02*
X100604819Y-84738094D01*
X100604819Y-84738094D02*
X100604819Y-84357142D01*
X100604819Y-84357142D02*
X100652438Y-84261904D01*
X100652438Y-84261904D02*
X100700057Y-84214285D01*
X100700057Y-84214285D02*
X100795295Y-84166666D01*
X100795295Y-84166666D02*
X100938152Y-84166666D01*
X100938152Y-84166666D02*
X101033390Y-84214285D01*
X101033390Y-84214285D02*
X101081009Y-84261904D01*
X101081009Y-84261904D02*
X101128628Y-84357142D01*
X101128628Y-84357142D02*
X101128628Y-84738094D01*
X100604819Y-83261904D02*
X100604819Y-83738094D01*
X100604819Y-83738094D02*
X101081009Y-83785713D01*
X101081009Y-83785713D02*
X101033390Y-83738094D01*
X101033390Y-83738094D02*
X100985771Y-83642856D01*
X100985771Y-83642856D02*
X100985771Y-83404761D01*
X100985771Y-83404761D02*
X101033390Y-83309523D01*
X101033390Y-83309523D02*
X101081009Y-83261904D01*
X101081009Y-83261904D02*
X101176247Y-83214285D01*
X101176247Y-83214285D02*
X101414342Y-83214285D01*
X101414342Y-83214285D02*
X101509580Y-83261904D01*
X101509580Y-83261904D02*
X101557200Y-83309523D01*
X101557200Y-83309523D02*
X101604819Y-83404761D01*
X101604819Y-83404761D02*
X101604819Y-83642856D01*
X101604819Y-83642856D02*
X101557200Y-83738094D01*
X101557200Y-83738094D02*
X101509580Y-83785713D01*
X110359580Y-84166666D02*
X110407200Y-84214285D01*
X110407200Y-84214285D02*
X110454819Y-84357142D01*
X110454819Y-84357142D02*
X110454819Y-84452380D01*
X110454819Y-84452380D02*
X110407200Y-84595237D01*
X110407200Y-84595237D02*
X110311961Y-84690475D01*
X110311961Y-84690475D02*
X110216723Y-84738094D01*
X110216723Y-84738094D02*
X110026247Y-84785713D01*
X110026247Y-84785713D02*
X109883390Y-84785713D01*
X109883390Y-84785713D02*
X109692914Y-84738094D01*
X109692914Y-84738094D02*
X109597676Y-84690475D01*
X109597676Y-84690475D02*
X109502438Y-84595237D01*
X109502438Y-84595237D02*
X109454819Y-84452380D01*
X109454819Y-84452380D02*
X109454819Y-84357142D01*
X109454819Y-84357142D02*
X109502438Y-84214285D01*
X109502438Y-84214285D02*
X109550057Y-84166666D01*
X109454819Y-83833332D02*
X109454819Y-83166666D01*
X109454819Y-83166666D02*
X110454819Y-83595237D01*
X81359580Y-84166666D02*
X81407200Y-84214285D01*
X81407200Y-84214285D02*
X81454819Y-84357142D01*
X81454819Y-84357142D02*
X81454819Y-84452380D01*
X81454819Y-84452380D02*
X81407200Y-84595237D01*
X81407200Y-84595237D02*
X81311961Y-84690475D01*
X81311961Y-84690475D02*
X81216723Y-84738094D01*
X81216723Y-84738094D02*
X81026247Y-84785713D01*
X81026247Y-84785713D02*
X80883390Y-84785713D01*
X80883390Y-84785713D02*
X80692914Y-84738094D01*
X80692914Y-84738094D02*
X80597676Y-84690475D01*
X80597676Y-84690475D02*
X80502438Y-84595237D01*
X80502438Y-84595237D02*
X80454819Y-84452380D01*
X80454819Y-84452380D02*
X80454819Y-84357142D01*
X80454819Y-84357142D02*
X80502438Y-84214285D01*
X80502438Y-84214285D02*
X80550057Y-84166666D01*
X80454819Y-83261904D02*
X80454819Y-83738094D01*
X80454819Y-83738094D02*
X80931009Y-83785713D01*
X80931009Y-83785713D02*
X80883390Y-83738094D01*
X80883390Y-83738094D02*
X80835771Y-83642856D01*
X80835771Y-83642856D02*
X80835771Y-83404761D01*
X80835771Y-83404761D02*
X80883390Y-83309523D01*
X80883390Y-83309523D02*
X80931009Y-83261904D01*
X80931009Y-83261904D02*
X81026247Y-83214285D01*
X81026247Y-83214285D02*
X81264342Y-83214285D01*
X81264342Y-83214285D02*
X81359580Y-83261904D01*
X81359580Y-83261904D02*
X81407200Y-83309523D01*
X81407200Y-83309523D02*
X81454819Y-83404761D01*
X81454819Y-83404761D02*
X81454819Y-83642856D01*
X81454819Y-83642856D02*
X81407200Y-83738094D01*
X81407200Y-83738094D02*
X81359580Y-83785713D01*
X94166667Y-105907200D02*
X94309524Y-105954819D01*
X94309524Y-105954819D02*
X94547619Y-105954819D01*
X94547619Y-105954819D02*
X94642857Y-105907200D01*
X94642857Y-105907200D02*
X94690476Y-105859580D01*
X94690476Y-105859580D02*
X94738095Y-105764342D01*
X94738095Y-105764342D02*
X94738095Y-105669104D01*
X94738095Y-105669104D02*
X94690476Y-105573866D01*
X94690476Y-105573866D02*
X94642857Y-105526247D01*
X94642857Y-105526247D02*
X94547619Y-105478628D01*
X94547619Y-105478628D02*
X94357143Y-105431009D01*
X94357143Y-105431009D02*
X94261905Y-105383390D01*
X94261905Y-105383390D02*
X94214286Y-105335771D01*
X94214286Y-105335771D02*
X94166667Y-105240533D01*
X94166667Y-105240533D02*
X94166667Y-105145295D01*
X94166667Y-105145295D02*
X94214286Y-105050057D01*
X94214286Y-105050057D02*
X94261905Y-105002438D01*
X94261905Y-105002438D02*
X94357143Y-104954819D01*
X94357143Y-104954819D02*
X94595238Y-104954819D01*
X94595238Y-104954819D02*
X94738095Y-105002438D01*
X95071429Y-104954819D02*
X95309524Y-105954819D01*
X95309524Y-105954819D02*
X95500000Y-105240533D01*
X95500000Y-105240533D02*
X95690476Y-105954819D01*
X95690476Y-105954819D02*
X95928572Y-104954819D01*
X96833333Y-105954819D02*
X96261905Y-105954819D01*
X96547619Y-105954819D02*
X96547619Y-104954819D01*
X96547619Y-104954819D02*
X96452381Y-105097676D01*
X96452381Y-105097676D02*
X96357143Y-105192914D01*
X96357143Y-105192914D02*
X96261905Y-105240533D01*
%TO.C,H1*%
D11*
X86930000Y-88770000D02*
X86930000Y-106610000D01*
X86930000Y-88770000D02*
X89590000Y-88770000D01*
X86930000Y-106610000D02*
X89590000Y-106610000D01*
X88260000Y-86170000D02*
X89590000Y-86170000D01*
X89590000Y-86170000D02*
X89590000Y-87500000D01*
X89590000Y-88770000D02*
X89590000Y-106610000D01*
%TO.C,H2*%
X104830000Y-104010000D02*
X104830000Y-86170000D01*
X104830000Y-104010000D02*
X102170000Y-104010000D01*
X104830000Y-86170000D02*
X102170000Y-86170000D01*
X103500000Y-106610000D02*
X102170000Y-106610000D01*
X102170000Y-106610000D02*
X102170000Y-105280000D01*
X102170000Y-104010000D02*
X102170000Y-86170000D01*
%TO.C,J1*%
X106330000Y-107080000D02*
X106330000Y-105380000D01*
X115670000Y-107080000D02*
X115670000Y-105380000D01*
%TO.C,D4*%
X113185000Y-89460000D02*
X113185000Y-87540000D01*
X113185000Y-87540000D02*
X110500000Y-87540000D01*
X110500000Y-89460000D02*
X113185000Y-89460000D01*
%TO.C,U1*%
X118340000Y-93790000D02*
X118010000Y-93550000D01*
X118340000Y-93310000D01*
X118340000Y-93790000D01*
G36*
X118340000Y-93790000D02*
G01*
X118010000Y-93550000D01*
X118340000Y-93310000D01*
X118340000Y-93790000D01*
G37*
X114940000Y-95910000D02*
X114940000Y-94090000D01*
X114990000Y-95910000D02*
X114940000Y-95910000D01*
X116890000Y-95910000D02*
X116110000Y-95910000D01*
X118060000Y-95910000D02*
X118010000Y-95910000D01*
X114940000Y-94090000D02*
X114990000Y-94090000D01*
X118010000Y-94090000D02*
X118060000Y-94090000D01*
X118060000Y-94090000D02*
X118060000Y-95910000D01*
%TO.C,C2*%
X114765000Y-91261252D02*
X114765000Y-90738748D01*
X116235000Y-91261252D02*
X116235000Y-90738748D01*
%TO.C,R2*%
X116765000Y-90772936D02*
X116765000Y-91227064D01*
X118235000Y-90772936D02*
X118235000Y-91227064D01*
%TO.C,R9*%
X107210436Y-87765000D02*
X107664564Y-87765000D01*
X107210436Y-89235000D02*
X107664564Y-89235000D01*
%TO.C,D1*%
X118460000Y-88500000D02*
X118460000Y-85815000D01*
X116540000Y-85815000D02*
X116540000Y-88500000D01*
X118460000Y-85815000D02*
X116540000Y-85815000D01*
%TO.C,R10*%
X108097936Y-99735000D02*
X108552064Y-99735000D01*
X108097936Y-98265000D02*
X108552064Y-98265000D01*
%TO.C,R11*%
X111685436Y-99735000D02*
X112139564Y-99735000D01*
X111685436Y-98265000D02*
X112139564Y-98265000D01*
%TO.C,R1*%
X116765000Y-99639564D02*
X116765000Y-99185436D01*
X118235000Y-99639564D02*
X118235000Y-99185436D01*
%TO.C,C1*%
X114765000Y-99151248D02*
X114765000Y-99673752D01*
X116235000Y-99151248D02*
X116235000Y-99673752D01*
%TO.C,C4*%
X84761252Y-86765000D02*
X84238748Y-86765000D01*
X84761252Y-88235000D02*
X84238748Y-88235000D01*
%TO.C,R7*%
X84727064Y-96765000D02*
X84272936Y-96765000D01*
X84727064Y-98235000D02*
X84272936Y-98235000D01*
%TO.C,D3*%
X80500000Y-94040000D02*
X77815000Y-94040000D01*
X77815000Y-95960000D02*
X80500000Y-95960000D01*
X77815000Y-94040000D02*
X77815000Y-95960000D01*
%TO.C,D2*%
X80500000Y-96540000D02*
X77815000Y-96540000D01*
X77815000Y-98460000D02*
X80500000Y-98460000D01*
X77815000Y-96540000D02*
X77815000Y-98460000D01*
%TO.C,R8*%
X84727064Y-94265000D02*
X84272936Y-94265000D01*
X84727064Y-95735000D02*
X84272936Y-95735000D01*
%TO.C,C3*%
X84761252Y-91765000D02*
X84238748Y-91765000D01*
X84761252Y-93235000D02*
X84238748Y-93235000D01*
%TO.C,SW4*%
X115730000Y-73770000D02*
X115730000Y-80230000D01*
X115700000Y-73770000D02*
X115730000Y-73770000D01*
X113800000Y-73770000D02*
X111200000Y-73770000D01*
X109270000Y-73770000D02*
X109300000Y-73770000D01*
X109270000Y-73770000D02*
X109270000Y-80230000D01*
X115730000Y-80230000D02*
X115700000Y-80230000D01*
X113800000Y-80230000D02*
X111200000Y-80230000D01*
X109270000Y-80230000D02*
X109300000Y-80230000D01*
%TO.C,SW3*%
X101230000Y-73770000D02*
X101230000Y-80230000D01*
X101200000Y-73770000D02*
X101230000Y-73770000D01*
X99300000Y-73770000D02*
X96700000Y-73770000D01*
X94770000Y-73770000D02*
X94800000Y-73770000D01*
X94770000Y-73770000D02*
X94770000Y-80230000D01*
X101230000Y-80230000D02*
X101200000Y-80230000D01*
X99300000Y-80230000D02*
X96700000Y-80230000D01*
X94770000Y-80230000D02*
X94800000Y-80230000D01*
%TO.C,SW2*%
X86730000Y-73770000D02*
X86730000Y-80230000D01*
X86700000Y-73770000D02*
X86730000Y-73770000D01*
X84800000Y-73770000D02*
X82200000Y-73770000D01*
X80270000Y-73770000D02*
X80300000Y-73770000D01*
X80270000Y-73770000D02*
X80270000Y-80230000D01*
X86730000Y-80230000D02*
X86700000Y-80230000D01*
X84800000Y-80230000D02*
X82200000Y-80230000D01*
X80270000Y-80230000D02*
X80300000Y-80230000D01*
%TO.C,C6*%
X97735000Y-83738748D02*
X97735000Y-84261252D01*
X96265000Y-83738748D02*
X96265000Y-84261252D01*
%TO.C,R4*%
X84265000Y-84227064D02*
X84265000Y-83772936D01*
X85735000Y-84227064D02*
X85735000Y-83772936D01*
%TO.C,R6*%
X114235000Y-83772936D02*
X114235000Y-84227064D01*
X112765000Y-83772936D02*
X112765000Y-84227064D01*
%TO.C,R5*%
X100235000Y-83772936D02*
X100235000Y-84227064D01*
X98765000Y-83772936D02*
X98765000Y-84227064D01*
%TO.C,C7*%
X112235000Y-83738748D02*
X112235000Y-84261252D01*
X110765000Y-83738748D02*
X110765000Y-84261252D01*
%TO.C,C5*%
X83235000Y-83738748D02*
X83235000Y-84261252D01*
X81765000Y-83738748D02*
X81765000Y-84261252D01*
%TO.C,SW1*%
X90390000Y-106640000D02*
X100610000Y-106640000D01*
X100610000Y-109360000D01*
X90390000Y-109360000D01*
X90390000Y-106640000D01*
%TD*%
M02*
