%TF.GenerationSoftware,KiCad,Pcbnew,10.0.1*%
%TF.CreationDate,2026-05-28T23:20:21-07:00*%
%TF.ProjectId,Jeep_Embedded_Controls_Main,4a656570-5f45-46d6-9265-646465645f43,Initial Design*%
%TF.SameCoordinates,Original*%
%TF.FileFunction,Copper,L2,Bot*%
%TF.FilePolarity,Positive*%
%FSLAX46Y46*%
G04 Gerber Fmt 4.6, Leading zero omitted, Abs format (unit mm)*
G04 Created by KiCad (PCBNEW 10.0.1) date 2026-05-28 23:20:21*
%MOMM*%
%LPD*%
G01*
G04 APERTURE LIST*
G04 Aperture macros list*
%AMRoundRect*
0 Rectangle with rounded corners*
0 $1 Rounding radius*
0 $2 $3 $4 $5 $6 $7 $8 $9 X,Y pos of 4 corners*
0 Add a 4 corners polygon primitive as box body*
4,1,4,$2,$3,$4,$5,$6,$7,$8,$9,$2,$3,0*
0 Add four circle primitives for the rounded corners*
1,1,$1+$1,$2,$3*
1,1,$1+$1,$4,$5*
1,1,$1+$1,$6,$7*
1,1,$1+$1,$8,$9*
0 Add four rect primitives between the rounded corners*
20,1,$1+$1,$2,$3,$4,$5,0*
20,1,$1+$1,$4,$5,$6,$7,0*
20,1,$1+$1,$6,$7,$8,$9,0*
20,1,$1+$1,$8,$9,$2,$3,0*%
G04 Aperture macros list end*
%TA.AperFunction,ComponentPad*%
%ADD10C,2.600000*%
%TD*%
%TA.AperFunction,ComponentPad*%
%ADD11RoundRect,0.250000X1.050000X1.050000X-1.050000X1.050000X-1.050000X-1.050000X1.050000X-1.050000X0*%
%TD*%
%TA.AperFunction,ComponentPad*%
%ADD12R,1.700000X1.700000*%
%TD*%
%TA.AperFunction,ComponentPad*%
%ADD13C,1.700000*%
%TD*%
%TA.AperFunction,ComponentPad*%
%ADD14O,3.800000X5.500000*%
%TD*%
%TA.AperFunction,ComponentPad*%
%ADD15O,3.800000X5.300000*%
%TD*%
%TA.AperFunction,ComponentPad*%
%ADD16C,2.400000*%
%TD*%
%TA.AperFunction,ComponentPad*%
%ADD17RoundRect,0.250001X0.949999X0.949999X-0.949999X0.949999X-0.949999X-0.949999X0.949999X-0.949999X0*%
%TD*%
%TA.AperFunction,ComponentPad*%
%ADD18RoundRect,0.250000X-1.050000X-1.050000X1.050000X-1.050000X1.050000X1.050000X-1.050000X1.050000X0*%
%TD*%
%TA.AperFunction,ViaPad*%
%ADD19C,0.600000*%
%TD*%
G04 APERTURE END LIST*
D10*
%TO.P,J3,2,Pin_2_2*%
%TO.N,GND*%
X193465000Y-52327500D03*
D11*
%TO.P,J3,1,Pin_1_1*%
%TO.N,Net-(J3-Pin_1)*%
X198545000Y-52327500D03*
%TD*%
D12*
%TO.P,H2,1,Pin_1_1*%
%TO.N,3.3V*%
X169500000Y-80500000D03*
D13*
%TO.P,H2,2,Pin_2_2*%
%TO.N,GND*%
X169500000Y-83040000D03*
%TO.P,H2,3,Pin_3_3*%
%TO.N,SIM_PWRKEY*%
X169500000Y-85580000D03*
%TO.P,H2,4,Pin_4_4*%
%TO.N,unconnected-(H2-Pin_4-Pad4)*%
X169500000Y-88120000D03*
%TO.P,H2,5,Pin_5_5*%
%TO.N,IGN_KILL*%
X169500000Y-90660000D03*
%TO.P,H2,6,Pin_6_6*%
%TO.N,GPS_RX*%
X169500000Y-93200000D03*
%TO.P,H2,7,Pin_7_7*%
%TO.N,GPS_TX*%
X169500000Y-95740000D03*
%TO.P,H2,8,Pin_8_8*%
%TO.N,SIM_RESET*%
X169500000Y-98280000D03*
%TO.P,H2,9,Pin_9_9*%
%TO.N,LIGHTBAR*%
X169500000Y-100820000D03*
%TO.P,H2,10,Pin_10_10*%
%TO.N,FOG_LIGHT*%
X169500000Y-103360000D03*
%TO.P,H2,11,Pin_11_11*%
%TO.N,SPOT_LIGHT*%
X169500000Y-105900000D03*
%TO.P,H2,12,Pin_12_12*%
%TO.N,SIREN*%
X169500000Y-108440000D03*
%TO.P,H2,13,Pin_13_13*%
%TO.N,BLINK*%
X169500000Y-110980000D03*
%TO.P,H2,14,Pin_14_14*%
%TO.N,POD_LIGHT*%
X169500000Y-113520000D03*
%TO.P,H2,15,Pin_15_15*%
%TO.N,CHASE_LIGHT*%
X169500000Y-116060000D03*
%TD*%
D12*
%TO.P,J6,1,Pin_1_1*%
%TO.N,GND*%
X131280000Y-92500000D03*
D13*
%TO.P,J6,2,Pin_2_2*%
%TO.N,unconnected-(J6-Pin_2-Pad2)*%
X128740000Y-92500000D03*
%TO.P,J6,3,Pin_3_3*%
%TO.N,unconnected-(J6-Pin_3-Pad3)*%
X126200000Y-92500000D03*
%TO.P,J6,4,Pin_4_4*%
%TO.N,unconnected-(J6-Pin_4-Pad4)*%
X123660000Y-92500000D03*
%TO.P,J6,5,Pin_5_5*%
%TO.N,Net-(J6-Pin_5)*%
X121120000Y-92500000D03*
%TO.P,J6,6,Pin_6_6*%
%TO.N,Net-(J6-Pin_6)*%
X118580000Y-92500000D03*
%TO.P,J6,7,Pin_7_7*%
%TO.N,3.3V*%
X116040000Y-92500000D03*
%TO.P,J6,8,Pin_8_8*%
%TO.N,+5V_MAIN*%
X113500000Y-92500000D03*
%TO.P,J6,9,Pin_9_9*%
%TO.N,GND*%
X110960000Y-92500000D03*
%TO.P,J6,10,Pin_10_10*%
%TO.N,unconnected-(J6-Pin_10-Pad10)*%
X108420000Y-92500000D03*
%TO.P,J6,11,Pin_11_11*%
%TO.N,SIM_RESET*%
X105880000Y-92500000D03*
%TO.P,J6,12,Pin_12_12*%
%TO.N,SIM_PWRKEY*%
X103340000Y-92500000D03*
%TO.P,J6,13,Pin_13_13*%
%TO.N,unconnected-(J6-Pin_13-Pad13)*%
X100800000Y-92500000D03*
%TD*%
D14*
%TO.P,F1,1*%
%TO.N,Net-(J1-Pin_1)*%
X128000000Y-52050000D03*
D15*
%TO.P,F1,2*%
%TO.N,VBAT_FUSED*%
X128000000Y-60050000D03*
%TD*%
D12*
%TO.P,H1,1,Pin_1_1*%
%TO.N,Net-(H1-Pin_1)*%
X194900000Y-116060000D03*
D13*
%TO.P,H1,2,Pin_2_2*%
%TO.N,Net-(H1-Pin_2)*%
X194900000Y-113520000D03*
%TO.P,H1,3,Pin_3_3*%
%TO.N,unconnected-(H1-Pin_3-Pad3)*%
X194900000Y-110980000D03*
%TO.P,H1,4,Pin_4_4*%
%TO.N,unconnected-(H1-Pin_4-Pad4)*%
X194900000Y-108440000D03*
%TO.P,H1,5,Pin_5_5*%
%TO.N,unconnected-(H1-Pin_5-Pad5)*%
X194900000Y-105900000D03*
%TO.P,H1,6,Pin_6_6*%
%TO.N,SW1*%
X194900000Y-103360000D03*
%TO.P,H1,7,Pin_7_7*%
%TO.N,SW2*%
X194900000Y-100820000D03*
%TO.P,H1,8,Pin_8_8*%
%TO.N,SW3*%
X194900000Y-98280000D03*
%TO.P,H1,9,Pin_9_9*%
%TO.N,SW4*%
X194900000Y-95740000D03*
%TO.P,H1,10,Pin_10_10*%
%TO.N,SW5*%
X194900000Y-93200000D03*
%TO.P,H1,11,Pin_11_11*%
%TO.N,unconnected-(H1-Pin_11-Pad11)*%
X194900000Y-90660000D03*
%TO.P,H1,12,Pin_12_12*%
%TO.N,HOOD_SW*%
X194900000Y-88120000D03*
%TO.P,H1,13,Pin_13_13*%
%TO.N,unconnected-(H1-Pin_13-Pad13)*%
X194900000Y-85580000D03*
%TO.P,H1,14,Pin_14_14*%
%TO.N,GND*%
X194900000Y-83040000D03*
%TO.P,H1,15,Pin_15_15*%
%TO.N,+5V_MAIN*%
X194900000Y-80500000D03*
%TD*%
D11*
%TO.P,J1,1,Pin_1_1*%
%TO.N,Net-(J1-Pin_1)*%
X116545000Y-52327500D03*
D10*
%TO.P,J1,2,Pin_2_2*%
%TO.N,GND*%
X111465000Y-52327500D03*
%TD*%
D16*
%TO.P,J2,6,Pin_6_6*%
%TO.N,GND*%
X161100000Y-52857500D03*
%TO.P,J2,5,Pin_5_5*%
%TO.N,Net-(J2-Pin_5)*%
X166180000Y-52857500D03*
%TO.P,J2,4,Pin_4_4*%
%TO.N,Net-(J2-Pin_4)*%
X171260000Y-52857500D03*
%TO.P,J2,3,Pin_3_3*%
%TO.N,Net-(J2-Pin_3)*%
X176340000Y-52857500D03*
%TO.P,J2,2,Pin_2_2*%
%TO.N,Net-(J2-Pin_2)*%
X181420000Y-52857500D03*
D17*
%TO.P,J2,1,Pin_1_1*%
%TO.N,Net-(J2-Pin_1)*%
X186500000Y-52857500D03*
%TD*%
D12*
%TO.P,J7,1,Pin_1_1*%
%TO.N,unconnected-(J7-Pin_1-Pad1)*%
X100805000Y-128060000D03*
D13*
%TO.P,J7,2,Pin_2_2*%
%TO.N,unconnected-(J7-Pin_2-Pad2)*%
X103345000Y-128060000D03*
%TO.P,J7,3,Pin_3_3*%
%TO.N,unconnected-(J7-Pin_3-Pad3)*%
X105885000Y-128060000D03*
%TO.P,J7,4,Pin_4_4*%
%TO.N,GND*%
X108425000Y-128060000D03*
%TO.P,J7,5,Pin_5_5*%
%TO.N,unconnected-(J7-Pin_5-Pad5)*%
X110965000Y-128060000D03*
%TO.P,J7,6,Pin_6_6*%
%TO.N,unconnected-(J7-Pin_6-Pad6)*%
X113505000Y-128060000D03*
%TO.P,J7,7,Pin_7_7*%
%TO.N,unconnected-(J7-Pin_7-Pad7)*%
X116045000Y-128060000D03*
%TO.P,J7,8,Pin_8_8*%
%TO.N,unconnected-(J7-Pin_8-Pad8)*%
X118585000Y-128060000D03*
%TO.P,J7,9,Pin_9_9*%
%TO.N,unconnected-(J7-Pin_9-Pad9)*%
X121125000Y-128060000D03*
%TO.P,J7,10,Pin_10_10*%
%TO.N,unconnected-(J7-Pin_10-Pad10)*%
X123665000Y-128060000D03*
%TO.P,J7,11,Pin_11_11*%
%TO.N,unconnected-(J7-Pin_11-Pad11)*%
X126205000Y-128060000D03*
%TO.P,J7,12,Pin_12_12*%
%TO.N,unconnected-(J7-Pin_12-Pad12)*%
X128745000Y-128060000D03*
%TO.P,J7,13,Pin_13_13*%
%TO.N,GND*%
X131285000Y-128060000D03*
%TD*%
D18*
%TO.P,J4,1,Pin_1_1*%
%TO.N,Net-(J4-Pin_1)*%
X137680000Y-124500000D03*
D10*
%TO.P,J4,2,Pin_2_2*%
%TO.N,Net-(J4-Pin_2)*%
X142760000Y-124500000D03*
%TO.P,J4,3,Pin_3_3*%
%TO.N,Net-(J4-Pin_3)*%
X147840000Y-124500000D03*
%TO.P,J4,4,Pin_4_4*%
%TO.N,Net-(J4-Pin_4)*%
X152920000Y-124500000D03*
%TO.P,J4,5,Pin_5_5*%
%TO.N,Net-(J4-Pin_5)*%
X158000000Y-124500000D03*
%TO.P,J4,6,Pin_6_6*%
%TO.N,Net-(J4-Pin_6)*%
X163080000Y-124500000D03*
%TO.P,J4,7,Pin_7_7*%
%TO.N,Net-(J4-Pin_7)*%
X168160000Y-124500000D03*
%TO.P,J4,8,Pin_8_8*%
%TO.N,GND*%
X173240000Y-124500000D03*
%TD*%
D19*
%TO.N,GND*%
X200450000Y-116000000D03*
X200450000Y-75000000D03*
X200950000Y-68500000D03*
X187450000Y-75000000D03*
X184950000Y-61000000D03*
X178450000Y-75000000D03*
X159550000Y-76000000D03*
X174963800Y-62595000D03*
X159550000Y-62500000D03*
X150437500Y-60500000D03*
X160062500Y-95000000D03*
X144555000Y-96934505D03*
X162000000Y-100937500D03*
X162000000Y-106437500D03*
X127450000Y-85000000D03*
X120844800Y-81975002D03*
X120844800Y-81325001D03*
X116450000Y-88500000D03*
X111912500Y-88000000D03*
X110087500Y-83500000D03*
X103050000Y-79000000D03*
X102698250Y-85000000D03*
X97050000Y-83500000D03*
X97050000Y-79000000D03*
X116950000Y-73000000D03*
X107550000Y-73500000D03*
X117050000Y-61000000D03*
X108500000Y-61962500D03*
X96500000Y-62500000D03*
X102000000Y-63145800D03*
X101000000Y-50000000D03*
%TD*%
%TA.AperFunction,Conductor*%
%TO.N,GND*%
G36*
X207442539Y-46520185D02*
G01*
X207488294Y-46572989D01*
X207499500Y-46624500D01*
X207499500Y-129375500D01*
X207479815Y-129442539D01*
X207427011Y-129488294D01*
X207375500Y-129499500D01*
X131949950Y-129499500D01*
X131882911Y-129479815D01*
X131837156Y-129427011D01*
X131827212Y-129357853D01*
X131856237Y-129294297D01*
X131893655Y-129265015D01*
X131992554Y-129214622D01*
X132046716Y-129175270D01*
X132046717Y-129175270D01*
X131414408Y-128542962D01*
X131477993Y-128525925D01*
X131592007Y-128460099D01*
X131685099Y-128367007D01*
X131750925Y-128252993D01*
X131767962Y-128189408D01*
X132400270Y-128821717D01*
X132400270Y-128821716D01*
X132439622Y-128767554D01*
X132536095Y-128578217D01*
X132601757Y-128376130D01*
X132601757Y-128376127D01*
X132635000Y-128166246D01*
X132635000Y-127953753D01*
X132601757Y-127743872D01*
X132601757Y-127743869D01*
X132536095Y-127541782D01*
X132439624Y-127352449D01*
X132400270Y-127298282D01*
X132400269Y-127298282D01*
X131767962Y-127930590D01*
X131750925Y-127867007D01*
X131685099Y-127752993D01*
X131592007Y-127659901D01*
X131477993Y-127594075D01*
X131414409Y-127577037D01*
X132046716Y-126944728D01*
X131992550Y-126905375D01*
X131803217Y-126808904D01*
X131601129Y-126743242D01*
X131391246Y-126710000D01*
X131178754Y-126710000D01*
X130968872Y-126743242D01*
X130968869Y-126743242D01*
X130766782Y-126808904D01*
X130577439Y-126905380D01*
X130523282Y-126944727D01*
X130523282Y-126944728D01*
X131155591Y-127577037D01*
X131092007Y-127594075D01*
X130977993Y-127659901D01*
X130884901Y-127752993D01*
X130819075Y-127867007D01*
X130802037Y-127930591D01*
X130169728Y-127298282D01*
X130169727Y-127298282D01*
X130130380Y-127352439D01*
X130033905Y-127541781D01*
X129976656Y-127717974D01*
X129937218Y-127775649D01*
X129872859Y-127802847D01*
X129804013Y-127790932D01*
X129752537Y-127743688D01*
X129744164Y-127727107D01*
X129675943Y-127562405D01*
X129560975Y-127390342D01*
X129414657Y-127244024D01*
X129281498Y-127155051D01*
X129242598Y-127129059D01*
X129051420Y-127049870D01*
X129051412Y-127049868D01*
X128848469Y-127009500D01*
X128848465Y-127009500D01*
X128641535Y-127009500D01*
X128641530Y-127009500D01*
X128438587Y-127049868D01*
X128438579Y-127049870D01*
X128247403Y-127129058D01*
X128075342Y-127244024D01*
X127929024Y-127390342D01*
X127814058Y-127562403D01*
X127734870Y-127753579D01*
X127734868Y-127753587D01*
X127694500Y-127956530D01*
X127694500Y-128163469D01*
X127734868Y-128366412D01*
X127734870Y-128366420D01*
X127800939Y-128525925D01*
X127814059Y-128557598D01*
X127827836Y-128578217D01*
X127929024Y-128729657D01*
X128075342Y-128875975D01*
X128075345Y-128875977D01*
X128247402Y-128990941D01*
X128438580Y-129070130D01*
X128583052Y-129098867D01*
X128641530Y-129110499D01*
X128641534Y-129110500D01*
X128641535Y-129110500D01*
X128848466Y-129110500D01*
X128848467Y-129110499D01*
X129051420Y-129070130D01*
X129242598Y-128990941D01*
X129414655Y-128875977D01*
X129560977Y-128729655D01*
X129675941Y-128557598D01*
X129744165Y-128392889D01*
X129788004Y-128338488D01*
X129854298Y-128316423D01*
X129921998Y-128333702D01*
X129969609Y-128384839D01*
X129976656Y-128402026D01*
X130033904Y-128578216D01*
X130130375Y-128767550D01*
X130169728Y-128821716D01*
X130802037Y-128189408D01*
X130819075Y-128252993D01*
X130884901Y-128367007D01*
X130977993Y-128460099D01*
X131092007Y-128525925D01*
X131155590Y-128542962D01*
X130523282Y-129175269D01*
X130523282Y-129175270D01*
X130577450Y-129214624D01*
X130676345Y-129265015D01*
X130727141Y-129312990D01*
X130743936Y-129380811D01*
X130721398Y-129446946D01*
X130666683Y-129490397D01*
X130620050Y-129499500D01*
X109089950Y-129499500D01*
X109022911Y-129479815D01*
X108977156Y-129427011D01*
X108967212Y-129357853D01*
X108996237Y-129294297D01*
X109033655Y-129265015D01*
X109132554Y-129214622D01*
X109186716Y-129175270D01*
X109186717Y-129175270D01*
X108554408Y-128542962D01*
X108617993Y-128525925D01*
X108732007Y-128460099D01*
X108825099Y-128367007D01*
X108890925Y-128252993D01*
X108907962Y-128189409D01*
X109540270Y-128821717D01*
X109540270Y-128821716D01*
X109579622Y-128767554D01*
X109676095Y-128578217D01*
X109733343Y-128402026D01*
X109772780Y-128344351D01*
X109837139Y-128317152D01*
X109905985Y-128329066D01*
X109957461Y-128376310D01*
X109965835Y-128392891D01*
X110020939Y-128525925D01*
X110034059Y-128557598D01*
X110047836Y-128578217D01*
X110149024Y-128729657D01*
X110295342Y-128875975D01*
X110295345Y-128875977D01*
X110467402Y-128990941D01*
X110658580Y-129070130D01*
X110803052Y-129098867D01*
X110861530Y-129110499D01*
X110861534Y-129110500D01*
X110861535Y-129110500D01*
X111068466Y-129110500D01*
X111068467Y-129110499D01*
X111271420Y-129070130D01*
X111462598Y-128990941D01*
X111634655Y-128875977D01*
X111780977Y-128729655D01*
X111895941Y-128557598D01*
X111975130Y-128366420D01*
X112015500Y-128163465D01*
X112015500Y-127956535D01*
X112015499Y-127956530D01*
X112454500Y-127956530D01*
X112454500Y-128163469D01*
X112494868Y-128366412D01*
X112494870Y-128366420D01*
X112560939Y-128525925D01*
X112574059Y-128557598D01*
X112587836Y-128578217D01*
X112689024Y-128729657D01*
X112835342Y-128875975D01*
X112835345Y-128875977D01*
X113007402Y-128990941D01*
X113198580Y-129070130D01*
X113343052Y-129098867D01*
X113401530Y-129110499D01*
X113401534Y-129110500D01*
X113401535Y-129110500D01*
X113608466Y-129110500D01*
X113608467Y-129110499D01*
X113811420Y-129070130D01*
X114002598Y-128990941D01*
X114174655Y-128875977D01*
X114320977Y-128729655D01*
X114435941Y-128557598D01*
X114515130Y-128366420D01*
X114555500Y-128163465D01*
X114555500Y-127956535D01*
X114555499Y-127956530D01*
X114994500Y-127956530D01*
X114994500Y-128163469D01*
X115034868Y-128366412D01*
X115034870Y-128366420D01*
X115100939Y-128525925D01*
X115114059Y-128557598D01*
X115127836Y-128578217D01*
X115229024Y-128729657D01*
X115375342Y-128875975D01*
X115375345Y-128875977D01*
X115547402Y-128990941D01*
X115738580Y-129070130D01*
X115883052Y-129098867D01*
X115941530Y-129110499D01*
X115941534Y-129110500D01*
X115941535Y-129110500D01*
X116148466Y-129110500D01*
X116148467Y-129110499D01*
X116351420Y-129070130D01*
X116542598Y-128990941D01*
X116714655Y-128875977D01*
X116860977Y-128729655D01*
X116975941Y-128557598D01*
X117055130Y-128366420D01*
X117095500Y-128163465D01*
X117095500Y-127956535D01*
X117095499Y-127956530D01*
X117534500Y-127956530D01*
X117534500Y-128163469D01*
X117574868Y-128366412D01*
X117574870Y-128366420D01*
X117640939Y-128525925D01*
X117654059Y-128557598D01*
X117667836Y-128578217D01*
X117769024Y-128729657D01*
X117915342Y-128875975D01*
X117915345Y-128875977D01*
X118087402Y-128990941D01*
X118278580Y-129070130D01*
X118423052Y-129098867D01*
X118481530Y-129110499D01*
X118481534Y-129110500D01*
X118481535Y-129110500D01*
X118688466Y-129110500D01*
X118688467Y-129110499D01*
X118891420Y-129070130D01*
X119082598Y-128990941D01*
X119254655Y-128875977D01*
X119400977Y-128729655D01*
X119515941Y-128557598D01*
X119595130Y-128366420D01*
X119635500Y-128163465D01*
X119635500Y-127956535D01*
X119635499Y-127956530D01*
X120074500Y-127956530D01*
X120074500Y-128163469D01*
X120114868Y-128366412D01*
X120114870Y-128366420D01*
X120180939Y-128525925D01*
X120194059Y-128557598D01*
X120207836Y-128578217D01*
X120309024Y-128729657D01*
X120455342Y-128875975D01*
X120455345Y-128875977D01*
X120627402Y-128990941D01*
X120818580Y-129070130D01*
X120963052Y-129098867D01*
X121021530Y-129110499D01*
X121021534Y-129110500D01*
X121021535Y-129110500D01*
X121228466Y-129110500D01*
X121228467Y-129110499D01*
X121431420Y-129070130D01*
X121622598Y-128990941D01*
X121794655Y-128875977D01*
X121940977Y-128729655D01*
X122055941Y-128557598D01*
X122135130Y-128366420D01*
X122175500Y-128163465D01*
X122175500Y-127956535D01*
X122175499Y-127956530D01*
X122614500Y-127956530D01*
X122614500Y-128163469D01*
X122654868Y-128366412D01*
X122654870Y-128366420D01*
X122720939Y-128525925D01*
X122734059Y-128557598D01*
X122747836Y-128578217D01*
X122849024Y-128729657D01*
X122995342Y-128875975D01*
X122995345Y-128875977D01*
X123167402Y-128990941D01*
X123358580Y-129070130D01*
X123503052Y-129098867D01*
X123561530Y-129110499D01*
X123561534Y-129110500D01*
X123561535Y-129110500D01*
X123768466Y-129110500D01*
X123768467Y-129110499D01*
X123971420Y-129070130D01*
X124162598Y-128990941D01*
X124334655Y-128875977D01*
X124480977Y-128729655D01*
X124595941Y-128557598D01*
X124675130Y-128366420D01*
X124715500Y-128163465D01*
X124715500Y-127956535D01*
X124715499Y-127956530D01*
X125154500Y-127956530D01*
X125154500Y-128163469D01*
X125194868Y-128366412D01*
X125194870Y-128366420D01*
X125260939Y-128525925D01*
X125274059Y-128557598D01*
X125287836Y-128578217D01*
X125389024Y-128729657D01*
X125535342Y-128875975D01*
X125535345Y-128875977D01*
X125707402Y-128990941D01*
X125898580Y-129070130D01*
X126043052Y-129098867D01*
X126101530Y-129110499D01*
X126101534Y-129110500D01*
X126101535Y-129110500D01*
X126308466Y-129110500D01*
X126308467Y-129110499D01*
X126511420Y-129070130D01*
X126702598Y-128990941D01*
X126874655Y-128875977D01*
X127020977Y-128729655D01*
X127135941Y-128557598D01*
X127215130Y-128366420D01*
X127255500Y-128163465D01*
X127255500Y-127956535D01*
X127215130Y-127753580D01*
X127135941Y-127562402D01*
X127020977Y-127390345D01*
X127020975Y-127390342D01*
X126874657Y-127244024D01*
X126741498Y-127155051D01*
X126702598Y-127129059D01*
X126593430Y-127083840D01*
X126511420Y-127049870D01*
X126511412Y-127049868D01*
X126308469Y-127009500D01*
X126308465Y-127009500D01*
X126101535Y-127009500D01*
X126101530Y-127009500D01*
X125898587Y-127049868D01*
X125898579Y-127049870D01*
X125707403Y-127129058D01*
X125535342Y-127244024D01*
X125389024Y-127390342D01*
X125274058Y-127562403D01*
X125194870Y-127753579D01*
X125194868Y-127753587D01*
X125154500Y-127956530D01*
X124715499Y-127956530D01*
X124675130Y-127753580D01*
X124595941Y-127562402D01*
X124480977Y-127390345D01*
X124480975Y-127390342D01*
X124334657Y-127244024D01*
X124201498Y-127155051D01*
X124162598Y-127129059D01*
X124053430Y-127083840D01*
X123971420Y-127049870D01*
X123971412Y-127049868D01*
X123768469Y-127009500D01*
X123768465Y-127009500D01*
X123561535Y-127009500D01*
X123561530Y-127009500D01*
X123358587Y-127049868D01*
X123358579Y-127049870D01*
X123167403Y-127129058D01*
X122995342Y-127244024D01*
X122849024Y-127390342D01*
X122734058Y-127562403D01*
X122654870Y-127753579D01*
X122654868Y-127753587D01*
X122614500Y-127956530D01*
X122175499Y-127956530D01*
X122135130Y-127753580D01*
X122055941Y-127562402D01*
X121940977Y-127390345D01*
X121940975Y-127390342D01*
X121794657Y-127244024D01*
X121661498Y-127155051D01*
X121622598Y-127129059D01*
X121513430Y-127083840D01*
X121431420Y-127049870D01*
X121431412Y-127049868D01*
X121228469Y-127009500D01*
X121228465Y-127009500D01*
X121021535Y-127009500D01*
X121021530Y-127009500D01*
X120818587Y-127049868D01*
X120818579Y-127049870D01*
X120627403Y-127129058D01*
X120455342Y-127244024D01*
X120309024Y-127390342D01*
X120194058Y-127562403D01*
X120114870Y-127753579D01*
X120114868Y-127753587D01*
X120074500Y-127956530D01*
X119635499Y-127956530D01*
X119595130Y-127753580D01*
X119515941Y-127562402D01*
X119400977Y-127390345D01*
X119400975Y-127390342D01*
X119254657Y-127244024D01*
X119121498Y-127155051D01*
X119082598Y-127129059D01*
X118973430Y-127083840D01*
X118891420Y-127049870D01*
X118891412Y-127049868D01*
X118688469Y-127009500D01*
X118688465Y-127009500D01*
X118481535Y-127009500D01*
X118481530Y-127009500D01*
X118278587Y-127049868D01*
X118278579Y-127049870D01*
X118087403Y-127129058D01*
X117915342Y-127244024D01*
X117769024Y-127390342D01*
X117654058Y-127562403D01*
X117574870Y-127753579D01*
X117574868Y-127753587D01*
X117534500Y-127956530D01*
X117095499Y-127956530D01*
X117055130Y-127753580D01*
X116975941Y-127562402D01*
X116860977Y-127390345D01*
X116860975Y-127390342D01*
X116714657Y-127244024D01*
X116581498Y-127155051D01*
X116542598Y-127129059D01*
X116433430Y-127083840D01*
X116351420Y-127049870D01*
X116351412Y-127049868D01*
X116148469Y-127009500D01*
X116148465Y-127009500D01*
X115941535Y-127009500D01*
X115941530Y-127009500D01*
X115738587Y-127049868D01*
X115738579Y-127049870D01*
X115547403Y-127129058D01*
X115375342Y-127244024D01*
X115229024Y-127390342D01*
X115114058Y-127562403D01*
X115034870Y-127753579D01*
X115034868Y-127753587D01*
X114994500Y-127956530D01*
X114555499Y-127956530D01*
X114515130Y-127753580D01*
X114435941Y-127562402D01*
X114320977Y-127390345D01*
X114320975Y-127390342D01*
X114174657Y-127244024D01*
X114041498Y-127155051D01*
X114002598Y-127129059D01*
X113893430Y-127083840D01*
X113811420Y-127049870D01*
X113811412Y-127049868D01*
X113608469Y-127009500D01*
X113608465Y-127009500D01*
X113401535Y-127009500D01*
X113401530Y-127009500D01*
X113198587Y-127049868D01*
X113198579Y-127049870D01*
X113007403Y-127129058D01*
X112835342Y-127244024D01*
X112689024Y-127390342D01*
X112574058Y-127562403D01*
X112494870Y-127753579D01*
X112494868Y-127753587D01*
X112454500Y-127956530D01*
X112015499Y-127956530D01*
X111975130Y-127753580D01*
X111895941Y-127562402D01*
X111780977Y-127390345D01*
X111780975Y-127390342D01*
X111634657Y-127244024D01*
X111501498Y-127155051D01*
X111462598Y-127129059D01*
X111353430Y-127083840D01*
X111271420Y-127049870D01*
X111271412Y-127049868D01*
X111068469Y-127009500D01*
X111068465Y-127009500D01*
X110861535Y-127009500D01*
X110861530Y-127009500D01*
X110658587Y-127049868D01*
X110658579Y-127049870D01*
X110467403Y-127129058D01*
X110295342Y-127244024D01*
X110149024Y-127390342D01*
X110034057Y-127562403D01*
X109965835Y-127727108D01*
X109921994Y-127781511D01*
X109855700Y-127803576D01*
X109788000Y-127786297D01*
X109740390Y-127735159D01*
X109733343Y-127717973D01*
X109676095Y-127541782D01*
X109579624Y-127352449D01*
X109540270Y-127298282D01*
X109540269Y-127298282D01*
X108907962Y-127930590D01*
X108890925Y-127867007D01*
X108825099Y-127752993D01*
X108732007Y-127659901D01*
X108617993Y-127594075D01*
X108554409Y-127577037D01*
X109186716Y-126944728D01*
X109132550Y-126905375D01*
X108943217Y-126808904D01*
X108741129Y-126743242D01*
X108531246Y-126710000D01*
X108318754Y-126710000D01*
X108108872Y-126743242D01*
X108108869Y-126743242D01*
X107906782Y-126808904D01*
X107717439Y-126905380D01*
X107663282Y-126944727D01*
X107663282Y-126944728D01*
X108295591Y-127577037D01*
X108232007Y-127594075D01*
X108117993Y-127659901D01*
X108024901Y-127752993D01*
X107959075Y-127867007D01*
X107942037Y-127930591D01*
X107309728Y-127298282D01*
X107309727Y-127298282D01*
X107270380Y-127352439D01*
X107173905Y-127541781D01*
X107116656Y-127717974D01*
X107077218Y-127775649D01*
X107012859Y-127802847D01*
X106944013Y-127790932D01*
X106892537Y-127743688D01*
X106884164Y-127727107D01*
X106815943Y-127562405D01*
X106700975Y-127390342D01*
X106554657Y-127244024D01*
X106421498Y-127155051D01*
X106382598Y-127129059D01*
X106191420Y-127049870D01*
X106191412Y-127049868D01*
X105988469Y-127009500D01*
X105988465Y-127009500D01*
X105781535Y-127009500D01*
X105781530Y-127009500D01*
X105578587Y-127049868D01*
X105578579Y-127049870D01*
X105387403Y-127129058D01*
X105215342Y-127244024D01*
X105069024Y-127390342D01*
X104954058Y-127562403D01*
X104874870Y-127753579D01*
X104874868Y-127753587D01*
X104834500Y-127956530D01*
X104834500Y-128163469D01*
X104874868Y-128366412D01*
X104874870Y-128366420D01*
X104940939Y-128525925D01*
X104954059Y-128557598D01*
X104967836Y-128578217D01*
X105069024Y-128729657D01*
X105215342Y-128875975D01*
X105215345Y-128875977D01*
X105387402Y-128990941D01*
X105578580Y-129070130D01*
X105723052Y-129098867D01*
X105781530Y-129110499D01*
X105781534Y-129110500D01*
X105781535Y-129110500D01*
X105988466Y-129110500D01*
X105988467Y-129110499D01*
X106191420Y-129070130D01*
X106382598Y-128990941D01*
X106554655Y-128875977D01*
X106700977Y-128729655D01*
X106815941Y-128557598D01*
X106884165Y-128392889D01*
X106928004Y-128338488D01*
X106994298Y-128316423D01*
X107061998Y-128333702D01*
X107109609Y-128384839D01*
X107116656Y-128402026D01*
X107173904Y-128578216D01*
X107270375Y-128767550D01*
X107309728Y-128821716D01*
X107942037Y-128189408D01*
X107959075Y-128252993D01*
X108024901Y-128367007D01*
X108117993Y-128460099D01*
X108232007Y-128525925D01*
X108295590Y-128542962D01*
X107663282Y-129175269D01*
X107663282Y-129175270D01*
X107717450Y-129214624D01*
X107816345Y-129265015D01*
X107867141Y-129312990D01*
X107883936Y-129380811D01*
X107861398Y-129446946D01*
X107806683Y-129490397D01*
X107760050Y-129499500D01*
X92624500Y-129499500D01*
X92557461Y-129479815D01*
X92511706Y-129427011D01*
X92500500Y-129375500D01*
X92500500Y-125893713D01*
X94149500Y-125893713D01*
X94149500Y-126106286D01*
X94182753Y-126316239D01*
X94248444Y-126518414D01*
X94344951Y-126707820D01*
X94469890Y-126879786D01*
X94620213Y-127030109D01*
X94792179Y-127155048D01*
X94792181Y-127155049D01*
X94792184Y-127155051D01*
X94981588Y-127251557D01*
X95183757Y-127317246D01*
X95393713Y-127350500D01*
X95393714Y-127350500D01*
X95606286Y-127350500D01*
X95606287Y-127350500D01*
X95816243Y-127317246D01*
X96018412Y-127251557D01*
X96138740Y-127190247D01*
X99754500Y-127190247D01*
X99754500Y-128929752D01*
X99766131Y-128988229D01*
X99766132Y-128988230D01*
X99810447Y-129054552D01*
X99876769Y-129098867D01*
X99876770Y-129098868D01*
X99935247Y-129110499D01*
X99935250Y-129110500D01*
X99935252Y-129110500D01*
X101674750Y-129110500D01*
X101674751Y-129110499D01*
X101689568Y-129107552D01*
X101733229Y-129098868D01*
X101733229Y-129098867D01*
X101733231Y-129098867D01*
X101799552Y-129054552D01*
X101843867Y-128988231D01*
X101843867Y-128988229D01*
X101843868Y-128988229D01*
X101855499Y-128929752D01*
X101855500Y-128929750D01*
X101855500Y-127956530D01*
X102294500Y-127956530D01*
X102294500Y-128163469D01*
X102334868Y-128366412D01*
X102334870Y-128366420D01*
X102400939Y-128525925D01*
X102414059Y-128557598D01*
X102427836Y-128578217D01*
X102529024Y-128729657D01*
X102675342Y-128875975D01*
X102675345Y-128875977D01*
X102847402Y-128990941D01*
X103038580Y-129070130D01*
X103183052Y-129098867D01*
X103241530Y-129110499D01*
X103241534Y-129110500D01*
X103241535Y-129110500D01*
X103448466Y-129110500D01*
X103448467Y-129110499D01*
X103651420Y-129070130D01*
X103842598Y-128990941D01*
X104014655Y-128875977D01*
X104160977Y-128729655D01*
X104275941Y-128557598D01*
X104355130Y-128366420D01*
X104395500Y-128163465D01*
X104395500Y-127956535D01*
X104355130Y-127753580D01*
X104275941Y-127562402D01*
X104160977Y-127390345D01*
X104160975Y-127390342D01*
X104014657Y-127244024D01*
X103881498Y-127155051D01*
X103842598Y-127129059D01*
X103733430Y-127083840D01*
X103651420Y-127049870D01*
X103651412Y-127049868D01*
X103448469Y-127009500D01*
X103448465Y-127009500D01*
X103241535Y-127009500D01*
X103241530Y-127009500D01*
X103038587Y-127049868D01*
X103038579Y-127049870D01*
X102847403Y-127129058D01*
X102675342Y-127244024D01*
X102529024Y-127390342D01*
X102414058Y-127562403D01*
X102334870Y-127753579D01*
X102334868Y-127753587D01*
X102294500Y-127956530D01*
X101855500Y-127956530D01*
X101855500Y-127190249D01*
X101855499Y-127190247D01*
X101843868Y-127131770D01*
X101843867Y-127131769D01*
X101799552Y-127065447D01*
X101733230Y-127021132D01*
X101733229Y-127021131D01*
X101674752Y-127009500D01*
X101674748Y-127009500D01*
X99935252Y-127009500D01*
X99935247Y-127009500D01*
X99876770Y-127021131D01*
X99876769Y-127021132D01*
X99810447Y-127065447D01*
X99766132Y-127131769D01*
X99766131Y-127131770D01*
X99754500Y-127190247D01*
X96138740Y-127190247D01*
X96207816Y-127155051D01*
X96305829Y-127083841D01*
X96305831Y-127083840D01*
X96379785Y-127030109D01*
X96379783Y-127030109D01*
X96379792Y-127030104D01*
X96530104Y-126879792D01*
X96530106Y-126879788D01*
X96530109Y-126879786D01*
X96655048Y-126707820D01*
X96655047Y-126707820D01*
X96655051Y-126707816D01*
X96751557Y-126518412D01*
X96817246Y-126316243D01*
X96850500Y-126106287D01*
X96850500Y-125893713D01*
X96817246Y-125683757D01*
X96751557Y-125481588D01*
X96655051Y-125292184D01*
X96655049Y-125292181D01*
X96655048Y-125292179D01*
X96530109Y-125120213D01*
X96379786Y-124969890D01*
X96207820Y-124844951D01*
X96018414Y-124748444D01*
X96018413Y-124748443D01*
X96018412Y-124748443D01*
X95816243Y-124682754D01*
X95816241Y-124682753D01*
X95816240Y-124682753D01*
X95654957Y-124657208D01*
X95606287Y-124649500D01*
X95393713Y-124649500D01*
X95345042Y-124657208D01*
X95183760Y-124682753D01*
X94981585Y-124748444D01*
X94792179Y-124844951D01*
X94620213Y-124969890D01*
X94469890Y-125120213D01*
X94344951Y-125292179D01*
X94248444Y-125481585D01*
X94182753Y-125683760D01*
X94149500Y-125893713D01*
X92500500Y-125893713D01*
X92500500Y-123395730D01*
X136179500Y-123395730D01*
X136179500Y-125604269D01*
X136182353Y-125634699D01*
X136182353Y-125634701D01*
X136227206Y-125762880D01*
X136227207Y-125762882D01*
X136307850Y-125872150D01*
X136417118Y-125952793D01*
X136459845Y-125967744D01*
X136545299Y-125997646D01*
X136575730Y-126000500D01*
X136575734Y-126000500D01*
X138784270Y-126000500D01*
X138814699Y-125997646D01*
X138814701Y-125997646D01*
X138878790Y-125975219D01*
X138942882Y-125952793D01*
X139052150Y-125872150D01*
X139132793Y-125762882D01*
X139174212Y-125644514D01*
X139177646Y-125634701D01*
X139177646Y-125634699D01*
X139180500Y-125604269D01*
X139180500Y-124381902D01*
X141259500Y-124381902D01*
X141259500Y-124618097D01*
X141296446Y-124851368D01*
X141369433Y-125075994D01*
X141407141Y-125150000D01*
X141476657Y-125286433D01*
X141615483Y-125477510D01*
X141782490Y-125644517D01*
X141973567Y-125783343D01*
X142072991Y-125834002D01*
X142184003Y-125890566D01*
X142184005Y-125890566D01*
X142184008Y-125890568D01*
X142304412Y-125929689D01*
X142408631Y-125963553D01*
X142641903Y-126000500D01*
X142641908Y-126000500D01*
X142878097Y-126000500D01*
X143111368Y-125963553D01*
X143335992Y-125890568D01*
X143546433Y-125783343D01*
X143737510Y-125644517D01*
X143904517Y-125477510D01*
X144043343Y-125286433D01*
X144150568Y-125075992D01*
X144223553Y-124851368D01*
X144230439Y-124807890D01*
X144260500Y-124618097D01*
X144260500Y-124381902D01*
X146339500Y-124381902D01*
X146339500Y-124618097D01*
X146376446Y-124851368D01*
X146449433Y-125075994D01*
X146487141Y-125150000D01*
X146556657Y-125286433D01*
X146695483Y-125477510D01*
X146862490Y-125644517D01*
X147053567Y-125783343D01*
X147152991Y-125834002D01*
X147264003Y-125890566D01*
X147264005Y-125890566D01*
X147264008Y-125890568D01*
X147384412Y-125929689D01*
X147488631Y-125963553D01*
X147721903Y-126000500D01*
X147721908Y-126000500D01*
X147958097Y-126000500D01*
X148191368Y-125963553D01*
X148415992Y-125890568D01*
X148626433Y-125783343D01*
X148817510Y-125644517D01*
X148984517Y-125477510D01*
X149123343Y-125286433D01*
X149230568Y-125075992D01*
X149303553Y-124851368D01*
X149310439Y-124807890D01*
X149340500Y-124618097D01*
X149340500Y-124381902D01*
X151419500Y-124381902D01*
X151419500Y-124618097D01*
X151456446Y-124851368D01*
X151529433Y-125075994D01*
X151567141Y-125150000D01*
X151636657Y-125286433D01*
X151775483Y-125477510D01*
X151942490Y-125644517D01*
X152133567Y-125783343D01*
X152232991Y-125834002D01*
X152344003Y-125890566D01*
X152344005Y-125890566D01*
X152344008Y-125890568D01*
X152464412Y-125929689D01*
X152568631Y-125963553D01*
X152801903Y-126000500D01*
X152801908Y-126000500D01*
X153038097Y-126000500D01*
X153271368Y-125963553D01*
X153495992Y-125890568D01*
X153706433Y-125783343D01*
X153897510Y-125644517D01*
X154064517Y-125477510D01*
X154203343Y-125286433D01*
X154310568Y-125075992D01*
X154383553Y-124851368D01*
X154390439Y-124807890D01*
X154420500Y-124618097D01*
X154420500Y-124381902D01*
X156499500Y-124381902D01*
X156499500Y-124618097D01*
X156536446Y-124851368D01*
X156609433Y-125075994D01*
X156647141Y-125150000D01*
X156716657Y-125286433D01*
X156855483Y-125477510D01*
X157022490Y-125644517D01*
X157213567Y-125783343D01*
X157312991Y-125834002D01*
X157424003Y-125890566D01*
X157424005Y-125890566D01*
X157424008Y-125890568D01*
X157544412Y-125929689D01*
X157648631Y-125963553D01*
X157881903Y-126000500D01*
X157881908Y-126000500D01*
X158118097Y-126000500D01*
X158351368Y-125963553D01*
X158575992Y-125890568D01*
X158786433Y-125783343D01*
X158977510Y-125644517D01*
X159144517Y-125477510D01*
X159283343Y-125286433D01*
X159390568Y-125075992D01*
X159463553Y-124851368D01*
X159470439Y-124807890D01*
X159500500Y-124618097D01*
X159500500Y-124381902D01*
X161579500Y-124381902D01*
X161579500Y-124618097D01*
X161616446Y-124851368D01*
X161689433Y-125075994D01*
X161727141Y-125150000D01*
X161796657Y-125286433D01*
X161935483Y-125477510D01*
X162102490Y-125644517D01*
X162293567Y-125783343D01*
X162392991Y-125834002D01*
X162504003Y-125890566D01*
X162504005Y-125890566D01*
X162504008Y-125890568D01*
X162624412Y-125929689D01*
X162728631Y-125963553D01*
X162961903Y-126000500D01*
X162961908Y-126000500D01*
X163198097Y-126000500D01*
X163431368Y-125963553D01*
X163655992Y-125890568D01*
X163866433Y-125783343D01*
X164057510Y-125644517D01*
X164224517Y-125477510D01*
X164363343Y-125286433D01*
X164470568Y-125075992D01*
X164543553Y-124851368D01*
X164550439Y-124807890D01*
X164580500Y-124618097D01*
X164580500Y-124381902D01*
X166659500Y-124381902D01*
X166659500Y-124618097D01*
X166696446Y-124851368D01*
X166769433Y-125075994D01*
X166807141Y-125150000D01*
X166876657Y-125286433D01*
X167015483Y-125477510D01*
X167182490Y-125644517D01*
X167373567Y-125783343D01*
X167472991Y-125834002D01*
X167584003Y-125890566D01*
X167584005Y-125890566D01*
X167584008Y-125890568D01*
X167704412Y-125929689D01*
X167808631Y-125963553D01*
X168041903Y-126000500D01*
X168041908Y-126000500D01*
X168278097Y-126000500D01*
X168511368Y-125963553D01*
X168735992Y-125890568D01*
X168946433Y-125783343D01*
X169137510Y-125644517D01*
X169304517Y-125477510D01*
X169443343Y-125286433D01*
X169550568Y-125075992D01*
X169623553Y-124851368D01*
X169630439Y-124807890D01*
X169660500Y-124618097D01*
X169660500Y-124382014D01*
X171440000Y-124382014D01*
X171440000Y-124617985D01*
X171470799Y-124851914D01*
X171531870Y-125079837D01*
X171622160Y-125297819D01*
X171622165Y-125297828D01*
X171740144Y-125502171D01*
X171740145Y-125502172D01*
X171802721Y-125583723D01*
X172638958Y-124747487D01*
X172663978Y-124807890D01*
X172735112Y-124914351D01*
X172825649Y-125004888D01*
X172932110Y-125076022D01*
X172992511Y-125101041D01*
X172156275Y-125937277D01*
X172237827Y-125999854D01*
X172237828Y-125999855D01*
X172442171Y-126117834D01*
X172442180Y-126117839D01*
X172660163Y-126208129D01*
X172660161Y-126208129D01*
X172888085Y-126269200D01*
X173122014Y-126299999D01*
X173122029Y-126300000D01*
X173357971Y-126300000D01*
X173357985Y-126299999D01*
X173591914Y-126269200D01*
X173819837Y-126208129D01*
X174037819Y-126117839D01*
X174037828Y-126117834D01*
X174242181Y-125999850D01*
X174323723Y-125937279D01*
X174323723Y-125937276D01*
X174280160Y-125893713D01*
X203149500Y-125893713D01*
X203149500Y-126106286D01*
X203182753Y-126316239D01*
X203248444Y-126518414D01*
X203344951Y-126707820D01*
X203469890Y-126879786D01*
X203620213Y-127030109D01*
X203792179Y-127155048D01*
X203792181Y-127155049D01*
X203792184Y-127155051D01*
X203981588Y-127251557D01*
X204183757Y-127317246D01*
X204393713Y-127350500D01*
X204393714Y-127350500D01*
X204606286Y-127350500D01*
X204606287Y-127350500D01*
X204816243Y-127317246D01*
X205018412Y-127251557D01*
X205207816Y-127155051D01*
X205305829Y-127083841D01*
X205379786Y-127030109D01*
X205379788Y-127030106D01*
X205379792Y-127030104D01*
X205530104Y-126879792D01*
X205530106Y-126879788D01*
X205530109Y-126879786D01*
X205655048Y-126707820D01*
X205655047Y-126707820D01*
X205655051Y-126707816D01*
X205751557Y-126518412D01*
X205817246Y-126316243D01*
X205850500Y-126106287D01*
X205850500Y-125893713D01*
X205817246Y-125683757D01*
X205751557Y-125481588D01*
X205655051Y-125292184D01*
X205655049Y-125292181D01*
X205655048Y-125292179D01*
X205530109Y-125120213D01*
X205379786Y-124969890D01*
X205207820Y-124844951D01*
X205018414Y-124748444D01*
X205018413Y-124748443D01*
X205018412Y-124748443D01*
X204816243Y-124682754D01*
X204816241Y-124682753D01*
X204816240Y-124682753D01*
X204654957Y-124657208D01*
X204606287Y-124649500D01*
X204393713Y-124649500D01*
X204345042Y-124657208D01*
X204183760Y-124682753D01*
X203981585Y-124748444D01*
X203792179Y-124844951D01*
X203620213Y-124969890D01*
X203469890Y-125120213D01*
X203344951Y-125292179D01*
X203248444Y-125481585D01*
X203182753Y-125683760D01*
X203149500Y-125893713D01*
X174280160Y-125893713D01*
X173487487Y-125101041D01*
X173547890Y-125076022D01*
X173654351Y-125004888D01*
X173744888Y-124914351D01*
X173816022Y-124807890D01*
X173841041Y-124747488D01*
X174677276Y-125583723D01*
X174677279Y-125583723D01*
X174739850Y-125502181D01*
X174857834Y-125297828D01*
X174857839Y-125297819D01*
X174948129Y-125079837D01*
X175009200Y-124851914D01*
X175039999Y-124617985D01*
X175040000Y-124617971D01*
X175040000Y-124382028D01*
X175039999Y-124382014D01*
X175009200Y-124148085D01*
X174948129Y-123920162D01*
X174857839Y-123702180D01*
X174857834Y-123702171D01*
X174739855Y-123497828D01*
X174739854Y-123497827D01*
X174677277Y-123416275D01*
X173841041Y-124252511D01*
X173816022Y-124192110D01*
X173744888Y-124085649D01*
X173654351Y-123995112D01*
X173547890Y-123923978D01*
X173487488Y-123898958D01*
X174323723Y-123062721D01*
X174242172Y-123000145D01*
X174242171Y-123000144D01*
X174037828Y-122882165D01*
X174037819Y-122882160D01*
X173819836Y-122791870D01*
X173819838Y-122791870D01*
X173591914Y-122730799D01*
X173357985Y-122700000D01*
X173122014Y-122700000D01*
X172888085Y-122730799D01*
X172660162Y-122791870D01*
X172442180Y-122882160D01*
X172442171Y-122882165D01*
X172237828Y-123000144D01*
X172237818Y-123000150D01*
X172156275Y-123062720D01*
X172156275Y-123062721D01*
X172992512Y-123898958D01*
X172932110Y-123923978D01*
X172825649Y-123995112D01*
X172735112Y-124085649D01*
X172663978Y-124192110D01*
X172638958Y-124252511D01*
X171802721Y-123416275D01*
X171802720Y-123416275D01*
X171740150Y-123497818D01*
X171740144Y-123497828D01*
X171622165Y-123702171D01*
X171622160Y-123702180D01*
X171531870Y-123920162D01*
X171470799Y-124148085D01*
X171440000Y-124382014D01*
X169660500Y-124382014D01*
X169660500Y-124381902D01*
X169623553Y-124148631D01*
X169550566Y-123924003D01*
X169443342Y-123713566D01*
X169304517Y-123522490D01*
X169137510Y-123355483D01*
X169033010Y-123279559D01*
X168946435Y-123216658D01*
X168946431Y-123216656D01*
X168735996Y-123109433D01*
X168511368Y-123036446D01*
X168278097Y-122999500D01*
X168278092Y-122999500D01*
X168041908Y-122999500D01*
X168041903Y-122999500D01*
X167808631Y-123036446D01*
X167584003Y-123109433D01*
X167373566Y-123216657D01*
X167264550Y-123295862D01*
X167182490Y-123355483D01*
X167182488Y-123355485D01*
X167182487Y-123355485D01*
X167015485Y-123522487D01*
X167015485Y-123522488D01*
X167015483Y-123522490D01*
X166955862Y-123604550D01*
X166876657Y-123713566D01*
X166769433Y-123924003D01*
X166696446Y-124148631D01*
X166659500Y-124381902D01*
X164580500Y-124381902D01*
X164543553Y-124148631D01*
X164470566Y-123924003D01*
X164363342Y-123713566D01*
X164224517Y-123522490D01*
X164057510Y-123355483D01*
X163866433Y-123216657D01*
X163866431Y-123216656D01*
X163655996Y-123109433D01*
X163431368Y-123036446D01*
X163198097Y-122999500D01*
X163198092Y-122999500D01*
X162961908Y-122999500D01*
X162961903Y-122999500D01*
X162728631Y-123036446D01*
X162504003Y-123109433D01*
X162293566Y-123216657D01*
X162184550Y-123295862D01*
X162102490Y-123355483D01*
X162102488Y-123355485D01*
X162102487Y-123355485D01*
X161935485Y-123522487D01*
X161935485Y-123522488D01*
X161935483Y-123522490D01*
X161875862Y-123604550D01*
X161796657Y-123713566D01*
X161689433Y-123924003D01*
X161616446Y-124148631D01*
X161579500Y-124381902D01*
X159500500Y-124381902D01*
X159463553Y-124148631D01*
X159390566Y-123924003D01*
X159283342Y-123713566D01*
X159144517Y-123522490D01*
X158977510Y-123355483D01*
X158786433Y-123216657D01*
X158786431Y-123216656D01*
X158575996Y-123109433D01*
X158351368Y-123036446D01*
X158118097Y-122999500D01*
X158118092Y-122999500D01*
X157881908Y-122999500D01*
X157881903Y-122999500D01*
X157648631Y-123036446D01*
X157424003Y-123109433D01*
X157213566Y-123216657D01*
X157104550Y-123295862D01*
X157022490Y-123355483D01*
X157022488Y-123355485D01*
X157022487Y-123355485D01*
X156855485Y-123522487D01*
X156855485Y-123522488D01*
X156855483Y-123522490D01*
X156795862Y-123604550D01*
X156716657Y-123713566D01*
X156609433Y-123924003D01*
X156536446Y-124148631D01*
X156499500Y-124381902D01*
X154420500Y-124381902D01*
X154383553Y-124148631D01*
X154310566Y-123924003D01*
X154203342Y-123713566D01*
X154064517Y-123522490D01*
X153897510Y-123355483D01*
X153706433Y-123216657D01*
X153706431Y-123216656D01*
X153495996Y-123109433D01*
X153271368Y-123036446D01*
X153038097Y-122999500D01*
X153038092Y-122999500D01*
X152801908Y-122999500D01*
X152801903Y-122999500D01*
X152568631Y-123036446D01*
X152344003Y-123109433D01*
X152133566Y-123216657D01*
X152024550Y-123295862D01*
X151942490Y-123355483D01*
X151942488Y-123355485D01*
X151942487Y-123355485D01*
X151775485Y-123522487D01*
X151775485Y-123522488D01*
X151775483Y-123522490D01*
X151715862Y-123604550D01*
X151636657Y-123713566D01*
X151529433Y-123924003D01*
X151456446Y-124148631D01*
X151419500Y-124381902D01*
X149340500Y-124381902D01*
X149303553Y-124148631D01*
X149230566Y-123924003D01*
X149123342Y-123713566D01*
X148984517Y-123522490D01*
X148817510Y-123355483D01*
X148626433Y-123216657D01*
X148626431Y-123216656D01*
X148415996Y-123109433D01*
X148191368Y-123036446D01*
X147958097Y-122999500D01*
X147958092Y-122999500D01*
X147721908Y-122999500D01*
X147721903Y-122999500D01*
X147488631Y-123036446D01*
X147264003Y-123109433D01*
X147053566Y-123216657D01*
X146944550Y-123295862D01*
X146862490Y-123355483D01*
X146862488Y-123355485D01*
X146862487Y-123355485D01*
X146695485Y-123522487D01*
X146695485Y-123522488D01*
X146695483Y-123522490D01*
X146635862Y-123604550D01*
X146556657Y-123713566D01*
X146449433Y-123924003D01*
X146376446Y-124148631D01*
X146339500Y-124381902D01*
X144260500Y-124381902D01*
X144223553Y-124148631D01*
X144150566Y-123924003D01*
X144043342Y-123713566D01*
X143904517Y-123522490D01*
X143737510Y-123355483D01*
X143546433Y-123216657D01*
X143546431Y-123216656D01*
X143335996Y-123109433D01*
X143111368Y-123036446D01*
X142878097Y-122999500D01*
X142878092Y-122999500D01*
X142641908Y-122999500D01*
X142641903Y-122999500D01*
X142408631Y-123036446D01*
X142184003Y-123109433D01*
X141973566Y-123216657D01*
X141864550Y-123295862D01*
X141782490Y-123355483D01*
X141782488Y-123355485D01*
X141782487Y-123355485D01*
X141615485Y-123522487D01*
X141615485Y-123522488D01*
X141615483Y-123522490D01*
X141555862Y-123604550D01*
X141476657Y-123713566D01*
X141369433Y-123924003D01*
X141296446Y-124148631D01*
X141259500Y-124381902D01*
X139180500Y-124381902D01*
X139180500Y-123395730D01*
X139177646Y-123365300D01*
X139177646Y-123365298D01*
X139132793Y-123237119D01*
X139132792Y-123237117D01*
X139117691Y-123216656D01*
X139052150Y-123127850D01*
X138942882Y-123047207D01*
X138942880Y-123047206D01*
X138814700Y-123002353D01*
X138784270Y-122999500D01*
X138784266Y-122999500D01*
X136575734Y-122999500D01*
X136575730Y-122999500D01*
X136545300Y-123002353D01*
X136545298Y-123002353D01*
X136417119Y-123047206D01*
X136417117Y-123047207D01*
X136307850Y-123127850D01*
X136227207Y-123237117D01*
X136227206Y-123237119D01*
X136182353Y-123365298D01*
X136182353Y-123365300D01*
X136179500Y-123395730D01*
X92500500Y-123395730D01*
X92500500Y-115956530D01*
X168449500Y-115956530D01*
X168449500Y-116163469D01*
X168489868Y-116366412D01*
X168489870Y-116366420D01*
X168569058Y-116557596D01*
X168684024Y-116729657D01*
X168830342Y-116875975D01*
X168830345Y-116875977D01*
X169002402Y-116990941D01*
X169193580Y-117070130D01*
X169338052Y-117098867D01*
X169396530Y-117110499D01*
X169396534Y-117110500D01*
X169396535Y-117110500D01*
X169603466Y-117110500D01*
X169603467Y-117110499D01*
X169806420Y-117070130D01*
X169997598Y-116990941D01*
X170169655Y-116875977D01*
X170315977Y-116729655D01*
X170430941Y-116557598D01*
X170510130Y-116366420D01*
X170550500Y-116163465D01*
X170550500Y-115956535D01*
X170510130Y-115753580D01*
X170430941Y-115562402D01*
X170315977Y-115390345D01*
X170315975Y-115390342D01*
X170169657Y-115244024D01*
X170089173Y-115190247D01*
X193849500Y-115190247D01*
X193849500Y-116929752D01*
X193861131Y-116988229D01*
X193861132Y-116988230D01*
X193905447Y-117054552D01*
X193971769Y-117098867D01*
X193971770Y-117098868D01*
X194030247Y-117110499D01*
X194030250Y-117110500D01*
X194030252Y-117110500D01*
X195769750Y-117110500D01*
X195769751Y-117110499D01*
X195784568Y-117107552D01*
X195828229Y-117098868D01*
X195828229Y-117098867D01*
X195828231Y-117098867D01*
X195894552Y-117054552D01*
X195938867Y-116988231D01*
X195938867Y-116988229D01*
X195938868Y-116988229D01*
X195950499Y-116929752D01*
X195950500Y-116929750D01*
X195950500Y-115190249D01*
X195950499Y-115190247D01*
X195938868Y-115131770D01*
X195938867Y-115131769D01*
X195894552Y-115065447D01*
X195828230Y-115021132D01*
X195828229Y-115021131D01*
X195769752Y-115009500D01*
X195769748Y-115009500D01*
X194030252Y-115009500D01*
X194030247Y-115009500D01*
X193971770Y-115021131D01*
X193971769Y-115021132D01*
X193905447Y-115065447D01*
X193861132Y-115131769D01*
X193861131Y-115131770D01*
X193849500Y-115190247D01*
X170089173Y-115190247D01*
X170001655Y-115131770D01*
X169997598Y-115129059D01*
X169806420Y-115049870D01*
X169806412Y-115049868D01*
X169603469Y-115009500D01*
X169603465Y-115009500D01*
X169396535Y-115009500D01*
X169396530Y-115009500D01*
X169193587Y-115049868D01*
X169193579Y-115049870D01*
X169002403Y-115129058D01*
X168830342Y-115244024D01*
X168684024Y-115390342D01*
X168569058Y-115562403D01*
X168489870Y-115753579D01*
X168489868Y-115753587D01*
X168449500Y-115956530D01*
X92500500Y-115956530D01*
X92500500Y-113416530D01*
X168449500Y-113416530D01*
X168449500Y-113623469D01*
X168489868Y-113826412D01*
X168489870Y-113826420D01*
X168569058Y-114017596D01*
X168684024Y-114189657D01*
X168830342Y-114335975D01*
X168830345Y-114335977D01*
X169002402Y-114450941D01*
X169193580Y-114530130D01*
X169396530Y-114570499D01*
X169396534Y-114570500D01*
X169396535Y-114570500D01*
X169603466Y-114570500D01*
X169603467Y-114570499D01*
X169806420Y-114530130D01*
X169997598Y-114450941D01*
X170169655Y-114335977D01*
X170315977Y-114189655D01*
X170430941Y-114017598D01*
X170510130Y-113826420D01*
X170550500Y-113623465D01*
X170550500Y-113416535D01*
X170550499Y-113416530D01*
X193849500Y-113416530D01*
X193849500Y-113623469D01*
X193889868Y-113826412D01*
X193889870Y-113826420D01*
X193969058Y-114017596D01*
X194084024Y-114189657D01*
X194230342Y-114335975D01*
X194230345Y-114335977D01*
X194402402Y-114450941D01*
X194593580Y-114530130D01*
X194796530Y-114570499D01*
X194796534Y-114570500D01*
X194796535Y-114570500D01*
X195003466Y-114570500D01*
X195003467Y-114570499D01*
X195206420Y-114530130D01*
X195397598Y-114450941D01*
X195569655Y-114335977D01*
X195715977Y-114189655D01*
X195830941Y-114017598D01*
X195910130Y-113826420D01*
X195950500Y-113623465D01*
X195950500Y-113416535D01*
X195910130Y-113213580D01*
X195830941Y-113022402D01*
X195715977Y-112850345D01*
X195715975Y-112850342D01*
X195569657Y-112704024D01*
X195483626Y-112646541D01*
X195397598Y-112589059D01*
X195206420Y-112509870D01*
X195206412Y-112509868D01*
X195003469Y-112469500D01*
X195003465Y-112469500D01*
X194796535Y-112469500D01*
X194796530Y-112469500D01*
X194593587Y-112509868D01*
X194593579Y-112509870D01*
X194402403Y-112589058D01*
X194230342Y-112704024D01*
X194084024Y-112850342D01*
X193969058Y-113022403D01*
X193889870Y-113213579D01*
X193889868Y-113213587D01*
X193849500Y-113416530D01*
X170550499Y-113416530D01*
X170510130Y-113213580D01*
X170430941Y-113022402D01*
X170315977Y-112850345D01*
X170315975Y-112850342D01*
X170169657Y-112704024D01*
X170083626Y-112646541D01*
X169997598Y-112589059D01*
X169806420Y-112509870D01*
X169806412Y-112509868D01*
X169603469Y-112469500D01*
X169603465Y-112469500D01*
X169396535Y-112469500D01*
X169396530Y-112469500D01*
X169193587Y-112509868D01*
X169193579Y-112509870D01*
X169002403Y-112589058D01*
X168830342Y-112704024D01*
X168684024Y-112850342D01*
X168569058Y-113022403D01*
X168489870Y-113213579D01*
X168489868Y-113213587D01*
X168449500Y-113416530D01*
X92500500Y-113416530D01*
X92500500Y-110876530D01*
X168449500Y-110876530D01*
X168449500Y-111083469D01*
X168489868Y-111286412D01*
X168489870Y-111286420D01*
X168569058Y-111477596D01*
X168684024Y-111649657D01*
X168830342Y-111795975D01*
X168830345Y-111795977D01*
X169002402Y-111910941D01*
X169193580Y-111990130D01*
X169396530Y-112030499D01*
X169396534Y-112030500D01*
X169396535Y-112030500D01*
X169603466Y-112030500D01*
X169603467Y-112030499D01*
X169806420Y-111990130D01*
X169997598Y-111910941D01*
X170169655Y-111795977D01*
X170315977Y-111649655D01*
X170430941Y-111477598D01*
X170510130Y-111286420D01*
X170550500Y-111083465D01*
X170550500Y-110876535D01*
X170550499Y-110876530D01*
X193849500Y-110876530D01*
X193849500Y-111083469D01*
X193889868Y-111286412D01*
X193889870Y-111286420D01*
X193969058Y-111477596D01*
X194084024Y-111649657D01*
X194230342Y-111795975D01*
X194230345Y-111795977D01*
X194402402Y-111910941D01*
X194593580Y-111990130D01*
X194796530Y-112030499D01*
X194796534Y-112030500D01*
X194796535Y-112030500D01*
X195003466Y-112030500D01*
X195003467Y-112030499D01*
X195206420Y-111990130D01*
X195397598Y-111910941D01*
X195569655Y-111795977D01*
X195715977Y-111649655D01*
X195830941Y-111477598D01*
X195910130Y-111286420D01*
X195950500Y-111083465D01*
X195950500Y-110876535D01*
X195910130Y-110673580D01*
X195830941Y-110482402D01*
X195715977Y-110310345D01*
X195715975Y-110310342D01*
X195569657Y-110164024D01*
X195483626Y-110106541D01*
X195397598Y-110049059D01*
X195206420Y-109969870D01*
X195206412Y-109969868D01*
X195003469Y-109929500D01*
X195003465Y-109929500D01*
X194796535Y-109929500D01*
X194796530Y-109929500D01*
X194593587Y-109969868D01*
X194593579Y-109969870D01*
X194402403Y-110049058D01*
X194230342Y-110164024D01*
X194084024Y-110310342D01*
X193969058Y-110482403D01*
X193889870Y-110673579D01*
X193889868Y-110673587D01*
X193849500Y-110876530D01*
X170550499Y-110876530D01*
X170510130Y-110673580D01*
X170430941Y-110482402D01*
X170315977Y-110310345D01*
X170315975Y-110310342D01*
X170169657Y-110164024D01*
X170083626Y-110106541D01*
X169997598Y-110049059D01*
X169806420Y-109969870D01*
X169806412Y-109969868D01*
X169603469Y-109929500D01*
X169603465Y-109929500D01*
X169396535Y-109929500D01*
X169396530Y-109929500D01*
X169193587Y-109969868D01*
X169193579Y-109969870D01*
X169002403Y-110049058D01*
X168830342Y-110164024D01*
X168684024Y-110310342D01*
X168569058Y-110482403D01*
X168489870Y-110673579D01*
X168489868Y-110673587D01*
X168449500Y-110876530D01*
X92500500Y-110876530D01*
X92500500Y-108336530D01*
X168449500Y-108336530D01*
X168449500Y-108543469D01*
X168489868Y-108746412D01*
X168489870Y-108746420D01*
X168569058Y-108937596D01*
X168684024Y-109109657D01*
X168830342Y-109255975D01*
X168830345Y-109255977D01*
X169002402Y-109370941D01*
X169193580Y-109450130D01*
X169396530Y-109490499D01*
X169396534Y-109490500D01*
X169396535Y-109490500D01*
X169603466Y-109490500D01*
X169603467Y-109490499D01*
X169806420Y-109450130D01*
X169997598Y-109370941D01*
X170169655Y-109255977D01*
X170315977Y-109109655D01*
X170430941Y-108937598D01*
X170510130Y-108746420D01*
X170550500Y-108543465D01*
X170550500Y-108336535D01*
X170550499Y-108336530D01*
X193849500Y-108336530D01*
X193849500Y-108543469D01*
X193889868Y-108746412D01*
X193889870Y-108746420D01*
X193969058Y-108937596D01*
X194084024Y-109109657D01*
X194230342Y-109255975D01*
X194230345Y-109255977D01*
X194402402Y-109370941D01*
X194593580Y-109450130D01*
X194796530Y-109490499D01*
X194796534Y-109490500D01*
X194796535Y-109490500D01*
X195003466Y-109490500D01*
X195003467Y-109490499D01*
X195206420Y-109450130D01*
X195397598Y-109370941D01*
X195569655Y-109255977D01*
X195715977Y-109109655D01*
X195830941Y-108937598D01*
X195910130Y-108746420D01*
X195950500Y-108543465D01*
X195950500Y-108336535D01*
X195910130Y-108133580D01*
X195830941Y-107942402D01*
X195715977Y-107770345D01*
X195715975Y-107770342D01*
X195569657Y-107624024D01*
X195483626Y-107566541D01*
X195397598Y-107509059D01*
X195206420Y-107429870D01*
X195206412Y-107429868D01*
X195003469Y-107389500D01*
X195003465Y-107389500D01*
X194796535Y-107389500D01*
X194796530Y-107389500D01*
X194593587Y-107429868D01*
X194593579Y-107429870D01*
X194402403Y-107509058D01*
X194230342Y-107624024D01*
X194084024Y-107770342D01*
X193969058Y-107942403D01*
X193889870Y-108133579D01*
X193889868Y-108133587D01*
X193849500Y-108336530D01*
X170550499Y-108336530D01*
X170510130Y-108133580D01*
X170430941Y-107942402D01*
X170315977Y-107770345D01*
X170315975Y-107770342D01*
X170169657Y-107624024D01*
X170083626Y-107566541D01*
X169997598Y-107509059D01*
X169806420Y-107429870D01*
X169806412Y-107429868D01*
X169603469Y-107389500D01*
X169603465Y-107389500D01*
X169396535Y-107389500D01*
X169396530Y-107389500D01*
X169193587Y-107429868D01*
X169193579Y-107429870D01*
X169002403Y-107509058D01*
X168830342Y-107624024D01*
X168684024Y-107770342D01*
X168569058Y-107942403D01*
X168489870Y-108133579D01*
X168489868Y-108133587D01*
X168449500Y-108336530D01*
X92500500Y-108336530D01*
X92500500Y-105796530D01*
X168449500Y-105796530D01*
X168449500Y-106003469D01*
X168489868Y-106206412D01*
X168489870Y-106206420D01*
X168569058Y-106397596D01*
X168684024Y-106569657D01*
X168830342Y-106715975D01*
X168830345Y-106715977D01*
X169002402Y-106830941D01*
X169193580Y-106910130D01*
X169396530Y-106950499D01*
X169396534Y-106950500D01*
X169396535Y-106950500D01*
X169603466Y-106950500D01*
X169603467Y-106950499D01*
X169806420Y-106910130D01*
X169997598Y-106830941D01*
X170169655Y-106715977D01*
X170315977Y-106569655D01*
X170430941Y-106397598D01*
X170510130Y-106206420D01*
X170550500Y-106003465D01*
X170550500Y-105796535D01*
X170550499Y-105796530D01*
X193849500Y-105796530D01*
X193849500Y-106003469D01*
X193889868Y-106206412D01*
X193889870Y-106206420D01*
X193969058Y-106397596D01*
X194084024Y-106569657D01*
X194230342Y-106715975D01*
X194230345Y-106715977D01*
X194402402Y-106830941D01*
X194593580Y-106910130D01*
X194796530Y-106950499D01*
X194796534Y-106950500D01*
X194796535Y-106950500D01*
X195003466Y-106950500D01*
X195003467Y-106950499D01*
X195206420Y-106910130D01*
X195397598Y-106830941D01*
X195569655Y-106715977D01*
X195715977Y-106569655D01*
X195830941Y-106397598D01*
X195910130Y-106206420D01*
X195950500Y-106003465D01*
X195950500Y-105796535D01*
X195910130Y-105593580D01*
X195830941Y-105402402D01*
X195715977Y-105230345D01*
X195715975Y-105230342D01*
X195569657Y-105084024D01*
X195483626Y-105026541D01*
X195397598Y-104969059D01*
X195206420Y-104889870D01*
X195206412Y-104889868D01*
X195003469Y-104849500D01*
X195003465Y-104849500D01*
X194796535Y-104849500D01*
X194796530Y-104849500D01*
X194593587Y-104889868D01*
X194593579Y-104889870D01*
X194402403Y-104969058D01*
X194230342Y-105084024D01*
X194084024Y-105230342D01*
X193969058Y-105402403D01*
X193889870Y-105593579D01*
X193889868Y-105593587D01*
X193849500Y-105796530D01*
X170550499Y-105796530D01*
X170510130Y-105593580D01*
X170430941Y-105402402D01*
X170315977Y-105230345D01*
X170315975Y-105230342D01*
X170169657Y-105084024D01*
X170083626Y-105026541D01*
X169997598Y-104969059D01*
X169806420Y-104889870D01*
X169806412Y-104889868D01*
X169603469Y-104849500D01*
X169603465Y-104849500D01*
X169396535Y-104849500D01*
X169396530Y-104849500D01*
X169193587Y-104889868D01*
X169193579Y-104889870D01*
X169002403Y-104969058D01*
X168830342Y-105084024D01*
X168684024Y-105230342D01*
X168569058Y-105402403D01*
X168489870Y-105593579D01*
X168489868Y-105593587D01*
X168449500Y-105796530D01*
X92500500Y-105796530D01*
X92500500Y-103256530D01*
X168449500Y-103256530D01*
X168449500Y-103463469D01*
X168489868Y-103666412D01*
X168489870Y-103666420D01*
X168569058Y-103857596D01*
X168684024Y-104029657D01*
X168830342Y-104175975D01*
X168830345Y-104175977D01*
X169002402Y-104290941D01*
X169193580Y-104370130D01*
X169396530Y-104410499D01*
X169396534Y-104410500D01*
X169396535Y-104410500D01*
X169603466Y-104410500D01*
X169603467Y-104410499D01*
X169806420Y-104370130D01*
X169997598Y-104290941D01*
X170169655Y-104175977D01*
X170315977Y-104029655D01*
X170430941Y-103857598D01*
X170510130Y-103666420D01*
X170550500Y-103463465D01*
X170550500Y-103256535D01*
X170550499Y-103256530D01*
X193849500Y-103256530D01*
X193849500Y-103463469D01*
X193889868Y-103666412D01*
X193889870Y-103666420D01*
X193969058Y-103857596D01*
X194084024Y-104029657D01*
X194230342Y-104175975D01*
X194230345Y-104175977D01*
X194402402Y-104290941D01*
X194593580Y-104370130D01*
X194796530Y-104410499D01*
X194796534Y-104410500D01*
X194796535Y-104410500D01*
X195003466Y-104410500D01*
X195003467Y-104410499D01*
X195206420Y-104370130D01*
X195397598Y-104290941D01*
X195569655Y-104175977D01*
X195715977Y-104029655D01*
X195830941Y-103857598D01*
X195910130Y-103666420D01*
X195950500Y-103463465D01*
X195950500Y-103256535D01*
X195910130Y-103053580D01*
X195830941Y-102862402D01*
X195715977Y-102690345D01*
X195715975Y-102690342D01*
X195569657Y-102544024D01*
X195483626Y-102486541D01*
X195397598Y-102429059D01*
X195206420Y-102349870D01*
X195206412Y-102349868D01*
X195003469Y-102309500D01*
X195003465Y-102309500D01*
X194796535Y-102309500D01*
X194796530Y-102309500D01*
X194593587Y-102349868D01*
X194593579Y-102349870D01*
X194402403Y-102429058D01*
X194230342Y-102544024D01*
X194084024Y-102690342D01*
X193969058Y-102862403D01*
X193889870Y-103053579D01*
X193889868Y-103053587D01*
X193849500Y-103256530D01*
X170550499Y-103256530D01*
X170510130Y-103053580D01*
X170430941Y-102862402D01*
X170315977Y-102690345D01*
X170315975Y-102690342D01*
X170169657Y-102544024D01*
X170083626Y-102486541D01*
X169997598Y-102429059D01*
X169806420Y-102349870D01*
X169806412Y-102349868D01*
X169603469Y-102309500D01*
X169603465Y-102309500D01*
X169396535Y-102309500D01*
X169396530Y-102309500D01*
X169193587Y-102349868D01*
X169193579Y-102349870D01*
X169002403Y-102429058D01*
X168830342Y-102544024D01*
X168684024Y-102690342D01*
X168569058Y-102862403D01*
X168489870Y-103053579D01*
X168489868Y-103053587D01*
X168449500Y-103256530D01*
X92500500Y-103256530D01*
X92500500Y-100716530D01*
X168449500Y-100716530D01*
X168449500Y-100923469D01*
X168489868Y-101126412D01*
X168489870Y-101126420D01*
X168569058Y-101317596D01*
X168684024Y-101489657D01*
X168830342Y-101635975D01*
X168830345Y-101635977D01*
X169002402Y-101750941D01*
X169193580Y-101830130D01*
X169396530Y-101870499D01*
X169396534Y-101870500D01*
X169396535Y-101870500D01*
X169603466Y-101870500D01*
X169603467Y-101870499D01*
X169806420Y-101830130D01*
X169997598Y-101750941D01*
X170169655Y-101635977D01*
X170315977Y-101489655D01*
X170430941Y-101317598D01*
X170510130Y-101126420D01*
X170550500Y-100923465D01*
X170550500Y-100716535D01*
X170550499Y-100716530D01*
X193849500Y-100716530D01*
X193849500Y-100923469D01*
X193889868Y-101126412D01*
X193889870Y-101126420D01*
X193969058Y-101317596D01*
X194084024Y-101489657D01*
X194230342Y-101635975D01*
X194230345Y-101635977D01*
X194402402Y-101750941D01*
X194593580Y-101830130D01*
X194796530Y-101870499D01*
X194796534Y-101870500D01*
X194796535Y-101870500D01*
X195003466Y-101870500D01*
X195003467Y-101870499D01*
X195206420Y-101830130D01*
X195397598Y-101750941D01*
X195569655Y-101635977D01*
X195715977Y-101489655D01*
X195830941Y-101317598D01*
X195910130Y-101126420D01*
X195950500Y-100923465D01*
X195950500Y-100716535D01*
X195910130Y-100513580D01*
X195830941Y-100322402D01*
X195715977Y-100150345D01*
X195715975Y-100150342D01*
X195569657Y-100004024D01*
X195483626Y-99946541D01*
X195397598Y-99889059D01*
X195206420Y-99809870D01*
X195206412Y-99809868D01*
X195003469Y-99769500D01*
X195003465Y-99769500D01*
X194796535Y-99769500D01*
X194796530Y-99769500D01*
X194593587Y-99809868D01*
X194593579Y-99809870D01*
X194402403Y-99889058D01*
X194230342Y-100004024D01*
X194084024Y-100150342D01*
X193969058Y-100322403D01*
X193889870Y-100513579D01*
X193889868Y-100513587D01*
X193849500Y-100716530D01*
X170550499Y-100716530D01*
X170510130Y-100513580D01*
X170430941Y-100322402D01*
X170315977Y-100150345D01*
X170315975Y-100150342D01*
X170169657Y-100004024D01*
X170083626Y-99946541D01*
X169997598Y-99889059D01*
X169806420Y-99809870D01*
X169806412Y-99809868D01*
X169603469Y-99769500D01*
X169603465Y-99769500D01*
X169396535Y-99769500D01*
X169396530Y-99769500D01*
X169193587Y-99809868D01*
X169193579Y-99809870D01*
X169002403Y-99889058D01*
X168830342Y-100004024D01*
X168684024Y-100150342D01*
X168569058Y-100322403D01*
X168489870Y-100513579D01*
X168489868Y-100513587D01*
X168449500Y-100716530D01*
X92500500Y-100716530D01*
X92500500Y-98176530D01*
X168449500Y-98176530D01*
X168449500Y-98383469D01*
X168489868Y-98586412D01*
X168489870Y-98586420D01*
X168569058Y-98777596D01*
X168684024Y-98949657D01*
X168830342Y-99095975D01*
X168830345Y-99095977D01*
X169002402Y-99210941D01*
X169193580Y-99290130D01*
X169396530Y-99330499D01*
X169396534Y-99330500D01*
X169396535Y-99330500D01*
X169603466Y-99330500D01*
X169603467Y-99330499D01*
X169806420Y-99290130D01*
X169997598Y-99210941D01*
X170169655Y-99095977D01*
X170315977Y-98949655D01*
X170430941Y-98777598D01*
X170510130Y-98586420D01*
X170550500Y-98383465D01*
X170550500Y-98176535D01*
X170550499Y-98176530D01*
X193849500Y-98176530D01*
X193849500Y-98383469D01*
X193889868Y-98586412D01*
X193889870Y-98586420D01*
X193969058Y-98777596D01*
X194084024Y-98949657D01*
X194230342Y-99095975D01*
X194230345Y-99095977D01*
X194402402Y-99210941D01*
X194593580Y-99290130D01*
X194796530Y-99330499D01*
X194796534Y-99330500D01*
X194796535Y-99330500D01*
X195003466Y-99330500D01*
X195003467Y-99330499D01*
X195206420Y-99290130D01*
X195397598Y-99210941D01*
X195569655Y-99095977D01*
X195715977Y-98949655D01*
X195830941Y-98777598D01*
X195910130Y-98586420D01*
X195950500Y-98383465D01*
X195950500Y-98176535D01*
X195910130Y-97973580D01*
X195830941Y-97782402D01*
X195715977Y-97610345D01*
X195715975Y-97610342D01*
X195569657Y-97464024D01*
X195483626Y-97406541D01*
X195397598Y-97349059D01*
X195206420Y-97269870D01*
X195206412Y-97269868D01*
X195003469Y-97229500D01*
X195003465Y-97229500D01*
X194796535Y-97229500D01*
X194796530Y-97229500D01*
X194593587Y-97269868D01*
X194593579Y-97269870D01*
X194402403Y-97349058D01*
X194230342Y-97464024D01*
X194084024Y-97610342D01*
X193969058Y-97782403D01*
X193889870Y-97973579D01*
X193889868Y-97973587D01*
X193849500Y-98176530D01*
X170550499Y-98176530D01*
X170510130Y-97973580D01*
X170430941Y-97782402D01*
X170315977Y-97610345D01*
X170315975Y-97610342D01*
X170169657Y-97464024D01*
X170083626Y-97406541D01*
X169997598Y-97349059D01*
X169806420Y-97269870D01*
X169806412Y-97269868D01*
X169603469Y-97229500D01*
X169603465Y-97229500D01*
X169396535Y-97229500D01*
X169396530Y-97229500D01*
X169193587Y-97269868D01*
X169193579Y-97269870D01*
X169002403Y-97349058D01*
X168830342Y-97464024D01*
X168684024Y-97610342D01*
X168569058Y-97782403D01*
X168489870Y-97973579D01*
X168489868Y-97973587D01*
X168449500Y-98176530D01*
X92500500Y-98176530D01*
X92500500Y-95636530D01*
X168449500Y-95636530D01*
X168449500Y-95843469D01*
X168489868Y-96046412D01*
X168489870Y-96046420D01*
X168569058Y-96237596D01*
X168684024Y-96409657D01*
X168830342Y-96555975D01*
X168830345Y-96555977D01*
X169002402Y-96670941D01*
X169193580Y-96750130D01*
X169396530Y-96790499D01*
X169396534Y-96790500D01*
X169396535Y-96790500D01*
X169603466Y-96790500D01*
X169603467Y-96790499D01*
X169806420Y-96750130D01*
X169997598Y-96670941D01*
X170169655Y-96555977D01*
X170315977Y-96409655D01*
X170430941Y-96237598D01*
X170510130Y-96046420D01*
X170550500Y-95843465D01*
X170550500Y-95636535D01*
X170550499Y-95636530D01*
X193849500Y-95636530D01*
X193849500Y-95843469D01*
X193889868Y-96046412D01*
X193889870Y-96046420D01*
X193969058Y-96237596D01*
X194084024Y-96409657D01*
X194230342Y-96555975D01*
X194230345Y-96555977D01*
X194402402Y-96670941D01*
X194593580Y-96750130D01*
X194796530Y-96790499D01*
X194796534Y-96790500D01*
X194796535Y-96790500D01*
X195003466Y-96790500D01*
X195003467Y-96790499D01*
X195206420Y-96750130D01*
X195397598Y-96670941D01*
X195569655Y-96555977D01*
X195715977Y-96409655D01*
X195830941Y-96237598D01*
X195910130Y-96046420D01*
X195950500Y-95843465D01*
X195950500Y-95636535D01*
X195910130Y-95433580D01*
X195830941Y-95242402D01*
X195715977Y-95070345D01*
X195715975Y-95070342D01*
X195569657Y-94924024D01*
X195483626Y-94866541D01*
X195397598Y-94809059D01*
X195206420Y-94729870D01*
X195206412Y-94729868D01*
X195003469Y-94689500D01*
X195003465Y-94689500D01*
X194796535Y-94689500D01*
X194796530Y-94689500D01*
X194593587Y-94729868D01*
X194593579Y-94729870D01*
X194402403Y-94809058D01*
X194230342Y-94924024D01*
X194084024Y-95070342D01*
X193969058Y-95242403D01*
X193889870Y-95433579D01*
X193889868Y-95433587D01*
X193849500Y-95636530D01*
X170550499Y-95636530D01*
X170510130Y-95433580D01*
X170430941Y-95242402D01*
X170315977Y-95070345D01*
X170315975Y-95070342D01*
X170169657Y-94924024D01*
X170083626Y-94866541D01*
X169997598Y-94809059D01*
X169806420Y-94729870D01*
X169806412Y-94729868D01*
X169603469Y-94689500D01*
X169603465Y-94689500D01*
X169396535Y-94689500D01*
X169396530Y-94689500D01*
X169193587Y-94729868D01*
X169193579Y-94729870D01*
X169002403Y-94809058D01*
X168830342Y-94924024D01*
X168684024Y-95070342D01*
X168569058Y-95242403D01*
X168489870Y-95433579D01*
X168489868Y-95433587D01*
X168449500Y-95636530D01*
X92500500Y-95636530D01*
X92500500Y-92396530D01*
X99749500Y-92396530D01*
X99749500Y-92603469D01*
X99789868Y-92806412D01*
X99789870Y-92806420D01*
X99855939Y-92965925D01*
X99869059Y-92997598D01*
X99882836Y-93018217D01*
X99984024Y-93169657D01*
X100130342Y-93315975D01*
X100130345Y-93315977D01*
X100302402Y-93430941D01*
X100493580Y-93510130D01*
X100696530Y-93550499D01*
X100696534Y-93550500D01*
X100696535Y-93550500D01*
X100903466Y-93550500D01*
X100903467Y-93550499D01*
X101106420Y-93510130D01*
X101297598Y-93430941D01*
X101469655Y-93315977D01*
X101615977Y-93169655D01*
X101730941Y-92997598D01*
X101810130Y-92806420D01*
X101850500Y-92603465D01*
X101850500Y-92396535D01*
X101850499Y-92396530D01*
X102289500Y-92396530D01*
X102289500Y-92603469D01*
X102329868Y-92806412D01*
X102329870Y-92806420D01*
X102395939Y-92965925D01*
X102409059Y-92997598D01*
X102422836Y-93018217D01*
X102524024Y-93169657D01*
X102670342Y-93315975D01*
X102670345Y-93315977D01*
X102842402Y-93430941D01*
X103033580Y-93510130D01*
X103236530Y-93550499D01*
X103236534Y-93550500D01*
X103236535Y-93550500D01*
X103443466Y-93550500D01*
X103443467Y-93550499D01*
X103646420Y-93510130D01*
X103837598Y-93430941D01*
X104009655Y-93315977D01*
X104155977Y-93169655D01*
X104270941Y-92997598D01*
X104350130Y-92806420D01*
X104390500Y-92603465D01*
X104390500Y-92396535D01*
X104390499Y-92396530D01*
X104829500Y-92396530D01*
X104829500Y-92603469D01*
X104869868Y-92806412D01*
X104869870Y-92806420D01*
X104935939Y-92965925D01*
X104949059Y-92997598D01*
X104962836Y-93018217D01*
X105064024Y-93169657D01*
X105210342Y-93315975D01*
X105210345Y-93315977D01*
X105382402Y-93430941D01*
X105573580Y-93510130D01*
X105776530Y-93550499D01*
X105776534Y-93550500D01*
X105776535Y-93550500D01*
X105983466Y-93550500D01*
X105983467Y-93550499D01*
X106186420Y-93510130D01*
X106377598Y-93430941D01*
X106549655Y-93315977D01*
X106695977Y-93169655D01*
X106810941Y-92997598D01*
X106890130Y-92806420D01*
X106930500Y-92603465D01*
X106930500Y-92396535D01*
X106930499Y-92396530D01*
X107369500Y-92396530D01*
X107369500Y-92603469D01*
X107409868Y-92806412D01*
X107409870Y-92806420D01*
X107475939Y-92965925D01*
X107489059Y-92997598D01*
X107502836Y-93018217D01*
X107604024Y-93169657D01*
X107750342Y-93315975D01*
X107750345Y-93315977D01*
X107922402Y-93430941D01*
X108113580Y-93510130D01*
X108316530Y-93550499D01*
X108316534Y-93550500D01*
X108316535Y-93550500D01*
X108523466Y-93550500D01*
X108523467Y-93550499D01*
X108726420Y-93510130D01*
X108917598Y-93430941D01*
X109089655Y-93315977D01*
X109235977Y-93169655D01*
X109350941Y-92997598D01*
X109419165Y-92832889D01*
X109463004Y-92778488D01*
X109529298Y-92756423D01*
X109596998Y-92773702D01*
X109644609Y-92824839D01*
X109651656Y-92842026D01*
X109708904Y-93018216D01*
X109805375Y-93207550D01*
X109844728Y-93261716D01*
X110477037Y-92629408D01*
X110494075Y-92692993D01*
X110559901Y-92807007D01*
X110652993Y-92900099D01*
X110767007Y-92965925D01*
X110830590Y-92982962D01*
X110198282Y-93615269D01*
X110198282Y-93615270D01*
X110252449Y-93654624D01*
X110441782Y-93751095D01*
X110643870Y-93816757D01*
X110853754Y-93850000D01*
X111066246Y-93850000D01*
X111276127Y-93816757D01*
X111276130Y-93816757D01*
X111478217Y-93751095D01*
X111667554Y-93654622D01*
X111721716Y-93615270D01*
X111721717Y-93615270D01*
X111089408Y-92982962D01*
X111152993Y-92965925D01*
X111267007Y-92900099D01*
X111360099Y-92807007D01*
X111425925Y-92692993D01*
X111442962Y-92629408D01*
X112075270Y-93261717D01*
X112075270Y-93261716D01*
X112114622Y-93207554D01*
X112211095Y-93018217D01*
X112268343Y-92842026D01*
X112307780Y-92784351D01*
X112372139Y-92757152D01*
X112440985Y-92769066D01*
X112492461Y-92816310D01*
X112500833Y-92832887D01*
X112524044Y-92888922D01*
X112555939Y-92965925D01*
X112569059Y-92997598D01*
X112582836Y-93018217D01*
X112684024Y-93169657D01*
X112830342Y-93315975D01*
X112830345Y-93315977D01*
X113002402Y-93430941D01*
X113193580Y-93510130D01*
X113396530Y-93550499D01*
X113396534Y-93550500D01*
X113396535Y-93550500D01*
X113603466Y-93550500D01*
X113603467Y-93550499D01*
X113806420Y-93510130D01*
X113997598Y-93430941D01*
X114169655Y-93315977D01*
X114315977Y-93169655D01*
X114430941Y-92997598D01*
X114510130Y-92806420D01*
X114550500Y-92603465D01*
X114550500Y-92396535D01*
X114550499Y-92396530D01*
X114989500Y-92396530D01*
X114989500Y-92603469D01*
X115029868Y-92806412D01*
X115029870Y-92806420D01*
X115095939Y-92965925D01*
X115109059Y-92997598D01*
X115122836Y-93018217D01*
X115224024Y-93169657D01*
X115370342Y-93315975D01*
X115370345Y-93315977D01*
X115542402Y-93430941D01*
X115733580Y-93510130D01*
X115936530Y-93550499D01*
X115936534Y-93550500D01*
X115936535Y-93550500D01*
X116143466Y-93550500D01*
X116143467Y-93550499D01*
X116346420Y-93510130D01*
X116537598Y-93430941D01*
X116709655Y-93315977D01*
X116855977Y-93169655D01*
X116970941Y-92997598D01*
X117050130Y-92806420D01*
X117090500Y-92603465D01*
X117090500Y-92396535D01*
X117090499Y-92396530D01*
X117529500Y-92396530D01*
X117529500Y-92603469D01*
X117569868Y-92806412D01*
X117569870Y-92806420D01*
X117635939Y-92965925D01*
X117649059Y-92997598D01*
X117662836Y-93018217D01*
X117764024Y-93169657D01*
X117910342Y-93315975D01*
X117910345Y-93315977D01*
X118082402Y-93430941D01*
X118273580Y-93510130D01*
X118476530Y-93550499D01*
X118476534Y-93550500D01*
X118476535Y-93550500D01*
X118683466Y-93550500D01*
X118683467Y-93550499D01*
X118886420Y-93510130D01*
X119077598Y-93430941D01*
X119249655Y-93315977D01*
X119395977Y-93169655D01*
X119510941Y-92997598D01*
X119590130Y-92806420D01*
X119630500Y-92603465D01*
X119630500Y-92396535D01*
X119630499Y-92396530D01*
X120069500Y-92396530D01*
X120069500Y-92603469D01*
X120109868Y-92806412D01*
X120109870Y-92806420D01*
X120175939Y-92965925D01*
X120189059Y-92997598D01*
X120202836Y-93018217D01*
X120304024Y-93169657D01*
X120450342Y-93315975D01*
X120450345Y-93315977D01*
X120622402Y-93430941D01*
X120813580Y-93510130D01*
X121016530Y-93550499D01*
X121016534Y-93550500D01*
X121016535Y-93550500D01*
X121223466Y-93550500D01*
X121223467Y-93550499D01*
X121426420Y-93510130D01*
X121617598Y-93430941D01*
X121789655Y-93315977D01*
X121935977Y-93169655D01*
X122050941Y-92997598D01*
X122130130Y-92806420D01*
X122170500Y-92603465D01*
X122170500Y-92396535D01*
X122170499Y-92396530D01*
X122609500Y-92396530D01*
X122609500Y-92603469D01*
X122649868Y-92806412D01*
X122649870Y-92806420D01*
X122715939Y-92965925D01*
X122729059Y-92997598D01*
X122742836Y-93018217D01*
X122844024Y-93169657D01*
X122990342Y-93315975D01*
X122990345Y-93315977D01*
X123162402Y-93430941D01*
X123353580Y-93510130D01*
X123556530Y-93550499D01*
X123556534Y-93550500D01*
X123556535Y-93550500D01*
X123763466Y-93550500D01*
X123763467Y-93550499D01*
X123966420Y-93510130D01*
X124157598Y-93430941D01*
X124329655Y-93315977D01*
X124475977Y-93169655D01*
X124590941Y-92997598D01*
X124670130Y-92806420D01*
X124710500Y-92603465D01*
X124710500Y-92396535D01*
X124710499Y-92396530D01*
X125149500Y-92396530D01*
X125149500Y-92603469D01*
X125189868Y-92806412D01*
X125189870Y-92806420D01*
X125255939Y-92965925D01*
X125269059Y-92997598D01*
X125282836Y-93018217D01*
X125384024Y-93169657D01*
X125530342Y-93315975D01*
X125530345Y-93315977D01*
X125702402Y-93430941D01*
X125893580Y-93510130D01*
X126096530Y-93550499D01*
X126096534Y-93550500D01*
X126096535Y-93550500D01*
X126303466Y-93550500D01*
X126303467Y-93550499D01*
X126506420Y-93510130D01*
X126697598Y-93430941D01*
X126869655Y-93315977D01*
X127015977Y-93169655D01*
X127130941Y-92997598D01*
X127210130Y-92806420D01*
X127250500Y-92603465D01*
X127250500Y-92396535D01*
X127250499Y-92396530D01*
X127689500Y-92396530D01*
X127689500Y-92603469D01*
X127729868Y-92806412D01*
X127729870Y-92806420D01*
X127795939Y-92965925D01*
X127809059Y-92997598D01*
X127822836Y-93018217D01*
X127924024Y-93169657D01*
X128070342Y-93315975D01*
X128070345Y-93315977D01*
X128242402Y-93430941D01*
X128433580Y-93510130D01*
X128636530Y-93550499D01*
X128636534Y-93550500D01*
X128636535Y-93550500D01*
X128843466Y-93550500D01*
X128843467Y-93550499D01*
X129046420Y-93510130D01*
X129237598Y-93430941D01*
X129409655Y-93315977D01*
X129555977Y-93169655D01*
X129670941Y-92997598D01*
X129691439Y-92948112D01*
X129735279Y-92893708D01*
X129801573Y-92871643D01*
X129869273Y-92888922D01*
X129916884Y-92940059D01*
X129930000Y-92995564D01*
X129930000Y-93397844D01*
X129936401Y-93457372D01*
X129936403Y-93457379D01*
X129986645Y-93592086D01*
X129986649Y-93592093D01*
X130072809Y-93707187D01*
X130072812Y-93707190D01*
X130187906Y-93793350D01*
X130187913Y-93793354D01*
X130322620Y-93843596D01*
X130322627Y-93843598D01*
X130382155Y-93849999D01*
X130382172Y-93850000D01*
X131030000Y-93850000D01*
X131030000Y-92933012D01*
X131087007Y-92965925D01*
X131214174Y-93000000D01*
X131345826Y-93000000D01*
X131472993Y-92965925D01*
X131530000Y-92933012D01*
X131530000Y-93850000D01*
X132177828Y-93850000D01*
X132177844Y-93849999D01*
X132237372Y-93843598D01*
X132237379Y-93843596D01*
X132372086Y-93793354D01*
X132372093Y-93793350D01*
X132487187Y-93707190D01*
X132487190Y-93707187D01*
X132573350Y-93592093D01*
X132573354Y-93592086D01*
X132623596Y-93457379D01*
X132623598Y-93457372D01*
X132629999Y-93397844D01*
X132630000Y-93397827D01*
X132630000Y-93096530D01*
X168449500Y-93096530D01*
X168449500Y-93303469D01*
X168489868Y-93506412D01*
X168489870Y-93506420D01*
X168569058Y-93697596D01*
X168684024Y-93869657D01*
X168830342Y-94015975D01*
X168830345Y-94015977D01*
X169002402Y-94130941D01*
X169193580Y-94210130D01*
X169396530Y-94250499D01*
X169396534Y-94250500D01*
X169396535Y-94250500D01*
X169603466Y-94250500D01*
X169603467Y-94250499D01*
X169806420Y-94210130D01*
X169997598Y-94130941D01*
X170169655Y-94015977D01*
X170315977Y-93869655D01*
X170430941Y-93697598D01*
X170510130Y-93506420D01*
X170550500Y-93303465D01*
X170550500Y-93096535D01*
X170550499Y-93096530D01*
X193849500Y-93096530D01*
X193849500Y-93303469D01*
X193889868Y-93506412D01*
X193889870Y-93506420D01*
X193969058Y-93697596D01*
X194084024Y-93869657D01*
X194230342Y-94015975D01*
X194230345Y-94015977D01*
X194402402Y-94130941D01*
X194593580Y-94210130D01*
X194796530Y-94250499D01*
X194796534Y-94250500D01*
X194796535Y-94250500D01*
X195003466Y-94250500D01*
X195003467Y-94250499D01*
X195206420Y-94210130D01*
X195397598Y-94130941D01*
X195569655Y-94015977D01*
X195715977Y-93869655D01*
X195830941Y-93697598D01*
X195910130Y-93506420D01*
X195950500Y-93303465D01*
X195950500Y-93096535D01*
X195910130Y-92893580D01*
X195830941Y-92702402D01*
X195715977Y-92530345D01*
X195715975Y-92530342D01*
X195569657Y-92384024D01*
X195483626Y-92326541D01*
X195397598Y-92269059D01*
X195206420Y-92189870D01*
X195206412Y-92189868D01*
X195003469Y-92149500D01*
X195003465Y-92149500D01*
X194796535Y-92149500D01*
X194796530Y-92149500D01*
X194593587Y-92189868D01*
X194593579Y-92189870D01*
X194402403Y-92269058D01*
X194230342Y-92384024D01*
X194084024Y-92530342D01*
X193969058Y-92702403D01*
X193889870Y-92893579D01*
X193889868Y-92893587D01*
X193849500Y-93096530D01*
X170550499Y-93096530D01*
X170510130Y-92893580D01*
X170430941Y-92702402D01*
X170315977Y-92530345D01*
X170315975Y-92530342D01*
X170169657Y-92384024D01*
X170083626Y-92326541D01*
X169997598Y-92269059D01*
X169806420Y-92189870D01*
X169806412Y-92189868D01*
X169603469Y-92149500D01*
X169603465Y-92149500D01*
X169396535Y-92149500D01*
X169396530Y-92149500D01*
X169193587Y-92189868D01*
X169193579Y-92189870D01*
X169002403Y-92269058D01*
X168830342Y-92384024D01*
X168684024Y-92530342D01*
X168569058Y-92702403D01*
X168489870Y-92893579D01*
X168489868Y-92893587D01*
X168449500Y-93096530D01*
X132630000Y-93096530D01*
X132630000Y-92750000D01*
X131713012Y-92750000D01*
X131745925Y-92692993D01*
X131780000Y-92565826D01*
X131780000Y-92434174D01*
X131745925Y-92307007D01*
X131713012Y-92250000D01*
X132630000Y-92250000D01*
X132630000Y-91602172D01*
X132629999Y-91602155D01*
X132623598Y-91542627D01*
X132623596Y-91542620D01*
X132573354Y-91407913D01*
X132573350Y-91407906D01*
X132487190Y-91292812D01*
X132487187Y-91292809D01*
X132372093Y-91206649D01*
X132372086Y-91206645D01*
X132237379Y-91156403D01*
X132237372Y-91156401D01*
X132177844Y-91150000D01*
X131530000Y-91150000D01*
X131530000Y-92066988D01*
X131472993Y-92034075D01*
X131345826Y-92000000D01*
X131214174Y-92000000D01*
X131087007Y-92034075D01*
X131030000Y-92066988D01*
X131030000Y-91150000D01*
X130382155Y-91150000D01*
X130322627Y-91156401D01*
X130322620Y-91156403D01*
X130187913Y-91206645D01*
X130187906Y-91206649D01*
X130072812Y-91292809D01*
X130072809Y-91292812D01*
X129986649Y-91407906D01*
X129986645Y-91407913D01*
X129936403Y-91542620D01*
X129936401Y-91542627D01*
X129930000Y-91602155D01*
X129930000Y-92004435D01*
X129910315Y-92071474D01*
X129857511Y-92117229D01*
X129788353Y-92127173D01*
X129724797Y-92098148D01*
X129691439Y-92051888D01*
X129670941Y-92002403D01*
X129670941Y-92002402D01*
X129555977Y-91830345D01*
X129555975Y-91830342D01*
X129409657Y-91684024D01*
X129270347Y-91590941D01*
X129237598Y-91569059D01*
X129046420Y-91489870D01*
X129046412Y-91489868D01*
X128843469Y-91449500D01*
X128843465Y-91449500D01*
X128636535Y-91449500D01*
X128636530Y-91449500D01*
X128433587Y-91489868D01*
X128433579Y-91489870D01*
X128242403Y-91569058D01*
X128070342Y-91684024D01*
X127924024Y-91830342D01*
X127809058Y-92002403D01*
X127729870Y-92193579D01*
X127729868Y-92193587D01*
X127689500Y-92396530D01*
X127250499Y-92396530D01*
X127210130Y-92193580D01*
X127130941Y-92002402D01*
X127015977Y-91830345D01*
X127015975Y-91830342D01*
X126869657Y-91684024D01*
X126730347Y-91590941D01*
X126697598Y-91569059D01*
X126506420Y-91489870D01*
X126506412Y-91489868D01*
X126303469Y-91449500D01*
X126303465Y-91449500D01*
X126096535Y-91449500D01*
X126096530Y-91449500D01*
X125893587Y-91489868D01*
X125893579Y-91489870D01*
X125702403Y-91569058D01*
X125530342Y-91684024D01*
X125384024Y-91830342D01*
X125269058Y-92002403D01*
X125189870Y-92193579D01*
X125189868Y-92193587D01*
X125149500Y-92396530D01*
X124710499Y-92396530D01*
X124670130Y-92193580D01*
X124590941Y-92002402D01*
X124475977Y-91830345D01*
X124475975Y-91830342D01*
X124329657Y-91684024D01*
X124190347Y-91590941D01*
X124157598Y-91569059D01*
X123966420Y-91489870D01*
X123966412Y-91489868D01*
X123763469Y-91449500D01*
X123763465Y-91449500D01*
X123556535Y-91449500D01*
X123556530Y-91449500D01*
X123353587Y-91489868D01*
X123353579Y-91489870D01*
X123162403Y-91569058D01*
X122990342Y-91684024D01*
X122844024Y-91830342D01*
X122729058Y-92002403D01*
X122649870Y-92193579D01*
X122649868Y-92193587D01*
X122609500Y-92396530D01*
X122170499Y-92396530D01*
X122130130Y-92193580D01*
X122050941Y-92002402D01*
X121935977Y-91830345D01*
X121935975Y-91830342D01*
X121789657Y-91684024D01*
X121650347Y-91590941D01*
X121617598Y-91569059D01*
X121426420Y-91489870D01*
X121426412Y-91489868D01*
X121223469Y-91449500D01*
X121223465Y-91449500D01*
X121016535Y-91449500D01*
X121016530Y-91449500D01*
X120813587Y-91489868D01*
X120813579Y-91489870D01*
X120622403Y-91569058D01*
X120450342Y-91684024D01*
X120304024Y-91830342D01*
X120189058Y-92002403D01*
X120109870Y-92193579D01*
X120109868Y-92193587D01*
X120069500Y-92396530D01*
X119630499Y-92396530D01*
X119590130Y-92193580D01*
X119510941Y-92002402D01*
X119395977Y-91830345D01*
X119395975Y-91830342D01*
X119249657Y-91684024D01*
X119110347Y-91590941D01*
X119077598Y-91569059D01*
X118886420Y-91489870D01*
X118886412Y-91489868D01*
X118683469Y-91449500D01*
X118683465Y-91449500D01*
X118476535Y-91449500D01*
X118476530Y-91449500D01*
X118273587Y-91489868D01*
X118273579Y-91489870D01*
X118082403Y-91569058D01*
X117910342Y-91684024D01*
X117764024Y-91830342D01*
X117649058Y-92002403D01*
X117569870Y-92193579D01*
X117569868Y-92193587D01*
X117529500Y-92396530D01*
X117090499Y-92396530D01*
X117050130Y-92193580D01*
X116970941Y-92002402D01*
X116855977Y-91830345D01*
X116855975Y-91830342D01*
X116709657Y-91684024D01*
X116570347Y-91590941D01*
X116537598Y-91569059D01*
X116346420Y-91489870D01*
X116346412Y-91489868D01*
X116143469Y-91449500D01*
X116143465Y-91449500D01*
X115936535Y-91449500D01*
X115936530Y-91449500D01*
X115733587Y-91489868D01*
X115733579Y-91489870D01*
X115542403Y-91569058D01*
X115370342Y-91684024D01*
X115224024Y-91830342D01*
X115109058Y-92002403D01*
X115029870Y-92193579D01*
X115029868Y-92193587D01*
X114989500Y-92396530D01*
X114550499Y-92396530D01*
X114510130Y-92193580D01*
X114430941Y-92002402D01*
X114315977Y-91830345D01*
X114315975Y-91830342D01*
X114169657Y-91684024D01*
X114030347Y-91590941D01*
X113997598Y-91569059D01*
X113806420Y-91489870D01*
X113806412Y-91489868D01*
X113603469Y-91449500D01*
X113603465Y-91449500D01*
X113396535Y-91449500D01*
X113396530Y-91449500D01*
X113193587Y-91489868D01*
X113193579Y-91489870D01*
X113002403Y-91569058D01*
X112830342Y-91684024D01*
X112684024Y-91830342D01*
X112569057Y-92002403D01*
X112500835Y-92167108D01*
X112456994Y-92221511D01*
X112390700Y-92243576D01*
X112323000Y-92226297D01*
X112275390Y-92175159D01*
X112268343Y-92157973D01*
X112211095Y-91981782D01*
X112114624Y-91792449D01*
X112075270Y-91738282D01*
X112075269Y-91738282D01*
X111442962Y-92370590D01*
X111425925Y-92307007D01*
X111360099Y-92192993D01*
X111267007Y-92099901D01*
X111152993Y-92034075D01*
X111089409Y-92017037D01*
X111721716Y-91384728D01*
X111667550Y-91345375D01*
X111478217Y-91248904D01*
X111276129Y-91183242D01*
X111066246Y-91150000D01*
X110853754Y-91150000D01*
X110643872Y-91183242D01*
X110643869Y-91183242D01*
X110441782Y-91248904D01*
X110252439Y-91345380D01*
X110198282Y-91384727D01*
X110198282Y-91384728D01*
X110830591Y-92017037D01*
X110767007Y-92034075D01*
X110652993Y-92099901D01*
X110559901Y-92192993D01*
X110494075Y-92307007D01*
X110477037Y-92370591D01*
X109844728Y-91738282D01*
X109844727Y-91738282D01*
X109805380Y-91792439D01*
X109708905Y-91981781D01*
X109651656Y-92157974D01*
X109612218Y-92215649D01*
X109547859Y-92242847D01*
X109479013Y-92230932D01*
X109427537Y-92183688D01*
X109419164Y-92167107D01*
X109350943Y-92002405D01*
X109235975Y-91830342D01*
X109089657Y-91684024D01*
X108950347Y-91590941D01*
X108917598Y-91569059D01*
X108726420Y-91489870D01*
X108726412Y-91489868D01*
X108523469Y-91449500D01*
X108523465Y-91449500D01*
X108316535Y-91449500D01*
X108316530Y-91449500D01*
X108113587Y-91489868D01*
X108113579Y-91489870D01*
X107922403Y-91569058D01*
X107750342Y-91684024D01*
X107604024Y-91830342D01*
X107489058Y-92002403D01*
X107409870Y-92193579D01*
X107409868Y-92193587D01*
X107369500Y-92396530D01*
X106930499Y-92396530D01*
X106890130Y-92193580D01*
X106810941Y-92002402D01*
X106695977Y-91830345D01*
X106695975Y-91830342D01*
X106549657Y-91684024D01*
X106410347Y-91590941D01*
X106377598Y-91569059D01*
X106186420Y-91489870D01*
X106186412Y-91489868D01*
X105983469Y-91449500D01*
X105983465Y-91449500D01*
X105776535Y-91449500D01*
X105776530Y-91449500D01*
X105573587Y-91489868D01*
X105573579Y-91489870D01*
X105382403Y-91569058D01*
X105210342Y-91684024D01*
X105064024Y-91830342D01*
X104949058Y-92002403D01*
X104869870Y-92193579D01*
X104869868Y-92193587D01*
X104829500Y-92396530D01*
X104390499Y-92396530D01*
X104350130Y-92193580D01*
X104270941Y-92002402D01*
X104155977Y-91830345D01*
X104155975Y-91830342D01*
X104009657Y-91684024D01*
X103870347Y-91590941D01*
X103837598Y-91569059D01*
X103646420Y-91489870D01*
X103646412Y-91489868D01*
X103443469Y-91449500D01*
X103443465Y-91449500D01*
X103236535Y-91449500D01*
X103236530Y-91449500D01*
X103033587Y-91489868D01*
X103033579Y-91489870D01*
X102842403Y-91569058D01*
X102670342Y-91684024D01*
X102524024Y-91830342D01*
X102409058Y-92002403D01*
X102329870Y-92193579D01*
X102329868Y-92193587D01*
X102289500Y-92396530D01*
X101850499Y-92396530D01*
X101810130Y-92193580D01*
X101730941Y-92002402D01*
X101615977Y-91830345D01*
X101615975Y-91830342D01*
X101469657Y-91684024D01*
X101330347Y-91590941D01*
X101297598Y-91569059D01*
X101106420Y-91489870D01*
X101106412Y-91489868D01*
X100903469Y-91449500D01*
X100903465Y-91449500D01*
X100696535Y-91449500D01*
X100696530Y-91449500D01*
X100493587Y-91489868D01*
X100493579Y-91489870D01*
X100302403Y-91569058D01*
X100130342Y-91684024D01*
X99984024Y-91830342D01*
X99869058Y-92002403D01*
X99789870Y-92193579D01*
X99789868Y-92193587D01*
X99749500Y-92396530D01*
X92500500Y-92396530D01*
X92500500Y-90556530D01*
X168449500Y-90556530D01*
X168449500Y-90763469D01*
X168489868Y-90966412D01*
X168489870Y-90966420D01*
X168569058Y-91157596D01*
X168684024Y-91329657D01*
X168830342Y-91475975D01*
X168830345Y-91475977D01*
X169002402Y-91590941D01*
X169193580Y-91670130D01*
X169396530Y-91710499D01*
X169396534Y-91710500D01*
X169396535Y-91710500D01*
X169603466Y-91710500D01*
X169603467Y-91710499D01*
X169806420Y-91670130D01*
X169997598Y-91590941D01*
X170169655Y-91475977D01*
X170315977Y-91329655D01*
X170430941Y-91157598D01*
X170510130Y-90966420D01*
X170550500Y-90763465D01*
X170550500Y-90556535D01*
X170550499Y-90556530D01*
X193849500Y-90556530D01*
X193849500Y-90763469D01*
X193889868Y-90966412D01*
X193889870Y-90966420D01*
X193969058Y-91157596D01*
X194084024Y-91329657D01*
X194230342Y-91475975D01*
X194230345Y-91475977D01*
X194402402Y-91590941D01*
X194593580Y-91670130D01*
X194796530Y-91710499D01*
X194796534Y-91710500D01*
X194796535Y-91710500D01*
X195003466Y-91710500D01*
X195003467Y-91710499D01*
X195206420Y-91670130D01*
X195397598Y-91590941D01*
X195569655Y-91475977D01*
X195715977Y-91329655D01*
X195830941Y-91157598D01*
X195910130Y-90966420D01*
X195950500Y-90763465D01*
X195950500Y-90556535D01*
X195910130Y-90353580D01*
X195830941Y-90162402D01*
X195715977Y-89990345D01*
X195715975Y-89990342D01*
X195569657Y-89844024D01*
X195483626Y-89786541D01*
X195397598Y-89729059D01*
X195206420Y-89649870D01*
X195206412Y-89649868D01*
X195003469Y-89609500D01*
X195003465Y-89609500D01*
X194796535Y-89609500D01*
X194796530Y-89609500D01*
X194593587Y-89649868D01*
X194593579Y-89649870D01*
X194402403Y-89729058D01*
X194230342Y-89844024D01*
X194084024Y-89990342D01*
X193969058Y-90162403D01*
X193889870Y-90353579D01*
X193889868Y-90353587D01*
X193849500Y-90556530D01*
X170550499Y-90556530D01*
X170510130Y-90353580D01*
X170430941Y-90162402D01*
X170315977Y-89990345D01*
X170315975Y-89990342D01*
X170169657Y-89844024D01*
X170083626Y-89786541D01*
X169997598Y-89729059D01*
X169806420Y-89649870D01*
X169806412Y-89649868D01*
X169603469Y-89609500D01*
X169603465Y-89609500D01*
X169396535Y-89609500D01*
X169396530Y-89609500D01*
X169193587Y-89649868D01*
X169193579Y-89649870D01*
X169002403Y-89729058D01*
X168830342Y-89844024D01*
X168684024Y-89990342D01*
X168569058Y-90162403D01*
X168489870Y-90353579D01*
X168489868Y-90353587D01*
X168449500Y-90556530D01*
X92500500Y-90556530D01*
X92500500Y-88016530D01*
X168449500Y-88016530D01*
X168449500Y-88223469D01*
X168489868Y-88426412D01*
X168489870Y-88426420D01*
X168569058Y-88617596D01*
X168684024Y-88789657D01*
X168830342Y-88935975D01*
X168830345Y-88935977D01*
X169002402Y-89050941D01*
X169193580Y-89130130D01*
X169396530Y-89170499D01*
X169396534Y-89170500D01*
X169396535Y-89170500D01*
X169603466Y-89170500D01*
X169603467Y-89170499D01*
X169806420Y-89130130D01*
X169997598Y-89050941D01*
X170169655Y-88935977D01*
X170315977Y-88789655D01*
X170430941Y-88617598D01*
X170510130Y-88426420D01*
X170550500Y-88223465D01*
X170550500Y-88016535D01*
X170550499Y-88016530D01*
X193849500Y-88016530D01*
X193849500Y-88223469D01*
X193889868Y-88426412D01*
X193889870Y-88426420D01*
X193969058Y-88617596D01*
X194084024Y-88789657D01*
X194230342Y-88935975D01*
X194230345Y-88935977D01*
X194402402Y-89050941D01*
X194593580Y-89130130D01*
X194796530Y-89170499D01*
X194796534Y-89170500D01*
X194796535Y-89170500D01*
X195003466Y-89170500D01*
X195003467Y-89170499D01*
X195206420Y-89130130D01*
X195397598Y-89050941D01*
X195569655Y-88935977D01*
X195715977Y-88789655D01*
X195830941Y-88617598D01*
X195910130Y-88426420D01*
X195950500Y-88223465D01*
X195950500Y-88016535D01*
X195910130Y-87813580D01*
X195830941Y-87622402D01*
X195715977Y-87450345D01*
X195715975Y-87450342D01*
X195569657Y-87304024D01*
X195483626Y-87246541D01*
X195397598Y-87189059D01*
X195206420Y-87109870D01*
X195206412Y-87109868D01*
X195003469Y-87069500D01*
X195003465Y-87069500D01*
X194796535Y-87069500D01*
X194796530Y-87069500D01*
X194593587Y-87109868D01*
X194593579Y-87109870D01*
X194402403Y-87189058D01*
X194230342Y-87304024D01*
X194084024Y-87450342D01*
X193969058Y-87622403D01*
X193889870Y-87813579D01*
X193889868Y-87813587D01*
X193849500Y-88016530D01*
X170550499Y-88016530D01*
X170510130Y-87813580D01*
X170430941Y-87622402D01*
X170315977Y-87450345D01*
X170315975Y-87450342D01*
X170169657Y-87304024D01*
X170083626Y-87246541D01*
X169997598Y-87189059D01*
X169806420Y-87109870D01*
X169806412Y-87109868D01*
X169603469Y-87069500D01*
X169603465Y-87069500D01*
X169396535Y-87069500D01*
X169396530Y-87069500D01*
X169193587Y-87109868D01*
X169193579Y-87109870D01*
X169002403Y-87189058D01*
X168830342Y-87304024D01*
X168684024Y-87450342D01*
X168569058Y-87622403D01*
X168489870Y-87813579D01*
X168489868Y-87813587D01*
X168449500Y-88016530D01*
X92500500Y-88016530D01*
X92500500Y-82933753D01*
X168150000Y-82933753D01*
X168150000Y-83146246D01*
X168183242Y-83356127D01*
X168183242Y-83356130D01*
X168248904Y-83558217D01*
X168345375Y-83747550D01*
X168384728Y-83801716D01*
X169017037Y-83169408D01*
X169034075Y-83232993D01*
X169099901Y-83347007D01*
X169192993Y-83440099D01*
X169307007Y-83505925D01*
X169370590Y-83522962D01*
X168738282Y-84155269D01*
X168738282Y-84155270D01*
X168792449Y-84194624D01*
X168981782Y-84291095D01*
X169157973Y-84348343D01*
X169215648Y-84387780D01*
X169242847Y-84452139D01*
X169230932Y-84520985D01*
X169183688Y-84572461D01*
X169167108Y-84580835D01*
X169002403Y-84649057D01*
X168830342Y-84764024D01*
X168684024Y-84910342D01*
X168569058Y-85082403D01*
X168489870Y-85273579D01*
X168489868Y-85273587D01*
X168449500Y-85476530D01*
X168449500Y-85683469D01*
X168489868Y-85886412D01*
X168489870Y-85886420D01*
X168569058Y-86077596D01*
X168684024Y-86249657D01*
X168830342Y-86395975D01*
X168830345Y-86395977D01*
X169002402Y-86510941D01*
X169193580Y-86590130D01*
X169396530Y-86630499D01*
X169396534Y-86630500D01*
X169396535Y-86630500D01*
X169603466Y-86630500D01*
X169603467Y-86630499D01*
X169806420Y-86590130D01*
X169997598Y-86510941D01*
X170169655Y-86395977D01*
X170315977Y-86249655D01*
X170430941Y-86077598D01*
X170510130Y-85886420D01*
X170550500Y-85683465D01*
X170550500Y-85476535D01*
X170510130Y-85273580D01*
X170430941Y-85082402D01*
X170315977Y-84910345D01*
X170315975Y-84910342D01*
X170169657Y-84764024D01*
X170083626Y-84706541D01*
X169997598Y-84649059D01*
X169997593Y-84649057D01*
X169935891Y-84623499D01*
X169832890Y-84580834D01*
X169778488Y-84536994D01*
X169756423Y-84470700D01*
X169773702Y-84403001D01*
X169824839Y-84355390D01*
X169842026Y-84348343D01*
X170018217Y-84291095D01*
X170207554Y-84194622D01*
X170261716Y-84155270D01*
X170261717Y-84155270D01*
X169629408Y-83522962D01*
X169692993Y-83505925D01*
X169807007Y-83440099D01*
X169900099Y-83347007D01*
X169965925Y-83232993D01*
X169982962Y-83169409D01*
X170615270Y-83801717D01*
X170615270Y-83801716D01*
X170654622Y-83747554D01*
X170751095Y-83558217D01*
X170816757Y-83356130D01*
X170816757Y-83356127D01*
X170850000Y-83146246D01*
X170850000Y-82933753D01*
X193550000Y-82933753D01*
X193550000Y-83146246D01*
X193583242Y-83356127D01*
X193583242Y-83356130D01*
X193648904Y-83558217D01*
X193745375Y-83747550D01*
X193784728Y-83801716D01*
X194417037Y-83169408D01*
X194434075Y-83232993D01*
X194499901Y-83347007D01*
X194592993Y-83440099D01*
X194707007Y-83505925D01*
X194770590Y-83522962D01*
X194138282Y-84155269D01*
X194138282Y-84155270D01*
X194192449Y-84194624D01*
X194381782Y-84291095D01*
X194557973Y-84348343D01*
X194615648Y-84387780D01*
X194642847Y-84452139D01*
X194630932Y-84520985D01*
X194583688Y-84572461D01*
X194567108Y-84580835D01*
X194402403Y-84649057D01*
X194230342Y-84764024D01*
X194084024Y-84910342D01*
X193969058Y-85082403D01*
X193889870Y-85273579D01*
X193889868Y-85273587D01*
X193849500Y-85476530D01*
X193849500Y-85683469D01*
X193889868Y-85886412D01*
X193889870Y-85886420D01*
X193969058Y-86077596D01*
X194084024Y-86249657D01*
X194230342Y-86395975D01*
X194230345Y-86395977D01*
X194402402Y-86510941D01*
X194593580Y-86590130D01*
X194796530Y-86630499D01*
X194796534Y-86630500D01*
X194796535Y-86630500D01*
X195003466Y-86630500D01*
X195003467Y-86630499D01*
X195206420Y-86590130D01*
X195397598Y-86510941D01*
X195569655Y-86395977D01*
X195715977Y-86249655D01*
X195830941Y-86077598D01*
X195910130Y-85886420D01*
X195950500Y-85683465D01*
X195950500Y-85476535D01*
X195910130Y-85273580D01*
X195830941Y-85082402D01*
X195715977Y-84910345D01*
X195715975Y-84910342D01*
X195569657Y-84764024D01*
X195483626Y-84706541D01*
X195397598Y-84649059D01*
X195397593Y-84649057D01*
X195335891Y-84623499D01*
X195232890Y-84580834D01*
X195178488Y-84536994D01*
X195156423Y-84470700D01*
X195173702Y-84403001D01*
X195224839Y-84355390D01*
X195242026Y-84348343D01*
X195418217Y-84291095D01*
X195607554Y-84194622D01*
X195661716Y-84155270D01*
X195661717Y-84155270D01*
X195029408Y-83522962D01*
X195092993Y-83505925D01*
X195207007Y-83440099D01*
X195300099Y-83347007D01*
X195365925Y-83232993D01*
X195382962Y-83169408D01*
X196015270Y-83801717D01*
X196015270Y-83801716D01*
X196054622Y-83747554D01*
X196151095Y-83558217D01*
X196216757Y-83356130D01*
X196216757Y-83356127D01*
X196250000Y-83146246D01*
X196250000Y-82933753D01*
X196216757Y-82723872D01*
X196216757Y-82723869D01*
X196151095Y-82521782D01*
X196054624Y-82332449D01*
X196015270Y-82278282D01*
X196015269Y-82278282D01*
X195382962Y-82910590D01*
X195365925Y-82847007D01*
X195300099Y-82732993D01*
X195207007Y-82639901D01*
X195092993Y-82574075D01*
X195029409Y-82557037D01*
X195661716Y-81924728D01*
X195607550Y-81885375D01*
X195418216Y-81788904D01*
X195242026Y-81731656D01*
X195184350Y-81692218D01*
X195157152Y-81627860D01*
X195169067Y-81559013D01*
X195216311Y-81507538D01*
X195232882Y-81499168D01*
X195397598Y-81430941D01*
X195569655Y-81315977D01*
X195715977Y-81169655D01*
X195830941Y-80997598D01*
X195910130Y-80806420D01*
X195950500Y-80603465D01*
X195950500Y-80396535D01*
X195910130Y-80193580D01*
X195830941Y-80002402D01*
X195715977Y-79830345D01*
X195715975Y-79830342D01*
X195569657Y-79684024D01*
X195401655Y-79571770D01*
X195397598Y-79569059D01*
X195206420Y-79489870D01*
X195206412Y-79489868D01*
X195003469Y-79449500D01*
X195003465Y-79449500D01*
X194796535Y-79449500D01*
X194796530Y-79449500D01*
X194593587Y-79489868D01*
X194593579Y-79489870D01*
X194402403Y-79569058D01*
X194230342Y-79684024D01*
X194084024Y-79830342D01*
X193969058Y-80002403D01*
X193889870Y-80193579D01*
X193889868Y-80193587D01*
X193849500Y-80396530D01*
X193849500Y-80603469D01*
X193889868Y-80806412D01*
X193889870Y-80806420D01*
X193969058Y-80997596D01*
X194084024Y-81169657D01*
X194230342Y-81315975D01*
X194402405Y-81430943D01*
X194505043Y-81473456D01*
X194567108Y-81499164D01*
X194621511Y-81543005D01*
X194643576Y-81609299D01*
X194626297Y-81676998D01*
X194575160Y-81724609D01*
X194557974Y-81731656D01*
X194381781Y-81788905D01*
X194192439Y-81885380D01*
X194138282Y-81924727D01*
X194138282Y-81924728D01*
X194770591Y-82557037D01*
X194707007Y-82574075D01*
X194592993Y-82639901D01*
X194499901Y-82732993D01*
X194434075Y-82847007D01*
X194417037Y-82910590D01*
X193784728Y-82278282D01*
X193784727Y-82278282D01*
X193745380Y-82332439D01*
X193648904Y-82521782D01*
X193583242Y-82723869D01*
X193583242Y-82723872D01*
X193550000Y-82933753D01*
X170850000Y-82933753D01*
X170816757Y-82723872D01*
X170816757Y-82723869D01*
X170751095Y-82521782D01*
X170654624Y-82332449D01*
X170615270Y-82278282D01*
X170615269Y-82278282D01*
X169982962Y-82910590D01*
X169965925Y-82847007D01*
X169900099Y-82732993D01*
X169807007Y-82639901D01*
X169692993Y-82574075D01*
X169629409Y-82557037D01*
X170261716Y-81924728D01*
X170207550Y-81885375D01*
X170013879Y-81786694D01*
X170014396Y-81785678D01*
X169964192Y-81745221D01*
X169942127Y-81678927D01*
X169959406Y-81611228D01*
X170010542Y-81563617D01*
X170066048Y-81550500D01*
X170369750Y-81550500D01*
X170369751Y-81550499D01*
X170384568Y-81547552D01*
X170428229Y-81538868D01*
X170428229Y-81538867D01*
X170428231Y-81538867D01*
X170494552Y-81494552D01*
X170538867Y-81428231D01*
X170538867Y-81428229D01*
X170538868Y-81428229D01*
X170550499Y-81369752D01*
X170550500Y-81369750D01*
X170550500Y-79630249D01*
X170550499Y-79630247D01*
X170538868Y-79571770D01*
X170538867Y-79571769D01*
X170494552Y-79505447D01*
X170428230Y-79461132D01*
X170428229Y-79461131D01*
X170369752Y-79449500D01*
X170369748Y-79449500D01*
X168630252Y-79449500D01*
X168630247Y-79449500D01*
X168571770Y-79461131D01*
X168571769Y-79461132D01*
X168505447Y-79505447D01*
X168461132Y-79571769D01*
X168461131Y-79571770D01*
X168449500Y-79630247D01*
X168449500Y-81369752D01*
X168461131Y-81428229D01*
X168461132Y-81428230D01*
X168505447Y-81494552D01*
X168571769Y-81538867D01*
X168571770Y-81538868D01*
X168630247Y-81550499D01*
X168630250Y-81550500D01*
X168933952Y-81550500D01*
X169000991Y-81570185D01*
X169046746Y-81622989D01*
X169056690Y-81692147D01*
X169027665Y-81755703D01*
X168985735Y-81785938D01*
X168986121Y-81786694D01*
X168792439Y-81885380D01*
X168738282Y-81924727D01*
X168738282Y-81924728D01*
X169370591Y-82557037D01*
X169307007Y-82574075D01*
X169192993Y-82639901D01*
X169099901Y-82732993D01*
X169034075Y-82847007D01*
X169017037Y-82910591D01*
X168384728Y-82278282D01*
X168384727Y-82278282D01*
X168345380Y-82332439D01*
X168248904Y-82521782D01*
X168183242Y-82723869D01*
X168183242Y-82723872D01*
X168150000Y-82933753D01*
X92500500Y-82933753D01*
X92500500Y-59162332D01*
X125899500Y-59162332D01*
X125899500Y-60937667D01*
X125899501Y-60937684D01*
X125935438Y-61210655D01*
X125935439Y-61210660D01*
X125935440Y-61210666D01*
X125935441Y-61210668D01*
X126006704Y-61476630D01*
X126112075Y-61731017D01*
X126112080Y-61731028D01*
X126194861Y-61874407D01*
X126249751Y-61969479D01*
X126249753Y-61969482D01*
X126249754Y-61969483D01*
X126417370Y-62187926D01*
X126417376Y-62187933D01*
X126612066Y-62382623D01*
X126612072Y-62382628D01*
X126830521Y-62550249D01*
X126983778Y-62638732D01*
X127068971Y-62687919D01*
X127068976Y-62687921D01*
X127068979Y-62687923D01*
X127323368Y-62793295D01*
X127589334Y-62864560D01*
X127862326Y-62900500D01*
X127862333Y-62900500D01*
X128137667Y-62900500D01*
X128137674Y-62900500D01*
X128410666Y-62864560D01*
X128676632Y-62793295D01*
X128931021Y-62687923D01*
X129169479Y-62550249D01*
X129387928Y-62382628D01*
X129582628Y-62187928D01*
X129750249Y-61969479D01*
X129887923Y-61731021D01*
X129993295Y-61476632D01*
X130064560Y-61210666D01*
X130100500Y-60937674D01*
X130100500Y-59162326D01*
X130064560Y-58889334D01*
X129993295Y-58623368D01*
X129887923Y-58368979D01*
X129887921Y-58368976D01*
X129887919Y-58368971D01*
X129838732Y-58283778D01*
X129750249Y-58130521D01*
X129582628Y-57912072D01*
X129582623Y-57912066D01*
X129387933Y-57717376D01*
X129387926Y-57717370D01*
X129169483Y-57549754D01*
X129169482Y-57549753D01*
X129169479Y-57549751D01*
X129074407Y-57494861D01*
X128931028Y-57412080D01*
X128931017Y-57412075D01*
X128676630Y-57306704D01*
X128543649Y-57271072D01*
X128410666Y-57235440D01*
X128410660Y-57235439D01*
X128410655Y-57235438D01*
X128137684Y-57199501D01*
X128137679Y-57199500D01*
X128137674Y-57199500D01*
X127862326Y-57199500D01*
X127862320Y-57199500D01*
X127862315Y-57199501D01*
X127589344Y-57235438D01*
X127589337Y-57235439D01*
X127589334Y-57235440D01*
X127533125Y-57250500D01*
X127323369Y-57306704D01*
X127068982Y-57412075D01*
X127068971Y-57412080D01*
X126830516Y-57549754D01*
X126612073Y-57717370D01*
X126612066Y-57717376D01*
X126417376Y-57912066D01*
X126417370Y-57912073D01*
X126249754Y-58130516D01*
X126112080Y-58368971D01*
X126112075Y-58368982D01*
X126006704Y-58623369D01*
X125935441Y-58889331D01*
X125935438Y-58889344D01*
X125899501Y-59162315D01*
X125899500Y-59162332D01*
X92500500Y-59162332D01*
X92500500Y-50893713D01*
X94149500Y-50893713D01*
X94149500Y-51106286D01*
X94162218Y-51186588D01*
X94182754Y-51316243D01*
X94239712Y-51491542D01*
X94248444Y-51518414D01*
X94344951Y-51707820D01*
X94469890Y-51879786D01*
X94620213Y-52030109D01*
X94792179Y-52155048D01*
X94792181Y-52155049D01*
X94792184Y-52155051D01*
X94981588Y-52251557D01*
X95183757Y-52317246D01*
X95393713Y-52350500D01*
X95393714Y-52350500D01*
X95606286Y-52350500D01*
X95606287Y-52350500D01*
X95816243Y-52317246D01*
X96018412Y-52251557D01*
X96100926Y-52209514D01*
X109665000Y-52209514D01*
X109665000Y-52445485D01*
X109695799Y-52679414D01*
X109756870Y-52907337D01*
X109847160Y-53125319D01*
X109847165Y-53125328D01*
X109965144Y-53329671D01*
X109965145Y-53329672D01*
X110027721Y-53411223D01*
X110863958Y-52574987D01*
X110888978Y-52635390D01*
X110960112Y-52741851D01*
X111050649Y-52832388D01*
X111157110Y-52903522D01*
X111217511Y-52928541D01*
X110381275Y-53764777D01*
X110462827Y-53827354D01*
X110462828Y-53827355D01*
X110667171Y-53945334D01*
X110667180Y-53945339D01*
X110885163Y-54035629D01*
X110885161Y-54035629D01*
X111113085Y-54096700D01*
X111347014Y-54127499D01*
X111347029Y-54127500D01*
X111582971Y-54127500D01*
X111582985Y-54127499D01*
X111816914Y-54096700D01*
X112044837Y-54035629D01*
X112262819Y-53945339D01*
X112262828Y-53945334D01*
X112467181Y-53827350D01*
X112548723Y-53764779D01*
X112548723Y-53764776D01*
X111712487Y-52928541D01*
X111772890Y-52903522D01*
X111879351Y-52832388D01*
X111969888Y-52741851D01*
X112041022Y-52635390D01*
X112066041Y-52574987D01*
X112902276Y-53411223D01*
X112902279Y-53411223D01*
X112964850Y-53329681D01*
X113082834Y-53125328D01*
X113082839Y-53125319D01*
X113173129Y-52907337D01*
X113234200Y-52679414D01*
X113264999Y-52445485D01*
X113265000Y-52445471D01*
X113265000Y-52209528D01*
X113264999Y-52209514D01*
X113234200Y-51975585D01*
X113173129Y-51747662D01*
X113082839Y-51529680D01*
X113082834Y-51529671D01*
X112964855Y-51325328D01*
X112964849Y-51325318D01*
X112942215Y-51295821D01*
X112942214Y-51295820D01*
X112902278Y-51243775D01*
X112902277Y-51243775D01*
X112066041Y-52080011D01*
X112041022Y-52019610D01*
X111969888Y-51913149D01*
X111879351Y-51822612D01*
X111772890Y-51751478D01*
X111712488Y-51726458D01*
X112215715Y-51223230D01*
X115044500Y-51223230D01*
X115044500Y-53431769D01*
X115047353Y-53462199D01*
X115047353Y-53462201D01*
X115092206Y-53590380D01*
X115092207Y-53590382D01*
X115172850Y-53699650D01*
X115282118Y-53780293D01*
X115324845Y-53795244D01*
X115410299Y-53825146D01*
X115440730Y-53828000D01*
X115440734Y-53828000D01*
X117649270Y-53828000D01*
X117679699Y-53825146D01*
X117679701Y-53825146D01*
X117743790Y-53802719D01*
X117807882Y-53780293D01*
X117917150Y-53699650D01*
X117997793Y-53590382D01*
X118036802Y-53478901D01*
X118042646Y-53462201D01*
X118042646Y-53462199D01*
X118045500Y-53431769D01*
X118045500Y-51223230D01*
X118042646Y-51192800D01*
X118042645Y-51192798D01*
X118009902Y-51099222D01*
X117997793Y-51064619D01*
X117997793Y-51064618D01*
X117996106Y-51062332D01*
X125899500Y-51062332D01*
X125899500Y-53037667D01*
X125899501Y-53037684D01*
X125935438Y-53310655D01*
X125935439Y-53310660D01*
X125935440Y-53310666D01*
X125967889Y-53431769D01*
X126006704Y-53576630D01*
X126112075Y-53831017D01*
X126112080Y-53831028D01*
X126194861Y-53974407D01*
X126249751Y-54069479D01*
X126249753Y-54069482D01*
X126249754Y-54069483D01*
X126417370Y-54287926D01*
X126417376Y-54287933D01*
X126612066Y-54482623D01*
X126612073Y-54482629D01*
X126740403Y-54581099D01*
X126830521Y-54650249D01*
X126983778Y-54738732D01*
X127068971Y-54787919D01*
X127068976Y-54787921D01*
X127068979Y-54787923D01*
X127323368Y-54893295D01*
X127589334Y-54964560D01*
X127862326Y-55000500D01*
X127862333Y-55000500D01*
X128137667Y-55000500D01*
X128137674Y-55000500D01*
X128410666Y-54964560D01*
X128676632Y-54893295D01*
X128931021Y-54787923D01*
X129169479Y-54650249D01*
X129387928Y-54482628D01*
X129582628Y-54287928D01*
X129684324Y-54155395D01*
X129726817Y-54100017D01*
X129735192Y-54089100D01*
X129750249Y-54069479D01*
X129887923Y-53831021D01*
X129993295Y-53576632D01*
X130064560Y-53310666D01*
X130100500Y-53037674D01*
X130100500Y-52746075D01*
X159400000Y-52746075D01*
X159400000Y-52968924D01*
X159429085Y-53189854D01*
X159429088Y-53189867D01*
X159486763Y-53405118D01*
X159572045Y-53611002D01*
X159572054Y-53611020D01*
X159683464Y-53803991D01*
X159683473Y-53804004D01*
X159734040Y-53869903D01*
X159734043Y-53869903D01*
X160384152Y-53219793D01*
X160391049Y-53236442D01*
X160478599Y-53367470D01*
X160590030Y-53478901D01*
X160721058Y-53566451D01*
X160737705Y-53573346D01*
X160087595Y-54223455D01*
X160087595Y-54223456D01*
X160153507Y-54274033D01*
X160346485Y-54385449D01*
X160346497Y-54385454D01*
X160552381Y-54470736D01*
X160767632Y-54528411D01*
X160767645Y-54528414D01*
X160988575Y-54557500D01*
X161211425Y-54557500D01*
X161432354Y-54528414D01*
X161432367Y-54528411D01*
X161647618Y-54470736D01*
X161853502Y-54385454D01*
X161853514Y-54385449D01*
X162046498Y-54274030D01*
X162112403Y-54223457D01*
X162112404Y-54223456D01*
X161462294Y-53573346D01*
X161478942Y-53566451D01*
X161609970Y-53478901D01*
X161721401Y-53367470D01*
X161808951Y-53236442D01*
X161815846Y-53219794D01*
X162465956Y-53869904D01*
X162465957Y-53869903D01*
X162516530Y-53803998D01*
X162627949Y-53611014D01*
X162627954Y-53611002D01*
X162713236Y-53405118D01*
X162770911Y-53189867D01*
X162770914Y-53189854D01*
X162800000Y-52968924D01*
X162800000Y-52747278D01*
X164779500Y-52747278D01*
X164779500Y-52967722D01*
X164781049Y-52977500D01*
X164813985Y-53185452D01*
X164882103Y-53395103D01*
X164882104Y-53395106D01*
X164924801Y-53478901D01*
X164981604Y-53590382D01*
X164982187Y-53591525D01*
X165111752Y-53769858D01*
X165111756Y-53769863D01*
X165267636Y-53925743D01*
X165267641Y-53925747D01*
X165418882Y-54035629D01*
X165445978Y-54055315D01*
X165527200Y-54096700D01*
X165642393Y-54155395D01*
X165642396Y-54155396D01*
X165747221Y-54189455D01*
X165852049Y-54223515D01*
X166069778Y-54258000D01*
X166069779Y-54258000D01*
X166290221Y-54258000D01*
X166290222Y-54258000D01*
X166507951Y-54223515D01*
X166717606Y-54155395D01*
X166914022Y-54055315D01*
X167092365Y-53925742D01*
X167248242Y-53769865D01*
X167377815Y-53591522D01*
X167477895Y-53395106D01*
X167546015Y-53185451D01*
X167580500Y-52967722D01*
X167580500Y-52747278D01*
X169859500Y-52747278D01*
X169859500Y-52967722D01*
X169861049Y-52977500D01*
X169893985Y-53185452D01*
X169962103Y-53395103D01*
X169962104Y-53395106D01*
X170004801Y-53478901D01*
X170061604Y-53590382D01*
X170062187Y-53591525D01*
X170191752Y-53769858D01*
X170191756Y-53769863D01*
X170347636Y-53925743D01*
X170347641Y-53925747D01*
X170498882Y-54035629D01*
X170525978Y-54055315D01*
X170607200Y-54096700D01*
X170722393Y-54155395D01*
X170722396Y-54155396D01*
X170827221Y-54189455D01*
X170932049Y-54223515D01*
X171149778Y-54258000D01*
X171149779Y-54258000D01*
X171370221Y-54258000D01*
X171370222Y-54258000D01*
X171587951Y-54223515D01*
X171797606Y-54155395D01*
X171994022Y-54055315D01*
X172172365Y-53925742D01*
X172328242Y-53769865D01*
X172457815Y-53591522D01*
X172557895Y-53395106D01*
X172626015Y-53185451D01*
X172660500Y-52967722D01*
X172660500Y-52747278D01*
X174939500Y-52747278D01*
X174939500Y-52967722D01*
X174941049Y-52977500D01*
X174973985Y-53185452D01*
X175042103Y-53395103D01*
X175042104Y-53395106D01*
X175084801Y-53478901D01*
X175141604Y-53590382D01*
X175142187Y-53591525D01*
X175271752Y-53769858D01*
X175271756Y-53769863D01*
X175427636Y-53925743D01*
X175427641Y-53925747D01*
X175578882Y-54035629D01*
X175605978Y-54055315D01*
X175687200Y-54096700D01*
X175802393Y-54155395D01*
X175802396Y-54155396D01*
X175907221Y-54189455D01*
X176012049Y-54223515D01*
X176229778Y-54258000D01*
X176229779Y-54258000D01*
X176450221Y-54258000D01*
X176450222Y-54258000D01*
X176667951Y-54223515D01*
X176877606Y-54155395D01*
X177074022Y-54055315D01*
X177252365Y-53925742D01*
X177408242Y-53769865D01*
X177537815Y-53591522D01*
X177637895Y-53395106D01*
X177706015Y-53185451D01*
X177740500Y-52967722D01*
X177740500Y-52747278D01*
X180019500Y-52747278D01*
X180019500Y-52967722D01*
X180021049Y-52977500D01*
X180053985Y-53185452D01*
X180122103Y-53395103D01*
X180122104Y-53395106D01*
X180164801Y-53478901D01*
X180221604Y-53590382D01*
X180222187Y-53591525D01*
X180351752Y-53769858D01*
X180351756Y-53769863D01*
X180507636Y-53925743D01*
X180507641Y-53925747D01*
X180658882Y-54035629D01*
X180685978Y-54055315D01*
X180767200Y-54096700D01*
X180882393Y-54155395D01*
X180882396Y-54155396D01*
X180987221Y-54189455D01*
X181092049Y-54223515D01*
X181309778Y-54258000D01*
X181309779Y-54258000D01*
X181530221Y-54258000D01*
X181530222Y-54258000D01*
X181747951Y-54223515D01*
X181957606Y-54155395D01*
X182154022Y-54055315D01*
X182332365Y-53925742D01*
X182488242Y-53769865D01*
X182617815Y-53591522D01*
X182717895Y-53395106D01*
X182786015Y-53185451D01*
X182820500Y-52967722D01*
X182820500Y-52747278D01*
X182786015Y-52529549D01*
X182741167Y-52391519D01*
X182717896Y-52319896D01*
X182717895Y-52319893D01*
X182633902Y-52155051D01*
X182617815Y-52123478D01*
X182592215Y-52088243D01*
X182488247Y-51945141D01*
X182488243Y-51945136D01*
X182396338Y-51853231D01*
X185099500Y-51853231D01*
X185099500Y-53861758D01*
X185102354Y-53892198D01*
X185102354Y-53892199D01*
X185147206Y-54020381D01*
X185147207Y-54020382D01*
X185227850Y-54129650D01*
X185337118Y-54210293D01*
X185465302Y-54255146D01*
X185465301Y-54255146D01*
X185469271Y-54255518D01*
X185495735Y-54258000D01*
X187504264Y-54257999D01*
X187534698Y-54255146D01*
X187662882Y-54210293D01*
X187772150Y-54129650D01*
X187852793Y-54020382D01*
X187897646Y-53892198D01*
X187900500Y-53861765D01*
X187900499Y-52209514D01*
X191665000Y-52209514D01*
X191665000Y-52445485D01*
X191695799Y-52679414D01*
X191756870Y-52907337D01*
X191847160Y-53125319D01*
X191847165Y-53125328D01*
X191965144Y-53329671D01*
X191965145Y-53329672D01*
X192027721Y-53411223D01*
X192863958Y-52574987D01*
X192888978Y-52635390D01*
X192960112Y-52741851D01*
X193050649Y-52832388D01*
X193157110Y-52903522D01*
X193217511Y-52928541D01*
X192381275Y-53764777D01*
X192462827Y-53827354D01*
X192462828Y-53827355D01*
X192667171Y-53945334D01*
X192667180Y-53945339D01*
X192885163Y-54035629D01*
X192885161Y-54035629D01*
X193113085Y-54096700D01*
X193347014Y-54127499D01*
X193347029Y-54127500D01*
X193582971Y-54127500D01*
X193582985Y-54127499D01*
X193816914Y-54096700D01*
X194044837Y-54035629D01*
X194262819Y-53945339D01*
X194262828Y-53945334D01*
X194467181Y-53827350D01*
X194548723Y-53764779D01*
X194548723Y-53764776D01*
X193712487Y-52928541D01*
X193772890Y-52903522D01*
X193879351Y-52832388D01*
X193969888Y-52741851D01*
X194041022Y-52635390D01*
X194066041Y-52574988D01*
X194902276Y-53411223D01*
X194902279Y-53411223D01*
X194964850Y-53329681D01*
X195082834Y-53125328D01*
X195082839Y-53125319D01*
X195173129Y-52907337D01*
X195234200Y-52679414D01*
X195264999Y-52445485D01*
X195265000Y-52445471D01*
X195265000Y-52209528D01*
X195264999Y-52209514D01*
X195234200Y-51975585D01*
X195173129Y-51747662D01*
X195082839Y-51529680D01*
X195082834Y-51529671D01*
X194964855Y-51325328D01*
X194964849Y-51325318D01*
X194942215Y-51295821D01*
X194942214Y-51295820D01*
X194902278Y-51243775D01*
X194902277Y-51243775D01*
X194066041Y-52080011D01*
X194041022Y-52019610D01*
X193969888Y-51913149D01*
X193879351Y-51822612D01*
X193772890Y-51751478D01*
X193712488Y-51726458D01*
X194215715Y-51223230D01*
X197044500Y-51223230D01*
X197044500Y-53431769D01*
X197047353Y-53462199D01*
X197047353Y-53462201D01*
X197092206Y-53590380D01*
X197092207Y-53590382D01*
X197172850Y-53699650D01*
X197282118Y-53780293D01*
X197324845Y-53795244D01*
X197410299Y-53825146D01*
X197440730Y-53828000D01*
X197440734Y-53828000D01*
X199649270Y-53828000D01*
X199679699Y-53825146D01*
X199679701Y-53825146D01*
X199743790Y-53802719D01*
X199807882Y-53780293D01*
X199917150Y-53699650D01*
X199997793Y-53590382D01*
X200036802Y-53478901D01*
X200042646Y-53462201D01*
X200042646Y-53462199D01*
X200045500Y-53431769D01*
X200045500Y-51223230D01*
X200042646Y-51192800D01*
X200042646Y-51192798D01*
X199997793Y-51064619D01*
X199997792Y-51064617D01*
X199963693Y-51018414D01*
X199917150Y-50955350D01*
X199807882Y-50874707D01*
X199807880Y-50874706D01*
X199679700Y-50829853D01*
X199649270Y-50827000D01*
X199649266Y-50827000D01*
X197440734Y-50827000D01*
X197440730Y-50827000D01*
X197410300Y-50829853D01*
X197410298Y-50829853D01*
X197282119Y-50874706D01*
X197282117Y-50874707D01*
X197172850Y-50955350D01*
X197092207Y-51064617D01*
X197092206Y-51064619D01*
X197047353Y-51192798D01*
X197047353Y-51192800D01*
X197044500Y-51223230D01*
X194215715Y-51223230D01*
X194548723Y-50890221D01*
X194467172Y-50827645D01*
X194467171Y-50827644D01*
X194262828Y-50709665D01*
X194262819Y-50709660D01*
X194044836Y-50619370D01*
X194044838Y-50619370D01*
X193816914Y-50558299D01*
X193582985Y-50527500D01*
X193347014Y-50527500D01*
X193113085Y-50558299D01*
X192885162Y-50619370D01*
X192667180Y-50709660D01*
X192667171Y-50709665D01*
X192462828Y-50827644D01*
X192462818Y-50827650D01*
X192381275Y-50890220D01*
X192381275Y-50890221D01*
X193217512Y-51726458D01*
X193157110Y-51751478D01*
X193050649Y-51822612D01*
X192960112Y-51913149D01*
X192888978Y-52019610D01*
X192863958Y-52080011D01*
X192027721Y-51243775D01*
X192027720Y-51243775D01*
X191965150Y-51325318D01*
X191965144Y-51325328D01*
X191847165Y-51529671D01*
X191847160Y-51529680D01*
X191756870Y-51747662D01*
X191695799Y-51975585D01*
X191665000Y-52209514D01*
X187900499Y-52209514D01*
X187900499Y-51853236D01*
X187897646Y-51822802D01*
X187852793Y-51694618D01*
X187772150Y-51585350D01*
X187691506Y-51525832D01*
X187662881Y-51504706D01*
X187534695Y-51459853D01*
X187534698Y-51459853D01*
X187504268Y-51457000D01*
X185495741Y-51457000D01*
X185465301Y-51459854D01*
X185465300Y-51459854D01*
X185337118Y-51504706D01*
X185227850Y-51585350D01*
X185147206Y-51694618D01*
X185102353Y-51822802D01*
X185099500Y-51853231D01*
X182396338Y-51853231D01*
X182332363Y-51789256D01*
X182332358Y-51789252D01*
X182154025Y-51659687D01*
X182154024Y-51659686D01*
X182154022Y-51659685D01*
X182091096Y-51627622D01*
X181957606Y-51559604D01*
X181957603Y-51559603D01*
X181747952Y-51491485D01*
X181548241Y-51459854D01*
X181530222Y-51457000D01*
X181309778Y-51457000D01*
X181291759Y-51459854D01*
X181092047Y-51491485D01*
X180882396Y-51559603D01*
X180882393Y-51559604D01*
X180685974Y-51659687D01*
X180507641Y-51789252D01*
X180507636Y-51789256D01*
X180351756Y-51945136D01*
X180351752Y-51945141D01*
X180222187Y-52123474D01*
X180122104Y-52319893D01*
X180122103Y-52319896D01*
X180053985Y-52529547D01*
X180053985Y-52529549D01*
X180019500Y-52747278D01*
X177740500Y-52747278D01*
X177706015Y-52529549D01*
X177661167Y-52391519D01*
X177637896Y-52319896D01*
X177637895Y-52319893D01*
X177553902Y-52155051D01*
X177537815Y-52123478D01*
X177512215Y-52088243D01*
X177408247Y-51945141D01*
X177408243Y-51945136D01*
X177252363Y-51789256D01*
X177252358Y-51789252D01*
X177074025Y-51659687D01*
X177074024Y-51659686D01*
X177074022Y-51659685D01*
X177011096Y-51627622D01*
X176877606Y-51559604D01*
X176877603Y-51559603D01*
X176667952Y-51491485D01*
X176468241Y-51459854D01*
X176450222Y-51457000D01*
X176229778Y-51457000D01*
X176211759Y-51459854D01*
X176012047Y-51491485D01*
X175802396Y-51559603D01*
X175802393Y-51559604D01*
X175605974Y-51659687D01*
X175427641Y-51789252D01*
X175427636Y-51789256D01*
X175271756Y-51945136D01*
X175271752Y-51945141D01*
X175142187Y-52123474D01*
X175042104Y-52319893D01*
X175042103Y-52319896D01*
X174973985Y-52529547D01*
X174973985Y-52529549D01*
X174939500Y-52747278D01*
X172660500Y-52747278D01*
X172626015Y-52529549D01*
X172581167Y-52391519D01*
X172557896Y-52319896D01*
X172557895Y-52319893D01*
X172473902Y-52155051D01*
X172457815Y-52123478D01*
X172432215Y-52088243D01*
X172328247Y-51945141D01*
X172328243Y-51945136D01*
X172172363Y-51789256D01*
X172172358Y-51789252D01*
X171994025Y-51659687D01*
X171994024Y-51659686D01*
X171994022Y-51659685D01*
X171931096Y-51627622D01*
X171797606Y-51559604D01*
X171797603Y-51559603D01*
X171587952Y-51491485D01*
X171388241Y-51459854D01*
X171370222Y-51457000D01*
X171149778Y-51457000D01*
X171131759Y-51459854D01*
X170932047Y-51491485D01*
X170722396Y-51559603D01*
X170722393Y-51559604D01*
X170525974Y-51659687D01*
X170347641Y-51789252D01*
X170347636Y-51789256D01*
X170191756Y-51945136D01*
X170191752Y-51945141D01*
X170062187Y-52123474D01*
X169962104Y-52319893D01*
X169962103Y-52319896D01*
X169893985Y-52529547D01*
X169893985Y-52529549D01*
X169859500Y-52747278D01*
X167580500Y-52747278D01*
X167546015Y-52529549D01*
X167501167Y-52391519D01*
X167477896Y-52319896D01*
X167477895Y-52319893D01*
X167393902Y-52155051D01*
X167377815Y-52123478D01*
X167352215Y-52088243D01*
X167248247Y-51945141D01*
X167248243Y-51945136D01*
X167092363Y-51789256D01*
X167092358Y-51789252D01*
X166914025Y-51659687D01*
X166914024Y-51659686D01*
X166914022Y-51659685D01*
X166851096Y-51627622D01*
X166717606Y-51559604D01*
X166717603Y-51559603D01*
X166507952Y-51491485D01*
X166308241Y-51459854D01*
X166290222Y-51457000D01*
X166069778Y-51457000D01*
X166051759Y-51459854D01*
X165852047Y-51491485D01*
X165642396Y-51559603D01*
X165642393Y-51559604D01*
X165445974Y-51659687D01*
X165267641Y-51789252D01*
X165267636Y-51789256D01*
X165111756Y-51945136D01*
X165111752Y-51945141D01*
X164982187Y-52123474D01*
X164882104Y-52319893D01*
X164882103Y-52319896D01*
X164813985Y-52529547D01*
X164813985Y-52529549D01*
X164779500Y-52747278D01*
X162800000Y-52747278D01*
X162800000Y-52746075D01*
X162770914Y-52525145D01*
X162770911Y-52525132D01*
X162713236Y-52309881D01*
X162627954Y-52103997D01*
X162627949Y-52103985D01*
X162516533Y-51911007D01*
X162465956Y-51845095D01*
X162465955Y-51845095D01*
X161815846Y-52495204D01*
X161808951Y-52478558D01*
X161721401Y-52347530D01*
X161609970Y-52236099D01*
X161478942Y-52148549D01*
X161462293Y-52141652D01*
X162112403Y-51491543D01*
X162112403Y-51491540D01*
X162046504Y-51440973D01*
X162046491Y-51440964D01*
X161853520Y-51329554D01*
X161853502Y-51329545D01*
X161647618Y-51244263D01*
X161432367Y-51186588D01*
X161432354Y-51186585D01*
X161211425Y-51157500D01*
X160988575Y-51157500D01*
X160767645Y-51186585D01*
X160767632Y-51186588D01*
X160552381Y-51244263D01*
X160346497Y-51329545D01*
X160346479Y-51329554D01*
X160153511Y-51440962D01*
X160087595Y-51491542D01*
X160737706Y-52141652D01*
X160721058Y-52148549D01*
X160590030Y-52236099D01*
X160478599Y-52347530D01*
X160391049Y-52478558D01*
X160384153Y-52495206D01*
X159734042Y-51845095D01*
X159683462Y-51911011D01*
X159572054Y-52103979D01*
X159572045Y-52103997D01*
X159486763Y-52309881D01*
X159429088Y-52525132D01*
X159429085Y-52525145D01*
X159400000Y-52746075D01*
X130100500Y-52746075D01*
X130100500Y-51062326D01*
X130064560Y-50789334D01*
X129993295Y-50523368D01*
X129939590Y-50393713D01*
X204149500Y-50393713D01*
X204149500Y-50606286D01*
X204178493Y-50789344D01*
X204182754Y-50816243D01*
X204201750Y-50874707D01*
X204248444Y-51018414D01*
X204344951Y-51207820D01*
X204469890Y-51379786D01*
X204620213Y-51530109D01*
X204792179Y-51655048D01*
X204792181Y-51655049D01*
X204792184Y-51655051D01*
X204981588Y-51751557D01*
X205183757Y-51817246D01*
X205393713Y-51850500D01*
X205393714Y-51850500D01*
X205606286Y-51850500D01*
X205606287Y-51850500D01*
X205816243Y-51817246D01*
X206018412Y-51751557D01*
X206207816Y-51655051D01*
X206303752Y-51585350D01*
X206379786Y-51530109D01*
X206379788Y-51530106D01*
X206379792Y-51530104D01*
X206530104Y-51379792D01*
X206530106Y-51379788D01*
X206530109Y-51379786D01*
X206655048Y-51207820D01*
X206655047Y-51207820D01*
X206655051Y-51207816D01*
X206751557Y-51018412D01*
X206817246Y-50816243D01*
X206850500Y-50606287D01*
X206850500Y-50393713D01*
X206817246Y-50183757D01*
X206751557Y-49981588D01*
X206655051Y-49792184D01*
X206655049Y-49792181D01*
X206655048Y-49792179D01*
X206530109Y-49620213D01*
X206379786Y-49469890D01*
X206207820Y-49344951D01*
X206018414Y-49248444D01*
X206018413Y-49248443D01*
X206018412Y-49248443D01*
X205816243Y-49182754D01*
X205816241Y-49182753D01*
X205816240Y-49182753D01*
X205654957Y-49157208D01*
X205606287Y-49149500D01*
X205393713Y-49149500D01*
X205345042Y-49157208D01*
X205183760Y-49182753D01*
X204981585Y-49248444D01*
X204792179Y-49344951D01*
X204620213Y-49469890D01*
X204469890Y-49620213D01*
X204344951Y-49792179D01*
X204248444Y-49981585D01*
X204182753Y-50183760D01*
X204149500Y-50393713D01*
X129939590Y-50393713D01*
X129887923Y-50268979D01*
X129887921Y-50268976D01*
X129887919Y-50268971D01*
X129838720Y-50183757D01*
X129750249Y-50030521D01*
X129582628Y-49812072D01*
X129582623Y-49812066D01*
X129387933Y-49617376D01*
X129387926Y-49617370D01*
X129169483Y-49449754D01*
X129169482Y-49449753D01*
X129169479Y-49449751D01*
X129074407Y-49394861D01*
X128931028Y-49312080D01*
X128931017Y-49312075D01*
X128676630Y-49206704D01*
X128543649Y-49171072D01*
X128410666Y-49135440D01*
X128410660Y-49135439D01*
X128410655Y-49135438D01*
X128137684Y-49099501D01*
X128137679Y-49099500D01*
X128137674Y-49099500D01*
X127862326Y-49099500D01*
X127862320Y-49099500D01*
X127862315Y-49099501D01*
X127589344Y-49135438D01*
X127589337Y-49135439D01*
X127589334Y-49135440D01*
X127536861Y-49149500D01*
X127323369Y-49206704D01*
X127068982Y-49312075D01*
X127068971Y-49312080D01*
X126830516Y-49449754D01*
X126612073Y-49617370D01*
X126612066Y-49617376D01*
X126417376Y-49812066D01*
X126417370Y-49812073D01*
X126249754Y-50030516D01*
X126112080Y-50268971D01*
X126112075Y-50268982D01*
X126006704Y-50523369D01*
X125935441Y-50789331D01*
X125935438Y-50789344D01*
X125899501Y-51062315D01*
X125899500Y-51062332D01*
X117996106Y-51062332D01*
X117917150Y-50955350D01*
X117807882Y-50874707D01*
X117807880Y-50874706D01*
X117679700Y-50829853D01*
X117649270Y-50827000D01*
X117649266Y-50827000D01*
X115440734Y-50827000D01*
X115440730Y-50827000D01*
X115410300Y-50829853D01*
X115410298Y-50829853D01*
X115282119Y-50874706D01*
X115282117Y-50874707D01*
X115172850Y-50955350D01*
X115092207Y-51064617D01*
X115092206Y-51064619D01*
X115047353Y-51192798D01*
X115047353Y-51192800D01*
X115044500Y-51223230D01*
X112215715Y-51223230D01*
X112548723Y-50890221D01*
X112467172Y-50827645D01*
X112467171Y-50827644D01*
X112262828Y-50709665D01*
X112262819Y-50709660D01*
X112044836Y-50619370D01*
X112044838Y-50619370D01*
X111816914Y-50558299D01*
X111582985Y-50527500D01*
X111347014Y-50527500D01*
X111113085Y-50558299D01*
X110885162Y-50619370D01*
X110667180Y-50709660D01*
X110667171Y-50709665D01*
X110462828Y-50827644D01*
X110462818Y-50827650D01*
X110381275Y-50890220D01*
X110381275Y-50890221D01*
X111217512Y-51726458D01*
X111157110Y-51751478D01*
X111050649Y-51822612D01*
X110960112Y-51913149D01*
X110888978Y-52019610D01*
X110863958Y-52080011D01*
X110027721Y-51243775D01*
X110027720Y-51243775D01*
X109965150Y-51325318D01*
X109965144Y-51325328D01*
X109847165Y-51529671D01*
X109847160Y-51529680D01*
X109756870Y-51747662D01*
X109695799Y-51975585D01*
X109665000Y-52209514D01*
X96100926Y-52209514D01*
X96207816Y-52155051D01*
X96379792Y-52030104D01*
X96530104Y-51879792D01*
X96530106Y-51879788D01*
X96530109Y-51879786D01*
X96655048Y-51707820D01*
X96655047Y-51707820D01*
X96655051Y-51707816D01*
X96751557Y-51518412D01*
X96817246Y-51316243D01*
X96850500Y-51106287D01*
X96850500Y-50893713D01*
X96817246Y-50683757D01*
X96751557Y-50481588D01*
X96655051Y-50292184D01*
X96655049Y-50292181D01*
X96655048Y-50292179D01*
X96530109Y-50120213D01*
X96379786Y-49969890D01*
X96207820Y-49844951D01*
X96018414Y-49748444D01*
X96018413Y-49748443D01*
X96018412Y-49748443D01*
X95816243Y-49682754D01*
X95816241Y-49682753D01*
X95816240Y-49682753D01*
X95654957Y-49657208D01*
X95606287Y-49649500D01*
X95393713Y-49649500D01*
X95345042Y-49657208D01*
X95183760Y-49682753D01*
X94981585Y-49748444D01*
X94792179Y-49844951D01*
X94620213Y-49969890D01*
X94469890Y-50120213D01*
X94344951Y-50292179D01*
X94248444Y-50481585D01*
X94182753Y-50683760D01*
X94149500Y-50893713D01*
X92500500Y-50893713D01*
X92500500Y-46624500D01*
X92520185Y-46557461D01*
X92572989Y-46511706D01*
X92624500Y-46500500D01*
X207375500Y-46500500D01*
X207442539Y-46520185D01*
G37*
%TD.AperFunction*%
%TD*%
M02*
