M48
; DRILL file KiCad 10.0.1 date 2026-06-12T15:25:33
; FORMAT={-:-/ absolute / inch / decimal}
; #@! TF.CreationDate,2026-06-12T15:25:33-07:00
; #@! TF.GenerationSoftware,Kicad,Pcbnew,10.0.1
; #@! TF.FileFunction,Plated,1,2,PTH
FMAT,2
INCH
; #@! TA.AperFunction,Plated,PTH,ComponentDrill
T1C0.0118
; #@! TA.AperFunction,Plated,PTH,ViaDrill
T2C0.0157
; #@! TA.AperFunction,Plated,PTH,ViaDrill
T3C0.0197
; #@! TA.AperFunction,Plated,PTH,ComponentDrill
T4C0.0236
; #@! TA.AperFunction,Plated,PTH,ComponentDrill
T5C0.0315
; #@! TA.AperFunction,Plated,PTH,ComponentDrill
T6C0.0354
; #@! TA.AperFunction,Plated,PTH,ComponentDrill
T7C0.0394
; #@! TA.AperFunction,Plated,PTH,ComponentDrill
T8C0.0433
; #@! TA.AperFunction,Plated,PTH,ComponentDrill
T9C0.0512
%
G90
G05
T1
X5.5175Y-5.2655
X5.5175Y-5.3166
X5.5175Y-5.3678
X5.5927Y-5.2655
X5.5927Y-5.3166
X5.5927Y-5.3678
X7.4724Y-2.7244
X7.4724Y-2.7795
X7.5Y-2.6969
X7.5Y-2.752
X7.5Y-2.8071
X7.5266Y-2.7244
X7.5266Y-2.7795
X7.5551Y-2.6969
X7.5551Y-2.752
X7.5551Y-2.8071
X7.5827Y-2.7244
X7.5827Y-2.7795
T2
X4.5472Y-1.7362
X4.5472Y-2.3071
X4.7416Y-2.8957
X4.7416Y-3.6043
X4.7416Y-4.2933
X4.9429Y-5.6078
X5.6594Y-5.3916
X6.0039Y-3.3661
X6.5354Y-3.4449
X6.9094Y-2.8346
X6.9094Y-3.2283
X7.2421Y-2.448
X7.2933Y-5.7659
X7.3618Y-3.1472
X7.3701Y-5.6693
X7.4606Y-5.6693
X7.5492Y-5.7659
X7.7362Y-3.7992
X7.7362Y-4.8228
X7.9134Y-3.7992
X7.9311Y-2.448
T3
X6.0039Y-3.937
X6.3189Y-4.0551
X6.9488Y-4.252
X7.7362Y-4.252
T5
X4.4685Y-4.9878
X4.4685Y-5.2878
X4.4685Y-5.4406
X4.4685Y-5.7406
X4.6335Y-5.2756
X4.6531Y-5.7283
X4.6654Y-5.0
X4.6654Y-5.4724
X4.7909Y-2.1063
X4.7909Y-2.3031
X4.7909Y-2.5
X4.7909Y-2.6969
X4.7984Y-1.9094
X4.8031Y-3.2892
X4.8031Y-3.486
X4.8106Y-1.7126
X4.8622Y-5.0
X4.8622Y-5.4724
X4.8697Y-2.9331
X4.8697Y-3.1102
X4.8697Y-3.622
X4.8697Y-3.7992
X4.8894Y-4.311
X4.8894Y-4.5079
X4.9335Y-5.2756
X4.9531Y-5.7283
X4.9606Y-3.3876
X5.0909Y-2.1063
X5.0909Y-2.3031
X5.0909Y-2.5
X5.0909Y-2.6969
X5.0984Y-1.9094
X5.1106Y-1.7126
X5.1575Y-3.3876
X5.1697Y-2.9331
X5.1697Y-3.1102
X5.1697Y-3.622
X5.1697Y-3.7992
X5.1894Y-4.311
X5.1894Y-4.5079
X5.2148Y-5.6818
X5.2559Y-5.2487
X5.2559Y-5.4456
X5.2935Y-5.6818
X5.2953Y-1.9094
X5.2953Y-2.1063
X5.2953Y-2.5
X5.2953Y-2.6969
X5.2953Y-4.8428
X5.2953Y-5.1428
X5.3543Y-3.2856
X5.3543Y-3.3644
X5.4921Y-4.8428
X5.4921Y-5.1428
X5.5906Y-4.0193
X5.5906Y-4.098
X5.689Y-4.8428
X5.689Y-5.1428
X5.7677Y-2.9331
X5.7677Y-3.1299
X5.8661Y-5.4456
X5.8661Y-5.544
X5.8736Y-5.0519
X5.8736Y-5.2487
X5.8858Y-3.5526
X5.8858Y-3.8526
X5.8858Y-4.0175
X5.8858Y-4.0963
X5.913Y-3.3876
X5.9646Y-2.962
X5.9646Y-3.262
X6.0827Y-3.5526
X6.0827Y-3.8526
X6.1614Y-3.1907
X6.1736Y-5.0519
X6.1736Y-5.2487
X6.213Y-3.3876
X6.2205Y-5.4456
X6.2205Y-5.544
X6.3386Y-2.7559
X6.3583Y-3.1907
X6.5354Y-2.7559
X6.7004Y-2.7756
X6.7697Y-2.4512
X6.7697Y-2.648
X7.0004Y-2.7756
X7.0059Y-2.4888
X7.0059Y-2.5675
X7.0669Y-4.7441
X7.0669Y-4.9409
X7.126Y-3.2949
X7.126Y-3.5949
X7.2638Y-4.7441
X7.2638Y-4.9409
X7.2638Y-5.2634
X7.2638Y-5.5634
X7.2909Y-5.1378
X7.4016Y-4.9016
X7.4803Y-4.9016
X7.5591Y-5.2634
X7.5591Y-5.5634
X7.5862Y-3.7008
X7.5909Y-5.1378
X7.7559Y-4.5594
X7.8862Y-3.7008
X7.9528Y-4.2717
X8.0118Y-3.2555
X8.0118Y-3.5555
X8.0559Y-4.5594
X8.2528Y-4.2717
X8.6614Y-5.8661
X8.8583Y-5.8661
X9.0748Y-5.8661
X9.0823Y-3.0315
X9.102Y-1.9488
X9.102Y-2.3228
X9.102Y-2.6772
X9.2126Y-5.8661
X9.3823Y-3.0315
X9.402Y-1.9488
X9.402Y-2.3228
X9.402Y-2.6772
T6
X9.6943Y-1.9291
X9.6943Y-2.3031
X9.6943Y-2.6575
X9.6943Y-3.0315
X9.7943Y-1.9291
X9.7943Y-2.3031
X9.7943Y-2.6575
X9.7943Y-3.0315
T7
X8.5566Y-3.8203
X8.5566Y-5.2203
X8.6566Y-3.8203
X8.6566Y-5.2203
X8.7566Y-3.8203
X8.7566Y-5.2203
X8.8566Y-3.8203
X8.8566Y-5.2203
X8.9566Y-3.8203
X8.9566Y-5.2203
X9.0566Y-3.8203
X9.0566Y-5.2203
X9.1566Y-3.8203
X9.1566Y-5.2203
X9.2566Y-3.8203
X9.2566Y-5.2203
X9.3566Y-3.8203
X9.3566Y-5.2203
X9.4566Y-3.8203
X9.4566Y-5.2203
X9.5566Y-3.8203
X9.5566Y-5.2203
X9.6566Y-3.8203
X9.6566Y-5.2203
X9.7566Y-3.8203
X9.7566Y-5.2203
T8
X6.2697Y-2.4311
X6.2697Y-2.6083
X6.5256Y-2.4311
X6.5256Y-2.6083
X8.1988Y-3.2776
X8.1988Y-3.5335
X8.376Y-3.2776
X8.376Y-3.5335
T9
X4.1271Y-1.9094
X4.1271Y-2.1063
X4.1271Y-2.4213
X4.1271Y-2.6181
X4.1271Y-2.9331
X4.1271Y-3.1299
X4.1271Y-3.3268
X4.1271Y-4.3504
X4.1271Y-4.5472
X4.1271Y-4.7441
X4.1339Y-3.6417
X4.1339Y-3.8386
X4.1339Y-4.0354
X4.1339Y-5.0591
X4.1339Y-5.2559
X4.1339Y-5.4528
X4.1339Y-5.6496
X5.5512Y-3.6041
X5.5512Y-3.801
X5.5709Y-5.5834
X5.5709Y-5.7802
T4
G00X7.2512Y-5.7803
M15
G01X7.2512Y-5.8236
M16
G05
G00X7.2512Y-5.9547
M15
G01X7.2512Y-5.9783
M16
G05
G00X7.5913Y-5.7803
M15
G01X7.5913Y-5.8236
M16
G05
G00X7.5913Y-5.9547
M15
G01X7.5913Y-5.9783
M16
G05
M30
