%TF.GenerationSoftware,KiCad,Pcbnew,10.0.1*%
%TF.CreationDate,2026-05-28T23:20:21-07:00*%
%TF.ProjectId,Jeep_Embedded_Controls_Main,4a656570-5f45-46d6-9265-646465645f43,Initial Design*%
%TF.SameCoordinates,Original*%
%TF.FileFunction,Paste,Top*%
%TF.FilePolarity,Positive*%
%FSLAX46Y46*%
G04 Gerber Fmt 4.6, Leading zero omitted, Abs format (unit mm)*
G04 Created by KiCad (PCBNEW 10.0.1) date 2026-05-28 23:20:21*
%MOMM*%
%LPD*%
G01*
G04 APERTURE LIST*
G04 Aperture macros list*
%AMRoundRect*
0 Rectangle with rounded corners*
0 $1 Rounding radius*
0 $2 $3 $4 $5 $6 $7 $8 $9 X,Y pos of 4 corners*
0 Add a 4 corners polygon primitive as box body*
4,1,4,$2,$3,$4,$5,$6,$7,$8,$9,$2,$3,0*
0 Add four circle primitives for the rounded corners*
1,1,$1+$1,$2,$3*
1,1,$1+$1,$4,$5*
1,1,$1+$1,$6,$7*
1,1,$1+$1,$8,$9*
0 Add four rect primitives between the rounded corners*
20,1,$1+$1,$2,$3,$4,$5,0*
20,1,$1+$1,$4,$5,$6,$7,0*
20,1,$1+$1,$6,$7,$8,$9,0*
20,1,$1+$1,$8,$9,$2,$3,0*%
G04 Aperture macros list end*
%ADD10RoundRect,0.250000X-0.262500X-0.450000X0.262500X-0.450000X0.262500X0.450000X-0.262500X0.450000X0*%
%ADD11RoundRect,0.243750X0.243750X0.456250X-0.243750X0.456250X-0.243750X-0.456250X0.243750X-0.456250X0*%
%ADD12RoundRect,0.250000X0.450000X-0.262500X0.450000X0.262500X-0.450000X0.262500X-0.450000X-0.262500X0*%
%ADD13RoundRect,0.250000X0.262500X0.450000X-0.262500X0.450000X-0.262500X-0.450000X0.262500X-0.450000X0*%
%ADD14RoundRect,0.250000X-0.650000X1.000000X-0.650000X-1.000000X0.650000X-1.000000X0.650000X1.000000X0*%
%ADD15RoundRect,0.250000X-1.000000X-0.650000X1.000000X-0.650000X1.000000X0.650000X-1.000000X0.650000X0*%
%ADD16RoundRect,0.250000X0.250000X0.475000X-0.250000X0.475000X-0.250000X-0.475000X0.250000X-0.475000X0*%
%ADD17RoundRect,0.250000X-0.250000X-0.475000X0.250000X-0.475000X0.250000X0.475000X-0.250000X0.475000X0*%
%ADD18RoundRect,0.250000X0.475000X-0.250000X0.475000X0.250000X-0.475000X0.250000X-0.475000X-0.250000X0*%
%ADD19RoundRect,0.243750X0.456250X-0.243750X0.456250X0.243750X-0.456250X0.243750X-0.456250X-0.243750X0*%
%ADD20R,3.098800X5.003800*%
%ADD21R,1.422400X0.355600*%
%ADD22R,3.149600X4.343400*%
%ADD23R,2.184400X2.184400*%
%ADD24R,1.981200X0.558800*%
%ADD25R,1.612900X2.692400*%
%ADD26RoundRect,0.243750X-0.243750X-0.456250X0.243750X-0.456250X0.243750X0.456250X-0.243750X0.456250X0*%
%ADD27RoundRect,0.250000X0.550000X-1.412500X0.550000X1.412500X-0.550000X1.412500X-0.550000X-1.412500X0*%
%ADD28R,0.622132X2.602784*%
G04 APERTURE END LIST*
D10*
%TO.C,R20*%
X142587500Y-60500000D03*
X144412500Y-60500000D03*
%TD*%
D11*
%TO.C,D4*%
X148562500Y-60500000D03*
X150437500Y-60500000D03*
%TD*%
D12*
%TO.C,R24*%
X165000000Y-84587500D03*
X165000000Y-86412500D03*
%TD*%
D13*
%TO.C,R25*%
X164087500Y-90000000D03*
X165912500Y-90000000D03*
%TD*%
D14*
%TO.C,D2*%
X96500000Y-66500000D03*
X96500000Y-62500000D03*
%TD*%
D15*
%TO.C,D1*%
X119000000Y-67000000D03*
X115000000Y-67000000D03*
%TD*%
D13*
%TO.C,R13*%
X159587500Y-67000000D03*
X161412500Y-67000000D03*
%TD*%
D16*
%TO.C,C10*%
X198550000Y-116000000D03*
X200450000Y-116000000D03*
%TD*%
D17*
%TO.C,C17*%
X200950000Y-68500000D03*
X199050000Y-68500000D03*
%TD*%
D10*
%TO.C,R10*%
X179912500Y-62500000D03*
X178087500Y-62500000D03*
%TD*%
D18*
%TO.C,C4*%
X124500000Y-79950000D03*
X124500000Y-78050000D03*
%TD*%
D16*
%TO.C,C3*%
X116450000Y-88500000D03*
X114550000Y-88500000D03*
%TD*%
D13*
%TO.C,R6*%
X174087500Y-71500000D03*
X175912500Y-71500000D03*
%TD*%
D12*
%TO.C,R21*%
X164500000Y-104587500D03*
X164500000Y-106412500D03*
%TD*%
D17*
%TO.C,C13*%
X187450000Y-75000000D03*
X185550000Y-75000000D03*
%TD*%
D19*
%TO.C,D7*%
X162000000Y-99062500D03*
X162000000Y-100937500D03*
%TD*%
D13*
%TO.C,R4*%
X201087500Y-95000000D03*
X202912500Y-95000000D03*
%TD*%
D20*
%TO.C,L1*%
X142049900Y-78000000D03*
X130950100Y-78000000D03*
%TD*%
D16*
%TO.C,C19*%
X98950000Y-83500000D03*
X97050000Y-83500000D03*
%TD*%
D21*
%TO.C,U3*%
X115155200Y-78075000D03*
X115155200Y-78725001D03*
X115155200Y-79374999D03*
X115155200Y-80025001D03*
X115155200Y-80674999D03*
X115155200Y-81324998D03*
X115155200Y-81974999D03*
X115155200Y-82624998D03*
X115155200Y-83274999D03*
X115155200Y-83924998D03*
X120844800Y-83925000D03*
X120844800Y-83275002D03*
X120844800Y-82625001D03*
X120844800Y-81975002D03*
X120844800Y-81325001D03*
X120844800Y-80675002D03*
X120844800Y-80025001D03*
X120844800Y-79375002D03*
X120844800Y-78725001D03*
X120844800Y-78075002D03*
D22*
X118000000Y-81000000D03*
%TD*%
D23*
%TO.C,D3*%
X102000000Y-66854200D03*
X102000000Y-63145800D03*
%TD*%
D10*
%TO.C,R1*%
X110087500Y-79000000D03*
X111912500Y-79000000D03*
%TD*%
D24*
%TO.C,U5*%
X170036200Y-66405000D03*
X170036200Y-65135000D03*
X170036200Y-63865000D03*
X170036200Y-62595000D03*
X174963800Y-62595000D03*
X174963800Y-63865000D03*
X174963800Y-65135000D03*
X174963800Y-66405000D03*
%TD*%
D17*
%TO.C,C11*%
X200450000Y-75000000D03*
X198550000Y-75000000D03*
%TD*%
D25*
%TO.C,C9*%
X105301750Y-85000000D03*
X102698250Y-85000000D03*
%TD*%
D10*
%TO.C,R5*%
X200000000Y-80000000D03*
X198175000Y-80000000D03*
%TD*%
D13*
%TO.C,R12*%
X164087500Y-62500000D03*
X165912500Y-62500000D03*
%TD*%
D10*
%TO.C,R8*%
X182412500Y-70500000D03*
X180587500Y-70500000D03*
%TD*%
D12*
%TO.C,R23*%
X164500000Y-99087500D03*
X164500000Y-100912500D03*
%TD*%
D26*
%TO.C,D6*%
X161937500Y-95000000D03*
X160062500Y-95000000D03*
%TD*%
D17*
%TO.C,C12*%
X178450000Y-75000000D03*
X176550000Y-75000000D03*
%TD*%
%TO.C,C2*%
X125550000Y-85000000D03*
X127450000Y-85000000D03*
%TD*%
D27*
%TO.C,C7*%
X108500000Y-67037500D03*
X108500000Y-61962500D03*
%TD*%
D19*
%TO.C,D5*%
X162000000Y-104562500D03*
X162000000Y-106437500D03*
%TD*%
D17*
%TO.C,C14*%
X184950000Y-61000000D03*
X183050000Y-61000000D03*
%TD*%
D16*
%TO.C,C15*%
X159550000Y-62500000D03*
X161450000Y-62500000D03*
%TD*%
D13*
%TO.C,R7*%
X172087500Y-75000000D03*
X173912500Y-75000000D03*
%TD*%
%TO.C,R17*%
X193087500Y-69000000D03*
X194912500Y-69000000D03*
%TD*%
D16*
%TO.C,C5*%
X116950000Y-73000000D03*
X115050000Y-73000000D03*
%TD*%
D28*
%TO.C,U4*%
X154715000Y-106065498D03*
X153445000Y-106065498D03*
X152175000Y-106065498D03*
X150905000Y-106065498D03*
X149635000Y-106065498D03*
X148365000Y-106065498D03*
X147095000Y-106065498D03*
X145825000Y-106065498D03*
X144555000Y-106065498D03*
X143285000Y-106065498D03*
X143285000Y-96934505D03*
X144555000Y-96934505D03*
X145825000Y-96934505D03*
X147095000Y-96934505D03*
X148365000Y-96934505D03*
X149635000Y-96934505D03*
X150905000Y-96934505D03*
X152175000Y-96934505D03*
X153445000Y-96934505D03*
X154715000Y-96934505D03*
%TD*%
D16*
%TO.C,C1*%
X118950000Y-61000000D03*
X117050000Y-61000000D03*
%TD*%
%TO.C,C8*%
X104950000Y-79000000D03*
X103050000Y-79000000D03*
%TD*%
%TO.C,C16*%
X159550000Y-76000000D03*
X161450000Y-76000000D03*
%TD*%
D13*
%TO.C,R3*%
X111912500Y-88000000D03*
X110087500Y-88000000D03*
%TD*%
%TO.C,R16*%
X193675000Y-62000000D03*
X195500000Y-62000000D03*
%TD*%
D10*
%TO.C,R22*%
X165912500Y-95000000D03*
X164087500Y-95000000D03*
%TD*%
%TO.C,R11*%
X184912500Y-65500000D03*
X183087500Y-65500000D03*
%TD*%
D16*
%TO.C,C6*%
X109450000Y-73500000D03*
X107550000Y-73500000D03*
%TD*%
D13*
%TO.C,R14*%
X164087500Y-71500000D03*
X165912500Y-71500000D03*
%TD*%
%TO.C,R15*%
X159587500Y-71500000D03*
X161412500Y-71500000D03*
%TD*%
D10*
%TO.C,R9*%
X187412500Y-70000000D03*
X185587500Y-70000000D03*
%TD*%
%TO.C,R2*%
X110087500Y-83500000D03*
X111912500Y-83500000D03*
%TD*%
D16*
%TO.C,C18*%
X98950000Y-79000000D03*
X97050000Y-79000000D03*
%TD*%
M02*
