%TF.GenerationSoftware,KiCad,Pcbnew,10.0.1*%
%TF.CreationDate,2026-05-28T23:20:21-07:00*%
%TF.ProjectId,Jeep_Embedded_Controls_Main,4a656570-5f45-46d6-9265-646465645f43,Initial Design*%
%TF.SameCoordinates,Original*%
%TF.FileFunction,Copper,L1,Top*%
%TF.FilePolarity,Positive*%
%FSLAX46Y46*%
G04 Gerber Fmt 4.6, Leading zero omitted, Abs format (unit mm)*
G04 Created by KiCad (PCBNEW 10.0.1) date 2026-05-28 23:20:21*
%MOMM*%
%LPD*%
G01*
G04 APERTURE LIST*
G04 Aperture macros list*
%AMRoundRect*
0 Rectangle with rounded corners*
0 $1 Rounding radius*
0 $2 $3 $4 $5 $6 $7 $8 $9 X,Y pos of 4 corners*
0 Add a 4 corners polygon primitive as box body*
4,1,4,$2,$3,$4,$5,$6,$7,$8,$9,$2,$3,0*
0 Add four circle primitives for the rounded corners*
1,1,$1+$1,$2,$3*
1,1,$1+$1,$4,$5*
1,1,$1+$1,$6,$7*
1,1,$1+$1,$8,$9*
0 Add four rect primitives between the rounded corners*
20,1,$1+$1,$2,$3,$4,$5,0*
20,1,$1+$1,$4,$5,$6,$7,0*
20,1,$1+$1,$6,$7,$8,$9,0*
20,1,$1+$1,$8,$9,$2,$3,0*%
G04 Aperture macros list end*
%TA.AperFunction,SMDPad,CuDef*%
%ADD10RoundRect,0.250000X-0.262500X-0.450000X0.262500X-0.450000X0.262500X0.450000X-0.262500X0.450000X0*%
%TD*%
%TA.AperFunction,SMDPad,CuDef*%
%ADD11RoundRect,0.243750X0.243750X0.456250X-0.243750X0.456250X-0.243750X-0.456250X0.243750X-0.456250X0*%
%TD*%
%TA.AperFunction,SMDPad,CuDef*%
%ADD12RoundRect,0.250000X0.450000X-0.262500X0.450000X0.262500X-0.450000X0.262500X-0.450000X-0.262500X0*%
%TD*%
%TA.AperFunction,SMDPad,CuDef*%
%ADD13RoundRect,0.250000X0.262500X0.450000X-0.262500X0.450000X-0.262500X-0.450000X0.262500X-0.450000X0*%
%TD*%
%TA.AperFunction,SMDPad,CuDef*%
%ADD14RoundRect,0.250000X-0.650000X1.000000X-0.650000X-1.000000X0.650000X-1.000000X0.650000X1.000000X0*%
%TD*%
%TA.AperFunction,SMDPad,CuDef*%
%ADD15RoundRect,0.250000X-1.000000X-0.650000X1.000000X-0.650000X1.000000X0.650000X-1.000000X0.650000X0*%
%TD*%
%TA.AperFunction,SMDPad,CuDef*%
%ADD16C,1.500000*%
%TD*%
%TA.AperFunction,SMDPad,CuDef*%
%ADD17RoundRect,0.250000X0.250000X0.475000X-0.250000X0.475000X-0.250000X-0.475000X0.250000X-0.475000X0*%
%TD*%
%TA.AperFunction,SMDPad,CuDef*%
%ADD18RoundRect,0.250000X-0.250000X-0.475000X0.250000X-0.475000X0.250000X0.475000X-0.250000X0.475000X0*%
%TD*%
%TA.AperFunction,ComponentPad*%
%ADD19C,2.600000*%
%TD*%
%TA.AperFunction,ComponentPad*%
%ADD20RoundRect,0.250000X1.050000X1.050000X-1.050000X1.050000X-1.050000X-1.050000X1.050000X-1.050000X0*%
%TD*%
%TA.AperFunction,ComponentPad*%
%ADD21R,1.700000X1.700000*%
%TD*%
%TA.AperFunction,ComponentPad*%
%ADD22C,1.700000*%
%TD*%
%TA.AperFunction,SMDPad,CuDef*%
%ADD23RoundRect,0.250000X0.475000X-0.250000X0.475000X0.250000X-0.475000X0.250000X-0.475000X-0.250000X0*%
%TD*%
%TA.AperFunction,SMDPad,CuDef*%
%ADD24RoundRect,0.243750X0.456250X-0.243750X0.456250X0.243750X-0.456250X0.243750X-0.456250X-0.243750X0*%
%TD*%
%TA.AperFunction,SMDPad,CuDef*%
%ADD25R,3.098800X5.003800*%
%TD*%
%TA.AperFunction,SMDPad,CuDef*%
%ADD26R,1.422400X0.355600*%
%TD*%
%TA.AperFunction,SMDPad,CuDef*%
%ADD27R,3.149600X4.343400*%
%TD*%
%TA.AperFunction,SMDPad,CuDef*%
%ADD28R,2.184400X2.184400*%
%TD*%
%TA.AperFunction,SMDPad,CuDef*%
%ADD29R,1.981200X0.558800*%
%TD*%
%TA.AperFunction,SMDPad,CuDef*%
%ADD30R,1.612900X2.692400*%
%TD*%
%TA.AperFunction,SMDPad,CuDef*%
%ADD31RoundRect,0.243750X-0.243750X-0.456250X0.243750X-0.456250X0.243750X0.456250X-0.243750X0.456250X0*%
%TD*%
%TA.AperFunction,ComponentPad*%
%ADD32O,3.800000X5.500000*%
%TD*%
%TA.AperFunction,ComponentPad*%
%ADD33O,3.800000X5.300000*%
%TD*%
%TA.AperFunction,SMDPad,CuDef*%
%ADD34RoundRect,0.250000X0.550000X-1.412500X0.550000X1.412500X-0.550000X1.412500X-0.550000X-1.412500X0*%
%TD*%
%TA.AperFunction,SMDPad,CuDef*%
%ADD35R,0.622132X2.602784*%
%TD*%
%TA.AperFunction,ComponentPad*%
%ADD36C,2.400000*%
%TD*%
%TA.AperFunction,ComponentPad*%
%ADD37RoundRect,0.250001X0.949999X0.949999X-0.949999X0.949999X-0.949999X-0.949999X0.949999X-0.949999X0*%
%TD*%
%TA.AperFunction,ComponentPad*%
%ADD38RoundRect,0.250000X-1.050000X-1.050000X1.050000X-1.050000X1.050000X1.050000X-1.050000X1.050000X0*%
%TD*%
%TA.AperFunction,ViaPad*%
%ADD39C,0.600000*%
%TD*%
%TA.AperFunction,Conductor*%
%ADD40C,0.200000*%
%TD*%
%TA.AperFunction,Conductor*%
%ADD41C,0.300000*%
%TD*%
%TA.AperFunction,Conductor*%
%ADD42C,0.500000*%
%TD*%
%TA.AperFunction,Conductor*%
%ADD43C,0.400000*%
%TD*%
%TA.AperFunction,Conductor*%
%ADD44C,1.000000*%
%TD*%
G04 APERTURE END LIST*
D10*
%TO.P,R20,1*%
%TO.N,+5V_MAIN*%
X142587500Y-60500000D03*
%TO.P,R20,2*%
%TO.N,Net-(D4-A)*%
X144412500Y-60500000D03*
%TD*%
D11*
%TO.P,D4,2,A_2*%
%TO.N,Net-(D4-A)*%
X148562500Y-60500000D03*
%TO.P,D4,1,K_1*%
%TO.N,GND*%
X150437500Y-60500000D03*
%TD*%
D12*
%TO.P,R24,2*%
%TO.N,Net-(J6-Pin_5)*%
X165000000Y-84587500D03*
%TO.P,R24,1*%
%TO.N,GPS_RX*%
X165000000Y-86412500D03*
%TD*%
D13*
%TO.P,R25,2*%
%TO.N,Net-(J6-Pin_6)*%
X164087500Y-90000000D03*
%TO.P,R25,1*%
%TO.N,GPS_TX*%
X165912500Y-90000000D03*
%TD*%
D14*
%TO.P,D2,2,A2_2*%
%TO.N,VBAT_PROTECTED*%
X96500000Y-66500000D03*
%TO.P,D2,1,A1_1*%
%TO.N,GND*%
X96500000Y-62500000D03*
%TD*%
D15*
%TO.P,D1,2,A_2*%
%TO.N,VBAT_FUSED*%
X119000000Y-67000000D03*
%TO.P,D1,1,K_1*%
%TO.N,VBAT_PROTECTED*%
X115000000Y-67000000D03*
%TD*%
D13*
%TO.P,R13,2*%
%TO.N,3.3V*%
X159587500Y-67000000D03*
%TO.P,R13,1*%
%TO.N,SW4*%
X161412500Y-67000000D03*
%TD*%
D16*
%TO.P,TP18,1,1_1*%
%TO.N,Net-(J4-Pin_2)*%
X144000000Y-111500000D03*
%TD*%
D17*
%TO.P,C10,2*%
%TO.N,Net-(H1-Pin_1)*%
X198550000Y-116000000D03*
%TO.P,C10,1*%
%TO.N,GND*%
X200450000Y-116000000D03*
%TD*%
D18*
%TO.P,C17,2*%
%TO.N,GND*%
X200950000Y-68500000D03*
%TO.P,C17,1*%
%TO.N,HOOD_SW*%
X199050000Y-68500000D03*
%TD*%
D10*
%TO.P,R10,2*%
%TO.N,SW3*%
X179912500Y-62500000D03*
%TO.P,R10,1*%
%TO.N,Net-(J2-Pin_3)*%
X178087500Y-62500000D03*
%TD*%
D19*
%TO.P,J3,2,Pin_2_2*%
%TO.N,GND*%
X193465000Y-52327500D03*
D20*
%TO.P,J3,1,Pin_1_1*%
%TO.N,Net-(J3-Pin_1)*%
X198545000Y-52327500D03*
%TD*%
D21*
%TO.P,H2,1,Pin_1_1*%
%TO.N,3.3V*%
X169500000Y-80500000D03*
D22*
%TO.P,H2,2,Pin_2_2*%
%TO.N,GND*%
X169500000Y-83040000D03*
%TO.P,H2,3,Pin_3_3*%
%TO.N,SIM_PWRKEY*%
X169500000Y-85580000D03*
%TO.P,H2,4,Pin_4_4*%
%TO.N,unconnected-(H2-Pin_4-Pad4)*%
X169500000Y-88120000D03*
%TO.P,H2,5,Pin_5_5*%
%TO.N,IGN_KILL*%
X169500000Y-90660000D03*
%TO.P,H2,6,Pin_6_6*%
%TO.N,GPS_RX*%
X169500000Y-93200000D03*
%TO.P,H2,7,Pin_7_7*%
%TO.N,GPS_TX*%
X169500000Y-95740000D03*
%TO.P,H2,8,Pin_8_8*%
%TO.N,SIM_RESET*%
X169500000Y-98280000D03*
%TO.P,H2,9,Pin_9_9*%
%TO.N,LIGHTBAR*%
X169500000Y-100820000D03*
%TO.P,H2,10,Pin_10_10*%
%TO.N,FOG_LIGHT*%
X169500000Y-103360000D03*
%TO.P,H2,11,Pin_11_11*%
%TO.N,SPOT_LIGHT*%
X169500000Y-105900000D03*
%TO.P,H2,12,Pin_12_12*%
%TO.N,SIREN*%
X169500000Y-108440000D03*
%TO.P,H2,13,Pin_13_13*%
%TO.N,BLINK*%
X169500000Y-110980000D03*
%TO.P,H2,14,Pin_14_14*%
%TO.N,POD_LIGHT*%
X169500000Y-113520000D03*
%TO.P,H2,15,Pin_15_15*%
%TO.N,CHASE_LIGHT*%
X169500000Y-116060000D03*
%TD*%
D23*
%TO.P,C4,1*%
%TO.N,Net-(U3-EP)*%
X124500000Y-79950000D03*
%TO.P,C4,2*%
%TO.N,SW_BUCK*%
X124500000Y-78050000D03*
%TD*%
D16*
%TO.P,TP6,1,1_1*%
%TO.N,SW_BUCK*%
X123500000Y-72000000D03*
%TD*%
D17*
%TO.P,C3,1*%
%TO.N,GND*%
X116450000Y-88500000D03*
%TO.P,C3,2*%
%TO.N,Net-(U3-RAMP)*%
X114550000Y-88500000D03*
%TD*%
D16*
%TO.P,TP21,1,1_1*%
%TO.N,Net-(H1-Pin_2)*%
X203500000Y-79500000D03*
%TD*%
D13*
%TO.P,R6,2*%
%TO.N,SW1*%
X174087500Y-71500000D03*
%TO.P,R6,1*%
%TO.N,Net-(J2-Pin_1)*%
X175912500Y-71500000D03*
%TD*%
D12*
%TO.P,R21,2*%
%TO.N,Net-(D5-A)*%
X164500000Y-104587500D03*
%TO.P,R21,1*%
%TO.N,BLINK*%
X164500000Y-106412500D03*
%TD*%
D18*
%TO.P,C13,2*%
%TO.N,GND*%
X187450000Y-75000000D03*
%TO.P,C13,1*%
%TO.N,SW2*%
X185550000Y-75000000D03*
%TD*%
D16*
%TO.P,TP8,1,1_1*%
%TO.N,SW2*%
X182000000Y-80500000D03*
%TD*%
D24*
%TO.P,D7,2,A_2*%
%TO.N,Net-(D7-A)*%
X162000000Y-99062500D03*
%TO.P,D7,1,K_1*%
%TO.N,GND*%
X162000000Y-100937500D03*
%TD*%
D16*
%TO.P,TP16,1,1_1*%
%TO.N,Net-(J4-Pin_4)*%
X152000000Y-111500000D03*
%TD*%
%TO.P,TP14,1,1_1*%
%TO.N,Net-(J4-Pin_6)*%
X160000000Y-111000000D03*
%TD*%
D13*
%TO.P,R4,2*%
%TO.N,Net-(H1-Pin_1)*%
X201087500Y-95000000D03*
%TO.P,R4,1*%
%TO.N,+5V_MAIN*%
X202912500Y-95000000D03*
%TD*%
D25*
%TO.P,L1,1,1_1*%
%TO.N,+5V_MAIN*%
X142049900Y-78000000D03*
%TO.P,L1,2,2_2*%
%TO.N,SW_BUCK*%
X130950100Y-78000000D03*
%TD*%
D16*
%TO.P,TP5,1,1_1*%
%TO.N,GND*%
X101000000Y-50000000D03*
%TD*%
D17*
%TO.P,C19,1*%
%TO.N,+5V_MAIN*%
X98950000Y-83500000D03*
%TO.P,C19,2*%
%TO.N,GND*%
X97050000Y-83500000D03*
%TD*%
D26*
%TO.P,U3,1,VCC_1*%
%TO.N,Net-(U3-VCC)*%
X115155200Y-78075000D03*
%TO.P,U3,2,SD_2*%
%TO.N,VBAT_PROTECTED*%
X115155200Y-78725001D03*
%TO.P,U3,3,VIN_3*%
X115155200Y-79374999D03*
%TO.P,U3,4,VIN_4*%
X115155200Y-80025001D03*
%TO.P,U3,5,SYNC_5*%
%TO.N,unconnected-(U3-SYNC-Pad5)*%
X115155200Y-80674999D03*
%TO.P,U3,6,COMP_6*%
%TO.N,unconnected-(U3-COMP-Pad6)*%
X115155200Y-81324998D03*
%TO.P,U3,7,FB_7*%
%TO.N,Net-(U3-FB)*%
X115155200Y-81974999D03*
%TO.P,U3,8,RT_8*%
%TO.N,Net-(U3-RT)*%
X115155200Y-82624998D03*
%TO.P,U3,9,RAMP_9*%
%TO.N,Net-(U3-RAMP)*%
X115155200Y-83274999D03*
%TO.P,U3,10,AGND_10*%
%TO.N,GND*%
X115155200Y-83924998D03*
%TO.P,U3,11,SS_11*%
%TO.N,Net-(U3-SS)*%
X120844800Y-83925000D03*
%TO.P,U3,12,OUT_12*%
%TO.N,unconnected-(U3-OUT-Pad12)*%
X120844800Y-83275002D03*
%TO.P,U3,13,PGND_13*%
%TO.N,GND*%
X120844800Y-82625001D03*
%TO.P,U3,14,PGND_14*%
X120844800Y-81975002D03*
%TO.P,U3,15,IS_15*%
X120844800Y-81325001D03*
%TO.P,U3,16,IS_16*%
X120844800Y-80675002D03*
%TO.P,U3,17,SW_17*%
%TO.N,SW_BUCK*%
X120844800Y-80025001D03*
%TO.P,U3,18,SW_18*%
X120844800Y-79375002D03*
%TO.P,U3,19,PRE_19*%
%TO.N,unconnected-(U3-PRE-Pad19)*%
X120844800Y-78725001D03*
%TO.P,U3,20,BST_20*%
%TO.N,unconnected-(U3-BST-Pad20)*%
X120844800Y-78075002D03*
D27*
%TO.P,U3,21,EP_21*%
%TO.N,Net-(U3-EP)*%
X118000000Y-81000000D03*
%TD*%
D28*
%TO.P,D3,1*%
%TO.N,VBAT_PROTECTED*%
X102000000Y-66854200D03*
%TO.P,D3,2*%
%TO.N,GND*%
X102000000Y-63145800D03*
%TD*%
D16*
%TO.P,TP12,1,1_1*%
%TO.N,HOOD_SW*%
X199500000Y-63000000D03*
%TD*%
D10*
%TO.P,R1,1*%
%TO.N,+5V_MAIN*%
X110087500Y-79000000D03*
%TO.P,R1,2*%
%TO.N,Net-(U3-FB)*%
X111912500Y-79000000D03*
%TD*%
D29*
%TO.P,U5,8,V+_8*%
%TO.N,+5V_MAIN*%
X170036200Y-66405000D03*
%TO.P,U5,7,IN_7*%
%TO.N,Net-(J3-Pin_1)*%
X170036200Y-65135000D03*
%TO.P,U5,6,IN_6_6*%
%TO.N,Net-(J2-Pin_5)*%
X170036200Y-63865000D03*
%TO.P,U5,5,IN_4_5*%
%TO.N,Net-(J2-Pin_4)*%
X170036200Y-62595000D03*
%TO.P,U5,4,V-_4*%
%TO.N,GND*%
X174963800Y-62595000D03*
%TO.P,U5,3,IN_5_3*%
%TO.N,Net-(J2-Pin_3)*%
X174963800Y-63865000D03*
%TO.P,U5,2,IN_3_2*%
%TO.N,Net-(J2-Pin_2)*%
X174963800Y-65135000D03*
%TO.P,U5,1,IN_2_1*%
%TO.N,Net-(J2-Pin_1)*%
X174963800Y-66405000D03*
%TD*%
D18*
%TO.P,C11,2*%
%TO.N,GND*%
X200450000Y-75000000D03*
%TO.P,C11,1*%
%TO.N,+5V_MAIN*%
X198550000Y-75000000D03*
%TD*%
D30*
%TO.P,C9,1*%
%TO.N,+5V_MAIN*%
X105301750Y-85000000D03*
%TO.P,C9,2*%
%TO.N,GND*%
X102698250Y-85000000D03*
%TD*%
D10*
%TO.P,R5,2*%
%TO.N,Net-(H1-Pin_2)*%
X200000000Y-80000000D03*
%TO.P,R5,1*%
%TO.N,+5V_MAIN*%
X198175000Y-80000000D03*
%TD*%
D13*
%TO.P,R12,2*%
%TO.N,SW4*%
X164087500Y-62500000D03*
%TO.P,R12,1*%
%TO.N,Net-(J2-Pin_4)*%
X165912500Y-62500000D03*
%TD*%
D16*
%TO.P,TP17,1,1_1*%
%TO.N,Net-(J4-Pin_3)*%
X148000000Y-115500000D03*
%TD*%
D10*
%TO.P,R8,2*%
%TO.N,SW2*%
X182412500Y-70500000D03*
%TO.P,R8,1*%
%TO.N,Net-(J2-Pin_2)*%
X180587500Y-70500000D03*
%TD*%
D12*
%TO.P,R23,2*%
%TO.N,Net-(D7-A)*%
X164500000Y-99087500D03*
%TO.P,R23,1*%
%TO.N,SIREN*%
X164500000Y-100912500D03*
%TD*%
D31*
%TO.P,D6,2,A_2*%
%TO.N,Net-(D6-A)*%
X161937500Y-95000000D03*
%TO.P,D6,1,K_1*%
%TO.N,GND*%
X160062500Y-95000000D03*
%TD*%
D18*
%TO.P,C12,2*%
%TO.N,GND*%
X178450000Y-75000000D03*
%TO.P,C12,1*%
%TO.N,SW1*%
X176550000Y-75000000D03*
%TD*%
D16*
%TO.P,TP19,1,1_1*%
%TO.N,Net-(J4-Pin_1)*%
X140000000Y-115500000D03*
%TD*%
D21*
%TO.P,J6,1,Pin_1_1*%
%TO.N,GND*%
X131280000Y-92500000D03*
D22*
%TO.P,J6,2,Pin_2_2*%
%TO.N,unconnected-(J6-Pin_2-Pad2)*%
X128740000Y-92500000D03*
%TO.P,J6,3,Pin_3_3*%
%TO.N,unconnected-(J6-Pin_3-Pad3)*%
X126200000Y-92500000D03*
%TO.P,J6,4,Pin_4_4*%
%TO.N,unconnected-(J6-Pin_4-Pad4)*%
X123660000Y-92500000D03*
%TO.P,J6,5,Pin_5_5*%
%TO.N,Net-(J6-Pin_5)*%
X121120000Y-92500000D03*
%TO.P,J6,6,Pin_6_6*%
%TO.N,Net-(J6-Pin_6)*%
X118580000Y-92500000D03*
%TO.P,J6,7,Pin_7_7*%
%TO.N,3.3V*%
X116040000Y-92500000D03*
%TO.P,J6,8,Pin_8_8*%
%TO.N,+5V_MAIN*%
X113500000Y-92500000D03*
%TO.P,J6,9,Pin_9_9*%
%TO.N,GND*%
X110960000Y-92500000D03*
%TO.P,J6,10,Pin_10_10*%
%TO.N,unconnected-(J6-Pin_10-Pad10)*%
X108420000Y-92500000D03*
%TO.P,J6,11,Pin_11_11*%
%TO.N,SIM_RESET*%
X105880000Y-92500000D03*
%TO.P,J6,12,Pin_12_12*%
%TO.N,SIM_PWRKEY*%
X103340000Y-92500000D03*
%TO.P,J6,13,Pin_13_13*%
%TO.N,unconnected-(J6-Pin_13-Pad13)*%
X100800000Y-92500000D03*
%TD*%
D16*
%TO.P,TP20,1,1_1*%
%TO.N,Net-(H1-Pin_1)*%
X200000000Y-103500000D03*
%TD*%
D18*
%TO.P,C2,1*%
%TO.N,Net-(U3-SS)*%
X125550000Y-85000000D03*
%TO.P,C2,2*%
%TO.N,GND*%
X127450000Y-85000000D03*
%TD*%
D32*
%TO.P,F1,1*%
%TO.N,Net-(J1-Pin_1)*%
X128000000Y-52050000D03*
D33*
%TO.P,F1,2*%
%TO.N,VBAT_FUSED*%
X128000000Y-60050000D03*
%TD*%
D21*
%TO.P,H1,1,Pin_1_1*%
%TO.N,Net-(H1-Pin_1)*%
X194900000Y-116060000D03*
D22*
%TO.P,H1,2,Pin_2_2*%
%TO.N,Net-(H1-Pin_2)*%
X194900000Y-113520000D03*
%TO.P,H1,3,Pin_3_3*%
%TO.N,unconnected-(H1-Pin_3-Pad3)*%
X194900000Y-110980000D03*
%TO.P,H1,4,Pin_4_4*%
%TO.N,unconnected-(H1-Pin_4-Pad4)*%
X194900000Y-108440000D03*
%TO.P,H1,5,Pin_5_5*%
%TO.N,unconnected-(H1-Pin_5-Pad5)*%
X194900000Y-105900000D03*
%TO.P,H1,6,Pin_6_6*%
%TO.N,SW1*%
X194900000Y-103360000D03*
%TO.P,H1,7,Pin_7_7*%
%TO.N,SW2*%
X194900000Y-100820000D03*
%TO.P,H1,8,Pin_8_8*%
%TO.N,SW3*%
X194900000Y-98280000D03*
%TO.P,H1,9,Pin_9_9*%
%TO.N,SW4*%
X194900000Y-95740000D03*
%TO.P,H1,10,Pin_10_10*%
%TO.N,SW5*%
X194900000Y-93200000D03*
%TO.P,H1,11,Pin_11_11*%
%TO.N,unconnected-(H1-Pin_11-Pad11)*%
X194900000Y-90660000D03*
%TO.P,H1,12,Pin_12_12*%
%TO.N,HOOD_SW*%
X194900000Y-88120000D03*
%TO.P,H1,13,Pin_13_13*%
%TO.N,unconnected-(H1-Pin_13-Pad13)*%
X194900000Y-85580000D03*
%TO.P,H1,14,Pin_14_14*%
%TO.N,GND*%
X194900000Y-83040000D03*
%TO.P,H1,15,Pin_15_15*%
%TO.N,+5V_MAIN*%
X194900000Y-80500000D03*
%TD*%
D16*
%TO.P,TP3,1,1_1*%
%TO.N,VBAT_PROTECTED*%
X100000000Y-56500000D03*
%TD*%
D34*
%TO.P,C7,1*%
%TO.N,VBAT_PROTECTED*%
X108500000Y-67037500D03*
%TO.P,C7,2*%
%TO.N,GND*%
X108500000Y-61962500D03*
%TD*%
D24*
%TO.P,D5,2,A_2*%
%TO.N,Net-(D5-A)*%
X162000000Y-104562500D03*
%TO.P,D5,1,K_1*%
%TO.N,GND*%
X162000000Y-106437500D03*
%TD*%
D16*
%TO.P,TP11,1,1_1*%
%TO.N,SW5*%
X154500000Y-72500000D03*
%TD*%
D18*
%TO.P,C14,2*%
%TO.N,GND*%
X184950000Y-61000000D03*
%TO.P,C14,1*%
%TO.N,SW3*%
X183050000Y-61000000D03*
%TD*%
D17*
%TO.P,C15,2*%
%TO.N,GND*%
X159550000Y-62500000D03*
%TO.P,C15,1*%
%TO.N,SW4*%
X161450000Y-62500000D03*
%TD*%
D16*
%TO.P,TP10,1,1_1*%
%TO.N,SW4*%
X155500000Y-63500000D03*
%TD*%
%TO.P,TP15,1,1_1*%
%TO.N,Net-(J4-Pin_5)*%
X156000000Y-115500000D03*
%TD*%
%TO.P,TP4,1,1_1*%
%TO.N,+5V_MAIN*%
X98000000Y-88000000D03*
%TD*%
D13*
%TO.P,R7,2*%
%TO.N,3.3V*%
X172087500Y-75000000D03*
%TO.P,R7,1*%
%TO.N,SW1*%
X173912500Y-75000000D03*
%TD*%
%TO.P,R17,2*%
%TO.N,3.3V*%
X193087500Y-69000000D03*
%TO.P,R17,1*%
%TO.N,HOOD_SW*%
X194912500Y-69000000D03*
%TD*%
D17*
%TO.P,C5,1*%
%TO.N,GND*%
X116950000Y-73000000D03*
%TO.P,C5,2*%
%TO.N,Net-(U3-VCC)*%
X115050000Y-73000000D03*
%TD*%
D16*
%TO.P,TP2,1,1_1*%
%TO.N,VBAT_FUSED*%
X135500000Y-50500000D03*
%TD*%
D35*
%TO.P,U4,20,1C_20*%
%TO.N,Net-(J4-Pin_7)*%
X154715000Y-106065498D03*
%TO.P,U4,19,2C_19*%
%TO.N,Net-(J4-Pin_6)*%
X153445000Y-106065498D03*
%TO.P,U4,18,3C_18*%
%TO.N,Net-(J4-Pin_5)*%
X152175000Y-106065498D03*
%TO.P,U4,17,4C_17*%
%TO.N,Net-(J4-Pin_4)*%
X150905000Y-106065498D03*
%TO.P,U4,16,5C_16*%
%TO.N,Net-(J4-Pin_3)*%
X149635000Y-106065498D03*
%TO.P,U4,15,6C_15*%
%TO.N,Net-(J4-Pin_2)*%
X148365000Y-106065498D03*
%TO.P,U4,14,7C_14*%
%TO.N,Net-(J4-Pin_1)*%
X147095000Y-106065498D03*
%TO.P,U4,13,8C_13*%
%TO.N,unconnected-(U4-8C-Pad13)*%
X145825000Y-106065498D03*
%TO.P,U4,12,COM_12*%
%TO.N,VBAT_PROTECTED*%
X144555000Y-106065498D03*
%TO.P,U4,11,NC_11*%
%TO.N,unconnected-(U4-NC-Pad11)*%
X143285000Y-106065498D03*
%TO.P,U4,10,NC_10*%
%TO.N,unconnected-(U4-NC-Pad10)*%
X143285000Y-96934505D03*
%TO.P,U4,9,GND_9*%
%TO.N,GND*%
X144555000Y-96934505D03*
%TO.P,U4,8,8B_8*%
%TO.N,unconnected-(U4-8B-Pad8)*%
X145825000Y-96934505D03*
%TO.P,U4,7,7B_7*%
%TO.N,IGN_KILL*%
X147095000Y-96934505D03*
%TO.P,U4,6,6B_6*%
%TO.N,SIREN*%
X148365000Y-96934505D03*
%TO.P,U4,5,5B_5*%
%TO.N,CHASE_LIGHT*%
X149635000Y-96934505D03*
%TO.P,U4,4,4B_4*%
%TO.N,POD_LIGHT*%
X150905000Y-96934505D03*
%TO.P,U4,3,3B_3*%
%TO.N,SPOT_LIGHT*%
X152175000Y-96934505D03*
%TO.P,U4,2,2B_2*%
%TO.N,FOG_LIGHT*%
X153445000Y-96934505D03*
%TO.P,U4,1,1B_1*%
%TO.N,LIGHTBAR*%
X154715000Y-96934505D03*
%TD*%
D17*
%TO.P,C1,1*%
%TO.N,VBAT_FUSED*%
X118950000Y-61000000D03*
%TO.P,C1,2*%
%TO.N,GND*%
X117050000Y-61000000D03*
%TD*%
D16*
%TO.P,TP1,1,1_1*%
%TO.N,Net-(J1-Pin_1)*%
X105500000Y-50000000D03*
%TD*%
D20*
%TO.P,J1,1,Pin_1_1*%
%TO.N,Net-(J1-Pin_1)*%
X116545000Y-52327500D03*
D19*
%TO.P,J1,2,Pin_2_2*%
%TO.N,GND*%
X111465000Y-52327500D03*
%TD*%
D36*
%TO.P,J2,6,Pin_6_6*%
%TO.N,GND*%
X161100000Y-52857500D03*
%TO.P,J2,5,Pin_5_5*%
%TO.N,Net-(J2-Pin_5)*%
X166180000Y-52857500D03*
%TO.P,J2,4,Pin_4_4*%
%TO.N,Net-(J2-Pin_4)*%
X171260000Y-52857500D03*
%TO.P,J2,3,Pin_3_3*%
%TO.N,Net-(J2-Pin_3)*%
X176340000Y-52857500D03*
%TO.P,J2,2,Pin_2_2*%
%TO.N,Net-(J2-Pin_2)*%
X181420000Y-52857500D03*
D37*
%TO.P,J2,1,Pin_1_1*%
%TO.N,Net-(J2-Pin_1)*%
X186500000Y-52857500D03*
%TD*%
D17*
%TO.P,C8,1*%
%TO.N,+5V_MAIN*%
X104950000Y-79000000D03*
%TO.P,C8,2*%
%TO.N,GND*%
X103050000Y-79000000D03*
%TD*%
D16*
%TO.P,TP9,1,1_1*%
%TO.N,SW3*%
X189000000Y-62500000D03*
%TD*%
D17*
%TO.P,C16,2*%
%TO.N,GND*%
X159550000Y-76000000D03*
%TO.P,C16,1*%
%TO.N,SW5*%
X161450000Y-76000000D03*
%TD*%
D16*
%TO.P,TP7,1,1_1*%
%TO.N,SW1*%
X168500000Y-74500000D03*
%TD*%
D13*
%TO.P,R3,1*%
%TO.N,GND*%
X111912500Y-88000000D03*
%TO.P,R3,2*%
%TO.N,Net-(U3-RT)*%
X110087500Y-88000000D03*
%TD*%
%TO.P,R16,2*%
%TO.N,HOOD_SW*%
X193675000Y-62000000D03*
%TO.P,R16,1*%
%TO.N,Net-(J3-Pin_1)*%
X195500000Y-62000000D03*
%TD*%
D10*
%TO.P,R22,2*%
%TO.N,GPS_TX*%
X165912500Y-95000000D03*
%TO.P,R22,1*%
%TO.N,Net-(D6-A)*%
X164087500Y-95000000D03*
%TD*%
%TO.P,R11,2*%
%TO.N,3.3V*%
X184912500Y-65500000D03*
%TO.P,R11,1*%
%TO.N,SW3*%
X183087500Y-65500000D03*
%TD*%
D17*
%TO.P,C6,1*%
%TO.N,VBAT_PROTECTED*%
X109450000Y-73500000D03*
%TO.P,C6,2*%
%TO.N,GND*%
X107550000Y-73500000D03*
%TD*%
D13*
%TO.P,R14,2*%
%TO.N,SW5*%
X164087500Y-71500000D03*
%TO.P,R14,1*%
%TO.N,Net-(J2-Pin_5)*%
X165912500Y-71500000D03*
%TD*%
D16*
%TO.P,TP13,1,1_1*%
%TO.N,Net-(J4-Pin_7)*%
X164000000Y-115500000D03*
%TD*%
D13*
%TO.P,R15,2*%
%TO.N,3.3V*%
X159587500Y-71500000D03*
%TO.P,R15,1*%
%TO.N,SW5*%
X161412500Y-71500000D03*
%TD*%
D10*
%TO.P,R9,2*%
%TO.N,3.3V*%
X187412500Y-70000000D03*
%TO.P,R9,1*%
%TO.N,SW2*%
X185587500Y-70000000D03*
%TD*%
%TO.P,R2,1*%
%TO.N,GND*%
X110087500Y-83500000D03*
%TO.P,R2,2*%
%TO.N,Net-(U3-FB)*%
X111912500Y-83500000D03*
%TD*%
D21*
%TO.P,J7,1,Pin_1_1*%
%TO.N,unconnected-(J7-Pin_1-Pad1)*%
X100805000Y-128060000D03*
D22*
%TO.P,J7,2,Pin_2_2*%
%TO.N,unconnected-(J7-Pin_2-Pad2)*%
X103345000Y-128060000D03*
%TO.P,J7,3,Pin_3_3*%
%TO.N,unconnected-(J7-Pin_3-Pad3)*%
X105885000Y-128060000D03*
%TO.P,J7,4,Pin_4_4*%
%TO.N,GND*%
X108425000Y-128060000D03*
%TO.P,J7,5,Pin_5_5*%
%TO.N,unconnected-(J7-Pin_5-Pad5)*%
X110965000Y-128060000D03*
%TO.P,J7,6,Pin_6_6*%
%TO.N,unconnected-(J7-Pin_6-Pad6)*%
X113505000Y-128060000D03*
%TO.P,J7,7,Pin_7_7*%
%TO.N,unconnected-(J7-Pin_7-Pad7)*%
X116045000Y-128060000D03*
%TO.P,J7,8,Pin_8_8*%
%TO.N,unconnected-(J7-Pin_8-Pad8)*%
X118585000Y-128060000D03*
%TO.P,J7,9,Pin_9_9*%
%TO.N,unconnected-(J7-Pin_9-Pad9)*%
X121125000Y-128060000D03*
%TO.P,J7,10,Pin_10_10*%
%TO.N,unconnected-(J7-Pin_10-Pad10)*%
X123665000Y-128060000D03*
%TO.P,J7,11,Pin_11_11*%
%TO.N,unconnected-(J7-Pin_11-Pad11)*%
X126205000Y-128060000D03*
%TO.P,J7,12,Pin_12_12*%
%TO.N,unconnected-(J7-Pin_12-Pad12)*%
X128745000Y-128060000D03*
%TO.P,J7,13,Pin_13_13*%
%TO.N,GND*%
X131285000Y-128060000D03*
%TD*%
D17*
%TO.P,C18,1*%
%TO.N,+5V_MAIN*%
X98950000Y-79000000D03*
%TO.P,C18,2*%
%TO.N,GND*%
X97050000Y-79000000D03*
%TD*%
D38*
%TO.P,J4,1,Pin_1_1*%
%TO.N,Net-(J4-Pin_1)*%
X137680000Y-124500000D03*
D19*
%TO.P,J4,2,Pin_2_2*%
%TO.N,Net-(J4-Pin_2)*%
X142760000Y-124500000D03*
%TO.P,J4,3,Pin_3_3*%
%TO.N,Net-(J4-Pin_3)*%
X147840000Y-124500000D03*
%TO.P,J4,4,Pin_4_4*%
%TO.N,Net-(J4-Pin_4)*%
X152920000Y-124500000D03*
%TO.P,J4,5,Pin_5_5*%
%TO.N,Net-(J4-Pin_5)*%
X158000000Y-124500000D03*
%TO.P,J4,6,Pin_6_6*%
%TO.N,Net-(J4-Pin_6)*%
X163080000Y-124500000D03*
%TO.P,J4,7,Pin_7_7*%
%TO.N,Net-(J4-Pin_7)*%
X168160000Y-124500000D03*
%TO.P,J4,8,Pin_8_8*%
%TO.N,GND*%
X173240000Y-124500000D03*
%TD*%
D39*
%TO.N,GND*%
X200450000Y-116000000D03*
X200450000Y-75000000D03*
X200950000Y-68500000D03*
X187450000Y-75000000D03*
X184950000Y-61000000D03*
X178450000Y-75000000D03*
X159550000Y-76000000D03*
X174963800Y-62595000D03*
X159550000Y-62500000D03*
X150437500Y-60500000D03*
X160062500Y-95000000D03*
X144555000Y-96934505D03*
X162000000Y-100937500D03*
X162000000Y-106437500D03*
X127450000Y-85000000D03*
X120844800Y-81975002D03*
X120844800Y-81325001D03*
X116450000Y-88500000D03*
X111912500Y-88000000D03*
X110087500Y-83500000D03*
X103050000Y-79000000D03*
X102698250Y-85000000D03*
X97050000Y-83500000D03*
X97050000Y-79000000D03*
X116950000Y-73000000D03*
X107550000Y-73500000D03*
X117050000Y-61000000D03*
X108500000Y-61962500D03*
X96500000Y-62500000D03*
X102000000Y-63145800D03*
X101000000Y-50000000D03*
%TD*%
%TO.N,GND*%
D40*
X115155200Y-87205200D02*
X116450000Y-88500000D01*
X115155200Y-83924998D02*
X115155200Y-87205200D01*
X120844800Y-82625001D02*
X120844800Y-81975002D01*
X120844800Y-80675002D02*
X120844800Y-81325001D01*
%TO.N,SW4*%
X193750000Y-94590000D02*
X194900000Y-95740000D01*
X193750000Y-92723654D02*
X193750000Y-94590000D01*
X194423654Y-92050000D02*
X193750000Y-92723654D01*
X196550000Y-103336346D02*
X196550000Y-93223654D01*
X196550000Y-93223654D02*
X195376346Y-92050000D01*
X195376346Y-104510000D02*
X196550000Y-103336346D01*
X190412742Y-104510000D02*
X195376346Y-104510000D01*
X145000000Y-127500000D02*
X167422742Y-127500000D01*
X145050000Y-127450000D02*
X145000000Y-127500000D01*
X195376346Y-92050000D02*
X194423654Y-92050000D01*
X148976066Y-107666890D02*
X145050000Y-111592956D01*
X148976066Y-104464106D02*
X148976066Y-107666890D01*
X147753934Y-104464106D02*
X148976066Y-104464106D01*
X167422742Y-127500000D02*
X190412742Y-104510000D01*
X140839828Y-97550000D02*
X147753934Y-104464106D01*
X103550000Y-97550000D02*
X140839828Y-97550000D01*
X99650000Y-93650000D02*
X103550000Y-97550000D01*
X99650000Y-92023654D02*
X99650000Y-93650000D01*
X100823654Y-90850000D02*
X99650000Y-92023654D01*
X105856346Y-90850000D02*
X100823654Y-90850000D01*
X107030000Y-92023654D02*
X105856346Y-90850000D01*
X107030000Y-92976346D02*
X107030000Y-92023654D01*
X107703654Y-93650000D02*
X107030000Y-92976346D01*
X114216346Y-93650000D02*
X107703654Y-93650000D01*
X115563654Y-91350000D02*
X114890000Y-92023654D01*
X116516346Y-91350000D02*
X115563654Y-91350000D01*
X119316346Y-88550000D02*
X116516346Y-91350000D01*
X145050000Y-111592956D02*
X145050000Y-127450000D01*
X137381071Y-88550000D02*
X119316346Y-88550000D01*
X114890000Y-92023654D02*
X114890000Y-92976346D01*
X151550000Y-74381071D02*
X137381071Y-88550000D01*
X151550000Y-67450000D02*
X151550000Y-74381071D01*
X155500000Y-63500000D02*
X151550000Y-67450000D01*
X114890000Y-92976346D02*
X114216346Y-93650000D01*
%TO.N,SIREN*%
X171050000Y-116136346D02*
X171050000Y-109990000D01*
X169976346Y-117210000D02*
X171050000Y-116136346D01*
X171050000Y-109990000D02*
X169500000Y-108440000D01*
X169012943Y-117210000D02*
X169976346Y-117210000D01*
X155802943Y-104000000D02*
X169012943Y-117210000D01*
X154440169Y-104000000D02*
X155802943Y-104000000D01*
X148365000Y-96934505D02*
X148365000Y-97924831D01*
X148365000Y-97924831D02*
X154440169Y-104000000D01*
%TO.N,CHASE_LIGHT*%
X168428629Y-116060000D02*
X169500000Y-116060000D01*
X150934315Y-98565686D02*
X168428629Y-116060000D01*
X150065686Y-98565686D02*
X150934315Y-98565686D01*
X149635000Y-98135000D02*
X150065686Y-98565686D01*
X149635000Y-96934505D02*
X149635000Y-98135000D01*
%TO.N,POD_LIGHT*%
X158534315Y-105600000D02*
X150905000Y-97970685D01*
X150905000Y-97970685D02*
X150905000Y-96934505D01*
X165184744Y-105600000D02*
X158534315Y-105600000D01*
X165500000Y-105915256D02*
X165184744Y-105600000D01*
X168915686Y-109830000D02*
X165500000Y-106414314D01*
X165500000Y-106414314D02*
X165500000Y-105915256D01*
X169976346Y-109830000D02*
X168915686Y-109830000D01*
X170650000Y-110503654D02*
X169976346Y-109830000D01*
X170650000Y-112370000D02*
X170650000Y-110503654D01*
X169500000Y-113520000D02*
X170650000Y-112370000D01*
%TO.N,LIGHTBAR*%
X164409935Y-96934505D02*
X154715000Y-96934505D01*
X168295430Y-100820000D02*
X164409935Y-96934505D01*
X169500000Y-100820000D02*
X168295430Y-100820000D01*
%TO.N,FOG_LIGHT*%
X158000000Y-99500000D02*
X154500000Y-99500000D01*
X159225000Y-98275000D02*
X158000000Y-99500000D01*
X165184744Y-98275000D02*
X159225000Y-98275000D01*
X154500000Y-99500000D02*
X153445000Y-98445000D01*
X169500000Y-102590256D02*
X165184744Y-98275000D01*
X169500000Y-103360000D02*
X169500000Y-102590256D01*
X153445000Y-98445000D02*
X153445000Y-96934505D01*
%TO.N,SPOT_LIGHT*%
X165900000Y-100815256D02*
X165084744Y-100000000D01*
X153500000Y-100000000D02*
X152175000Y-98675000D01*
X152175000Y-98675000D02*
X152175000Y-96934505D01*
X165084744Y-100000000D02*
X153500000Y-100000000D01*
X165900000Y-102300000D02*
X165900000Y-100815256D01*
X169500000Y-105900000D02*
X165900000Y-102300000D01*
%TO.N,Net-(D5-A)*%
X162025000Y-104587500D02*
X162000000Y-104562500D01*
X164500000Y-104587500D02*
X162025000Y-104587500D01*
%TO.N,Net-(D7-A)*%
X162025000Y-99087500D02*
X162000000Y-99062500D01*
X164500000Y-99087500D02*
X162025000Y-99087500D01*
%TO.N,BLINK*%
X164932500Y-106412500D02*
X164500000Y-106412500D01*
X169500000Y-110980000D02*
X164932500Y-106412500D01*
%TO.N,SIREN*%
X165500000Y-101912500D02*
X164500000Y-100912500D01*
X165500000Y-104440000D02*
X165500000Y-101912500D01*
X169500000Y-108440000D02*
X165500000Y-104440000D01*
%TO.N,IGN_KILL*%
D41*
X170700000Y-91860000D02*
X169500000Y-90660000D01*
X168302943Y-98780000D02*
X169002943Y-99480000D01*
X167317438Y-98780000D02*
X168302943Y-98780000D01*
X169002943Y-99480000D02*
X169997057Y-99480000D01*
X164587437Y-96050000D02*
X167317438Y-98780000D01*
X163569544Y-96050000D02*
X164587437Y-96050000D01*
X163519544Y-96000000D02*
X163569544Y-96050000D01*
X162483944Y-96000000D02*
X163519544Y-96000000D01*
X162433944Y-96050000D02*
X162483944Y-96000000D01*
X161441056Y-96050000D02*
X162433944Y-96050000D01*
X160558944Y-96050000D02*
X160608944Y-96000000D01*
X160608944Y-96000000D02*
X161391056Y-96000000D01*
X147703934Y-95283113D02*
X158799169Y-95283113D01*
X158799169Y-95283113D02*
X159566056Y-96050000D01*
X161391056Y-96000000D02*
X161441056Y-96050000D01*
X147095000Y-96934505D02*
X147095000Y-95892047D01*
X170700000Y-98777057D02*
X170700000Y-91860000D01*
X159566056Y-96050000D02*
X160558944Y-96050000D01*
X147095000Y-95892047D02*
X147703934Y-95283113D01*
X169997057Y-99480000D02*
X170700000Y-98777057D01*
%TO.N,+5V_MAIN*%
D40*
X202912500Y-87412500D02*
X202912500Y-95000000D01*
X202000000Y-86500000D02*
X202912500Y-87412500D01*
X202000000Y-83825000D02*
X202000000Y-86500000D01*
X198175000Y-80000000D02*
X202000000Y-83825000D01*
D41*
X197500000Y-80500000D02*
X194900000Y-80500000D01*
X198000000Y-80000000D02*
X197500000Y-80500000D01*
X198175000Y-80000000D02*
X198000000Y-80000000D01*
X198175000Y-75825000D02*
X198175000Y-80000000D01*
X198550000Y-75450000D02*
X198175000Y-75825000D01*
X198550000Y-75000000D02*
X198550000Y-75450000D01*
X198550000Y-73450000D02*
X198550000Y-75000000D01*
X200569544Y-71430456D02*
X198550000Y-73450000D01*
X197850000Y-48000000D02*
X174000000Y-48000000D01*
X202500000Y-52650000D02*
X197850000Y-48000000D01*
X202500000Y-65800000D02*
X202500000Y-52650000D01*
X202850000Y-66150000D02*
X202500000Y-65800000D01*
X202850000Y-71080456D02*
X202850000Y-66150000D01*
X202500000Y-71430456D02*
X202850000Y-71080456D01*
X200569544Y-71430456D02*
X202500000Y-71430456D01*
X174000000Y-48000000D02*
X173000000Y-49000000D01*
%TO.N,HOOD_SW*%
X191500000Y-78500000D02*
X194912500Y-75087500D01*
X191500000Y-86500000D02*
X191500000Y-78500000D01*
X194912500Y-75087500D02*
X194912500Y-69000000D01*
X193120000Y-88120000D02*
X191500000Y-86500000D01*
X194900000Y-88120000D02*
X193120000Y-88120000D01*
%TO.N,Net-(H1-Pin_1)*%
X200000000Y-102500000D02*
X201087500Y-101412500D01*
X201087500Y-101412500D02*
X201087500Y-95000000D01*
X200000000Y-103500000D02*
X200000000Y-102500000D01*
%TO.N,Net-(H1-Pin_2)*%
X205000000Y-81000000D02*
X203500000Y-79500000D01*
X205000000Y-116500000D02*
X205000000Y-81000000D01*
X191500000Y-121500000D02*
X200000000Y-121500000D01*
X200000000Y-121500000D02*
X205000000Y-116500000D01*
X190500000Y-113500000D02*
X190000000Y-114000000D01*
X194880000Y-113500000D02*
X190500000Y-113500000D01*
X190000000Y-120000000D02*
X191500000Y-121500000D01*
X194900000Y-113520000D02*
X194880000Y-113500000D01*
X190000000Y-114000000D02*
X190000000Y-120000000D01*
%TO.N,+5V_MAIN*%
D42*
X112260000Y-91961522D02*
X112260000Y-92500000D01*
X111498478Y-91200000D02*
X112260000Y-91961522D01*
X110421522Y-91200000D02*
X111498478Y-91200000D01*
X112260000Y-92500000D02*
X113500000Y-92500000D01*
X110310761Y-91310761D02*
X110421522Y-91200000D01*
X105301750Y-85000000D02*
X105301750Y-86301750D01*
X105301750Y-86301750D02*
X110310761Y-91310761D01*
%TO.N,VBAT_PROTECTED*%
D41*
X104067700Y-60567700D02*
X100000000Y-56500000D01*
X103039000Y-67893200D02*
X103979832Y-67893200D01*
X103979832Y-67893200D02*
X104067700Y-67805332D01*
X104067700Y-67805332D02*
X104067700Y-60567700D01*
X102000000Y-66854200D02*
X103039000Y-67893200D01*
X100961000Y-67893200D02*
X102000000Y-66854200D01*
X96500000Y-66500000D02*
X97893200Y-67893200D01*
X97893200Y-67893200D02*
X100961000Y-67893200D01*
X94500000Y-91000000D02*
X94500000Y-71500000D01*
X94500000Y-71500000D02*
X96500000Y-69500000D01*
X96500000Y-69500000D02*
X96500000Y-66500000D01*
X101500000Y-98000000D02*
X94500000Y-91000000D01*
X144555000Y-105075172D02*
X137479828Y-98000000D01*
X137479828Y-98000000D02*
X101500000Y-98000000D01*
X144555000Y-106065498D02*
X144555000Y-105075172D01*
%TO.N,+5V_MAIN*%
D42*
X142049900Y-83103354D02*
X142049900Y-78000000D01*
X120500000Y-86500000D02*
X138653254Y-86500000D01*
X117500000Y-89500000D02*
X120500000Y-86500000D01*
X116996878Y-89675000D02*
X117171878Y-89500000D01*
X114825000Y-89675000D02*
X116996878Y-89675000D01*
X117171878Y-89500000D02*
X117500000Y-89500000D01*
X113500000Y-91000000D02*
X114825000Y-89675000D01*
X138653254Y-86500000D02*
X142049900Y-83103354D01*
X113500000Y-92500000D02*
X113500000Y-91000000D01*
%TO.N,3.3V*%
D41*
X156000000Y-67000000D02*
X159587500Y-67000000D01*
X152000000Y-77500000D02*
X152000000Y-71000000D01*
X140500000Y-89000000D02*
X152000000Y-77500000D01*
X119916447Y-89000000D02*
X140500000Y-89000000D01*
X118116447Y-90800000D02*
X119916447Y-89000000D01*
X117875837Y-90800000D02*
X118116447Y-90800000D01*
X116880000Y-92036446D02*
X116880000Y-91795837D01*
X152000000Y-71000000D02*
X156000000Y-67000000D01*
X116740000Y-92176446D02*
X116880000Y-92036446D01*
X116740000Y-92260000D02*
X116740000Y-92176446D01*
X116500000Y-92500000D02*
X116740000Y-92260000D01*
X116040000Y-92500000D02*
X116500000Y-92500000D01*
X116880000Y-91795837D02*
X117875837Y-90800000D01*
%TO.N,SIM_PWRKEY*%
X103340000Y-94840000D02*
X103340000Y-92500000D01*
X104000000Y-95500000D02*
X103340000Y-94840000D01*
X114737057Y-95500000D02*
X104000000Y-95500000D01*
X117240000Y-92997057D02*
X114737057Y-95500000D01*
X117240000Y-92383553D02*
X117240000Y-92997057D01*
X117380000Y-92243553D02*
X117240000Y-92383553D01*
X120123553Y-89500000D02*
X118323553Y-91300000D01*
X118323553Y-91300000D02*
X118082943Y-91300000D01*
X118082943Y-91300000D02*
X117380000Y-92002943D01*
X141000000Y-89500000D02*
X120123553Y-89500000D01*
X151000000Y-79500000D02*
X141000000Y-89500000D01*
X163420000Y-79500000D02*
X151000000Y-79500000D01*
X117380000Y-92002943D02*
X117380000Y-92243553D01*
X169500000Y-85580000D02*
X163420000Y-79500000D01*
%TO.N,Net-(J6-Pin_6)*%
X163950000Y-89862500D02*
X164087500Y-90000000D01*
X163950000Y-85894544D02*
X163950000Y-89862500D01*
X164294544Y-85550000D02*
X163950000Y-85894544D01*
X166050000Y-84050000D02*
X166050000Y-85105456D01*
X162000000Y-80000000D02*
X166050000Y-84050000D01*
X140900000Y-90600000D02*
X151500000Y-80000000D01*
X120480000Y-90600000D02*
X140900000Y-90600000D01*
X165605456Y-85550000D02*
X164294544Y-85550000D01*
X151500000Y-80000000D02*
X162000000Y-80000000D01*
X118580000Y-92500000D02*
X120480000Y-90600000D01*
X166050000Y-85105456D02*
X165605456Y-85550000D01*
%TO.N,+5V_MAIN*%
X172500000Y-49500000D02*
X173000000Y-49000000D01*
X172500000Y-51905468D02*
X172500000Y-49500000D01*
X171365600Y-64505600D02*
X172000000Y-63871200D01*
X172810000Y-53499532D02*
X172810000Y-52215468D01*
X168695600Y-64505600D02*
X171365600Y-64505600D01*
X172810000Y-52215468D02*
X172500000Y-51905468D01*
X168695600Y-65775600D02*
X168695600Y-64505600D01*
X172000000Y-63871200D02*
X172000000Y-54309532D01*
X169325000Y-66405000D02*
X168695600Y-65775600D01*
X170036200Y-66405000D02*
X169325000Y-66405000D01*
X172000000Y-54309532D02*
X172810000Y-53499532D01*
X172000000Y-48000000D02*
X155087500Y-48000000D01*
X173000000Y-49000000D02*
X172000000Y-48000000D01*
%TO.N,Net-(J4-Pin_2)*%
X148365000Y-107135000D02*
X144000000Y-111500000D01*
X148365000Y-106065498D02*
X148365000Y-107135000D01*
%TO.N,SW5*%
X196100000Y-94400000D02*
X194900000Y-93200000D01*
X196100000Y-101317057D02*
X196100000Y-94400000D01*
X194402943Y-102020000D02*
X195397057Y-102020000D01*
X177600000Y-85217057D02*
X194402943Y-102020000D01*
X177600000Y-74269544D02*
X177600000Y-85217057D01*
X177255456Y-73925000D02*
X177600000Y-74269544D01*
X176769544Y-73925000D02*
X177255456Y-73925000D01*
X174155456Y-70000000D02*
X175050000Y-70894544D01*
X171444365Y-70000000D02*
X174155456Y-70000000D01*
X167400000Y-74044365D02*
X171444365Y-70000000D01*
X175050000Y-72205456D02*
X176769544Y-73925000D01*
X195397057Y-102020000D02*
X196100000Y-101317057D01*
X167400000Y-74955635D02*
X167400000Y-74044365D01*
X168044365Y-75600000D02*
X167400000Y-74955635D01*
X168955635Y-75600000D02*
X168044365Y-75600000D01*
X171436091Y-73119544D02*
X168955635Y-75600000D01*
X173000000Y-73119544D02*
X171436091Y-73119544D01*
X173000000Y-79400000D02*
X173000000Y-73119544D01*
X170700000Y-81700000D02*
X173000000Y-79400000D01*
X167150000Y-81700000D02*
X170700000Y-81700000D01*
X175050000Y-70894544D02*
X175050000Y-72205456D01*
X161450000Y-76000000D02*
X167150000Y-81700000D01*
%TO.N,Net-(J2-Pin_1)*%
X176000000Y-71412500D02*
X175912500Y-71500000D01*
X176000000Y-67441200D02*
X176000000Y-71412500D01*
X174963800Y-66405000D02*
X176000000Y-67441200D01*
%TO.N,Net-(J3-Pin_1)*%
X176000000Y-49500000D02*
X195717500Y-49500000D01*
X195717500Y-49500000D02*
X198545000Y-52327500D01*
X173500000Y-59792894D02*
X173500000Y-52000000D01*
X173500000Y-52000000D02*
X176000000Y-49500000D01*
X172500000Y-60792894D02*
X173500000Y-59792894D01*
X172500000Y-64500000D02*
X172500000Y-60792894D01*
X171865000Y-65135000D02*
X172500000Y-64500000D01*
X170036200Y-65135000D02*
X171865000Y-65135000D01*
%TO.N,3.3V*%
X164980456Y-74000000D02*
X164950000Y-74000000D01*
X175490861Y-50807500D02*
X174000000Y-52298361D01*
X174000000Y-52298361D02*
X174000000Y-60000000D01*
X173000000Y-65980456D02*
X164980456Y-74000000D01*
X190100000Y-53702044D02*
X187205456Y-50807500D01*
X173000000Y-61000000D02*
X173000000Y-65980456D01*
X190100000Y-62955635D02*
X190100000Y-53702044D01*
X187555635Y-65500000D02*
X190100000Y-62955635D01*
X174000000Y-60000000D02*
X173000000Y-61000000D01*
X184912500Y-65500000D02*
X187555635Y-65500000D01*
X187205456Y-50807500D02*
X175490861Y-50807500D01*
X164950000Y-74000000D02*
X164950000Y-70794544D01*
%TO.N,Net-(J2-Pin_1)*%
X174252600Y-66405000D02*
X174963800Y-66405000D01*
X173623200Y-63235600D02*
X173623200Y-65775600D01*
X173634400Y-63224400D02*
X173623200Y-63235600D01*
X173623200Y-63224400D02*
X173634400Y-63224400D01*
X174500000Y-61965600D02*
X173623200Y-61965600D01*
X174790000Y-52712734D02*
X174500000Y-53002734D01*
X175697968Y-51307500D02*
X174790000Y-52215468D01*
X174500000Y-53002734D02*
X174500000Y-61965600D01*
X184950000Y-51307500D02*
X175697968Y-51307500D01*
X174790000Y-52215468D02*
X174790000Y-52712734D01*
X173623200Y-65775600D02*
X174252600Y-66405000D01*
X186500000Y-52857500D02*
X184950000Y-51307500D01*
X173623200Y-61965600D02*
X173623200Y-63224400D01*
%TO.N,3.3V*%
X192087500Y-70000000D02*
X193087500Y-69000000D01*
X187412500Y-70000000D02*
X192087500Y-70000000D01*
X187412500Y-68000000D02*
X187412500Y-70000000D01*
X184912500Y-65500000D02*
X187412500Y-68000000D01*
%TO.N,Net-(J2-Pin_2)*%
X180587500Y-68702044D02*
X177020456Y-65135000D01*
X180587500Y-70500000D02*
X180587500Y-68702044D01*
%TO.N,SW2*%
X182000000Y-80500000D02*
X182000000Y-87920000D01*
X182000000Y-87920000D02*
X194900000Y-100820000D01*
X185550000Y-76450000D02*
X185550000Y-75000000D01*
X182000000Y-80000000D02*
X185550000Y-76450000D01*
X182000000Y-80500000D02*
X182000000Y-80000000D01*
X185587500Y-74962500D02*
X185550000Y-75000000D01*
X185587500Y-70000000D02*
X185587500Y-74962500D01*
X185087500Y-70500000D02*
X185587500Y-70000000D01*
X182412500Y-70500000D02*
X185087500Y-70500000D01*
%TO.N,SW_BUCK*%
X129500000Y-78000000D02*
X123500000Y-72000000D01*
X130950100Y-78000000D02*
X129500000Y-78000000D01*
X128150100Y-80800000D02*
X130950100Y-78000000D01*
X123769544Y-80800000D02*
X128150100Y-80800000D01*
X122994545Y-80025001D02*
X123769544Y-80800000D01*
X120844800Y-80025001D02*
X122994545Y-80025001D01*
%TO.N,Net-(U3-SS)*%
X124475000Y-83925000D02*
X125550000Y-85000000D01*
X120844800Y-83925000D02*
X124475000Y-83925000D01*
%TO.N,Net-(U3-EP)*%
X125575000Y-78875000D02*
X124500000Y-79950000D01*
X125230456Y-77200000D02*
X125575000Y-77544544D01*
X125575000Y-77544544D02*
X125575000Y-78875000D01*
X119328300Y-77200000D02*
X125230456Y-77200000D01*
X118000000Y-78528300D02*
X119328300Y-77200000D01*
X118000000Y-81000000D02*
X118000000Y-78528300D01*
%TO.N,SW_BUCK*%
X120844800Y-80025001D02*
X120844800Y-79375002D01*
X123174998Y-79375002D02*
X124500000Y-78050000D01*
X120844800Y-79375002D02*
X123174998Y-79375002D01*
%TO.N,SIM_RESET*%
X104680000Y-91300000D02*
X105880000Y-92500000D01*
X102842943Y-91300000D02*
X104680000Y-91300000D01*
X102140000Y-92002943D02*
X102842943Y-91300000D01*
X102140000Y-94347106D02*
X102140000Y-92002943D01*
X103792893Y-96000000D02*
X102140000Y-94347106D01*
X138500000Y-96000000D02*
X103792893Y-96000000D01*
X142000000Y-92500000D02*
X138500000Y-96000000D01*
X164000000Y-92500000D02*
X142000000Y-92500000D01*
X164950000Y-93450000D02*
X164000000Y-92500000D01*
X164950000Y-95705456D02*
X164950000Y-93450000D01*
X167524544Y-98280000D02*
X164950000Y-95705456D01*
X169500000Y-98280000D02*
X167524544Y-98280000D01*
%TO.N,Net-(J6-Pin_5)*%
X139800000Y-93700000D02*
X148912500Y-84587500D01*
X122320000Y-93700000D02*
X139800000Y-93700000D01*
X121120000Y-92500000D02*
X122320000Y-93700000D01*
X148912500Y-84587500D02*
X165000000Y-84587500D01*
%TO.N,GPS_RX*%
X166775000Y-88187500D02*
X166775000Y-90475000D01*
X166775000Y-90475000D02*
X169500000Y-93200000D01*
X165000000Y-86412500D02*
X166775000Y-88187500D01*
%TO.N,Net-(J3-Pin_1)*%
X195500000Y-55372500D02*
X198545000Y-52327500D01*
X195500000Y-62000000D02*
X195500000Y-55372500D01*
%TO.N,HOOD_SW*%
X195675000Y-64000000D02*
X193675000Y-62000000D01*
X198500000Y-64000000D02*
X195675000Y-64000000D01*
X199500000Y-63000000D02*
X198500000Y-64000000D01*
X199050000Y-63450000D02*
X199500000Y-63000000D01*
X199050000Y-68500000D02*
X199050000Y-63450000D01*
X198550000Y-69000000D02*
X199050000Y-68500000D01*
X194912500Y-69000000D02*
X198550000Y-69000000D01*
%TO.N,SW3*%
X186500000Y-89880000D02*
X186500000Y-68912500D01*
X194900000Y-98280000D02*
X186500000Y-89880000D01*
X186500000Y-68912500D02*
X183087500Y-65500000D01*
%TO.N,SW1*%
X176550000Y-85010000D02*
X176550000Y-75000000D01*
X194900000Y-103360000D02*
X176550000Y-85010000D01*
%TO.N,Net-(H1-Pin_2)*%
X203000000Y-80000000D02*
X203500000Y-79500000D01*
X200000000Y-80000000D02*
X203000000Y-80000000D01*
%TO.N,Net-(H1-Pin_1)*%
X198550000Y-104950000D02*
X200000000Y-103500000D01*
X198550000Y-116000000D02*
X198550000Y-104950000D01*
X198490000Y-116060000D02*
X198550000Y-116000000D01*
X194900000Y-116060000D02*
X198490000Y-116060000D01*
%TO.N,GPS_TX*%
X165912500Y-95000000D02*
X165912500Y-90000000D01*
%TO.N,Net-(D6-A)*%
X164087500Y-95000000D02*
X161937500Y-95000000D01*
%TO.N,GPS_TX*%
X166652500Y-95740000D02*
X165912500Y-95000000D01*
X169500000Y-95740000D02*
X166652500Y-95740000D01*
%TO.N,Net-(J4-Pin_7)*%
X164000000Y-120340000D02*
X168160000Y-124500000D01*
X164000000Y-115500000D02*
X164000000Y-120340000D01*
X156621133Y-106065498D02*
X164000000Y-113444365D01*
X164000000Y-113444365D02*
X164000000Y-115500000D01*
X154715000Y-106065498D02*
X156621133Y-106065498D01*
%TO.N,Net-(J4-Pin_6)*%
X159500000Y-120920000D02*
X163080000Y-124500000D01*
X159500000Y-111500000D02*
X159500000Y-120920000D01*
X160000000Y-111000000D02*
X159500000Y-111500000D01*
X153445000Y-107055824D02*
X157389176Y-111000000D01*
X153445000Y-106065498D02*
X153445000Y-107055824D01*
X157389176Y-111000000D02*
X160000000Y-111000000D01*
%TO.N,Net-(J4-Pin_5)*%
X156000000Y-115500000D02*
X156000000Y-122500000D01*
X156000000Y-122500000D02*
X158000000Y-124500000D01*
X152175000Y-107055824D02*
X156000000Y-110880824D01*
X152175000Y-106065498D02*
X152175000Y-107055824D01*
X156000000Y-110880824D02*
X156000000Y-115500000D01*
%TO.N,Net-(J4-Pin_4)*%
X152000000Y-123580000D02*
X152920000Y-124500000D01*
X152000000Y-111500000D02*
X152000000Y-123580000D01*
X150905000Y-110405000D02*
X152000000Y-111500000D01*
X150905000Y-106065498D02*
X150905000Y-110405000D01*
%TO.N,Net-(J4-Pin_3)*%
X149635000Y-113865000D02*
X149635000Y-106065498D01*
X148000000Y-115500000D02*
X149635000Y-113865000D01*
X147840000Y-115660000D02*
X148000000Y-115500000D01*
X147840000Y-124500000D02*
X147840000Y-115660000D01*
%TO.N,Net-(J4-Pin_2)*%
X142760000Y-112740000D02*
X144000000Y-111500000D01*
X142760000Y-124500000D02*
X142760000Y-112740000D01*
%TO.N,Net-(J4-Pin_1)*%
X147095000Y-107055824D02*
X147095000Y-106065498D01*
X146433934Y-107716890D02*
X147095000Y-107055824D01*
X144500000Y-107716890D02*
X146433934Y-107716890D01*
X140000000Y-115500000D02*
X140000000Y-112216890D01*
X140000000Y-112216890D02*
X144500000Y-107716890D01*
X137680000Y-117820000D02*
X140000000Y-115500000D01*
X137680000Y-124500000D02*
X137680000Y-117820000D01*
%TO.N,3.3V*%
X160637500Y-70450000D02*
X159587500Y-71500000D01*
X164950000Y-70794544D02*
X164605456Y-70450000D01*
X164605456Y-70450000D02*
X160637500Y-70450000D01*
X169500000Y-80500000D02*
X164950000Y-75950000D01*
X164950000Y-75950000D02*
X164950000Y-74000000D01*
X172087500Y-77912500D02*
X169500000Y-80500000D01*
X172087500Y-75000000D02*
X172087500Y-77912500D01*
%TO.N,SW1*%
X171500000Y-71500000D02*
X174087500Y-71500000D01*
X168500000Y-74500000D02*
X171500000Y-71500000D01*
X173912500Y-75000000D02*
X176550000Y-75000000D01*
X174087500Y-74825000D02*
X173912500Y-75000000D01*
X174087500Y-71500000D02*
X174087500Y-74825000D01*
%TO.N,SW3*%
X180087500Y-62500000D02*
X183087500Y-65500000D01*
X179912500Y-62500000D02*
X180087500Y-62500000D01*
X186425000Y-59925000D02*
X189000000Y-62500000D01*
X184125000Y-59925000D02*
X186425000Y-59925000D01*
X183050000Y-61000000D02*
X184125000Y-59925000D01*
X181550000Y-62500000D02*
X183050000Y-61000000D01*
X179912500Y-62500000D02*
X181550000Y-62500000D01*
%TO.N,Net-(J2-Pin_2)*%
X178950000Y-63205456D02*
X178950000Y-55327500D01*
X177020456Y-65135000D02*
X178950000Y-63205456D01*
X174963800Y-65135000D02*
X177020456Y-65135000D01*
X178950000Y-55327500D02*
X181420000Y-52857500D01*
%TO.N,Net-(J2-Pin_3)*%
X178087500Y-54605000D02*
X176340000Y-52857500D01*
X178087500Y-62500000D02*
X178087500Y-54605000D01*
X177000000Y-62500000D02*
X178087500Y-62500000D01*
X174963800Y-63865000D02*
X175635000Y-63865000D01*
X175635000Y-63865000D02*
X177000000Y-62500000D01*
%TO.N,SW5*%
X161412500Y-71500000D02*
X161412500Y-75962500D01*
X161412500Y-75962500D02*
X161450000Y-76000000D01*
X155000000Y-73000000D02*
X154500000Y-72500000D01*
X159912500Y-73000000D02*
X155000000Y-73000000D01*
X161412500Y-71500000D02*
X159912500Y-73000000D01*
%TO.N,3.3V*%
X159587500Y-71500000D02*
X159587500Y-67000000D01*
%TO.N,SW5*%
X164087500Y-71500000D02*
X161412500Y-71500000D01*
%TO.N,Net-(J2-Pin_5)*%
X165050000Y-53987500D02*
X166180000Y-52857500D01*
X165050000Y-63205456D02*
X165050000Y-53987500D01*
X170036200Y-63865000D02*
X165709544Y-63865000D01*
X165709544Y-63865000D02*
X165050000Y-63205456D01*
%TO.N,Net-(J2-Pin_4)*%
X170036200Y-54081300D02*
X171260000Y-52857500D01*
X170036200Y-62595000D02*
X170036200Y-54081300D01*
%TO.N,Net-(J2-Pin_5)*%
X165912500Y-65592500D02*
X165912500Y-71500000D01*
X167640000Y-63865000D02*
X165912500Y-65592500D01*
X170036200Y-63865000D02*
X167640000Y-63865000D01*
%TO.N,Net-(J2-Pin_4)*%
X169941200Y-62500000D02*
X170036200Y-62595000D01*
X165912500Y-62500000D02*
X169941200Y-62500000D01*
%TO.N,SW4*%
X161450000Y-62500000D02*
X164087500Y-62500000D01*
X161450000Y-66962500D02*
X161412500Y-67000000D01*
X161450000Y-62500000D02*
X161450000Y-66962500D01*
X159700000Y-64250000D02*
X161450000Y-62500000D01*
X156250000Y-64250000D02*
X159700000Y-64250000D01*
X155500000Y-63500000D02*
X156250000Y-64250000D01*
%TO.N,+5V_MAIN*%
D42*
X142587500Y-76512300D02*
X142587500Y-60500000D01*
X142049900Y-78000000D02*
X142049900Y-77049900D01*
X142049900Y-77049900D02*
X142587500Y-76512300D01*
%TO.N,Net-(U3-FB)*%
X111912500Y-82800000D02*
X112737501Y-81974999D01*
X111912500Y-83500000D02*
X111912500Y-82800000D01*
X112737501Y-81974999D02*
X114016201Y-81974999D01*
%TO.N,Net-(U3-RAMP)*%
D43*
X114044000Y-87994000D02*
X114550000Y-88500000D01*
X114044000Y-83347198D02*
X114044000Y-87994000D01*
X114116199Y-83274999D02*
X114044000Y-83347198D01*
X115155200Y-83274999D02*
X114116199Y-83274999D01*
%TO.N,Net-(U3-RT)*%
X113000000Y-85087500D02*
X113000000Y-83000000D01*
X113375002Y-82624998D02*
X115155200Y-82624998D01*
X110087500Y-88000000D02*
X113000000Y-85087500D01*
X113000000Y-83000000D02*
X113375002Y-82624998D01*
%TO.N,+5V_MAIN*%
D42*
X98950000Y-87050000D02*
X98000000Y-88000000D01*
X98950000Y-83500000D02*
X98950000Y-87050000D01*
X98950000Y-79000000D02*
X98950000Y-83500000D01*
X100125000Y-77825000D02*
X98950000Y-79000000D01*
X103775000Y-77825000D02*
X100125000Y-77825000D01*
X104950000Y-79000000D02*
X103775000Y-77825000D01*
X104950000Y-79000000D02*
X104950000Y-84648250D01*
X104950000Y-84648250D02*
X105301750Y-85000000D01*
X110087500Y-79000000D02*
X104950000Y-79000000D01*
%TO.N,Net-(U3-FB)*%
X111912500Y-79871298D02*
X111912500Y-79000000D01*
X115155200Y-81974999D02*
X114016201Y-81974999D01*
X114016201Y-81974999D02*
X111912500Y-79871298D01*
%TO.N,Net-(U3-VCC)*%
X115050000Y-77897600D02*
X115155200Y-78002800D01*
X115050000Y-73000000D02*
X115050000Y-77897600D01*
%TO.N,VBAT_PROTECTED*%
D44*
X115155200Y-79374999D02*
X115155200Y-78952800D01*
X115155200Y-79374999D02*
X115155200Y-79797199D01*
X113744000Y-78952800D02*
X115155200Y-78952800D01*
X113125000Y-77175000D02*
X113125000Y-78333800D01*
X109450000Y-73500000D02*
X113125000Y-77175000D01*
X113125000Y-78333800D02*
X113744000Y-78952800D01*
X109450000Y-67987500D02*
X109450000Y-73500000D01*
X108500000Y-67037500D02*
X109450000Y-67987500D01*
X102935892Y-68243200D02*
X102000000Y-67307308D01*
X102000000Y-67307308D02*
X102000000Y-66854200D01*
X107294300Y-68243200D02*
X102935892Y-68243200D01*
X108500000Y-67037500D02*
X107294300Y-68243200D01*
X108537500Y-67000000D02*
X108500000Y-67037500D01*
X115000000Y-67000000D02*
X108537500Y-67000000D01*
%TO.N,VBAT_FUSED*%
X121000000Y-67000000D02*
X119000000Y-67000000D01*
X127950000Y-60050000D02*
X121000000Y-67000000D01*
X128000000Y-60050000D02*
X127950000Y-60050000D01*
X119900000Y-60050000D02*
X118950000Y-61000000D01*
X128000000Y-60050000D02*
X119900000Y-60050000D01*
X128000000Y-58000000D02*
X135500000Y-50500000D01*
X128000000Y-60050000D02*
X128000000Y-58000000D01*
%TO.N,Net-(J1-Pin_1)*%
X114217500Y-50000000D02*
X105500000Y-50000000D01*
X116545000Y-52327500D02*
X114217500Y-50000000D01*
X127722500Y-52327500D02*
X128000000Y-52050000D01*
X116545000Y-52327500D02*
X127722500Y-52327500D01*
%TO.N,Net-(D4-A)*%
D41*
X144412500Y-60500000D02*
X148562500Y-60500000D01*
%TO.N,+5V_MAIN*%
X155087500Y-48000000D02*
X142587500Y-60500000D01*
%TD*%
M02*
