%TF.GenerationSoftware,KiCad,Pcbnew,10.0.1*%
%TF.CreationDate,2026-05-28T23:20:21-07:00*%
%TF.ProjectId,Jeep_Embedded_Controls_Main,4a656570-5f45-46d6-9265-646465645f43,Initial Design*%
%TF.SameCoordinates,Original*%
%TF.FileFunction,Soldermask,Top*%
%TF.FilePolarity,Negative*%
%FSLAX46Y46*%
G04 Gerber Fmt 4.6, Leading zero omitted, Abs format (unit mm)*
G04 Created by KiCad (PCBNEW 10.0.1) date 2026-05-28 23:20:21*
%MOMM*%
%LPD*%
G01*
G04 APERTURE LIST*
G04 Aperture macros list*
%AMRoundRect*
0 Rectangle with rounded corners*
0 $1 Rounding radius*
0 $2 $3 $4 $5 $6 $7 $8 $9 X,Y pos of 4 corners*
0 Add a 4 corners polygon primitive as box body*
4,1,4,$2,$3,$4,$5,$6,$7,$8,$9,$2,$3,0*
0 Add four circle primitives for the rounded corners*
1,1,$1+$1,$2,$3*
1,1,$1+$1,$4,$5*
1,1,$1+$1,$6,$7*
1,1,$1+$1,$8,$9*
0 Add four rect primitives between the rounded corners*
20,1,$1+$1,$2,$3,$4,$5,0*
20,1,$1+$1,$4,$5,$6,$7,0*
20,1,$1+$1,$6,$7,$8,$9,0*
20,1,$1+$1,$8,$9,$2,$3,0*%
G04 Aperture macros list end*
%ADD10C,2.200000*%
%ADD11RoundRect,0.250000X-0.262500X-0.450000X0.262500X-0.450000X0.262500X0.450000X-0.262500X0.450000X0*%
%ADD12RoundRect,0.243750X0.243750X0.456250X-0.243750X0.456250X-0.243750X-0.456250X0.243750X-0.456250X0*%
%ADD13RoundRect,0.250000X0.450000X-0.262500X0.450000X0.262500X-0.450000X0.262500X-0.450000X-0.262500X0*%
%ADD14RoundRect,0.250000X0.262500X0.450000X-0.262500X0.450000X-0.262500X-0.450000X0.262500X-0.450000X0*%
%ADD15RoundRect,0.250000X-0.650000X1.000000X-0.650000X-1.000000X0.650000X-1.000000X0.650000X1.000000X0*%
%ADD16RoundRect,0.250000X-1.000000X-0.650000X1.000000X-0.650000X1.000000X0.650000X-1.000000X0.650000X0*%
%ADD17C,1.500000*%
%ADD18RoundRect,0.250000X0.250000X0.475000X-0.250000X0.475000X-0.250000X-0.475000X0.250000X-0.475000X0*%
%ADD19RoundRect,0.250000X-0.250000X-0.475000X0.250000X-0.475000X0.250000X0.475000X-0.250000X0.475000X0*%
%ADD20C,2.600000*%
%ADD21RoundRect,0.250000X1.050000X1.050000X-1.050000X1.050000X-1.050000X-1.050000X1.050000X-1.050000X0*%
%ADD22R,1.700000X1.700000*%
%ADD23C,1.700000*%
%ADD24RoundRect,0.250000X0.475000X-0.250000X0.475000X0.250000X-0.475000X0.250000X-0.475000X-0.250000X0*%
%ADD25RoundRect,0.243750X0.456250X-0.243750X0.456250X0.243750X-0.456250X0.243750X-0.456250X-0.243750X0*%
%ADD26R,3.098800X5.003800*%
%ADD27R,1.422400X0.355600*%
%ADD28R,3.149600X4.343400*%
%ADD29R,2.184400X2.184400*%
%ADD30RoundRect,0.102000X0.990600X0.279400X-0.990600X0.279400X-0.990600X-0.279400X0.990600X-0.279400X0*%
%ADD31R,1.612900X2.692400*%
%ADD32RoundRect,0.243750X-0.243750X-0.456250X0.243750X-0.456250X0.243750X0.456250X-0.243750X0.456250X0*%
%ADD33O,3.800000X5.500000*%
%ADD34O,3.800000X5.300000*%
%ADD35RoundRect,0.250000X0.550000X-1.412500X0.550000X1.412500X-0.550000X1.412500X-0.550000X-1.412500X0*%
%ADD36R,0.622132X2.602784*%
%ADD37C,2.400000*%
%ADD38RoundRect,0.250001X0.949999X0.949999X-0.949999X0.949999X-0.949999X-0.949999X0.949999X-0.949999X0*%
%ADD39RoundRect,0.250000X-1.050000X-1.050000X1.050000X-1.050000X1.050000X1.050000X-1.050000X1.050000X0*%
G04 APERTURE END LIST*
D10*
%TO.C,REF\u002A\u002A*%
X204500000Y-126000000D03*
%TD*%
%TO.C,REF\u002A\u002A*%
X205500000Y-50500000D03*
%TD*%
%TO.C,REF\u002A\u002A*%
X95500000Y-51000000D03*
%TD*%
%TO.C,REF\u002A\u002A*%
X95500000Y-126000000D03*
%TD*%
D11*
%TO.C,R20*%
X142587500Y-60500000D03*
X144412500Y-60500000D03*
%TD*%
D12*
%TO.C,D4*%
X148562500Y-60500000D03*
X150437500Y-60500000D03*
%TD*%
D13*
%TO.C,R24*%
X165000000Y-84587500D03*
X165000000Y-86412500D03*
%TD*%
D14*
%TO.C,R25*%
X164087500Y-90000000D03*
X165912500Y-90000000D03*
%TD*%
D15*
%TO.C,D2*%
X96500000Y-66500000D03*
X96500000Y-62500000D03*
%TD*%
D16*
%TO.C,D1*%
X119000000Y-67000000D03*
X115000000Y-67000000D03*
%TD*%
D14*
%TO.C,R13*%
X159587500Y-67000000D03*
X161412500Y-67000000D03*
%TD*%
D17*
%TO.C,TP18*%
X144000000Y-111500000D03*
%TD*%
D18*
%TO.C,C10*%
X198550000Y-116000000D03*
X200450000Y-116000000D03*
%TD*%
D19*
%TO.C,C17*%
X200950000Y-68500000D03*
X199050000Y-68500000D03*
%TD*%
D11*
%TO.C,R10*%
X179912500Y-62500000D03*
X178087500Y-62500000D03*
%TD*%
D20*
%TO.C,J3*%
X193465000Y-52327500D03*
D21*
X198545000Y-52327500D03*
%TD*%
D22*
%TO.C,H2*%
X169500000Y-80500000D03*
D23*
X169500000Y-83040000D03*
X169500000Y-85580000D03*
X169500000Y-88120000D03*
X169500000Y-90660000D03*
X169500000Y-93200000D03*
X169500000Y-95740000D03*
X169500000Y-98280000D03*
X169500000Y-100820000D03*
X169500000Y-103360000D03*
X169500000Y-105900000D03*
X169500000Y-108440000D03*
X169500000Y-110980000D03*
X169500000Y-113520000D03*
X169500000Y-116060000D03*
%TD*%
D24*
%TO.C,C4*%
X124500000Y-79950000D03*
X124500000Y-78050000D03*
%TD*%
D17*
%TO.C,TP6*%
X123500000Y-72000000D03*
%TD*%
D18*
%TO.C,C3*%
X116450000Y-88500000D03*
X114550000Y-88500000D03*
%TD*%
D17*
%TO.C,TP21*%
X203500000Y-79500000D03*
%TD*%
D14*
%TO.C,R6*%
X174087500Y-71500000D03*
X175912500Y-71500000D03*
%TD*%
D13*
%TO.C,R21*%
X164500000Y-104587500D03*
X164500000Y-106412500D03*
%TD*%
D19*
%TO.C,C13*%
X187450000Y-75000000D03*
X185550000Y-75000000D03*
%TD*%
D17*
%TO.C,TP8*%
X182000000Y-80500000D03*
%TD*%
D25*
%TO.C,D7*%
X162000000Y-99062500D03*
X162000000Y-100937500D03*
%TD*%
D17*
%TO.C,TP16*%
X152000000Y-111500000D03*
%TD*%
%TO.C,TP14*%
X160000000Y-111000000D03*
%TD*%
D14*
%TO.C,R4*%
X201087500Y-95000000D03*
X202912500Y-95000000D03*
%TD*%
D26*
%TO.C,L1*%
X142049900Y-78000000D03*
X130950100Y-78000000D03*
%TD*%
D17*
%TO.C,TP5*%
X101000000Y-50000000D03*
%TD*%
D18*
%TO.C,C19*%
X98950000Y-83500000D03*
X97050000Y-83500000D03*
%TD*%
D27*
%TO.C,U3*%
X115155200Y-78075000D03*
X115155200Y-78725001D03*
X115155200Y-79374999D03*
X115155200Y-80025001D03*
X115155200Y-80674999D03*
X115155200Y-81324998D03*
X115155200Y-81974999D03*
X115155200Y-82624998D03*
X115155200Y-83274999D03*
X115155200Y-83924998D03*
X120844800Y-83925000D03*
X120844800Y-83275002D03*
X120844800Y-82625001D03*
X120844800Y-81975002D03*
X120844800Y-81325001D03*
X120844800Y-80675002D03*
X120844800Y-80025001D03*
X120844800Y-79375002D03*
X120844800Y-78725001D03*
X120844800Y-78075002D03*
D28*
X118000000Y-81000000D03*
%TD*%
D29*
%TO.C,D3*%
X102000000Y-66854200D03*
X102000000Y-63145800D03*
%TD*%
D17*
%TO.C,TP12*%
X199500000Y-63000000D03*
%TD*%
D11*
%TO.C,R1*%
X110087500Y-79000000D03*
X111912500Y-79000000D03*
%TD*%
D30*
%TO.C,U5*%
X170036200Y-66405000D03*
X170036200Y-65135000D03*
X170036200Y-63865000D03*
X170036200Y-62595000D03*
X174963800Y-62595000D03*
X174963800Y-63865000D03*
X174963800Y-65135000D03*
X174963800Y-66405000D03*
%TD*%
D19*
%TO.C,C11*%
X200450000Y-75000000D03*
X198550000Y-75000000D03*
%TD*%
D31*
%TO.C,C9*%
X105301750Y-85000000D03*
X102698250Y-85000000D03*
%TD*%
D11*
%TO.C,R5*%
X200000000Y-80000000D03*
X198175000Y-80000000D03*
%TD*%
D14*
%TO.C,R12*%
X164087500Y-62500000D03*
X165912500Y-62500000D03*
%TD*%
D17*
%TO.C,TP17*%
X148000000Y-115500000D03*
%TD*%
D11*
%TO.C,R8*%
X182412500Y-70500000D03*
X180587500Y-70500000D03*
%TD*%
D13*
%TO.C,R23*%
X164500000Y-99087500D03*
X164500000Y-100912500D03*
%TD*%
D32*
%TO.C,D6*%
X161937500Y-95000000D03*
X160062500Y-95000000D03*
%TD*%
D19*
%TO.C,C12*%
X178450000Y-75000000D03*
X176550000Y-75000000D03*
%TD*%
D17*
%TO.C,TP19*%
X140000000Y-115500000D03*
%TD*%
D22*
%TO.C,J6*%
X131280000Y-92500000D03*
D23*
X128740000Y-92500000D03*
X126200000Y-92500000D03*
X123660000Y-92500000D03*
X121120000Y-92500000D03*
X118580000Y-92500000D03*
X116040000Y-92500000D03*
X113500000Y-92500000D03*
X110960000Y-92500000D03*
X108420000Y-92500000D03*
X105880000Y-92500000D03*
X103340000Y-92500000D03*
X100800000Y-92500000D03*
%TD*%
D17*
%TO.C,TP20*%
X200000000Y-103500000D03*
%TD*%
D19*
%TO.C,C2*%
X125550000Y-85000000D03*
X127450000Y-85000000D03*
%TD*%
D33*
%TO.C,F1*%
X128000000Y-52050000D03*
D34*
X128000000Y-60050000D03*
%TD*%
D22*
%TO.C,H1*%
X194900000Y-116060000D03*
D23*
X194900000Y-113520000D03*
X194900000Y-110980000D03*
X194900000Y-108440000D03*
X194900000Y-105900000D03*
X194900000Y-103360000D03*
X194900000Y-100820000D03*
X194900000Y-98280000D03*
X194900000Y-95740000D03*
X194900000Y-93200000D03*
X194900000Y-90660000D03*
X194900000Y-88120000D03*
X194900000Y-85580000D03*
X194900000Y-83040000D03*
X194900000Y-80500000D03*
%TD*%
D17*
%TO.C,TP3*%
X100000000Y-56500000D03*
%TD*%
D35*
%TO.C,C7*%
X108500000Y-67037500D03*
X108500000Y-61962500D03*
%TD*%
D25*
%TO.C,D5*%
X162000000Y-104562500D03*
X162000000Y-106437500D03*
%TD*%
D17*
%TO.C,TP11*%
X154500000Y-72500000D03*
%TD*%
D19*
%TO.C,C14*%
X184950000Y-61000000D03*
X183050000Y-61000000D03*
%TD*%
D18*
%TO.C,C15*%
X159550000Y-62500000D03*
X161450000Y-62500000D03*
%TD*%
D17*
%TO.C,TP10*%
X155500000Y-63500000D03*
%TD*%
%TO.C,TP15*%
X156000000Y-115500000D03*
%TD*%
%TO.C,TP4*%
X98000000Y-88000000D03*
%TD*%
D14*
%TO.C,R7*%
X172087500Y-75000000D03*
X173912500Y-75000000D03*
%TD*%
%TO.C,R17*%
X193087500Y-69000000D03*
X194912500Y-69000000D03*
%TD*%
D18*
%TO.C,C5*%
X116950000Y-73000000D03*
X115050000Y-73000000D03*
%TD*%
D17*
%TO.C,TP2*%
X135500000Y-50500000D03*
%TD*%
D36*
%TO.C,U4*%
X154715000Y-106065498D03*
X153445000Y-106065498D03*
X152175000Y-106065498D03*
X150905000Y-106065498D03*
X149635000Y-106065498D03*
X148365000Y-106065498D03*
X147095000Y-106065498D03*
X145825000Y-106065498D03*
X144555000Y-106065498D03*
X143285000Y-106065498D03*
X143285000Y-96934505D03*
X144555000Y-96934505D03*
X145825000Y-96934505D03*
X147095000Y-96934505D03*
X148365000Y-96934505D03*
X149635000Y-96934505D03*
X150905000Y-96934505D03*
X152175000Y-96934505D03*
X153445000Y-96934505D03*
X154715000Y-96934505D03*
%TD*%
D18*
%TO.C,C1*%
X118950000Y-61000000D03*
X117050000Y-61000000D03*
%TD*%
D17*
%TO.C,TP1*%
X105500000Y-50000000D03*
%TD*%
D21*
%TO.C,J1*%
X116545000Y-52327500D03*
D20*
X111465000Y-52327500D03*
%TD*%
D37*
%TO.C,J2*%
X161100000Y-52857500D03*
X166180000Y-52857500D03*
X171260000Y-52857500D03*
X176340000Y-52857500D03*
X181420000Y-52857500D03*
D38*
X186500000Y-52857500D03*
%TD*%
D18*
%TO.C,C8*%
X104950000Y-79000000D03*
X103050000Y-79000000D03*
%TD*%
D17*
%TO.C,TP9*%
X189000000Y-62500000D03*
%TD*%
D18*
%TO.C,C16*%
X159550000Y-76000000D03*
X161450000Y-76000000D03*
%TD*%
D17*
%TO.C,TP7*%
X168500000Y-74500000D03*
%TD*%
D14*
%TO.C,R3*%
X111912500Y-88000000D03*
X110087500Y-88000000D03*
%TD*%
%TO.C,R16*%
X193675000Y-62000000D03*
X195500000Y-62000000D03*
%TD*%
D11*
%TO.C,R22*%
X165912500Y-95000000D03*
X164087500Y-95000000D03*
%TD*%
%TO.C,R11*%
X184912500Y-65500000D03*
X183087500Y-65500000D03*
%TD*%
D18*
%TO.C,C6*%
X109450000Y-73500000D03*
X107550000Y-73500000D03*
%TD*%
D14*
%TO.C,R14*%
X164087500Y-71500000D03*
X165912500Y-71500000D03*
%TD*%
D17*
%TO.C,TP13*%
X164000000Y-115500000D03*
%TD*%
D14*
%TO.C,R15*%
X159587500Y-71500000D03*
X161412500Y-71500000D03*
%TD*%
D11*
%TO.C,R9*%
X187412500Y-70000000D03*
X185587500Y-70000000D03*
%TD*%
%TO.C,R2*%
X110087500Y-83500000D03*
X111912500Y-83500000D03*
%TD*%
D22*
%TO.C,J7*%
X100805000Y-128060000D03*
D23*
X103345000Y-128060000D03*
X105885000Y-128060000D03*
X108425000Y-128060000D03*
X110965000Y-128060000D03*
X113505000Y-128060000D03*
X116045000Y-128060000D03*
X118585000Y-128060000D03*
X121125000Y-128060000D03*
X123665000Y-128060000D03*
X126205000Y-128060000D03*
X128745000Y-128060000D03*
X131285000Y-128060000D03*
%TD*%
D18*
%TO.C,C18*%
X98950000Y-79000000D03*
X97050000Y-79000000D03*
%TD*%
D39*
%TO.C,J4*%
X137680000Y-124500000D03*
D20*
X142760000Y-124500000D03*
X147840000Y-124500000D03*
X152920000Y-124500000D03*
X158000000Y-124500000D03*
X163080000Y-124500000D03*
X168160000Y-124500000D03*
X173240000Y-124500000D03*
%TD*%
M02*
