M48
; DRILL file KiCad 10.0.1 date 2026-05-28T23:20:26
; FORMAT={-:-/ absolute / metric / decimal}
; #@! TF.CreationDate,2026-05-28T23:20:26-07:00
; #@! TF.GenerationSoftware,Kicad,Pcbnew,10.0.1
; #@! TF.FileFunction,Plated,1,2,PTH
FMAT,2
METRIC
; #@! TA.AperFunction,Plated,PTH,ViaDrill
T1C0.300
; #@! TA.AperFunction,Plated,PTH,ComponentDrill
T2C1.000
; #@! TA.AperFunction,Plated,PTH,ComponentDrill
T3C1.300
; #@! TA.AperFunction,Plated,PTH,ComponentDrill
T4C1.600
; #@! TA.AperFunction,Plated,PTH,ComponentDrill
T5C2.000
%
G90
G05
T1
X96.5Y-62.5
X97.05Y-79.0
X97.05Y-83.5
X101.0Y-50.0
X102.0Y-63.146
X102.698Y-85.0
X103.05Y-79.0
X107.55Y-73.5
X108.5Y-61.962
X110.087Y-83.5
X111.912Y-88.0
X116.45Y-88.5
X116.95Y-73.0
X117.05Y-61.0
X120.845Y-81.325
X120.845Y-81.975
X127.45Y-85.0
X144.555Y-96.935
X150.438Y-60.5
X159.55Y-62.5
X159.55Y-76.0
X160.062Y-95.0
X162.0Y-100.938
X162.0Y-106.438
X174.964Y-62.595
X178.45Y-75.0
X184.95Y-61.0
X187.45Y-75.0
X200.45Y-75.0
X200.45Y-116.0
X200.95Y-68.5
T2
X100.8Y-92.5
X100.805Y-128.06
X103.34Y-92.5
X103.345Y-128.06
X105.88Y-92.5
X105.885Y-128.06
X108.42Y-92.5
X108.425Y-128.06
X110.96Y-92.5
X110.965Y-128.06
X113.5Y-92.5
X113.505Y-128.06
X116.04Y-92.5
X116.045Y-128.06
X118.58Y-92.5
X118.585Y-128.06
X121.12Y-92.5
X121.125Y-128.06
X123.66Y-92.5
X123.665Y-128.06
X126.2Y-92.5
X126.205Y-128.06
X128.74Y-92.5
X128.745Y-128.06
X131.28Y-92.5
X131.285Y-128.06
X169.5Y-80.5
X169.5Y-83.04
X169.5Y-85.58
X169.5Y-88.12
X169.5Y-90.66
X169.5Y-93.2
X169.5Y-95.74
X169.5Y-98.28
X169.5Y-100.82
X169.5Y-103.36
X169.5Y-105.9
X169.5Y-108.44
X169.5Y-110.98
X169.5Y-113.52
X169.5Y-116.06
X194.9Y-80.5
X194.9Y-83.04
X194.9Y-85.58
X194.9Y-88.12
X194.9Y-90.66
X194.9Y-93.2
X194.9Y-95.74
X194.9Y-98.28
X194.9Y-100.82
X194.9Y-103.36
X194.9Y-105.9
X194.9Y-108.44
X194.9Y-110.98
X194.9Y-113.52
X194.9Y-116.06
T3
X111.465Y-52.328
X116.545Y-52.328
X137.68Y-124.5
X142.76Y-124.5
X147.84Y-124.5
X152.92Y-124.5
X158.0Y-124.5
X163.08Y-124.5
X168.16Y-124.5
X173.24Y-124.5
X193.465Y-52.328
X198.545Y-52.328
T4
X161.1Y-52.857
X166.18Y-52.857
X171.26Y-52.857
X176.34Y-52.857
X181.42Y-52.857
X186.5Y-52.857
T5
G00X128.0Y-51.3
M15
G01X128.0Y-52.8
M16
G05
G00X128.0Y-59.3
M15
G01X128.0Y-60.8
M16
G05
M30
